<svg width="42" height="105" viewBox="0 0 42 105" fill="none" xmlns="http://www.w3.org/2000/svg">
<path d="M19.207 31.85L17.5999 33.0188C15.2623 34.6745 12.6813 35.2102 9.85668 34.6258C7.03211 34.0414 4.84063 32.4831 3.28224 29.9507C1.62646 27.4183 1.09076 24.6911 1.67516 21.7692C2.25955 18.7498 3.72054 16.4122 6.05811 14.7564L21.5446 3.50683C22.7134 2.63024 24.0769 1.94845 25.6353 1.46145C27.1937 0.974458 28.6547 0.730961 30.0183 0.730961C33.1351 0.730961 35.7648 1.80235 37.9076 3.94513C40.0504 6.08791 41.1218 8.66899 41.1218 11.6884V93.5036C41.1218 96.523 40.0504 99.104 37.9076 101.247C35.7648 103.39 33.1838 104.461 30.1644 104.461C27.145 104.461 24.5639 103.39 22.4212 101.247C20.2784 99.104 19.207 96.523 19.207 93.5036V31.85Z" fill="#FF0199"/>
</svg>
