<svg width="24" height="25" viewBox="0 0 24 25" fill="none" xmlns="http://www.w3.org/2000/svg">
<circle cx="11.9999" cy="12.4674" r="5.98291" fill="white"/>
<path fill-rule="evenodd" clip-rule="evenodd" d="M12.6414 21.672C14.54 20.6827 19.9999 17.4501 19.9999 12.989V9.20661C19.9999 8.4071 19.9999 8.00734 19.8692 7.66371C19.7537 7.36015 19.566 7.08928 19.3223 6.87454C19.0464 6.63145 18.6721 6.49108 17.9235 6.21035L12.5617 4.19968C12.3538 4.12172 12.2499 4.08274 12.143 4.06729C12.0481 4.05358 11.9518 4.05358 11.8569 4.06729C11.75 4.08274 11.646 4.12172 11.4381 4.19968L6.07634 6.21035C5.32774 6.49108 4.95343 6.63145 4.6776 6.87454C4.43392 7.08928 4.24621 7.36015 4.1307 7.66371C3.99994 8.00734 3.99994 8.4071 3.99994 9.20661V12.989C3.99994 17.4501 9.4599 20.6827 11.3585 21.672C11.5639 21.779 11.6666 21.8325 11.809 21.8602C11.9199 21.8818 12.0799 21.8818 12.1909 21.8602C12.3333 21.8325 12.436 21.779 12.6414 21.672ZM9.25408 10.9257C10.1308 10.2122 11.2978 10.4218 11.9975 11.2009C12.6973 10.4218 13.8492 10.2197 14.741 10.9257C15.6328 11.6316 15.7412 12.832 15.0527 13.6758C14.664 14.1522 13.7404 14.9873 13.0098 15.6243C12.6633 15.9264 12.49 16.0775 12.2804 16.1393C12.1018 16.192 11.8933 16.192 11.7146 16.1393C11.5051 16.0775 11.3318 15.9264 10.9853 15.6243C10.2547 14.9873 9.33113 14.1522 8.94241 13.6758C8.25388 12.832 8.37731 11.6391 9.25408 10.9257Z" fill="#FF0199"/>
</svg>
