<svg width="152" height="47" viewBox="0 0 152 47" fill="none" xmlns="http://www.w3.org/2000/svg">
<path d="M142.875 21.7746V12.0547H147.565C148.474 12.0547 149.258 12.2028 149.917 12.499C150.585 12.7953 151.1 13.2211 151.462 13.7765C151.823 14.3227 152.004 14.9707 152.004 15.7205C152.004 16.4703 151.823 17.1183 151.462 17.6644C151.1 18.2106 150.585 18.6364 149.917 18.9419C149.258 19.2381 148.474 19.3863 147.565 19.3863H144.698L146.159 17.9838V21.7746H142.875ZM146.159 18.3448L144.698 16.8591H147.356C147.811 16.8591 148.145 16.7573 148.358 16.5536C148.581 16.3499 148.692 16.0722 148.692 15.7205C148.692 15.3687 148.581 15.091 148.358 14.8873C148.145 14.6837 147.811 14.5819 147.356 14.5819H144.698L146.159 13.0961V18.3448Z" fill="white"/>
<path d="M137.031 15.6649H141.375V18.0255H137.031V15.6649ZM137.254 19.3029H142.127V21.7746H134.023V12.0547H141.946V14.5263H137.254V19.3029Z" fill="white"/>
<path d="M123.625 21.7746V12.0547H133.073V21.7746H129.835V13.9015L130.547 14.5957H126.151L126.863 13.9015V21.7746H123.625Z" fill="white"/>
<path d="M110.25 22.0215C109.471 22.0215 108.747 21.9009 108.078 21.6599C107.419 21.4097 106.844 21.0574 106.352 20.6032C105.869 20.149 105.493 19.6114 105.224 18.9904C104.955 18.3693 104.82 17.6834 104.82 16.9326C104.82 16.1818 104.955 15.4959 105.224 14.8748C105.493 14.2538 105.869 13.7162 106.352 13.262C106.844 12.8078 107.419 12.4602 108.078 12.2192C108.747 11.9689 109.471 11.8438 110.25 11.8438C111.206 11.8438 112.051 12.0106 112.784 12.3443C113.527 12.678 114.139 13.16 114.622 13.7903L112.547 15.6395C112.26 15.278 111.94 14.9999 111.587 14.8053C111.243 14.6014 110.854 14.4994 110.417 14.4994C110.074 14.4994 109.763 14.555 109.484 14.6663C109.206 14.7775 108.965 14.9397 108.76 15.1529C108.566 15.3661 108.412 15.6256 108.301 15.9315C108.19 16.2281 108.134 16.5618 108.134 16.9326C108.134 17.3034 108.19 17.6417 108.301 17.9476C108.412 18.2442 108.566 18.4991 108.76 18.7123C108.965 18.9255 109.206 19.0877 109.484 19.1989C109.763 19.3102 110.074 19.3658 110.417 19.3658C110.854 19.3658 111.243 19.2685 111.587 19.0738C111.94 18.8699 112.26 18.5872 112.547 18.2257L114.622 20.0749C114.139 20.6959 113.527 21.1779 112.784 21.5209C112.051 21.8546 111.206 22.0215 110.25 22.0215Z" fill="white"/>
<path d="M115.97 15.176C116.474 15.305 116.868 15.3493 117.153 15.309C117.438 15.2606 117.69 15.0872 117.909 14.7889L118.324 14.2082L118.568 13.9421L121.044 8.92188H123.826L120.398 15.2969C120.024 15.9905 119.572 16.5308 119.044 16.9179C118.523 17.2969 117.946 17.5147 117.312 17.5711C116.677 17.6276 116.006 17.5147 115.299 17.2324L115.97 15.176ZM118.531 16.18L114.555 8.92188H117.592L120.093 14.2082L118.531 16.18Z" fill="white"/>
<path d="M134.411 42.243C133.998 42.243 133.577 42.1792 133.146 42.0517C132.724 41.9333 132.385 41.7738 132.128 41.5734L133.16 39.4553C133.315 39.5737 133.489 39.6694 133.682 39.7423C133.884 39.8152 134.076 39.8516 134.259 39.8516C134.534 39.8516 134.745 39.7924 134.892 39.6739C135.038 39.5646 135.158 39.3961 135.249 39.1683L135.566 38.3758L135.785 38.0751L138.191 31.9805H141.134L138.04 39.6056C137.765 40.2889 137.444 40.8218 137.078 41.2044C136.72 41.5871 136.317 41.8558 135.868 42.0107C135.428 42.1656 134.942 42.243 134.411 42.243ZM135.139 39.7969L131.867 31.9805H135.057L137.312 37.8018L135.139 39.7969Z" fill="white"/>
<path d="M127.894 39.61C127.045 39.61 126.291 39.4456 125.634 39.1169C124.986 38.779 124.475 38.3179 124.1 37.7335C123.726 37.1491 123.539 36.4779 123.539 35.72C123.539 34.9621 123.726 34.291 124.1 33.7066C124.475 33.1221 124.986 32.6656 125.634 32.3368C126.291 32.0081 127.045 31.8438 127.894 31.8438C128.743 31.8438 129.496 32.0081 130.153 32.3368C130.81 32.6656 131.322 33.1221 131.687 33.7066C132.061 34.291 132.248 34.9621 132.248 35.72C132.248 36.4779 132.061 37.1491 131.687 37.7335C131.322 38.3179 130.81 38.779 130.153 39.1169C129.496 39.4456 128.743 39.61 127.894 39.61ZM127.894 37.1993C128.122 37.1993 128.327 37.1445 128.51 37.0349C128.692 36.9254 128.838 36.761 128.948 36.5418C129.058 36.3136 129.112 36.0396 129.112 35.72C129.112 35.3913 129.058 35.1219 128.948 34.9119C128.838 34.6927 128.692 34.5284 128.51 34.4188C128.327 34.3092 128.122 34.2544 127.894 34.2544C127.665 34.2544 127.46 34.3092 127.277 34.4188C127.095 34.5284 126.949 34.6927 126.839 34.9119C126.73 35.1219 126.675 35.3913 126.675 35.72C126.675 36.0396 126.73 36.3136 126.839 36.5418C126.949 36.761 127.095 36.9254 127.277 37.0349C127.46 37.1445 127.665 37.1993 127.894 37.1993Z" fill="white"/>
<path d="M115.73 37.0461L115.056 37.7169V31.9805H118.151V37.7169L117.463 37.0461H120.366L119.692 37.7169V31.9805H122.773V39.4693H110.406V31.9805H113.501V37.7169L112.827 37.0461H115.73Z" fill="white"/>
<path d="M128.798 30.6651L126.745 27.2447L129.236 25.8001L132.439 30.6651H128.798ZM123.625 30.6651V23.2109H126.718V30.6651H123.625ZM125.815 28.1849V25.8274H128.607V28.1849H125.815ZM129.551 27.2719L126.65 26.9994L129.031 23.2109H132.288L129.551 27.2719Z" fill="white"/>
<path d="M114.219 30.6998V23.2109H117.306V26.6044L119.9 23.2109H122.754V30.6998H119.666V27.3143L117.087 30.6998H114.219Z" fill="white"/>
<path d="M110.496 30.598V29.2694L110.277 28.9133V26.393C110.277 26.0278 110.162 25.7493 109.933 25.5575C109.713 25.3657 109.352 25.2699 108.848 25.2699C108.509 25.2699 108.165 25.3246 107.817 25.4342C107.469 25.5347 107.172 25.6762 106.924 25.8588L105.935 23.818C106.375 23.544 106.902 23.334 107.515 23.1879C108.129 23.0418 108.729 22.9688 109.315 22.9688C110.606 22.9688 111.605 23.2564 112.31 23.8317C113.024 24.4069 113.381 25.3201 113.381 26.5711V30.598H110.496ZM108.367 30.735C107.753 30.735 107.24 30.63 106.828 30.42C106.416 30.2099 106.105 29.9314 105.894 29.5844C105.683 29.2283 105.578 28.8357 105.578 28.4065C105.578 27.9225 105.702 27.5116 105.949 27.1738C106.196 26.8359 106.572 26.5802 107.076 26.4067C107.588 26.2332 108.234 26.1465 109.013 26.1465H110.579V27.6395H109.507C109.178 27.6395 108.935 27.6942 108.779 27.8038C108.633 27.9043 108.559 28.0595 108.559 28.2695C108.559 28.443 108.623 28.5891 108.752 28.7078C108.889 28.8174 109.072 28.8722 109.301 28.8722C109.512 28.8722 109.704 28.8174 109.878 28.7078C110.061 28.5891 110.194 28.4065 110.277 28.1599L110.675 29.0776C110.556 29.6347 110.304 30.0501 109.919 30.3241C109.535 30.598 109.017 30.735 108.367 30.735Z" fill="white"/>
<path d="M96.1406 30.5969L96.2642 28.0906C96.3191 28.0998 96.374 28.1089 96.4289 28.118C96.4838 28.118 96.5341 28.118 96.5798 28.118C96.7811 28.118 96.9413 28.0815 97.0602 28.0085C97.1792 27.9263 97.2707 27.8122 97.3347 27.6661C97.4079 27.5109 97.4582 27.3283 97.4857 27.1183C97.5131 26.8991 97.5314 26.648 97.5406 26.365L97.6504 23.1055H104.815V30.5969H101.713V24.8722L102.386 25.5159H99.6954L100.327 24.8311L100.258 26.4883C100.231 27.1639 100.171 27.7711 100.08 28.3098C99.9882 28.8393 99.8418 29.2913 99.6405 29.6656C99.4484 30.0308 99.183 30.3139 98.8445 30.5148C98.5151 30.7065 98.0942 30.8024 97.5818 30.8024C97.3805 30.8024 97.1563 30.7841 96.9092 30.7476C96.6713 30.7111 96.4151 30.6608 96.1406 30.5969Z" fill="white"/>
<path d="M120.923 20.3515L119.721 21.5471L118.904 22.355L118.087 21.5471L116.885 20.3515C116.403 19.8748 116.403 19.1154 116.885 18.6388C117.359 18.1621 118.136 18.1621 118.618 18.6388L118.904 18.9215L119.19 18.6388C119.672 18.1621 120.449 18.1621 120.923 18.6388C121.405 19.1154 121.405 19.8748 120.923 20.3515Z" fill="#52FF00"/>
<path d="M81.5469 21.543L74.9641 28.0953" stroke="white" stroke-width="1.5" stroke-linecap="round"/>
<path d="M81.5469 28.2812L74.9641 21.7289" stroke="white" stroke-width="1.5" stroke-linecap="round"/>
<path d="M17.0332 16.85C14.7879 17.6367 14.0183 16.9224 13.3753 15.1627L12.5426 12.8957C11.7414 10.6908 12.4688 9.93517 14.2608 9.30373L16.5693 8.48596C18.8146 7.69924 19.5841 8.4135 20.2272 10.1733L21.0599 12.4402C21.8611 14.6451 21.1337 15.4008 19.3417 16.0322L17.0332 16.85Z" fill="#FF4F3E"/>
<path d="M27.0928 16.85C29.3381 17.6367 30.1076 16.9224 30.7506 15.1627L31.5834 12.8957C32.3845 10.6908 31.6571 9.93517 29.8651 9.30373L27.5566 8.48596C25.3113 7.69924 24.5418 8.4135 23.8988 10.1733L23.066 12.4402C22.2649 14.6451 22.9922 15.4008 24.7842 16.0322L27.0928 16.85Z" fill="#FABC22"/>
<path d="M38.08 16.8457C35.8347 17.6423 35.0652 16.9181 34.4222 15.1592L33.5894 12.8933C32.7883 10.6896 33.5157 9.93429 35.3077 9.30316L37.6162 8.4858C39.8615 7.69948 40.631 8.41338 41.274 10.1723L42.1068 12.4381C42.9079 14.6419 42.1806 15.3972 40.3886 16.0283L38.08 16.8457Z" fill="#06C92E"/>
<path d="M48.1396 16.85C50.3849 17.6367 51.1545 16.9224 51.7975 15.1627L52.6302 12.8957C53.4314 10.6908 52.704 9.93517 50.912 9.30373L48.6035 8.48596C46.3582 7.69924 45.5887 8.4135 44.9456 10.1733L44.1129 12.4402C43.3117 14.6451 44.0391 15.4008 45.8311 16.0322L48.1396 16.85Z" fill="#00C2FC"/>
<path d="M9.42581 30.3041C9.42581 30.3769 9.41529 30.4393 9.38373 30.5018C9.36268 30.5642 9.32059 30.6266 9.26799 30.6682C9.21538 30.7202 9.16277 30.7514 9.09964 30.7826C9.03651 30.8138 8.96285 30.8242 8.89972 30.8242H7.99484C7.92119 30.8242 7.85806 30.8138 7.79493 30.7826C7.7318 30.7618 7.66867 30.7202 7.62658 30.6682C7.58449 30.6162 7.5424 30.5642 7.51084 30.5018C7.47927 30.4393 7.46875 30.3665 7.46875 30.3041V28.0155C7.46875 27.9427 7.47927 27.8803 7.51084 27.8179C7.5424 27.7555 7.57397 27.6931 7.62658 27.6515C7.67919 27.5994 7.7318 27.5682 7.79493 27.537C7.85806 27.5162 7.93171 27.4954 7.99484 27.4954H8.27893C8.41572 27.3186 8.52093 27.1313 8.60511 26.9233C8.69981 26.684 8.78398 26.4448 8.84711 26.1951C8.91024 25.9246 8.96285 25.6542 9.01546 25.3733C9.05755 25.0924 9.08911 24.8116 9.11016 24.5203L9.16277 23.6985C9.17329 23.5529 9.23642 23.4176 9.34164 23.324C9.39425 23.272 9.45738 23.2408 9.52051 23.2096C9.58364 23.1784 9.65729 23.168 9.73095 23.168H13.6872C13.7608 23.168 13.8239 23.1784 13.8976 23.2096C13.9607 23.2408 14.0239 23.272 14.0765 23.324C14.1291 23.376 14.1606 23.428 14.1922 23.5008C14.2238 23.5633 14.2343 23.6361 14.2343 23.7089V27.5058H14.7499C14.8235 27.5058 14.8867 27.5162 14.9498 27.5474C15.0129 27.5682 15.076 27.6099 15.1181 27.6619C15.1707 27.7139 15.2023 27.7659 15.2339 27.8283C15.2654 27.8907 15.276 27.9635 15.276 28.026V30.3145C15.276 30.3873 15.2654 30.4497 15.2339 30.5122C15.2128 30.5746 15.1707 30.637 15.1181 30.6786C15.0655 30.7306 15.0129 30.7618 14.9498 30.793C14.8867 30.8242 14.813 30.8346 14.7499 30.8346H13.8239C13.7503 30.8346 13.6872 30.8242 13.624 30.793C13.5609 30.7722 13.4978 30.7306 13.4557 30.6786C13.4031 30.6266 13.3715 30.5746 13.3399 30.5122C13.3084 30.4497 13.2979 30.3769 13.2979 30.3145V29.4407H9.42581V30.3041ZM12.0878 25.134H11.1514L11.1304 25.3837C11.0883 25.831 10.9936 26.2679 10.8673 26.6944C10.7831 26.9753 10.6569 27.2458 10.499 27.5058H12.0984V25.134H12.0878Z" fill="white"/>
<path d="M17.7813 27.0034C17.8753 27.2731 18.0739 27.5028 18.3351 27.6327C18.6173 27.7725 18.9308 27.8424 19.2547 27.8324C19.4637 27.8324 19.6623 27.8225 19.8713 27.7925C20.0489 27.7625 20.2162 27.7226 20.3834 27.6626C20.4774 27.6327 20.5819 27.6127 20.6864 27.6127C20.7909 27.6127 20.885 27.6327 20.979 27.6826C21.0626 27.7326 21.1358 27.8025 21.1776 27.8924L21.3866 28.3219C21.4284 28.3918 21.4493 28.4817 21.4493 28.5616C21.4493 28.6515 21.4284 28.7414 21.3866 28.8113C21.3448 28.8912 21.2716 28.9511 21.1985 29.0011C20.8536 29.1908 20.4774 29.3307 20.0907 29.4106C19.7354 29.4705 19.3801 29.5005 19.0248 29.5005C18.5441 29.5105 18.0634 29.4306 17.614 29.2707C17.2169 29.1309 16.8512 28.9112 16.5481 28.6315C16.2451 28.3518 16.0152 28.0022 15.8584 27.6327C15.6912 27.2232 15.6076 26.7837 15.6181 26.3342C15.6181 25.9147 15.7017 25.4952 15.8584 25.1157C16.0152 24.7361 16.2451 24.3865 16.5481 24.0969C16.8512 23.7972 17.2169 23.5675 17.614 23.4177C18.0634 23.2479 18.5441 23.168 19.0248 23.168C19.4219 23.168 19.8086 23.2379 20.1743 23.3677C20.5401 23.4976 20.8641 23.6973 21.1462 23.947C21.4284 24.1968 21.6583 24.5064 21.815 24.836C21.9822 25.2056 22.0763 25.5951 22.0658 25.9946C22.0658 26.1944 22.0554 26.3941 22.024 26.5939C22.0031 26.7038 21.9404 26.7937 21.8464 26.8736C21.7628 26.9535 21.6583 26.9934 21.5433 27.0034H17.7813ZM19.9758 25.665C19.9758 25.4553 19.8817 25.2455 19.7145 25.0957C19.61 25.0058 19.4951 24.9359 19.3592 24.8859C19.2234 24.846 19.0875 24.826 18.9517 24.836C18.6695 24.816 18.3769 24.8859 18.1366 25.0358C17.938 25.1956 17.7917 25.4053 17.7081 25.645L19.9758 25.665Z" fill="white"/>
<path d="M25.0756 29.5013C25.0021 29.5013 24.939 29.4908 24.8759 29.4593C24.8129 29.4278 24.7498 29.3963 24.7077 29.3438C24.6552 29.2912 24.6237 29.2387 24.5921 29.1757C24.5606 29.1127 24.5501 29.0392 24.5501 28.9762V25.2896H23.2677C23.1942 25.2896 23.1311 25.2791 23.068 25.2476C23.005 25.2266 22.9419 25.1846 22.8999 25.132C22.8473 25.0795 22.8158 25.027 22.7842 24.964C22.7527 24.901 22.7422 24.8275 22.7422 24.7644V23.7141C22.7422 23.6406 22.7527 23.5776 22.7842 23.5041C22.8158 23.441 22.8473 23.378 22.8999 23.3255C22.9524 23.273 23.005 23.2415 23.0785 23.21C23.1416 23.1785 23.2152 23.168 23.2888 23.168H27.9872C28.0608 23.168 28.1238 23.1785 28.1869 23.21C28.25 23.2415 28.313 23.273 28.3551 23.3255C28.4076 23.378 28.4392 23.4305 28.4707 23.4936C28.5022 23.5566 28.5127 23.6301 28.5127 23.6931V24.7434C28.5127 24.8169 28.5022 24.88 28.4707 24.943C28.4392 25.006 28.4076 25.069 28.3551 25.111C28.3025 25.1635 28.25 25.1951 28.1869 25.2266C28.1238 25.2581 28.0503 25.2686 27.9872 25.2686H26.7048V28.9446C26.7048 29.0182 26.6943 29.0812 26.6628 29.1442C26.6418 29.2072 26.5997 29.2702 26.5472 29.3122C26.4946 29.3648 26.4421 29.3963 26.379 29.4278C26.3159 29.4593 26.2424 29.4698 26.1793 29.4698H26.1688L25.0756 29.5013Z" fill="white"/>
<path d="M33.5065 25.2755C33.2069 25.1256 32.8646 25.0457 32.5222 25.0358C32.351 25.0358 32.1798 25.0657 32.0193 25.1157C31.8589 25.1656 31.7091 25.2555 31.5807 25.3654C31.4416 25.4752 31.3346 25.6151 31.2597 25.7749C31.1741 25.9547 31.1313 26.1444 31.142 26.3342C31.142 26.524 31.1848 26.7138 31.2704 26.8836C31.356 27.0334 31.463 27.1732 31.6021 27.2931C31.8696 27.5128 32.2119 27.6327 32.565 27.6327C32.9181 27.6227 33.2711 27.5228 33.5707 27.343C33.6884 27.2631 33.8275 27.2232 33.9666 27.2232C34.0521 27.2232 34.1377 27.2431 34.2126 27.2731C34.2875 27.3131 34.3517 27.363 34.4052 27.4229L34.8439 27.9723C34.9188 28.0622 34.9616 28.172 34.9616 28.2919C34.9616 28.3718 34.9402 28.4617 34.9081 28.5316C34.8653 28.6015 34.8118 28.6715 34.7369 28.7214C34.3838 29.0011 33.9666 29.2208 33.5172 29.3506C33.1641 29.4405 32.7897 29.4905 32.4259 29.5005C31.9231 29.5105 31.4202 29.4306 30.9495 29.2707C30.5322 29.1309 30.147 28.9112 29.8154 28.6315C29.5051 28.3518 29.259 28.0122 29.0985 27.6327C28.9273 27.2232 28.8418 26.7837 28.8525 26.3342C28.8525 25.9147 28.938 25.5052 29.0985 25.1157C29.259 24.7361 29.4944 24.3865 29.794 24.0969C30.0935 23.8072 30.468 23.5775 30.8639 23.4177C31.3025 23.2479 31.7733 23.168 32.2547 23.168C32.6399 23.168 33.0357 23.1979 33.4102 23.2778C33.7954 23.3677 34.1698 23.5176 34.5015 23.7373C34.5978 23.7772 34.6727 23.8472 34.7262 23.9271C34.7797 24.007 34.8118 24.1069 34.8118 24.1967C34.8118 24.2866 34.7797 24.3765 34.7262 24.4564L34.3089 25.0957C34.2661 25.1756 34.1912 25.2455 34.1056 25.2954C34.02 25.3454 33.9238 25.3654 33.8168 25.3654C33.7098 25.3454 33.6028 25.3254 33.5065 25.2755Z" fill="white"/>
<path d="M38.0136 26.4331V28.8897C38.0136 28.9623 38.0035 29.0245 37.9731 29.0867C37.9528 29.1489 37.9122 29.2111 37.8615 29.2525C37.8107 29.3044 37.76 29.3355 37.6991 29.3665C37.6382 29.3976 37.5672 29.408 37.5063 29.408H36.4917C36.4207 29.408 36.3598 29.3976 36.2989 29.3665C36.238 29.3355 36.1772 29.3044 36.1366 29.2525C36.0858 29.2007 36.0453 29.1489 36.025 29.0763C35.9945 29.0141 35.9844 28.9416 35.9844 28.869V23.6862C35.9844 23.6137 35.9945 23.5515 36.025 23.4893C36.0453 23.4271 36.0858 23.3649 36.1366 23.3235C36.1873 23.2716 36.238 23.2405 36.2989 23.2094C36.3598 23.1783 36.4308 23.168 36.4917 23.168H37.5063C37.5774 23.168 37.6382 23.1783 37.7093 23.2094C37.7701 23.2405 37.831 23.2716 37.8817 23.3235C37.9325 23.3753 37.9629 23.4271 37.9934 23.4997C38.0238 23.5619 38.0339 23.6344 38.0339 23.707V25.8941L39.6066 23.5204C39.6777 23.4167 39.7791 23.3338 39.8806 23.2716C39.9922 23.2094 40.1139 23.1783 40.2458 23.1783H41.1895C41.2605 23.1783 41.3315 23.1887 41.4025 23.2198C41.4634 23.2509 41.5243 23.2924 41.575 23.3442C41.6663 23.4478 41.7272 23.5826 41.7272 23.7173C41.7272 23.8314 41.6866 23.9454 41.6156 24.0387L40.1647 25.977L40.8343 26.9099C41.0068 27.1898 41.2706 27.3971 41.575 27.5008C41.7374 27.5215 41.8794 27.594 41.991 27.7081C42.0722 27.8428 42.1026 28.0087 42.0925 28.1642V29.0141C42.0925 29.1281 42.0519 29.2318 41.9707 29.3147C41.8997 29.408 41.7982 29.4598 41.6866 29.4806C41.6156 29.4806 41.5446 29.5013 41.4837 29.5013C41.4127 29.5013 41.3518 29.5013 41.2808 29.5013C41.1083 29.5013 40.9358 29.4806 40.7735 29.4495C40.5908 29.408 40.4082 29.3355 40.2458 29.2422C40.0531 29.1281 39.8704 28.9934 39.7182 28.8379C39.5153 28.6306 39.3327 28.4026 39.1805 28.1538L38.0136 26.4331Z" fill="white"/>
<path d="M48.2955 29.5013C48.2223 29.5013 48.1596 29.4908 48.0968 29.4593C48.0341 29.4278 47.9714 29.3963 47.9296 29.3438C47.8773 29.2912 47.846 29.2387 47.8146 29.1757C47.7833 29.1127 47.7728 29.0392 47.7728 28.9762V26.1928L45.7763 29.1442C45.7031 29.2492 45.6195 29.3333 45.515 29.3963C45.4105 29.4593 45.2955 29.5013 45.17 29.4908H43.968C43.8948 29.4908 43.8321 29.4803 43.7694 29.4488C43.7066 29.4173 43.6439 29.3858 43.6021 29.3333C43.5498 29.2807 43.508 29.2282 43.4871 29.1547C43.4558 29.0917 43.4453 29.0182 43.4453 28.9446V23.6931C43.4453 23.6196 43.4558 23.5566 43.4871 23.4936C43.508 23.4305 43.5498 23.3675 43.6021 23.3255C43.6544 23.273 43.7066 23.2415 43.7694 23.21C43.8321 23.1785 43.9052 23.168 43.968 23.168H45.0132C45.0864 23.168 45.1491 23.1785 45.2223 23.21C45.285 23.2415 45.3477 23.273 45.4 23.3255C45.4523 23.378 45.4836 23.4305 45.515 23.5041C45.5463 23.5671 45.5568 23.6406 45.5568 23.7141V26.4764L47.5533 23.5251C47.6265 23.4305 47.7101 23.3465 47.8042 23.273C47.8982 23.21 48.0237 23.168 48.1387 23.1785H49.3512C49.4244 23.1785 49.4871 23.189 49.5603 23.2205C49.623 23.252 49.6857 23.2835 49.738 23.336C49.7902 23.3885 49.8216 23.441 49.8529 23.5146C49.8843 23.5776 49.8947 23.6511 49.8947 23.7246V28.9762C49.8947 29.0497 49.8843 29.1127 49.8529 29.1757C49.8216 29.2387 49.7902 29.3017 49.738 29.3438C49.6857 29.3963 49.6334 29.4278 49.5707 29.4593C49.508 29.4908 49.4348 29.5013 49.3721 29.5013H49.3617H48.2955Z" fill="white"/>
<path d="M56.4256 29.5039C56.3526 29.5039 56.2899 29.4935 56.2273 29.4623C56.1647 29.4311 56.1021 29.3999 56.0603 29.3479C56.0082 29.2959 55.9769 29.2439 55.9456 29.1815C55.9142 29.1191 55.9038 29.0462 55.9038 28.9838V26.2274L53.9105 29.1503C53.8375 29.2543 53.754 29.3375 53.6496 29.3999C53.5453 29.4623 53.4305 29.5039 53.3053 29.4935H52.1155C52.0425 29.4935 51.9799 29.4831 51.9173 29.4519C51.8547 29.4311 51.792 29.3895 51.7503 29.3375C51.6981 29.2855 51.6668 29.2335 51.6355 29.1711C51.6042 29.1086 51.5938 29.0358 51.5938 28.9734V23.7726C51.5938 23.6998 51.6042 23.6374 51.6355 23.5646C51.6668 23.5022 51.6981 23.4398 51.7503 23.3878C51.8025 23.3358 51.8547 23.3046 51.9277 23.2734C51.9903 23.2422 52.0634 23.2318 52.1364 23.2318H53.1696C53.2426 23.2318 53.3053 23.2422 53.3783 23.2734C53.4409 23.3046 53.5035 23.3358 53.5557 23.3878C53.6079 23.4398 53.6392 23.4918 53.6705 23.5646C53.7018 23.627 53.7123 23.6998 53.7123 23.7726V26.5083L55.7055 23.5854C55.7786 23.4918 55.8621 23.4086 55.956 23.3358C56.0499 23.2734 56.1751 23.2318 56.2899 23.2422H57.5005C57.5736 23.2422 57.6362 23.2526 57.7092 23.2838C57.7719 23.315 57.8345 23.3462 57.8866 23.3982C57.9388 23.4502 57.9701 23.5022 58.0014 23.575C58.0328 23.6374 58.0432 23.7102 58.0432 23.783V28.9838C58.0432 29.0566 58.0328 29.1191 58.0014 29.1815C57.9806 29.2439 57.9388 29.3063 57.8866 29.3479C57.8345 29.3999 57.7823 29.4311 57.7197 29.4623C57.6571 29.4935 57.584 29.5039 57.5214 29.5039H57.511H56.4256ZM56.123 20.5066C56.2378 20.4962 56.363 20.517 56.4674 20.5586C56.5822 20.6002 56.6761 20.6626 56.7596 20.7458C56.9057 20.9122 56.9787 21.1307 56.9683 21.3595C56.9683 21.5467 56.9161 21.7235 56.8222 21.89C56.7283 22.046 56.5926 22.1812 56.436 22.2748C56.0812 22.5245 55.549 22.6493 54.8393 22.6493C54.0566 22.6493 53.4931 22.5245 53.1591 22.2748C53.0026 22.1708 52.8774 22.0356 52.7939 21.8796C52.7 21.7235 52.6582 21.5363 52.6582 21.3595C52.6478 21.1307 52.7313 20.9122 52.8669 20.7458C52.9504 20.6626 53.0444 20.6002 53.1591 20.5586C53.2739 20.517 53.3887 20.5066 53.5035 20.517C53.6914 20.4962 53.8792 20.5482 54.0358 20.6626C54.1506 20.7666 54.2341 20.8914 54.2758 21.037C54.3175 21.1515 54.3802 21.2555 54.4741 21.3491C54.5784 21.4427 54.7245 21.4843 54.8602 21.4739C54.9228 21.4739 54.9854 21.4739 55.0481 21.4531C55.1107 21.4323 55.1629 21.4011 55.215 21.3595C55.2985 21.2659 55.3611 21.1619 55.3925 21.0474C55.4342 20.9018 55.5177 20.7666 55.6325 20.673C55.7681 20.5482 55.9456 20.4962 56.123 20.5066Z" fill="white"/>
<path d="M23.1624 39.3121C23.1624 39.3856 23.1518 39.4486 23.1201 39.5116C23.0989 39.5747 23.0566 39.6377 23.0037 39.6797C22.9508 39.7322 22.8979 39.7637 22.8345 39.7952C22.771 39.8267 22.697 39.8372 22.6335 39.8372H21.5758C21.5017 39.8372 21.4382 39.8267 21.3748 39.7952C21.3113 39.7742 21.2478 39.7322 21.2055 39.6797C21.1527 39.6272 21.1209 39.5747 21.0892 39.5116C21.0575 39.4486 21.0469 39.3751 21.0469 39.3121V34.0501C21.0469 33.9765 21.0575 33.9135 21.0892 33.84C21.1209 33.777 21.1527 33.714 21.2055 33.6615C21.2584 33.6089 21.3113 33.5774 21.3854 33.5459C21.4488 33.5144 21.5229 33.5039 21.5969 33.5039H22.6018C22.7287 33.5039 22.8556 33.5354 22.9614 33.5984C23.0778 33.6509 23.173 33.735 23.247 33.8295L24.876 35.657L26.378 33.8505C26.452 33.756 26.5578 33.672 26.6636 33.6089C26.7693 33.5459 26.8963 33.5144 27.0126 33.5144H27.9646C28.0387 33.5144 28.1021 33.5249 28.1762 33.5564C28.2396 33.5879 28.3031 33.6194 28.356 33.672C28.4089 33.7245 28.4406 33.777 28.4723 33.8505C28.5041 33.9135 28.5146 33.987 28.5146 34.0606V39.3121C28.5146 39.3856 28.5041 39.4486 28.4723 39.5116C28.4512 39.5747 28.4089 39.6377 28.356 39.6797C28.3031 39.7322 28.2502 39.7637 28.1867 39.7952C28.1233 39.8267 28.0492 39.8372 27.9858 39.8372H26.928C26.854 39.8372 26.7905 39.8267 26.727 39.7952C26.6636 39.7637 26.6001 39.7322 26.5578 39.6797C26.5049 39.6272 26.4732 39.5747 26.4414 39.5116C26.4097 39.4486 26.3991 39.3751 26.3991 39.3121V36.7388L25.2144 38.0937C25.1721 38.1462 25.1087 38.1883 25.0452 38.2198C24.9817 38.2513 24.9077 38.2618 24.8442 38.2618C24.7808 38.2618 24.7067 38.2513 24.6432 38.2198C24.5798 38.1883 24.5269 38.1568 24.474 38.1042L23.2153 36.7388L23.1624 39.3121Z" fill="white"/>
<path d="M34.7095 39.8268C34.6365 39.8268 34.574 39.8163 34.5115 39.7848C34.449 39.7534 34.3865 39.7219 34.3448 39.6695C34.2927 39.617 34.2615 39.5646 34.2302 39.5017C34.1989 39.4388 34.1885 39.3654 34.1885 39.3025V36.5238L32.1985 39.4702C32.1255 39.5751 32.0422 39.659 31.938 39.7219C31.8338 39.7848 31.7192 39.8268 31.5942 39.8163H30.396C30.323 39.8163 30.2605 39.8058 30.198 39.7743C30.1355 39.7429 30.073 39.7114 30.0313 39.659C29.9792 39.6066 29.9479 39.5541 29.9167 39.4912C29.8854 39.4283 29.875 39.3549 29.875 39.292V34.0492C29.875 33.9758 29.8854 33.9128 29.9167 33.8394C29.9479 33.7765 29.9792 33.7136 30.0313 33.6612C30.0834 33.6088 30.1355 33.5773 30.2084 33.5458C30.2709 33.5144 30.3439 33.5039 30.4168 33.5039H31.4483C31.5212 33.5039 31.5837 33.5144 31.6567 33.5458C31.7192 33.5773 31.7817 33.6088 31.8338 33.6612C31.8859 33.7136 31.9171 33.766 31.9484 33.8394C31.9797 33.9024 31.9901 33.9758 31.9901 34.0492V36.8069L33.9801 33.8604C34.0531 33.766 34.1364 33.6822 34.2406 33.6192C34.3344 33.5563 34.4594 33.5144 34.574 33.5249H35.7826C35.8556 33.5249 35.9181 33.5354 35.991 33.5668C36.0535 33.5983 36.1161 33.6297 36.1681 33.6822C36.2202 33.7346 36.2515 33.787 36.2828 33.8604C36.314 33.9233 36.3244 33.9967 36.3244 34.0701V39.313C36.3244 39.3864 36.314 39.4493 36.2828 39.5122C36.2515 39.5751 36.2202 39.638 36.1681 39.68C36.1161 39.7324 36.064 39.7638 36.0014 39.7953C35.9389 39.8268 35.866 39.8372 35.8035 39.8372H34.7095V39.8268Z" fill="white"/>
<path d="M39.8112 41.6607C39.8112 41.7317 39.8005 41.7926 39.7686 41.8535C39.7366 41.9143 39.7046 41.9752 39.6513 42.0158C39.5981 42.0665 39.5448 42.097 39.4808 42.1274C39.4169 42.1578 39.3423 42.168 39.2783 42.168H38.2126C38.138 42.168 38.074 42.1578 38.0101 42.1274C37.9461 42.097 37.8822 42.0665 37.8396 42.0158C37.7863 41.9651 37.7543 41.9143 37.7223 41.8535C37.6903 41.7926 37.6797 41.7216 37.6797 41.6607V33.8589C37.6797 33.7879 37.6903 33.727 37.7223 33.656C37.7543 33.5952 37.7863 33.5343 37.8396 33.4836C37.8928 33.4328 37.9461 33.4024 38.0207 33.372C38.0847 33.3415 38.1593 33.3314 38.2339 33.3314H39.3423C39.4062 33.3314 39.4595 33.3415 39.5235 33.3618C39.5767 33.3821 39.63 33.4125 39.6727 33.4531C39.7153 33.4937 39.7473 33.5444 39.7792 33.5952C39.8005 33.6459 39.8112 33.7068 39.8219 33.7676V33.7778C40.035 33.5952 40.2801 33.4531 40.5466 33.3517C40.877 33.2198 41.2393 33.1589 41.6017 33.1691C42.0067 33.1691 42.4117 33.2401 42.774 33.4024C43.1257 33.5546 43.4348 33.7778 43.6799 34.0517C43.9357 34.3459 44.1275 34.6807 44.2554 35.0459C44.394 35.4416 44.4686 35.8677 44.4686 36.2837C44.4686 36.7301 44.3833 37.1663 44.2234 37.5823C44.0636 37.9779 43.8291 38.333 43.52 38.6374C43.211 38.9418 42.838 39.1751 42.433 39.3374C41.9854 39.52 41.5058 39.6012 41.0155 39.6012C40.8024 39.6012 40.5786 39.5809 40.3654 39.5505C40.1736 39.5302 39.9924 39.4795 39.8219 39.4084L39.8112 41.6607ZM39.8112 37.491C39.9498 37.5721 40.099 37.633 40.2588 37.6736C40.44 37.7142 40.6212 37.7243 40.813 37.7243C41.0049 37.7345 41.1967 37.7142 41.3779 37.6431C41.559 37.5721 41.7189 37.4605 41.8468 37.3286C42.0706 37.0547 42.1878 36.7098 42.1772 36.3547C42.1878 36.03 42.0706 35.7155 41.8575 35.4619C41.7402 35.3402 41.6017 35.2387 41.4312 35.1778C41.2713 35.117 41.0901 35.0865 40.9196 35.0967C40.7064 35.1068 40.4933 35.1575 40.3015 35.2489C40.1096 35.3402 39.9391 35.472 39.8112 35.6344V37.491Z" fill="white"/>
</svg>
