<svg width="115" height="112" viewBox="0 0 115 112" fill="none" xmlns="http://www.w3.org/2000/svg">
<path d="M81.9414 85.0155V72.4893H87.9575C89.1238 72.4893 90.1294 72.6801 90.9744 73.0619C91.8313 73.4436 92.4918 73.9924 92.956 74.7082C93.4201 75.4121 93.6522 76.2471 93.6522 77.2134C93.6522 78.1798 93.4201 79.0148 92.956 79.7187C92.4918 80.4226 91.8313 80.9713 90.9744 81.365C90.1294 81.7468 89.1238 81.9376 87.9575 81.9376H84.28L86.1544 80.1303V85.0155H81.9414ZM86.1544 80.5955L84.28 78.6808H87.6897C88.2729 78.6808 88.7013 78.5496 88.975 78.2871C89.2607 78.0247 89.4035 77.6668 89.4035 77.2134C89.4035 76.7601 89.2607 76.4022 88.975 76.1398C88.7013 75.8773 88.2729 75.7461 87.6897 75.7461H84.28L86.1544 73.8314V80.5955Z" fill="white"/>
<path d="M74.4515 77.1419H80.0238V80.184H74.4515V77.1419ZM74.7372 81.8303H80.9882V85.0155H70.5938V72.4893H80.756V75.6745H74.7372V81.8303Z" fill="white"/>
<path d="M57.25 85.0155V72.4893H69.3693V85.0155H65.2162V74.8692L66.1291 75.764H60.4902L61.4031 74.8692V85.0155H57.25Z" fill="white"/>
<path d="M40.0981 85.334C39.0979 85.334 38.1692 85.1787 37.312 84.8682C36.4666 84.5456 35.7284 84.0917 35.0974 83.5064C34.4782 82.921 33.996 82.2282 33.6507 81.4278C33.3055 80.6275 33.1328 79.7435 33.1328 78.7759C33.1328 77.8083 33.3055 76.9243 33.6507 76.124C33.996 75.3236 34.4782 74.6308 35.0974 74.0454C35.7284 73.4601 36.4666 73.0122 37.312 72.7016C38.1692 72.379 39.0979 72.2178 40.0981 72.2178C41.3244 72.2178 42.4079 72.4328 43.3485 72.8628C44.3011 73.2929 45.0869 73.914 45.706 74.7263L43.0449 77.1095C42.6758 76.6436 42.2651 76.2852 41.8126 76.0344C41.3721 75.7716 40.872 75.6402 40.3124 75.6402C39.8719 75.6402 39.473 75.7119 39.1158 75.8552C38.7586 75.9986 38.449 76.2076 38.1871 76.4824C37.9371 76.7571 37.7406 77.0916 37.5977 77.4858C37.4549 77.868 37.3834 78.2981 37.3834 78.7759C37.3834 79.2537 37.4549 79.6897 37.5977 80.0839C37.7406 80.4662 37.9371 80.7947 38.1871 81.0695C38.449 81.3442 38.7586 81.5533 39.1158 81.6966C39.473 81.8399 39.8719 81.9116 40.3124 81.9116C40.872 81.9116 41.3721 81.7862 41.8126 81.5353C42.2651 81.2725 42.6758 80.9082 43.0449 80.4423L45.706 82.8255C45.0869 83.6258 44.3011 84.247 43.3485 84.689C42.4079 85.119 41.3244 85.334 40.0981 85.334Z" fill="white"/>
<path d="M47.4284 76.511C48.0752 76.6773 48.5812 76.7344 48.9463 76.6825C49.3114 76.6201 49.6348 76.3966 49.9164 76.0121L50.4485 75.2638L50.7614 74.9208L53.9379 68.4512H57.5056L53.1086 76.6669C52.6287 77.5607 52.0498 78.257 51.3717 78.7559C50.704 79.2443 49.9634 79.5249 49.1497 79.5977C48.336 79.6704 47.4754 79.5249 46.5678 79.1612L47.4284 76.511ZM50.7145 77.8049L45.6133 68.4512H49.5096L52.7174 75.2638L50.7145 77.8049Z" fill="white"/>
<path d="M71.081 111.396C70.5519 111.396 70.0111 111.313 69.4585 111.149C68.9177 110.996 68.4826 110.791 68.1534 110.533L69.4761 107.803C69.676 107.956 69.8994 108.079 70.1463 108.173C70.405 108.267 70.6519 108.314 70.887 108.314C71.2397 108.314 71.5102 108.237 71.6983 108.085C71.8864 107.944 72.0392 107.727 72.1568 107.433L72.5624 106.412L72.8446 106.024L75.9309 98.1699H79.705L75.7369 107.997C75.3842 108.877 74.9727 109.564 74.5024 110.057C74.0439 110.55 73.5265 110.897 72.9504 111.096C72.3861 111.296 71.7629 111.396 71.081 111.396ZM72.0157 108.243L67.8184 98.1699H71.9099L74.8022 105.672L72.0157 108.243Z" fill="white"/>
<path d="M62.7264 108C61.6374 108 60.6713 107.788 59.8281 107.364C58.9967 106.929 58.3409 106.335 57.8608 105.581C57.3807 104.828 57.1406 103.963 57.1406 102.987C57.1406 102.01 57.3807 101.145 57.8608 100.392C58.3409 99.6387 58.9967 99.0503 59.8281 98.6267C60.6713 98.203 61.6374 97.9912 62.7264 97.9912C63.8155 97.9912 64.7816 98.203 65.6248 98.6267C66.4679 99.0503 67.1237 99.6387 67.5921 100.392C68.0722 101.145 68.3123 102.01 68.3123 102.987C68.3123 103.963 68.0722 104.828 67.5921 105.581C67.1237 106.335 66.4679 106.929 65.6248 107.364C64.7816 107.788 63.8155 108 62.7264 108ZM62.7264 104.893C63.0192 104.893 63.2827 104.822 63.5169 104.681C63.7511 104.54 63.9385 104.328 64.079 104.046C64.2195 103.752 64.2898 103.399 64.2898 102.987C64.2898 102.563 64.2195 102.216 64.079 101.945C63.9385 101.663 63.7511 101.451 63.5169 101.31C63.2827 101.169 63.0192 101.098 62.7264 101.098C62.4337 101.098 62.1702 101.169 61.936 101.31C61.7018 101.451 61.5144 101.663 61.3739 101.945C61.2334 102.216 61.1631 102.563 61.1631 102.987C61.1631 103.399 61.2334 103.752 61.3739 104.046C61.5144 104.328 61.7018 104.54 61.936 104.681C62.1702 104.822 62.4337 104.893 62.7264 104.893Z" fill="white"/>
<path d="M47.122 104.698L46.2573 105.563V98.1699H50.2277V105.563L49.3454 104.698H53.0687L52.204 105.563V98.1699H56.1567V107.821H40.293V98.1699H44.2633V105.563L43.3987 104.698H47.122Z" fill="white"/>
<path d="M63.8938 96.4726L61.2605 92.0646L64.4555 90.203L68.5635 96.4726H63.8938ZM57.2578 96.4726V86.8662H61.2253V96.4726H57.2578ZM60.0667 93.2763V90.2381H63.648V93.2763H60.0667ZM64.8593 92.0997L61.1376 91.7485L64.1922 86.8662H68.3704L64.8593 92.0997Z" fill="white"/>
<path d="M45.1934 96.5173V86.8662H49.1537V91.2395L52.4804 86.8662H56.1416V96.5173H52.1812V92.1543L48.8721 96.5173H45.1934Z" fill="white"/>
<path d="M40.4184 96.3848V94.6725L40.1364 94.2136V90.9657C40.1364 90.495 39.9895 90.136 39.6958 89.8889C39.4139 89.6418 38.9498 89.5182 38.3036 89.5182C37.8689 89.5182 37.4284 89.5888 36.9819 89.7301C36.5355 89.8595 36.1536 90.0419 35.8364 90.2773L34.5676 87.6471C35.1315 87.2941 35.807 87.0234 36.5942 86.8352C37.3814 86.6469 38.1509 86.5527 38.9028 86.5527C40.5594 86.5527 41.8399 86.9234 42.7446 87.6648C43.661 88.4062 44.1192 89.583 44.1192 91.1951V96.3848H40.4184ZM37.6868 96.5613C36.8997 96.5613 36.2417 96.426 35.7131 96.1553C35.1844 95.8846 34.7849 95.5257 34.5147 95.0785C34.2445 94.6196 34.1094 94.1136 34.1094 93.5605C34.1094 92.9368 34.268 92.4072 34.5852 91.9718C34.9024 91.5364 35.3841 91.2069 36.0303 90.9833C36.6882 90.7597 37.5165 90.6479 38.5151 90.6479H40.5241V92.572H39.1495C38.7266 92.572 38.4152 92.6426 38.2155 92.7838C38.0275 92.9133 37.9335 93.1133 37.9335 93.384C37.9335 93.6076 38.0158 93.7958 38.1803 93.9488C38.3565 94.09 38.5915 94.1606 38.8852 94.1606C39.1554 94.1606 39.4021 94.09 39.6253 93.9488C39.8603 93.7958 40.0307 93.5605 40.1364 93.2428L40.6475 94.4254C40.4947 95.1433 40.1716 95.6787 39.6782 96.0317C39.1848 96.3848 38.521 96.5613 37.6868 96.5613Z" fill="white"/>
<path d="M22 96.3859L22.1585 93.156C22.2289 93.1677 22.2993 93.1795 22.3697 93.1913C22.4401 93.1913 22.5047 93.1913 22.5634 93.1913C22.8216 93.1913 23.027 93.1442 23.1796 93.0501C23.3322 92.9442 23.4496 92.7971 23.5317 92.6088C23.6256 92.4088 23.6902 92.1735 23.7254 91.9028C23.7606 91.6204 23.7841 91.2969 23.7958 90.9321L23.9367 86.7314H33.127V96.3859H29.148V89.0083L30.0107 89.8378H26.5599L27.3698 88.9553L27.2818 91.0909C27.2466 91.9617 27.1703 92.7441 27.0529 93.4384C26.9355 94.1208 26.7477 94.7033 26.4895 95.1857C26.243 95.6564 25.9027 96.0211 25.4684 96.28C25.0458 96.5271 24.5059 96.6506 23.8486 96.6506C23.5904 96.6506 23.3028 96.6271 22.9859 96.58C22.6808 96.533 22.3521 96.4683 22 96.3859Z" fill="white"/>
<path d="M53.7935 83.1816L52.2523 84.7224L51.2039 85.7636L50.1555 84.7224L48.6143 83.1816C47.9957 82.5673 47.9957 81.5887 48.6143 80.9744C49.2224 80.3601 50.2184 80.3601 50.837 80.9744L51.2039 81.3388L51.5708 80.9744C52.1894 80.3601 53.1854 80.3601 53.7935 80.9744C54.4121 81.5887 54.4121 82.5673 53.7935 83.1816Z" fill="#52FF00"/>
<path d="M6.72019 25.0112H5.35077L5.31376 25.3813C5.24503 26.0343 5.11549 26.6794 4.92514 27.3059C4.80354 27.7236 4.62377 28.1228 4.39377 28.4929H6.72019V25.0112ZM2.85516 32.6276C2.85516 32.728 2.83665 32.8285 2.79964 32.9237C2.76263 33.0162 2.70711 33.1034 2.63573 33.1748C2.56435 33.2462 2.4824 33.3044 2.38723 33.344C2.29206 33.3837 2.19424 33.4048 2.09378 33.4048H0.777236C0.676777 33.4048 0.576318 33.3863 0.481147 33.3493C0.385975 33.3123 0.301377 33.2568 0.229998 33.1854C0.158619 33.114 0.100459 33.0321 0.0608041 32.9369C0.0211492 32.8444 0 32.7439 0 32.6435V29.2675C0 29.167 0.0211492 29.0666 0.0608041 28.974C0.100459 28.8815 0.158619 28.7969 0.229998 28.7255C0.301377 28.6542 0.388618 28.5987 0.481147 28.5616C0.573675 28.5246 0.676777 28.5061 0.777236 28.5061H1.18965C1.38264 28.247 1.54126 27.9668 1.66286 27.6681C1.80562 27.3191 1.92194 26.9596 2.00918 26.5921C2.107 26.2008 2.18367 25.799 2.24711 25.3813C2.31056 24.9663 2.35022 24.5538 2.3793 24.1309L2.46125 22.9201C2.47447 22.7112 2.56435 22.5129 2.71768 22.3675C2.79171 22.2935 2.87895 22.238 2.97676 22.1983C3.07458 22.1587 3.17768 22.1402 3.28079 22.1428H9.0334C9.1365 22.1428 9.23696 22.1613 9.33213 22.1983C9.4273 22.238 9.51454 22.2935 9.58592 22.3675C9.6573 22.4389 9.71546 22.5262 9.75511 22.6213C9.79477 22.7165 9.81328 22.817 9.81063 22.9201V28.5035H10.5667C10.6672 28.5035 10.7676 28.522 10.8628 28.559C10.9553 28.596 11.0426 28.6515 11.114 28.7229C11.1853 28.7943 11.2435 28.8762 11.2832 28.9714C11.3228 29.0666 11.344 29.1644 11.344 29.2649V32.6408C11.344 32.7413 11.3255 32.8417 11.2884 32.9369C11.2514 33.0294 11.1959 33.1167 11.1245 33.188C11.0532 33.2594 10.9712 33.3176 10.876 33.3572C10.7835 33.3969 10.683 33.418 10.5826 33.418H9.25282C9.15236 33.418 9.0519 33.3995 8.95673 33.3625C8.86156 33.3255 8.77696 33.27 8.70558 33.1986C8.6342 33.1272 8.57604 33.0453 8.53639 32.9501C8.49673 32.8576 8.47558 32.7571 8.47558 32.6567V31.3692H2.84722V32.6223L2.85516 32.6276Z" fill="white"/>
<path d="M18.5422 25.7254C18.537 25.3949 18.3995 25.0829 18.1642 24.8529C18.0162 24.7128 17.8417 24.6044 17.6487 24.5357C17.4557 24.467 17.2521 24.4405 17.0486 24.4564C16.6282 24.4247 16.2105 24.5357 15.8616 24.7683C15.5708 25.0195 15.3566 25.342 15.2377 25.7068L18.5449 25.7254H18.5422ZM15.3275 27.7742C15.4597 28.1893 15.7479 28.5356 16.1339 28.7365C16.5489 28.948 17.0116 29.0564 17.4768 29.0484C17.7782 29.0484 18.0796 29.0299 18.3783 28.985C18.6374 28.9453 18.8912 28.8766 19.1344 28.7814C19.2798 28.7286 19.4305 28.6995 19.5838 28.6995C19.7319 28.6942 19.8799 28.7312 20.0068 28.8079C20.1337 28.8845 20.2368 28.9956 20.3029 29.1277L20.6149 29.7834C20.673 29.8971 20.7021 30.024 20.6995 30.1535C20.7048 30.2883 20.673 30.4231 20.6096 30.5421C20.5435 30.6611 20.4483 30.7589 20.332 30.8276C19.8271 31.1184 19.2825 31.3299 18.7114 31.4542C18.1959 31.5493 17.6725 31.5996 17.149 31.5969C16.4432 31.6075 15.7426 31.4885 15.079 31.248C14.4948 31.0338 13.9634 30.6981 13.5166 30.2672C13.0778 29.831 12.7368 29.3102 12.512 28.7312C12.2688 28.0967 12.1472 27.4226 12.1525 26.7432C12.1499 26.1008 12.2715 25.4636 12.512 24.8662C12.7394 24.2846 13.0804 23.7532 13.5166 23.3038C13.9608 22.8517 14.4922 22.4974 15.079 22.2595C15.7373 21.9978 16.4405 21.8709 17.149 21.8815C17.7253 21.8815 18.299 21.9872 18.8383 22.1934C19.3671 22.3917 19.8535 22.6931 20.2659 23.0817C20.6783 23.4703 21.0114 23.933 21.2441 24.4485C21.4952 25.0089 21.6221 25.617 21.6142 26.2303C21.6195 26.537 21.5983 26.8463 21.5507 27.1503C21.5137 27.3142 21.4238 27.4622 21.2943 27.5733C21.178 27.6922 21.0194 27.761 20.8528 27.7663L15.3249 27.7715L15.3275 27.7742Z" fill="white"/>
<path d="M25.8741 31.3564C25.7737 31.3564 25.6732 31.3379 25.5781 31.3009C25.4829 31.2639 25.3983 31.2083 25.3269 31.137C25.2555 31.0656 25.1974 30.9836 25.1577 30.8885C25.1181 30.7933 25.0969 30.6955 25.0969 30.595V25.2125H23.2225C23.1221 25.2125 23.0216 25.194 22.9265 25.157C22.8313 25.12 22.7467 25.0645 22.6753 24.9931C22.6039 24.9217 22.5458 24.8398 22.5061 24.7446C22.4665 24.6521 22.4453 24.5516 22.4453 24.4511V22.9152C22.4453 22.8121 22.4638 22.7116 22.5008 22.6164C22.5405 22.5213 22.596 22.434 22.67 22.3627C22.7414 22.2913 22.8286 22.2331 22.9238 22.1935C23.019 22.1538 23.1194 22.1353 23.2225 22.1379H30.0617C30.1648 22.1379 30.2653 22.1564 30.3578 22.1961C30.453 22.2358 30.5376 22.2913 30.6089 22.3627C30.6803 22.434 30.7385 22.5186 30.7781 22.6138C30.8178 22.709 30.8389 22.8094 30.8389 22.9099V24.4379C30.8389 24.541 30.8204 24.6415 30.7808 24.734C30.7411 24.8292 30.6856 24.9138 30.6142 24.9852C30.5429 25.0565 30.4583 25.1147 30.3631 25.1544C30.2679 25.194 30.1675 25.2152 30.067 25.2152H28.19V30.5792C28.19 30.6796 28.1715 30.7801 28.1345 30.8752C28.0975 30.9678 28.0419 31.055 27.9706 31.1264C27.8992 31.1978 27.8172 31.2559 27.7221 31.2956C27.6295 31.3352 27.5291 31.3564 27.4286 31.3564H27.4101L25.8715 31.3511L25.8741 31.3564Z" fill="white"/>
<path d="M38.2928 25.1332C37.8566 24.9005 37.3728 24.7737 36.8811 24.7631C36.6379 24.7631 36.3947 24.8054 36.1647 24.8847C35.9347 24.9693 35.7206 25.0962 35.5408 25.2627C35.3452 25.4372 35.1892 25.6513 35.0781 25.8893C34.9592 26.1589 34.901 26.4524 34.9063 26.7485C34.901 27.0393 34.9618 27.3274 35.0914 27.5892C35.205 27.8244 35.3663 28.0386 35.5593 28.2131C35.94 28.5462 36.4264 28.7312 36.9313 28.7339C37.4442 28.7233 37.9412 28.5673 38.3669 28.2844C38.5334 28.1628 38.7343 28.0994 38.9379 28.0994C39.0595 28.0994 39.1785 28.1258 39.2895 28.1787C39.3979 28.2342 39.4931 28.3135 39.5644 28.4113L40.1883 29.252C40.2967 29.3921 40.3549 29.5666 40.3549 29.7437C40.3575 29.8706 40.3311 29.9975 40.2729 30.1139C40.2148 30.2302 40.1302 30.328 40.0271 30.402C39.5169 30.8356 38.9247 31.1634 38.2849 31.3643C37.7773 31.5097 37.2512 31.5837 36.7225 31.589C36.0008 31.5969 35.2843 31.4806 34.6023 31.24C34.0022 31.0259 33.4523 30.6928 32.987 30.2593C32.5376 29.8283 32.186 29.3049 31.9613 28.7233C31.718 28.0888 31.5964 27.4147 31.6017 26.7353C31.5991 26.0928 31.718 25.4557 31.9507 24.8582C32.1754 24.2766 32.5164 23.7479 32.9526 23.3011C33.3888 22.8544 33.9123 22.5027 34.4886 22.2675C35.1178 22.0084 35.7946 21.8788 36.4766 21.8894C37.0345 21.8815 37.5896 21.937 38.1342 22.0507C38.692 22.1882 39.2234 22.4234 39.6966 22.7486C39.8288 22.8173 39.9398 22.9204 40.0191 23.0447C40.0985 23.1716 40.1434 23.3144 40.146 23.465C40.146 23.6052 40.1037 23.74 40.0244 23.8563L39.4296 24.8371C39.3635 24.964 39.2604 25.0671 39.1388 25.1411C39.0146 25.2125 38.8744 25.2495 38.7317 25.2469C38.5784 25.2469 38.425 25.2072 38.2902 25.1305L38.2928 25.1332Z" fill="white"/>
<path d="M45.1724 26.9413V30.5657C45.1724 30.6662 45.1539 30.7667 45.1169 30.8618C45.0799 30.9544 45.0244 31.0416 44.953 31.113C44.8816 31.1844 44.7997 31.2425 44.7045 31.2822C44.6093 31.3218 44.5115 31.343 44.4111 31.343H42.8751C42.772 31.343 42.6715 31.3245 42.5764 31.2875C42.4812 31.2505 42.3966 31.1923 42.3252 31.1183C42.2512 31.0469 42.193 30.9597 42.1534 30.8645C42.1137 30.7693 42.0952 30.6662 42.1005 30.5631V22.9044C42.1005 22.804 42.119 22.7035 42.156 22.6083C42.193 22.5158 42.2485 22.4286 42.3199 22.3572C42.3913 22.2858 42.4733 22.2276 42.5684 22.188C42.661 22.1483 42.7614 22.1272 42.8619 22.1272H44.3925C44.4957 22.1272 44.5961 22.1457 44.6913 22.1827C44.7865 22.2223 44.8737 22.2779 44.9451 22.3519C45.0165 22.4259 45.0746 22.5105 45.1143 22.6057C45.1539 22.7009 45.1724 22.8013 45.1698 22.9044V26.1403L47.5464 22.64C47.6575 22.4894 47.8002 22.3625 47.9641 22.2699C48.1307 22.1748 48.3184 22.1272 48.5087 22.1272H49.9416C50.05 22.1245 50.1557 22.1457 50.2562 22.188C50.3567 22.2303 50.4439 22.2937 50.5179 22.3757C50.6633 22.5237 50.7426 22.722 50.7426 22.9282C50.74 23.1 50.6818 23.2639 50.5814 23.4014L48.5352 26.0821C48.4506 26.1931 48.4506 26.3438 48.5325 26.4575L49.397 27.6419C49.6614 28.049 50.0579 28.3556 50.5206 28.509C50.7585 28.5407 50.9779 28.6491 51.1471 28.8209C51.2661 29.0245 51.3189 29.2598 51.3004 29.4951V30.7455C51.2978 30.9147 51.2317 31.0733 51.1154 31.1949C51.007 31.3271 50.8537 31.4144 50.6845 31.4408C50.5761 31.4408 50.4756 31.4646 50.3725 31.4725C50.2694 31.4778 50.1769 31.4725 50.0606 31.4725C49.8015 31.4725 49.545 31.4434 49.2913 31.3906C49.011 31.3271 48.744 31.2214 48.4929 31.0786C48.1994 30.9147 47.9298 30.7138 47.6918 30.4759C47.3878 30.1692 47.1155 29.8335 46.8829 29.4713L45.1751 26.9413H45.1724Z" fill="white"/>
<path d="M60.1561 31.3564C60.0557 31.3564 59.9552 31.3379 59.86 31.3008C59.7649 31.2638 59.6803 31.2083 59.6089 31.1369C59.5375 31.0656 59.4793 30.9836 59.4397 30.8884C59.4 30.7959 59.3789 30.6954 59.3789 30.595V26.5317L56.4497 30.8303C56.3492 30.9757 56.2197 31.0999 56.0717 31.2004C55.9236 31.2982 55.7491 31.3484 55.572 31.3431H53.8087C53.7056 31.3431 53.6051 31.3246 53.5099 31.2876C53.4148 31.2506 53.3302 31.1925 53.2588 31.1184C53.1848 31.047 53.1266 30.9598 53.087 30.8646C53.0473 30.7695 53.0288 30.6664 53.0341 30.5633V22.9046C53.0341 22.8041 53.0526 22.7036 53.0896 22.6085C53.1266 22.5133 53.1821 22.4287 53.2535 22.3573C53.3249 22.286 53.4068 22.2278 53.502 22.1881C53.5945 22.1485 53.695 22.1273 53.7955 22.1273H55.3261C55.4292 22.1273 55.5297 22.1458 55.6249 22.1828C55.72 22.2225 55.8073 22.278 55.8787 22.352C55.9501 22.4234 56.0082 22.5107 56.0479 22.6058C56.0875 22.701 56.106 22.8015 56.1034 22.9046V26.9414L59.0326 22.6402C59.1357 22.4974 59.2599 22.3732 59.4027 22.2701C59.5481 22.1723 59.7199 22.122 59.8944 22.1273H61.6762C61.7793 22.1273 61.8798 22.1458 61.975 22.1828C62.0701 22.2225 62.1574 22.278 62.2287 22.352C62.3001 22.4234 62.3583 22.5107 62.3979 22.6058C62.4376 22.701 62.4561 22.8015 62.4535 22.9046V30.5633C62.4535 30.6637 62.435 30.7642 62.3979 30.8594C62.3609 30.9519 62.3054 31.0391 62.234 31.1105C62.1627 31.1819 62.0807 31.24 61.9855 31.2797C61.893 31.3193 61.7925 31.3405 61.6921 31.3405H61.6736L60.1561 31.3537V31.3564Z" fill="white"/>
<path d="M71.3788 18.1085C71.5507 18.0952 71.7225 18.119 71.8864 18.1798C72.0477 18.2406 72.1957 18.3332 72.3173 18.4548C72.5341 18.7059 72.6451 19.0284 72.6293 19.3589C72.6213 19.6312 72.5447 19.9009 72.4072 20.1361C72.2697 20.3714 72.0741 20.5697 71.8388 20.7098C71.3127 21.0799 70.5328 21.2623 69.4939 21.2623C68.3465 21.2623 67.5244 21.0773 67.0274 20.7098C66.8 20.5644 66.6149 20.3635 66.4828 20.1282C66.3506 19.8929 66.2818 19.6286 66.2792 19.3589C66.2686 19.0284 66.3797 18.7086 66.5912 18.4548C66.7128 18.3305 66.8582 18.2353 67.0221 18.1745C67.1833 18.1137 67.3578 18.0926 67.5297 18.1058C67.8072 18.082 68.0848 18.1587 68.3069 18.3252C68.4708 18.4759 68.5924 18.6689 68.6532 18.8804C68.714 19.0522 68.8145 19.2082 68.9414 19.3404C69.1 19.4726 69.3062 19.536 69.5124 19.5175C69.6049 19.5255 69.7001 19.5122 69.7873 19.4832C69.8746 19.4514 69.9565 19.4038 70.0253 19.3404C70.1416 19.2056 70.2341 19.0496 70.2923 18.8804C70.3557 18.6663 70.4773 18.4733 70.6412 18.3252C70.8527 18.1666 71.1118 18.0899 71.3762 18.1058L71.3788 18.1085ZM71.8282 31.3558C71.7278 31.3558 71.6273 31.3373 71.5322 31.3003C71.437 31.2633 71.3524 31.2078 71.281 31.1364C71.2096 31.065 71.1515 30.9831 71.1118 30.8879C71.0722 30.7954 71.051 30.6949 71.051 30.5945V26.5312L68.1218 30.8298C68.0187 30.9752 67.8918 31.0994 67.7438 31.1999C67.5957 31.2977 67.4213 31.3479 67.2441 31.3426H65.494C65.3936 31.3426 65.2931 31.3241 65.1979 31.2871C65.1028 31.2501 65.0182 31.1946 64.9468 31.1232C64.8754 31.0518 64.8173 30.9699 64.7776 30.8747C64.7379 30.7822 64.7168 30.6817 64.7168 30.5813V22.9146C64.7168 22.8115 64.7353 22.7111 64.7723 22.6159C64.812 22.5207 64.8675 22.4335 64.9415 22.3621C65.0129 22.2907 65.1001 22.2326 65.1953 22.1929C65.2905 22.1533 65.3909 22.1347 65.494 22.1374H67.0115C67.1146 22.1374 67.2151 22.1559 67.3102 22.1929C67.4054 22.2326 67.4926 22.2881 67.564 22.3621C67.6354 22.4335 67.6936 22.5207 67.7332 22.6159C67.7729 22.7111 67.7914 22.8115 67.7887 22.9146V26.9383L70.7179 22.637C70.821 22.4943 70.9453 22.37 71.088 22.2669C71.2334 22.1691 71.4053 22.1189 71.5797 22.1242H73.3616C73.4647 22.1242 73.5651 22.1427 73.6603 22.1797C73.7555 22.2193 73.8427 22.2749 73.9141 22.3489C73.9855 22.4203 74.0436 22.5075 74.0833 22.6027C74.1229 22.6978 74.1415 22.7983 74.1388 22.9014V30.5601C74.1388 30.6606 74.1203 30.761 74.0833 30.8562C74.0463 30.9487 73.9908 31.036 73.9194 31.1073C73.848 31.1787 73.7661 31.2369 73.6709 31.2765C73.5784 31.3162 73.4779 31.3373 73.3774 31.3373H73.3589L71.8309 31.3506L71.8282 31.3558Z" fill="white"/>
<path d="M83.5433 30.579C83.5433 30.6795 83.5248 30.7799 83.4878 30.8751C83.4508 30.9676 83.3953 31.0549 83.3239 31.1263C83.2525 31.1976 83.1706 31.2558 83.0754 31.2954C82.9802 31.3351 82.8824 31.3562 82.782 31.3562H81.246C81.1455 31.3562 81.0451 31.3377 80.9499 31.3007C80.8547 31.2637 80.7701 31.2082 80.6987 31.1368C80.6274 31.0654 80.5692 30.9835 80.5296 30.8883C80.4899 30.7958 80.4688 30.6953 80.4688 30.5949V22.9177C80.4688 22.8146 80.4873 22.7141 80.5243 22.6189C80.5639 22.5238 80.6194 22.4365 80.6935 22.3652C80.7648 22.2938 80.8521 22.2356 80.9473 22.196C81.0424 22.1563 81.1429 22.1378 81.246 22.1404H82.7C82.8824 22.1457 83.0595 22.188 83.2234 22.27C83.3847 22.3519 83.5275 22.4683 83.6385 22.611L85.9914 25.2732L88.1618 22.6322C88.2755 22.4894 88.4156 22.3652 88.5742 22.2726C88.7276 22.1827 88.9047 22.1352 89.0844 22.1378H90.4565C90.5596 22.1378 90.6601 22.1563 90.7552 22.1933C90.8504 22.233 90.9377 22.2885 91.009 22.3625C91.0804 22.4339 91.1386 22.5211 91.1782 22.6163C91.2179 22.7115 91.2364 22.8119 91.2337 22.915V30.5737C91.2337 30.6742 91.2152 30.7746 91.1782 30.8698C91.1412 30.9623 91.0857 31.0496 91.0143 31.121C90.9429 31.1923 90.861 31.2505 90.7658 31.2902C90.6733 31.3298 90.5728 31.351 90.4724 31.351H88.9338C88.8307 31.351 88.7302 31.3325 88.6377 31.2928C88.5425 31.2531 88.4579 31.1976 88.3865 31.1263C88.3151 31.0549 88.257 30.9703 88.2173 30.8751C88.1777 30.7799 88.1565 30.6795 88.1565 30.579V26.8277L86.4329 28.7972C86.3668 28.8739 86.2848 28.9373 86.1923 28.9796C86.0997 29.0219 85.9993 29.043 85.8988 29.0457C85.7984 29.0457 85.7006 29.0272 85.6107 28.9875C85.5181 28.9479 85.4362 28.8924 85.3675 28.821L83.546 26.8356L83.5407 30.5737L83.5433 30.579Z" fill="white"/>
<path d="M100.62 31.3565C100.52 31.3565 100.419 31.338 100.324 31.301C100.229 31.264 100.144 31.2085 100.073 31.1371C100.001 31.0657 99.9433 30.9838 99.9036 30.8886C99.864 30.7961 99.8428 30.6956 99.8428 30.5952V26.5318L96.9163 30.8304C96.8132 30.9758 96.6837 31.1027 96.5356 31.2005C96.3876 31.2984 96.2131 31.3486 96.036 31.3433H94.2753C94.1748 31.3433 94.0744 31.3248 93.9792 31.2878C93.884 31.2508 93.7994 31.1953 93.728 31.1239C93.6567 31.0525 93.5985 30.9706 93.5588 30.8754C93.5192 30.7829 93.498 30.6824 93.498 30.5819V22.9153C93.498 22.8122 93.5166 22.7117 93.5536 22.6166C93.5932 22.5214 93.6487 22.4342 93.7228 22.3628C93.7941 22.2914 93.8814 22.2332 93.9765 22.1936C94.0717 22.1539 94.1722 22.1354 94.2753 22.1381H95.7875C95.8906 22.1381 95.991 22.1566 96.0862 22.1936C96.1814 22.2332 96.2686 22.2888 96.34 22.3628C96.4114 22.4342 96.4695 22.5214 96.5092 22.6166C96.5488 22.7117 96.5673 22.8122 96.5647 22.9153V26.939L99.4939 22.6377C99.5996 22.4976 99.7318 22.3786 99.8772 22.2808C100.023 22.183 100.194 22.1328 100.369 22.1381H102.151C102.254 22.1381 102.354 22.1566 102.449 22.1936C102.545 22.2332 102.632 22.2888 102.703 22.3628C102.775 22.4342 102.833 22.5214 102.872 22.6166C102.912 22.7117 102.931 22.8122 102.928 22.9153V30.574C102.928 30.6745 102.909 30.7749 102.872 30.8701C102.835 30.9626 102.78 31.0499 102.709 31.1212C102.637 31.1926 102.555 31.2508 102.46 31.2904C102.368 31.3301 102.267 31.3512 102.167 31.3512H100.604H100.617L100.62 31.3565Z" fill="white"/>
<path d="M108.239 28.3872C108.437 28.5115 108.656 28.6066 108.884 28.6648C109.143 28.7177 109.41 28.7415 109.674 28.7362C109.952 28.7573 110.229 28.715 110.488 28.6093C110.747 28.5035 110.975 28.3396 111.16 28.1308C111.485 27.7131 111.654 27.1949 111.638 26.6635C111.652 26.1718 111.488 25.6933 111.178 25.3126C111.012 25.1249 110.806 24.9769 110.573 24.8791C110.34 24.7839 110.089 24.7416 109.838 24.7575C109.529 24.7707 109.225 24.85 108.95 24.9901C108.675 25.1302 108.432 25.3311 108.241 25.5743V28.3793L108.239 28.3872ZM108.239 34.6738C108.239 34.7743 108.22 34.8747 108.183 34.9699C108.146 35.0624 108.091 35.1497 108.019 35.2211C107.948 35.2924 107.866 35.3506 107.771 35.3903C107.676 35.4299 107.578 35.4511 107.477 35.4511H105.941C105.841 35.4511 105.74 35.4326 105.645 35.3955C105.55 35.3585 105.465 35.303 105.394 35.2316C105.323 35.1603 105.265 35.0783 105.225 34.9831C105.185 34.8906 105.164 34.7902 105.164 34.6897V22.9175C105.164 22.8144 105.183 22.7139 105.22 22.6187C105.259 22.5236 105.315 22.4363 105.389 22.3649C105.46 22.2936 105.547 22.2354 105.643 22.1957C105.738 22.1561 105.838 22.1376 105.941 22.1402H107.562C107.649 22.1402 107.736 22.1561 107.818 22.1878C107.9 22.2195 107.974 22.2671 108.035 22.3279C108.096 22.3887 108.149 22.4628 108.183 22.5421C108.217 22.6214 108.236 22.7086 108.239 22.7959V22.817C108.545 22.5394 108.9 22.32 109.283 22.1693C109.764 21.9763 110.28 21.8838 110.8 21.8944C111.382 21.8891 111.958 22.0054 112.49 22.2407C112.992 22.4654 113.439 22.8011 113.79 23.2241C114.158 23.6683 114.438 24.1732 114.623 24.7178C114.829 25.3206 114.935 25.955 114.935 26.5948C114.938 27.2636 114.816 27.9272 114.575 28.5511C114.348 29.1406 114.007 29.68 113.571 30.14C113.127 30.5973 112.595 30.9595 112.009 31.2027C111.363 31.4697 110.668 31.6045 109.97 31.594C109.656 31.594 109.344 31.5702 109.032 31.5226C108.762 31.4856 108.495 31.4142 108.244 31.3058V34.6685L108.239 34.6738Z" fill="white"/>
<path d="M34.7079 12.8003C31.4615 13.9661 30.3458 12.9007 29.4126 10.3046L28.2124 6.96569C27.0465 3.71927 28.1119 2.60365 30.708 1.67043L34.047 0.470211C37.2934 -0.695644 38.409 0.369751 39.3422 2.96583L40.5424 6.30477C41.7083 9.55119 40.6429 10.6668 38.0468 11.6L34.7079 12.8003Z" fill="#F72A16"/>
<path d="M49.4395 12.8003C52.686 13.9661 53.8016 12.9007 54.7348 10.3046L55.935 6.96569C57.1009 3.71927 56.0355 2.60365 53.4394 1.67043L50.1005 0.470211C46.854 -0.695644 45.7384 0.369751 44.8052 2.96583L43.605 6.30477C42.4391 9.55119 43.5045 10.6668 46.1006 11.6L49.4395 12.8003Z" fill="#F8BA22"/>
<path d="M65.495 12.8003C62.2486 13.9661 61.1329 12.9007 60.1997 10.3046L58.9995 6.96569C57.8337 3.71927 58.899 2.60365 61.4951 1.67043L64.8341 0.470211C68.0805 -0.695644 69.1961 0.369751 70.1293 2.96583L71.3295 6.30477C72.4954 9.55119 71.43 10.6668 68.8339 11.6L65.495 12.8003Z" fill="#06C92E"/>
<path d="M80.2247 12.8003C83.4711 13.9661 84.5867 12.9007 85.5199 10.3046L86.7202 6.96569C87.886 3.71927 86.8206 2.60365 84.2246 1.67043L80.8856 0.470211C77.6392 -0.695644 76.5236 0.369751 75.5903 2.96583L74.3901 6.30477C73.2243 9.55119 74.2897 10.6668 76.8858 11.6L80.2247 12.8003Z" fill="#00C2FC"/>
<path d="M60.3965 47.7983L52.7998 55.395" stroke="white" stroke-width="1.5" stroke-linecap="round"/>
<path d="M60.3965 55.395L52.7998 47.7983" stroke="white" stroke-width="1.5" stroke-linecap="round"/>
</svg>
