<svg width="16" height="16" viewBox="0 0 16 16" fill="none" xmlns="http://www.w3.org/2000/svg">
<path d="M14.6205 15.5338C14.8651 15.7573 15.2446 15.7402 15.4682 15.4955C15.6917 15.2509 15.6745 14.8714 15.4299 14.6479L14.6205 15.5338ZM11.5492 6.50213C11.5492 9.20212 9.32942 11.4043 6.5746 11.4043V12.6043C9.97731 12.6043 12.7492 9.87962 12.7492 6.50213H11.5492ZM6.5746 11.4043C3.81978 11.4043 1.6 9.20212 1.6 6.50213H0.4C0.4 9.87962 3.17189 12.6043 6.5746 12.6043V11.4043ZM1.6 6.50213C1.6 3.80213 3.81978 1.6 6.5746 1.6V0.4C3.17189 0.4 0.4 3.12464 0.4 6.50213H1.6ZM6.5746 1.6C9.32942 1.6 11.5492 3.80213 11.5492 6.50213H12.7492C12.7492 3.12464 9.97731 0.4 6.5746 0.4V1.6ZM9.59531 10.943L14.6205 15.5338L15.4299 14.6479L10.4047 10.057L9.59531 10.943Z" />
</svg>
