<svg width="817" height="562" viewBox="0 0 817 562" fill="none" xmlns="http://www.w3.org/2000/svg">
<g clip-path="url(#clip0_136_22420)">
<rect width="672.555" height="165.644" rx="82.822" transform="matrix(0.707107 -0.707107 -0.707107 -0.707107 341.289 709.398)" fill="url(#paint0_linear_136_22420)"/>
<rect width="894.078" height="193.584" rx="96.792" transform="matrix(0.688702 -0.725045 -0.725045 -0.688702 140.711 781.496)" fill="url(#paint1_linear_136_22420)"/>
<path d="M305.999 687.297L469.71 501.058L431.015 474.835L272.616 656.071L305.999 687.297Z" fill="url(#paint2_linear_136_22420)"/>
<path d="M453.082 456.361L459.418 473.481L477.158 472.61L463.333 484.061L469.668 501.181L454.789 491.138L440.963 502.59L445.592 484.932L430.712 474.889L448.453 474.018L453.082 456.361Z" fill="url(#paint3_radial_136_22420)"/>
<g filter="url(#filter0_f_136_22420)">
<ellipse cx="294.141" cy="416.526" rx="145.437" ry="147.683" fill="#090088"/>
</g>
<g filter="url(#filter1_f_136_22420)">
<ellipse cx="304.871" cy="508.576" rx="136.207" ry="175.373" fill="#6F00FD" fill-opacity="0.7"/>
</g>
<path fill-rule="evenodd" clip-rule="evenodd" d="M445.8 255.466L456.487 244.726C461.692 239.53 461.692 231.253 456.487 226.057C451.37 220.861 442.989 220.861 437.783 226.057L434.696 229.139L431.608 226.057C426.403 220.861 418.022 220.861 412.905 226.057C412.19 226.771 411.574 227.542 411.055 228.356L336.105 303.173L367.178 334.191L445.922 255.588L445.8 255.466Z" fill="url(#paint4_radial_136_22420)"/>
<path d="M412.905 244.726L425.874 257.759L434.696 266.565L443.518 257.759L456.487 244.726C461.692 239.53 461.692 231.253 456.487 226.057C451.37 220.861 442.989 220.861 437.783 226.057L434.696 229.139L431.608 226.057C426.403 220.861 418.022 220.861 412.905 226.057C407.7 231.253 407.7 239.53 412.905 244.726Z" fill="url(#paint5_radial_136_22420)"/>
<path fill-rule="evenodd" clip-rule="evenodd" d="M368.89 245.09L263.855 350.176L284.665 370.996L391.536 264.073L391.273 263.81L398.438 256.58C401.875 253.136 401.875 247.649 398.438 244.204C395.06 240.76 389.527 240.76 386.09 244.204L384.052 246.247L382.014 244.204C378.922 241.106 374.134 240.795 370.744 243.271L370.726 243.253L370.603 243.377C370.276 243.626 369.963 243.902 369.666 244.204C369.384 244.487 369.126 244.783 368.89 245.09Z" fill="url(#paint6_radial_136_22420)"/>
<path d="M369.666 256.58L378.228 265.22L384.052 271.058L389.876 265.22L398.438 256.58C401.875 253.136 401.875 247.649 398.438 244.204C395.06 240.76 389.527 240.76 386.09 244.204L384.052 246.247L382.014 244.204C378.577 240.76 373.044 240.76 369.666 244.204C366.229 247.649 366.229 253.136 369.666 256.58Z" fill="url(#paint7_radial_136_22420)"/>
<path opacity="0.1" d="M169.135 373.447L169.135 373.447L169.127 373.455L160.287 382.376L160.279 382.384L156.523 386.148L152.768 382.384L152.76 382.376L143.919 373.455L143.919 373.455L143.912 373.447C141.601 371.131 141.601 367.475 143.912 365.159L143.921 365.149L143.931 365.139C146.162 362.864 149.843 362.836 152.161 365.159L154.412 362.913L152.161 365.159L154.267 367.27L156.523 369.531L158.779 367.27L160.886 365.159C163.203 362.836 166.884 362.865 169.115 365.139L169.125 365.149L169.135 365.159C171.445 367.475 171.445 371.132 169.135 373.447Z" fill="white" stroke="white" stroke-width="6.37337"/>
<path fill-rule="evenodd" clip-rule="evenodd" d="M165.693 385.979L160.652 380.933L141.134 361.259C133.299 353.416 133.299 340.921 141.134 333.078C148.834 325.235 161.448 325.235 169.282 333.078L173.929 337.73L178.576 333.078C186.41 325.235 199.024 325.235 206.725 333.078C208.389 334.744 209.699 336.62 210.656 338.616C212.168 339.351 213.585 340.346 214.84 341.603L275.312 402.171C281.348 408.218 281.348 418.021 275.312 424.068L250.178 449.241C244.141 455.288 234.353 455.288 228.316 449.241L167.845 388.674C167.013 387.84 166.295 386.936 165.693 385.979Z" fill="url(#paint8_linear_136_22420)" fill-opacity="0.25"/>
<g filter="url(#filter2_f_136_22420)">
<path d="M204.958 359.494L204.952 359.5L185.44 379.167L185.434 379.173L173.93 390.691L162.425 379.173L162.419 379.167L142.907 359.5L142.901 359.494C136.041 352.626 136.041 341.711 142.901 334.843L142.908 334.836L142.916 334.828C149.629 327.99 160.648 327.968 167.515 334.843L172.162 339.495L173.929 341.265L175.696 339.495L180.343 334.843C187.21 327.968 198.229 327.99 204.942 334.828L204.95 334.836L204.957 334.843C211.818 341.712 211.818 352.626 204.958 359.494Z" stroke="#00FFE1" stroke-width="4.99578"/>
</g>
<path d="M205.664 360.199L205.66 360.203L186.146 379.873L186.142 379.876L173.93 392.103L161.717 379.876L161.713 379.873L142.199 360.203L142.195 360.199C134.946 352.941 134.946 341.396 142.195 334.138L142.195 334.138L142.204 334.129C149.312 326.889 160.968 326.876 168.221 334.138L172.868 338.79L173.929 339.853L174.99 338.79L179.637 334.138C186.891 326.876 198.547 326.89 205.654 334.129L205.663 334.138C212.913 341.396 212.913 352.942 205.664 360.199Z" stroke="#00FFE1" stroke-width="3"/>
<g filter="url(#filter3_f_136_22420)">
<path d="M205.725 360.628L205.723 360.63L186.207 380.301L186.205 380.303L173.531 392.992L160.857 380.303L160.855 380.301L141.339 360.629L141.337 360.627C133.834 353.116 133.834 341.159 141.337 333.647L141.337 333.647L141.342 333.642C148.706 326.141 160.777 326.134 168.282 333.647L172.929 338.3L173.531 338.902L174.132 338.3L178.779 333.647C186.284 326.134 198.355 326.141 205.72 333.642L205.725 333.648C213.228 341.159 213.228 353.116 205.725 360.628Z" stroke="#96FFC0" stroke-width="1.7"/>
</g>
<path d="M196.859 248.164L197.92 262.568L211.859 263.664L197.92 264.76L196.859 279.164L195.799 264.76L181.859 263.664L195.799 262.568L196.859 248.164Z" fill="url(#paint9_radial_136_22420)"/>
<path d="M196.859 248.164L197.92 262.568L211.859 263.664L197.92 264.76L196.859 279.164L195.799 264.76L181.859 263.664L195.799 262.568L196.859 248.164Z" fill="url(#paint10_radial_136_22420)"/>
<path d="M153.443 455.441L155.049 476.769L176.145 478.392L155.049 480.015L153.443 501.343L151.838 480.015L130.742 478.392L151.838 476.769L153.443 455.441Z" fill="#00A3FF"/>
<path d="M153.443 455.441L155.049 476.769L176.145 478.392L155.049 480.015L153.443 501.343L151.838 480.015L130.742 478.392L151.838 476.769L153.443 455.441Z" fill="url(#paint11_radial_136_22420)"/>
<path d="M153.443 455.441L155.049 476.769L176.145 478.392L155.049 480.015L153.443 501.343L151.838 480.015L130.742 478.392L151.838 476.769L153.443 455.441Z" fill="url(#paint12_radial_136_22420)"/>
<path d="M477.84 423.164L478.475 431.742L486.821 432.394L478.475 433.047L477.84 441.624L477.205 433.047L468.859 432.394L477.205 431.742L477.84 423.164Z" fill="url(#paint13_radial_136_22420)"/>
<path d="M277.841 598.41C280.41 583.344 295.01 537.996 304.081 537.608C317.063 537.045 326.925 580.847 330.368 597.648C330.444 598.024 382.627 590.49 386.299 589.627C386.428 589.597 386.544 589.539 386.641 589.451C391.669 584.964 396.856 572.377 390.358 517.237C387.921 497.362 378.93 428.77 353.557 360.14C351.877 355.597 351.826 350.608 353.599 346.106C353.641 345.997 353.714 345.899 353.799 345.818C354.865 344.857 362.015 338.117 362.597 329.121C363.588 313.912 350.968 287.841 349.033 283.943C348.889 283.648 348.962 283.294 349.202 283.076C356.567 276.374 356.36 272.417 356.26 271.763C356.251 271.704 356.237 271.652 356.217 271.599C350.557 257.061 338.035 253.715 334.375 254.732C331.395 255.559 328.584 259.526 327.63 260.986C327.43 261.291 327.026 261.398 326.699 261.241C310.616 253.572 299.154 254.707 293.219 254.973C273.884 255.838 261.063 262.631 258.162 264.308C257.815 264.507 257.371 264.402 257.166 264.062C253.929 258.752 251.613 258.388 251.238 258.363C251.208 258.364 251.179 258.366 251.143 258.367C244.672 258.686 232.452 266.863 231.071 275.48C230.324 280.125 237.67 285.838 239.515 287.19C239.76 287.368 239.869 287.69 239.788 287.984C233.025 312.403 227.097 323.262 230.524 335.066C231.898 339.807 239.927 351.524 240.454 352.289C240.473 352.317 240.492 352.346 240.505 352.375C242.346 355.903 242.731 360 241.694 363.847C222.431 435.215 215.206 521.517 215.206 521.517C212.081 549.71 207.31 579.162 214.189 596.575C214.303 596.86 277.77 598.793 277.836 598.422L277.841 598.41Z" fill="#66B1FF"/>
<path d="M347.519 410.942C325.243 389.791 302.75 410.325 300.942 412.048C298.982 410.494 274.751 392.05 254.453 415.106C231.925 440.693 255.678 489.542 263.546 500.94C271.413 512.338 286.796 530.727 306.452 530.428C326.064 528.97 339.311 509.306 346.128 497.245C352.946 485.189 372.242 434.421 347.519 410.942Z" fill="white"/>
<path d="M329.842 307.572C326.905 299.564 296.665 301.972 296.68 302.155C296.665 301.972 267.255 304.088 264.852 312.922C263.391 318.299 264.811 328.711 267.758 335.077C271.013 342.117 289.323 355.686 300.673 354.697C311.614 353.852 328.532 337.385 330.598 329.906C332.466 323.147 331.766 312.815 329.842 307.572Z" fill="white"/>
<path d="M276.457 302.457C281.473 302.232 285.357 297.984 285.133 292.968C284.908 287.953 280.66 284.068 275.644 284.293C270.629 284.517 266.744 288.765 266.969 293.781C267.193 298.797 271.441 302.681 276.457 302.457Z" fill="white"/>
<path d="M324.246 292.501C324.974 287.533 321.537 282.916 316.569 282.188C311.601 281.46 306.984 284.897 306.256 289.865C305.528 294.832 308.965 299.45 313.932 300.178C318.9 300.906 323.517 297.469 324.246 292.501Z" fill="white"/>
<path d="M480.869 321.969C480.156 316.114 474.066 311.975 466.87 315.315C462.178 317.493 461.702 320.508 461.702 320.508C461.702 320.508 463.287 309.037 463.138 301.995C463.008 295.77 462.082 290.98 455.713 289.213C450.551 287.779 445.079 290.424 443.09 297.645C441.53 303.323 440.74 310.846 440.74 310.846C436.027 296.942 432.312 293.936 424.066 294.75C420.088 295.141 415.022 299.713 416.231 304.995C418.212 313.639 423.694 328.036 423.694 328.036C423.694 328.036 418.199 327.257 415.184 328.897C407.654 332.987 405.801 341.387 414.707 352.3C412.225 404.006 353.445 360.815 353.445 360.815L370.701 418.669C417.144 453.525 461.577 439.876 475.415 359.875C475.415 359.875 482.033 331.568 480.869 321.974L480.869 321.969Z" fill="url(#paint14_linear_136_22420)"/>
<path d="M463.971 341.369C458.711 339.084 457.648 333.873 458.253 329.234C452.744 327.625 445.487 328.406 443.781 333.723C443.781 333.723 436.386 327.325 430.604 331.526C435.45 334.754 440.557 341.041 436.563 347.83C434.982 350.521 432.885 352.15 430.63 353.022C436.507 358.106 445.751 360.526 449.881 360.353C458.81 359.972 469.151 351.802 468.514 342.215C467.108 342.313 465.597 342.078 463.977 341.374L463.971 341.369Z" fill="#66B1FF"/>
<path d="M235.664 378.72C235.563 378.849 203.882 409.85 187.538 454.658C182.781 467.7 173.783 498.865 177.124 514.177C177.124 514.177 176.7 543.002 198.42 537.4L195.699 534.486C195.699 534.486 200.433 542.124 209.69 539.658C214.74 538.312 215.547 534.493 215.547 534.493C215.547 534.493 220.719 539.574 227.213 536.319C233.388 533.221 233.75 527.792 233.631 527.127C233.631 527.127 229.489 527.028 227.233 524.171C220.206 515.255 223.965 509.846 226.113 508.019C226.113 508.019 230.931 505.331 233.771 502.032C236.076 499.356 235.961 491.079 225.465 489.694C225.465 489.694 224.52 428.43 234.425 404.155L238.945 375.071L235.664 378.72Z" fill="url(#paint15_linear_136_22420)"/>
<path d="M235.664 378.72C235.563 378.849 203.882 409.85 187.538 454.658C182.781 467.7 173.783 498.865 177.124 514.177C177.124 514.177 176.7 543.002 198.42 537.4L195.699 534.486C195.699 534.486 200.433 542.124 209.69 539.658C214.74 538.312 215.547 534.493 215.547 534.493C215.547 534.493 220.719 539.574 227.213 536.319C233.388 533.221 233.75 527.792 233.631 527.127C233.631 527.127 229.489 527.028 227.233 524.171C220.206 515.255 223.965 509.846 226.113 508.019C226.113 508.019 230.931 505.331 233.771 502.032C236.076 499.356 235.961 491.079 225.465 489.694C225.465 489.694 224.52 428.43 234.425 404.155L238.945 375.071L235.664 378.72Z" fill="url(#paint16_linear_136_22420)"/>
<path d="M261.475 276.153C262.567 274.331 266.693 269.03 277.49 268.524C279.726 268.424 282.912 271.393 280.46 274.615C278.321 277.432 266.018 281.765 263.75 281.57C261.429 281.366 259.996 278.62 261.475 276.159L261.475 276.153Z" fill="#0073E4"/>
<path d="M325.296 272.021C324.131 270.247 319.805 265.105 308.999 265.014C306.757 264.995 303.695 268.091 306.265 271.219C308.515 273.946 320.972 277.811 323.23 277.52C325.54 277.227 326.868 274.429 325.296 272.021Z" fill="#0073E4"/>
<path d="M276.308 299.177C279.513 299.033 281.996 296.318 281.852 293.113C281.709 289.907 278.994 287.425 275.789 287.568C272.583 287.712 270.101 290.427 270.244 293.632C270.387 296.838 273.102 299.32 276.308 299.177Z" fill="#333333"/>
<path d="M319.574 295.065C321.739 292.697 321.575 289.022 319.207 286.857C316.839 284.691 313.164 284.856 310.999 287.224C308.833 289.592 308.998 293.267 311.366 295.432C313.734 297.597 317.409 297.433 319.574 295.065Z" fill="#333333"/>
<path d="M297.394 306.038C297.394 306.038 278.16 306.899 279.157 312.901C280.155 318.903 291.421 328.092 298.367 327.781C307.62 327.367 315.713 317.312 316.171 311.245C316.629 305.178 297.394 306.038 297.394 306.038Z" fill="#0073E4"/>
<path d="M274.565 327.791C276.809 330.91 279.857 333.584 283.018 335.725C289.425 340.068 297.226 341.758 304.752 339.584C310.956 337.794 316.292 333.815 320.822 329.326C321.633 328.519 320.323 327.321 319.511 328.128C312.756 334.827 303.74 340.269 293.887 338.434C287.963 337.329 282.695 333.925 278.526 329.665C278.147 329.279 277.774 328.881 277.412 328.476C277.268 328.316 277.124 328.151 276.987 327.991C276.793 327.769 276.987 327.997 276.893 327.883C276.83 327.808 276.774 327.74 276.711 327.666C276.486 327.391 276.266 327.116 276.057 326.829C275.394 325.904 273.895 326.861 274.565 327.791Z" fill="#0073E4"/>
<path d="M304.031 296.227L327.062 297.52L326.93 302.672L306.086 299.217L304.031 296.227Z" fill="#66B1FF"/>
<path d="M264.761 302.062L287.164 296.625L288.02 299.86L267.347 305.687L264.761 302.062Z" fill="#66B1FF"/>
<path d="M205.013 521.091C205.552 523.07 206.402 524.994 207.32 526.821C209.155 530.474 211.663 533.912 214.99 536.336C215.903 537.001 217.114 535.696 216.189 535.026C212.965 532.674 210.589 529.396 208.813 525.859C207.96 524.166 207.198 522.374 206.701 520.547C206.403 519.445 204.708 519.99 205.013 521.096L205.013 521.091Z" fill="#66B1FF"/>
<path d="M186.543 523.786C187.874 527.687 190.154 531.486 192.956 534.49C194.202 535.828 195.611 536.992 197.177 537.93C198.164 538.52 198.982 536.942 198.002 536.357C194.804 534.443 192.416 531.42 190.578 528.236C189.665 526.652 188.819 524.977 188.232 523.236C187.863 522.156 186.168 522.7 186.543 523.786Z" fill="#66B1FF"/>
<path d="M235.672 379.013C235.571 379.142 203.89 410.143 187.546 454.951C182.788 467.993 173.79 499.158 177.131 514.47C177.131 514.47 176.708 543.295 198.428 537.693L195.707 534.779C195.707 534.779 200.441 542.417 209.698 539.951C214.748 538.605 215.555 534.786 215.555 534.786C215.555 534.786 220.727 539.867 227.221 536.612C233.396 533.514 233.758 528.085 233.639 527.42C233.639 527.42 229.497 527.321 227.241 524.464C220.214 515.548 223.973 510.139 226.121 508.312C226.121 508.312 230.939 505.624 233.779 502.325C236.084 499.649 235.969 491.372 225.473 489.986C225.473 489.986 224.528 428.723 234.433 404.448L238.953 375.364L235.672 379.013Z" fill="url(#paint17_linear_136_22420)"/>
<path d="M205.028 521.383C205.567 523.363 206.418 525.287 207.336 527.114C209.171 530.766 211.678 534.205 215.006 536.629C215.919 537.294 217.129 535.989 216.204 535.319C212.981 532.967 210.605 529.689 208.828 526.152C207.976 524.459 207.214 522.667 206.717 520.84C206.419 519.738 204.724 520.283 205.028 521.389L205.028 521.383Z" fill="#66B1FF"/>
<path d="M186.551 524.079C187.881 527.98 190.162 531.779 192.964 534.783C194.21 536.121 195.619 537.285 197.185 538.223C198.172 538.813 198.99 537.235 198.01 536.65C194.812 534.736 192.424 531.713 190.586 528.529C189.673 526.945 188.827 525.27 188.24 523.529C187.871 522.449 186.176 522.993 186.551 524.079Z" fill="#66B1FF"/>
</g>
<path d="M188.731 531.619C192.32 531.375 250.234 524.417 250.234 524.417L246.553 505.649C246.553 505.649 189.376 521.211 186.746 522.291C184.115 523.371 185.143 531.863 188.731 531.619Z" fill="#4C4C4C"/>
<path d="M194.71 531.441L195.205 531.377C195.302 531.375 195.398 531.341 195.478 531.276C195.636 531.148 195.687 530.929 195.603 530.743C194.132 527.482 193.379 524.004 193.421 520.434C193.423 520.292 193.357 520.157 193.243 520.071C193.13 519.984 192.982 519.957 192.845 519.997L192.325 520.15C192.134 520.206 192.003 520.381 192.002 520.579C191.986 524.252 192.756 527.815 194.242 531.177C194.322 531.359 194.513 531.466 194.71 531.441Z" fill="white" stroke="white" stroke-width="0.899186" stroke-linejoin="round"/>
<path d="M255.473 525.6C259.098 527.884 264.476 529.962 269.013 529.072C278.45 527.222 284.599 518.071 282.748 508.635C280.897 499.199 271.747 493.049 262.31 494.9C257.774 495.79 253.72 499.422 251.227 502.907L255.473 525.6Z" fill="#989898"/>
<path d="M270.441 528.749C270.486 528.97 270.36 529.19 270.146 529.263C270.025 529.304 269.876 529.346 269.746 529.379C269.629 529.408 269.484 529.44 269.388 529.447C269.238 529.457 269.093 529.392 269.001 529.273C268.722 528.911 268.477 528.394 268.27 527.919C268.193 527.745 268.123 527.577 268.055 527.418C267.928 527.118 267.815 526.849 267.706 526.631C267.706 526.631 267.706 526.631 267.705 526.63L268.107 526.429C263.35 517.059 261.132 505.716 261.856 495.007L270.441 528.749ZM270.441 528.749C270.422 528.652 270.373 528.569 270.305 528.506M270.441 528.749L270.305 528.506M270.305 528.506C270.097 528.243 269.887 527.826 269.673 527.343C269.604 527.188 269.534 527.025 269.464 526.862C269.32 526.524 269.176 526.188 269.044 525.931L270.305 528.506Z" fill="#4C4C4C" stroke="#4C4C4C" stroke-width="0.899186" stroke-linejoin="round"/>
<path fill-rule="evenodd" clip-rule="evenodd" d="M251.272 502.723C250.783 502.391 250.195 502.27 249.614 502.381L248.679 502.56L248.677 502.55L246.692 502.94C246.112 503.053 245.611 503.386 245.282 503.876C244.952 504.367 244.833 504.956 244.947 505.536L248.835 525.356C248.948 525.935 249.281 526.436 249.771 526.766C250.262 527.095 250.851 527.214 251.431 527.1L252.258 526.938L252.259 526.943L254.246 526.562C254.826 526.451 255.329 526.12 255.66 525.632C255.992 525.143 256.113 524.554 256.002 523.974L252.203 504.137C252.092 503.557 251.761 503.055 251.272 502.723Z" fill="#ECECEC"/>
<path d="M235.672 379.603C235.571 379.732 203.89 410.732 187.546 455.541C182.788 468.583 173.79 499.748 177.131 515.06C177.131 515.06 176.708 543.885 198.428 538.283L195.707 535.369C195.707 535.369 200.441 543.006 209.698 540.541C214.748 539.195 215.555 535.376 215.555 535.376C215.555 535.376 220.727 540.457 227.221 537.202C233.396 534.104 233.758 528.675 233.639 528.01C233.639 528.01 229.497 527.911 227.241 525.054C220.214 516.138 223.973 510.729 226.121 508.902C226.121 508.902 230.939 506.214 233.779 502.915C236.084 500.239 235.969 491.962 225.473 490.576C225.473 490.576 224.528 429.313 234.433 405.038L238.953 375.954L235.672 379.603Z" fill="url(#paint18_linear_136_22420)"/>
<path d="M205.028 521.973C205.567 523.953 206.418 525.877 207.336 527.704C209.171 531.356 211.678 534.795 215.006 537.219C215.919 537.884 217.129 536.579 216.204 535.909C212.981 533.557 210.605 530.278 208.828 526.742C207.976 525.049 207.214 523.257 206.717 521.429C206.419 520.328 204.724 520.872 205.028 521.979L205.028 521.973Z" fill="#66B1FF"/>
<path d="M186.551 524.669C187.881 528.57 190.162 532.368 192.964 535.373C194.21 536.711 195.619 537.875 197.185 538.812C198.172 539.403 198.99 537.825 198.01 537.24C194.812 535.326 192.424 532.303 190.586 529.118C189.673 527.535 188.827 525.859 188.24 524.119C187.871 523.039 186.176 523.583 186.551 524.669Z" fill="#66B1FF"/>
<defs>
<filter id="filter0_f_136_22420" x="-878.595" y="-758.454" width="2345.47" height="2349.96" filterUnits="userSpaceOnUse" color-interpolation-filters="sRGB">
<feFlood flood-opacity="0" result="BackgroundImageFix"/>
<feBlend mode="normal" in="SourceGraphic" in2="BackgroundImageFix" result="shape"/>
<feGaussianBlur stdDeviation="513.649" result="effect1_foregroundBlur_136_22420"/>
</filter>
<filter id="filter1_f_136_22420" x="-512.823" y="-348.284" width="1635.39" height="1713.72" filterUnits="userSpaceOnUse" color-interpolation-filters="sRGB">
<feFlood flood-opacity="0" result="BackgroundImageFix"/>
<feBlend mode="normal" in="SourceGraphic" in2="BackgroundImageFix" result="shape"/>
<feGaussianBlur stdDeviation="340.743" result="effect1_foregroundBlur_136_22420"/>
</filter>
<filter id="filter2_f_136_22420" x="112.052" y="303.989" width="123.756" height="113.444" filterUnits="userSpaceOnUse" color-interpolation-filters="sRGB">
<feFlood flood-opacity="0" result="BackgroundImageFix"/>
<feBlend mode="normal" in="SourceGraphic" in2="BackgroundImageFix" result="shape"/>
<feGaussianBlur stdDeviation="11.6031" result="effect1_foregroundBlur_136_22420"/>
</filter>
<filter id="filter3_f_136_22420" x="132.603" y="324.908" width="81.8561" height="71.5436" filterUnits="userSpaceOnUse" color-interpolation-filters="sRGB">
<feFlood flood-opacity="0" result="BackgroundImageFix"/>
<feBlend mode="normal" in="SourceGraphic" in2="BackgroundImageFix" result="shape"/>
<feGaussianBlur stdDeviation="1.12808" result="effect1_foregroundBlur_136_22420"/>
</filter>
<linearGradient id="paint0_linear_136_22420" x1="-28.664" y1="121.425" x2="727.146" y2="45.515" gradientUnits="userSpaceOnUse">
<stop stop-color="#FF0099"/>
<stop offset="0.65" stop-color="#A000FF" stop-opacity="0"/>
</linearGradient>
<linearGradient id="paint1_linear_136_22420" x1="-38.1052" y1="141.907" x2="963.71" y2="27.4527" gradientUnits="userSpaceOnUse">
<stop stop-color="#FF0099"/>
<stop offset="0.65" stop-color="#A000FF" stop-opacity="0"/>
</linearGradient>
<linearGradient id="paint2_linear_136_22420" x1="283.909" y1="666.634" x2="453.019" y2="485.843" gradientUnits="userSpaceOnUse">
<stop stop-color="#5900FF" stop-opacity="0"/>
<stop offset="0.473957" stop-color="#005EFF" stop-opacity="0.31"/>
<stop offset="1" stop-color="#00FFBA"/>
</linearGradient>
<radialGradient id="paint3_radial_136_22420" cx="0" cy="0" r="1" gradientUnits="userSpaceOnUse" gradientTransform="translate(438.875 461.909) rotate(47.5038) scale(48.773 67.0107)">
<stop stop-color="#026FF7"/>
<stop offset="0.562168" stop-color="#FF00EF"/>
<stop offset="1" stop-color="#FF002B"/>
</radialGradient>
<radialGradient id="paint4_radial_136_22420" cx="0" cy="0" r="1" gradientUnits="userSpaceOnUse" gradientTransform="translate(441.367 229.96) rotate(137.064) scale(107.616 150.329)">
<stop stop-color="#FF0065"/>
<stop offset="0.562168" stop-color="#FF00C1" stop-opacity="0.1"/>
<stop offset="1" stop-color="#FF0037" stop-opacity="0"/>
</radialGradient>
<radialGradient id="paint5_radial_136_22420" cx="0" cy="0" r="1" gradientUnits="userSpaceOnUse" gradientTransform="translate(449.896 226.43) rotate(134.706) scale(46.5345 65.0472)">
<stop stop-color="#FF00D6"/>
<stop offset="0.562168" stop-color="#FF004D"/>
<stop offset="1" stop-color="#FF6291"/>
</radialGradient>
<radialGradient id="paint6_radial_136_22420" cx="0" cy="0" r="1" gradientUnits="userSpaceOnUse" gradientTransform="translate(388.649 246.684) rotate(134.402) scale(146.805 205.001)">
<stop stop-color="#00F1FF" stop-opacity="0.57"/>
<stop offset="0.463397" stop-color="#00FFB1" stop-opacity="0.12"/>
<stop offset="1" stop-color="#00C4FF" stop-opacity="0"/>
</radialGradient>
<radialGradient id="paint7_radial_136_22420" cx="0" cy="0" r="1" gradientUnits="userSpaceOnUse" gradientTransform="translate(394.087 244.452) rotate(134.587) scale(30.786 43.0313)">
<stop stop-color="#F7EB02"/>
<stop offset="0.562168" stop-color="#00FF76"/>
<stop offset="1" stop-color="#00C4FF"/>
</radialGradient>
<linearGradient id="paint8_linear_136_22420" x1="188.331" y1="340.404" x2="276.042" y2="436.134" gradientUnits="userSpaceOnUse">
<stop stop-color="#0CFFDE"/>
<stop offset="0.65" stop-color="#0CFFDE" stop-opacity="0"/>
</linearGradient>
<radialGradient id="paint9_radial_136_22420" cx="0" cy="0" r="1" gradientUnits="userSpaceOnUse" gradientTransform="translate(196.865 254.255) rotate(135.791) scale(20.1065 25.3472)">
<stop stop-color="#FFE4AD"/>
<stop offset="1" stop-color="#FFEC2D"/>
</radialGradient>
<radialGradient id="paint10_radial_136_22420" cx="0" cy="0" r="1" gradientUnits="userSpaceOnUse" gradientTransform="translate(196.865 254.255) rotate(135.791) scale(20.1065 25.3472)">
<stop stop-color="#ADFFEE"/>
<stop offset="1" stop-color="#2DF9FF"/>
</radialGradient>
<radialGradient id="paint11_radial_136_22420" cx="0" cy="0" r="1" gradientUnits="userSpaceOnUse" gradientTransform="translate(153.452 464.46) rotate(136.417) scale(30.1114 37.9278)">
<stop stop-color="#ADFFEE"/>
<stop offset="1" stop-color="#2DF9FF"/>
</radialGradient>
<radialGradient id="paint12_radial_136_22420" cx="0" cy="0" r="1" gradientUnits="userSpaceOnUse" gradientTransform="translate(153.452 464.46) rotate(136.417) scale(30.1114 37.9278)">
<stop stop-color="#FFE4AD"/>
<stop offset="1" stop-color="#FFEC2D"/>
</radialGradient>
<radialGradient id="paint13_radial_136_22420" cx="0" cy="0" r="1" gradientUnits="userSpaceOnUse" gradientTransform="translate(477.844 426.791) rotate(135.946) scale(12.0066 15.1336)">
<stop stop-color="#FFE4AD"/>
<stop offset="1" stop-color="#FFEC2D"/>
</radialGradient>
<linearGradient id="paint14_linear_136_22420" x1="456.057" y1="289.074" x2="384.191" y2="427.486" gradientUnits="userSpaceOnUse">
<stop stop-color="#0F8AEF"/>
<stop offset="0.3" stop-color="#2B96F4"/>
<stop offset="0.83" stop-color="#66B1FF"/>
</linearGradient>
<linearGradient id="paint15_linear_136_22420" x1="210.368" y1="539.972" x2="203.218" y2="380.172" gradientUnits="userSpaceOnUse">
<stop stop-color="#0F8AEF"/>
<stop offset="0.3" stop-color="#2B96F4"/>
<stop offset="0.83" stop-color="#66B1FF"/>
</linearGradient>
<linearGradient id="paint16_linear_136_22420" x1="210.368" y1="539.972" x2="203.218" y2="380.172" gradientUnits="userSpaceOnUse">
<stop stop-color="#0F8AEF"/>
<stop offset="0.3" stop-color="#2B96F4"/>
<stop offset="0.83" stop-color="#66B1FF"/>
</linearGradient>
<linearGradient id="paint17_linear_136_22420" x1="210.376" y1="540.265" x2="203.226" y2="380.465" gradientUnits="userSpaceOnUse">
<stop stop-color="#0F8AEF"/>
<stop offset="0.3" stop-color="#2B96F4"/>
<stop offset="0.83" stop-color="#66B1FF"/>
</linearGradient>
<linearGradient id="paint18_linear_136_22420" x1="210.376" y1="540.854" x2="203.226" y2="381.055" gradientUnits="userSpaceOnUse">
<stop stop-color="#0F8AEF"/>
<stop offset="0.3" stop-color="#2B96F4"/>
<stop offset="0.83" stop-color="#66B1FF"/>
</linearGradient>
<clipPath id="clip0_136_22420">
<rect width="817" height="524" fill="white"/>
</clipPath>
</defs>
</svg>
