<svg width="1062" height="665" viewBox="0 0 1062 665" fill="none" xmlns="http://www.w3.org/2000/svg">
<g clip-path="url(#clip0_136_18674)">
<rect width="1348" height="332" rx="166" transform="matrix(0.707107 -0.707107 -0.707107 -0.707107 514 953.652)" fill="url(#paint0_linear_136_18674)"/>
<rect width="1792" height="388" rx="125.596" transform="matrix(0.707107 -0.707107 -0.707107 -0.707107 92 1085.65)" fill="url(#paint1_linear_136_18674)"/>
<path d="M430.864 923.512L776.888 566.762L702 510.467L367.102 857.722L430.864 923.512Z" fill="url(#paint2_linear_136_18674)"/>
<path d="M748 475.652L759.001 510.547L794.602 510.547L765.8 532.113L776.801 567.008L748 545.442L719.199 567.008L730.2 532.113L701.398 510.547L736.999 510.547L748 475.652Z" fill="url(#paint3_radial_136_18674)"/>
<path fill-rule="evenodd" clip-rule="evenodd" d="M733.755 88.4075L755.175 66.8809C765.608 56.4668 765.608 39.8769 755.175 29.4629C744.92 19.0488 728.122 19.0488 717.688 29.4629L711.5 35.6398L705.312 29.4629C694.878 19.0488 678.08 19.0488 667.825 29.4629C666.392 30.8934 665.155 32.4405 664.116 34.072L513.894 184.027L576.175 246.197L734 88.6523L733.755 88.4075Z" fill="url(#paint4_radial_136_18674)"/>
<path d="M667.825 66.8809L693.818 93.0023L711.5 110.652L729.182 93.0023L755.175 66.8809C765.608 56.4668 765.608 39.8769 755.175 29.4629C744.92 19.0488 728.122 19.0488 717.688 29.4629L711.5 35.6398L705.312 29.4629C694.878 19.0488 678.08 19.0488 667.825 29.4629C657.392 39.8769 657.392 56.4668 667.825 66.8809Z" fill="url(#paint5_radial_136_18674)"/>
<path fill-rule="evenodd" clip-rule="evenodd" d="M579.615 67.6004L369.09 278.229L410.799 319.958L625 105.652L624.474 105.126L638.834 90.6353C645.722 83.7316 645.722 72.7338 638.834 65.8301C632.064 58.9264 620.973 58.9264 614.085 65.8301L610 69.9249L605.915 65.8301C599.718 59.6196 590.121 58.996 583.327 63.9594L583.291 63.9228L583.04 64.1742C582.386 64.6732 581.759 65.2251 581.166 65.8301C580.603 66.3944 580.086 66.9859 579.615 67.6004Z" fill="url(#paint6_radial_136_18674)"/>
<path d="M581.166 90.6353L598.326 107.952L610 119.652L621.674 107.952L638.834 90.6353C645.722 83.7316 645.722 72.7338 638.834 65.8301C632.064 58.9264 620.973 58.9264 614.085 65.8301L610 69.9249L605.915 65.8301C599.027 58.9264 587.936 58.9264 581.166 65.8301C574.278 72.7338 574.278 83.7316 581.166 90.6353Z" fill="url(#paint7_radial_136_18674)"/>
<path opacity="0.1" d="M136.883 352.443L136.875 352.451L119.723 369.76L119.715 369.768L110.305 379.199L100.895 369.767L100.887 369.76L83.7343 352.451L83.7344 352.451L83.7267 352.443C78.0798 346.783 78.0797 337.799 83.7266 332.14L83.7363 332.13L83.7459 332.12C89.2564 326.501 98.3096 326.473 103.963 332.14L106.219 329.889L103.963 332.14L108.049 336.234L110.305 338.496L112.561 336.234L116.646 332.14L115.045 330.542L116.646 332.14C122.3 326.473 131.353 326.501 136.864 332.12L136.873 332.13L136.883 332.14C142.53 337.8 142.53 346.784 136.883 352.443Z" fill="white" stroke="white" stroke-width="6.37337"/>
<path fill-rule="evenodd" clip-rule="evenodd" d="M115.414 367.791L114.554 366.93L76.7006 328.775C61.5065 313.564 61.5064 289.331 76.7002 274.12C91.635 258.908 116.099 258.908 131.293 274.12L140.305 283.142L149.317 274.12C164.511 258.909 188.974 258.909 203.909 274.12C205.581 275.794 207.069 277.578 208.373 279.446C208.719 279.736 209.055 280.044 209.379 280.37L347.197 418.407C353.234 424.453 353.234 434.256 347.197 440.303L277.914 509.696C271.877 515.743 262.09 515.743 256.053 509.696L118.235 371.659C117.07 370.492 116.129 369.184 115.414 367.791Z" fill="url(#paint8_linear_136_18674)" fill-opacity="0.25"/>
<g filter="url(#filter0_f_136_18674)">
<path d="M202.142 327.011L202.136 327.017L164.289 365.165L164.283 365.171L140.306 389.177L116.328 365.171L116.322 365.165L78.4739 327.016L78.4679 327.01C64.248 312.774 64.2478 290.121 78.4676 275.885L78.4751 275.877L78.4827 275.87C92.43 261.664 115.299 261.642 129.525 275.885L138.538 284.908L140.305 286.677L142.072 284.908L151.084 275.885C165.311 261.642 188.179 261.664 202.127 275.87L202.134 275.878L202.142 275.886C216.362 290.122 216.362 312.774 202.142 327.011Z" stroke="#00FFE1" stroke-width="4.99578"/>
</g>
<path d="M202.142 327.011L202.136 327.017L164.289 365.165L164.283 365.171L140.306 389.177L116.328 365.171L116.322 365.165L78.4739 327.016L78.4679 327.01C64.248 312.774 64.2478 290.121 78.4676 275.885L78.4751 275.877L78.4827 275.87C92.43 261.664 115.299 261.642 129.525 275.885L138.538 284.908L140.305 286.677L142.072 284.908L151.084 275.885C165.311 261.642 188.179 261.664 202.127 275.87L202.134 275.878L202.142 275.886C216.362 290.122 216.362 312.774 202.142 327.011Z" stroke="#00FFE1" stroke-width="4.99578"/>
<g filter="url(#filter1_f_136_18674)">
<path d="M202.94 327.808L202.937 327.811L165.087 365.963L165.084 365.966L140.306 390.773L115.527 365.966L115.523 365.962L77.6731 327.81L77.6698 327.807C63.0099 313.13 63.0097 289.764 77.6694 275.088L77.6695 275.088L77.6777 275.079C92.071 260.419 115.66 260.407 130.324 275.088L139.336 284.111L140.305 285.081L141.274 284.111L150.286 275.088C164.949 260.408 188.538 260.42 202.932 275.08L202.94 275.088C217.6 289.765 217.6 313.131 202.94 327.808Z" stroke="#96FFC0" stroke-width="2.73962"/>
</g>
<path d="M210.5 85.6523L211.808 103.309L229 104.652L211.808 105.996L210.5 123.652L209.192 105.996L192 104.652L209.192 103.309L210.5 85.6523Z" fill="url(#paint9_radial_136_18674)"/>
<path d="M210.5 85.6523L211.808 103.309L229 104.652L211.808 105.996L210.5 123.652L209.192 105.996L192 104.652L209.192 103.309L210.5 85.6523Z" fill="url(#paint10_radial_136_18674)"/>
<path d="M137.5 444.652L140.717 487.4L183 490.652L140.717 493.905L137.5 536.652L134.283 493.905L92 490.652L134.283 487.4L137.5 444.652Z" fill="#00A3FF"/>
<path d="M137.5 444.652L140.717 487.4L183 490.652L140.717 493.905L137.5 536.652L134.283 493.905L92 490.652L134.283 487.4L137.5 444.652Z" fill="url(#paint11_radial_136_18674)"/>
<path d="M137.5 444.652L140.717 487.4L183 490.652L140.717 493.905L137.5 536.652L134.283 493.905L92 490.652L134.283 487.4L137.5 444.652Z" fill="url(#paint12_radial_136_18674)"/>
<path d="M382.415 741.132C387.344 712.217 415.365 625.185 432.774 624.441C457.689 623.36 476.617 707.426 483.225 739.671C483.371 740.393 583.521 725.933 590.569 724.275C590.817 724.219 591.039 724.106 591.225 723.939C600.875 715.326 610.831 691.169 598.359 585.344C593.682 547.199 576.426 415.556 527.729 283.84C524.506 275.121 524.407 265.545 527.809 256.905C527.891 256.697 528.03 256.508 528.194 256.353C530.239 254.51 543.962 241.573 545.079 224.309C546.981 195.119 522.76 145.082 519.047 137.602C518.771 137.034 518.911 136.357 519.37 135.938C533.506 123.074 533.11 115.48 532.917 114.226C532.9 114.113 532.873 114.012 532.835 113.911C521.972 86.0094 497.939 79.5868 490.915 81.5394C485.195 83.1266 479.801 90.7408 477.969 93.542C477.586 94.1281 476.81 94.3334 476.182 94.0316C445.316 79.313 423.317 81.492 411.928 82.0016C374.82 83.6619 350.212 96.6983 344.645 99.917C343.979 100.3 343.128 100.099 342.735 99.445C336.522 89.2554 332.076 88.5554 331.357 88.508C331.3 88.5105 331.243 88.513 331.175 88.5161C318.755 89.1287 295.302 104.821 292.652 121.358C291.219 130.274 305.317 141.237 308.858 143.832C309.328 144.176 309.538 144.792 309.381 145.356C296.403 192.222 285.024 213.064 291.602 235.718C294.239 244.816 309.649 267.304 310.659 268.772C310.696 268.827 310.733 268.882 310.758 268.938C314.292 275.709 315.031 283.572 313.04 290.954C276.069 427.925 262.204 593.559 262.204 593.559C256.205 647.667 247.049 704.192 260.252 737.61C260.47 738.158 382.277 741.867 382.404 741.155L382.415 741.132Z" fill="#66B1FF"/>
<path d="M516.14 381.343C473.386 340.749 430.219 380.159 426.748 383.466C422.985 380.482 376.482 345.085 337.524 389.335C294.29 438.442 339.877 532.193 354.976 554.068C370.074 575.943 399.598 611.236 437.324 610.663C474.961 607.864 500.386 570.124 513.47 546.976C526.555 523.84 563.588 426.404 516.14 381.343Z" fill="white"/>
<path d="M482.207 182.951C476.57 167.581 418.533 172.203 418.56 172.555C418.533 172.203 362.087 176.265 357.476 193.22C354.672 203.54 357.398 223.522 363.053 235.739C369.301 249.25 404.441 275.291 426.224 273.395C447.223 271.773 479.692 240.169 483.658 225.815C487.242 212.843 485.9 193.014 482.207 182.951Z" fill="white"/>
<path d="M379.755 173.131C389.382 172.7 396.836 164.547 396.406 154.921C395.975 145.295 387.822 137.84 378.196 138.271C368.569 138.702 361.115 146.855 361.546 156.481C361.976 166.107 370.129 173.562 379.755 173.131Z" fill="white"/>
<path d="M471.463 154.028C472.86 144.494 466.264 135.632 456.73 134.234C447.195 132.837 438.334 139.433 436.936 148.967C435.539 158.502 442.135 167.363 451.669 168.761C461.204 170.158 470.065 163.562 471.463 154.028Z" fill="white"/>
<path d="M772.067 210.58C770.7 199.343 759.012 191.401 745.202 197.81C736.196 201.99 735.283 207.777 735.283 207.777C735.283 207.777 738.325 185.761 738.039 172.246C737.789 160.299 736.012 151.106 723.789 147.716C713.881 144.962 703.378 150.04 699.561 163.898C696.567 174.796 695.051 189.234 695.051 189.234C686.007 162.548 678.876 156.78 663.051 158.341C655.416 159.092 645.694 167.867 648.013 178.003C651.816 194.593 662.337 222.225 662.337 222.225C662.337 222.225 651.791 220.729 646.004 223.878C631.553 231.727 627.996 247.849 645.09 268.793C640.325 368.027 527.514 285.136 527.514 285.136L560.631 396.169C649.766 463.065 735.043 436.869 761.601 283.332C761.601 283.332 774.303 229.003 772.068 210.591L772.067 210.58Z" fill="url(#paint13_linear_136_18674)"/>
<path d="M739.632 247.815C729.538 243.432 727.497 233.431 728.658 224.527C718.086 221.439 704.158 222.938 700.883 233.142C700.883 233.142 686.691 220.864 675.595 228.926C684.894 235.121 694.696 247.186 687.03 260.216C683.996 265.38 679.971 268.507 675.643 270.18C686.923 279.938 704.664 284.583 712.591 284.251C729.727 283.519 749.574 267.839 748.352 249.439C745.653 249.628 742.754 249.178 739.644 247.826L739.632 247.815Z" fill="#66B1FF"/>
<path d="M301.46 319.495C301.266 319.742 240.463 379.238 209.096 465.236C199.965 490.266 182.695 550.079 189.108 579.465C189.108 579.465 188.295 634.786 229.98 624.035L224.758 618.443C224.758 618.443 233.844 633.101 251.61 628.369C261.302 625.785 262.851 618.457 262.851 618.457C262.851 618.457 272.777 628.207 285.24 621.961C297.092 616.015 297.786 605.596 297.558 604.32C297.558 604.32 289.608 604.13 285.278 598.646C271.792 581.534 279.008 571.153 283.129 567.646C283.129 567.646 292.376 562.488 297.827 556.157C302.251 551.021 302.029 535.136 281.885 532.476C281.885 532.476 280.072 414.899 299.082 368.31L307.757 312.491L301.46 319.495Z" fill="url(#paint14_linear_136_18674)"/>
<path d="M301.46 319.495C301.266 319.742 240.463 379.238 209.096 465.236C199.965 490.266 182.695 550.079 189.108 579.465C189.108 579.465 188.295 634.786 229.98 624.035L224.758 618.443C224.758 618.443 233.844 633.101 251.61 628.369C261.302 625.785 262.851 618.457 262.851 618.457C262.851 618.457 272.777 628.207 285.24 621.961C297.092 616.015 297.786 605.596 297.558 604.32C297.558 604.32 289.608 604.13 285.278 598.646C271.792 581.534 279.008 571.153 283.129 567.646C283.129 567.646 292.376 562.488 297.827 556.157C302.251 551.021 302.029 535.136 281.885 532.476C281.885 532.476 280.072 414.899 299.082 368.31L307.757 312.491L301.46 319.495Z" fill="url(#paint15_linear_136_18674)"/>
<path d="M350.997 122.649C353.093 119.153 361.012 108.98 381.733 108.007C386.025 107.815 392.14 113.515 387.433 119.699C383.329 125.105 359.716 133.42 355.365 133.046C350.91 132.654 348.159 127.384 350.997 122.66L350.997 122.649Z" fill="#0073E4"/>
<path d="M473.489 114.724C471.255 111.32 462.951 101.451 442.213 101.275C437.91 101.24 432.032 107.181 436.966 113.184C441.284 118.418 465.191 125.836 469.524 125.278C473.959 124.716 476.506 119.345 473.489 114.724Z" fill="#0073E4"/>
<path d="M379.472 166.839C385.624 166.564 390.388 161.353 390.113 155.201C389.838 149.049 384.627 144.285 378.475 144.56C372.323 144.835 367.559 150.046 367.834 156.198C368.11 162.35 373.32 167.114 379.472 166.839Z" fill="#333333"/>
<path d="M462.51 158.948C466.666 154.403 466.35 147.35 461.805 143.195C457.26 139.039 450.207 139.355 446.052 143.9C441.896 148.445 442.212 155.498 446.756 159.653C451.301 163.809 458.354 163.493 462.51 158.948Z" fill="#333333"/>
<path d="M419.928 180.003C419.928 180.003 383.013 181.655 384.928 193.174C386.843 204.694 408.465 222.329 421.796 221.733C439.555 220.938 455.087 201.64 455.965 189.996C456.844 178.351 419.928 180.003 419.928 180.003Z" fill="#0073E4"/>
<path d="M376.129 221.751C380.436 227.737 386.286 232.868 392.352 236.977C404.649 245.313 419.62 248.557 434.065 244.384C445.972 240.95 456.212 233.312 464.906 224.697C466.463 223.148 463.948 220.848 462.391 222.397C449.426 235.254 432.121 245.699 413.213 242.176C401.843 240.057 391.731 233.523 383.731 225.348C383.004 224.607 382.287 223.842 381.592 223.066C381.317 222.759 381.041 222.442 380.777 222.135C380.405 221.708 380.777 222.146 380.597 221.927C380.477 221.784 380.369 221.653 380.248 221.51C379.815 220.983 379.393 220.456 378.993 219.905C377.719 218.13 374.843 219.966 376.129 221.751Z" fill="#0073E4"/>
<path d="M432.672 161.172L476.872 163.654L476.62 173.542L436.615 166.912L432.672 161.172Z" fill="#66B1FF"/>
<path d="M357.306 172.373L400.302 161.938L401.945 168.145L362.271 179.33L357.306 172.373Z" fill="#66B1FF"/>
<path d="M242.64 592.736C243.675 596.536 245.308 600.229 247.069 603.734C250.591 610.745 255.403 617.345 261.79 621.997C263.542 623.272 265.865 620.768 264.089 619.482C257.903 614.969 253.343 608.676 249.933 601.888C248.297 598.639 246.835 595.2 245.882 591.693C245.309 589.579 242.056 590.624 242.641 592.748L242.64 592.736Z" fill="#66B1FF"/>
<path d="M207.18 597.91C209.734 605.396 214.111 612.686 219.489 618.453C221.879 621.02 224.585 623.254 227.589 625.054C229.483 626.187 231.054 623.158 229.172 622.036C223.035 618.363 218.451 612.561 214.924 606.449C213.172 603.41 211.549 600.194 210.421 596.854C209.714 594.781 206.461 595.825 207.18 597.91Z" fill="#66B1FF"/>
<path d="M301.483 320.065C301.29 320.313 240.486 379.809 209.12 465.806C199.988 490.837 182.719 550.649 189.131 580.035C189.131 580.035 188.318 635.357 230.003 624.605L224.781 619.014C224.781 619.014 233.868 633.671 251.633 628.94C261.325 626.356 262.875 619.027 262.875 619.027C262.875 619.027 272.8 628.778 285.264 622.531C297.115 616.585 297.809 606.166 297.582 604.89C297.582 604.89 289.631 604.7 285.301 599.216C271.815 582.104 279.031 571.723 283.152 568.217C283.152 568.217 292.399 563.058 297.85 556.727C302.274 551.591 302.052 535.707 281.908 533.047C281.908 533.047 280.095 415.469 299.105 368.88L307.78 313.061L301.483 320.065Z" fill="url(#paint16_linear_136_18674)"/>
<path d="M774 429.652L775.273 446.844L792 448.152L775.273 449.46L774 466.652L772.727 449.46L756 448.152L772.727 446.844L774 429.652Z" fill="url(#paint17_radial_136_18674)"/>
</g>
<path d="M242.667 594.432C243.702 598.231 245.335 601.924 247.096 605.429C250.618 612.44 255.431 619.04 261.817 623.692C263.569 624.968 265.892 622.463 264.117 621.177C257.93 616.664 253.37 610.371 249.96 603.583C248.325 600.334 246.862 596.895 245.909 593.388C245.336 591.274 242.084 592.319 242.668 594.443L242.667 594.432Z" fill="#66B1FF"/>
<path d="M207.204 599.605C209.757 607.091 214.134 614.382 219.512 620.149C221.903 622.716 224.608 624.95 227.613 626.749C229.507 627.882 231.078 624.854 229.196 623.732C223.058 620.058 218.475 614.256 214.947 608.144C213.196 605.105 211.573 601.89 210.445 598.55C209.738 596.476 206.485 597.521 207.204 599.605Z" fill="#66B1FF"/>
<path d="M211.398 607.013C218.285 606.545 329.435 593.19 329.435 593.19L322.371 557.171C322.371 557.171 212.635 587.037 207.586 589.11C202.538 591.182 204.51 607.481 211.398 607.013Z" fill="#4C4C4C"/>
<path d="M222.856 606.672L223.806 606.55C223.992 606.545 224.177 606.48 224.329 606.356C224.632 606.109 224.731 605.689 224.57 605.332C221.747 599.073 220.302 592.399 220.382 585.548C220.385 585.274 220.258 585.015 220.04 584.85C219.822 584.684 219.539 584.632 219.276 584.709L218.279 585.002C217.912 585.109 217.66 585.445 217.659 585.826C217.627 592.874 219.106 599.714 221.957 606.165C222.112 606.514 222.478 606.72 222.856 606.672Z" fill="white" stroke="white" stroke-width="1.72573" stroke-linejoin="round"/>
<path d="M339.477 595.462C346.434 599.846 356.757 603.834 365.463 602.126C383.574 598.574 395.376 581.013 391.824 562.902C388.271 544.792 370.71 532.989 352.6 536.542C343.893 538.25 336.114 545.221 331.328 551.908L339.477 595.462Z" fill="#989898"/>
<path d="M368.209 601.51C368.294 601.935 368.052 602.357 367.642 602.497C367.409 602.576 367.124 602.657 366.875 602.719C366.651 602.775 366.372 602.837 366.187 602.85C365.9 602.869 365.621 602.744 365.445 602.516C364.909 601.821 364.439 600.829 364.041 599.917C363.895 599.584 363.759 599.261 363.63 598.956C363.386 598.38 363.168 597.864 362.959 597.447C362.959 597.446 362.958 597.445 362.958 597.444L363.73 597.058C354.599 579.075 350.341 557.306 351.731 536.753L368.209 601.51ZM368.209 601.51C368.172 601.325 368.077 601.165 367.947 601.045M368.209 601.51L367.947 601.045M367.947 601.045C367.547 600.538 367.145 599.738 366.734 598.813C366.602 598.515 366.467 598.201 366.334 597.888C366.057 597.241 365.781 596.596 365.527 596.102L367.947 601.045Z" fill="#4C4C4C" stroke="#4C4C4C" stroke-width="1.72573" stroke-linejoin="round"/>
<path fill-rule="evenodd" clip-rule="evenodd" d="M331.419 551.56C330.481 550.923 329.35 550.69 328.237 550.903L326.44 551.247L326.437 551.229L322.627 551.977C321.514 552.195 320.553 552.834 319.921 553.774C319.288 554.715 319.06 555.847 319.278 556.959L326.739 594.998C326.957 596.11 327.596 597.071 328.537 597.704C329.478 598.336 330.609 598.564 331.722 598.346L333.312 598.034L333.313 598.043L337.126 597.312C338.24 597.099 339.204 596.465 339.84 595.527C340.477 594.588 340.71 593.458 340.497 592.345L333.205 554.274C332.991 553.16 332.357 552.196 331.419 551.56Z" fill="#ECECEC"/>
<path d="M301.483 321.19C301.29 321.438 240.486 380.934 209.12 466.931C199.988 491.962 182.719 551.774 189.131 581.16C189.131 581.16 188.318 636.482 230.003 625.73L224.781 620.139C224.781 620.139 233.868 634.796 251.633 630.065C261.325 627.481 262.875 620.152 262.875 620.152C262.875 620.152 272.8 629.903 285.264 623.656C297.115 617.71 297.809 607.291 297.582 606.015C297.582 606.015 289.631 605.825 285.301 600.341C271.815 583.229 279.031 572.848 283.152 569.342C283.152 569.342 292.399 564.183 297.85 557.852C302.274 552.716 302.052 536.832 281.908 534.172C281.908 534.172 280.095 416.594 299.105 370.005L307.78 314.186L301.483 321.19Z" fill="url(#paint18_linear_136_18674)"/>
<path d="M242.667 593.307C243.702 597.106 245.335 600.799 247.096 604.304C250.618 611.315 255.431 617.915 261.817 622.567C263.569 623.843 265.892 621.338 264.117 620.052C257.93 615.539 253.37 609.246 249.96 602.458C248.325 599.209 246.862 595.77 245.909 592.263C245.336 590.149 242.084 591.194 242.668 593.318L242.667 593.307Z" fill="#66B1FF"/>
<path d="M207.208 598.476C209.761 605.962 214.138 613.253 219.516 619.02C221.907 621.587 224.612 623.821 227.617 625.621C229.511 626.753 231.082 623.725 229.2 622.603C223.062 618.929 218.479 613.127 214.951 607.016C213.2 603.976 211.577 600.761 210.449 597.421C209.741 595.347 206.489 596.392 207.208 598.476Z" fill="#66B1FF"/>
<defs>
<filter id="filter0_f_136_18674" x="42.0985" y="239.505" width="196.412" height="176.412" filterUnits="userSpaceOnUse" color-interpolation-filters="sRGB">
<feFlood flood-opacity="0" result="BackgroundImageFix"/>
<feBlend mode="normal" in="SourceGraphic" in2="BackgroundImageFix" result="shape"/>
<feGaussianBlur stdDeviation="11.6031" result="effect1_foregroundBlur_136_18674"/>
</filter>
<filter id="filter1_f_136_18674" x="63.0485" y="260.455" width="154.512" height="134.512" filterUnits="userSpaceOnUse" color-interpolation-filters="sRGB">
<feFlood flood-opacity="0" result="BackgroundImageFix"/>
<feBlend mode="normal" in="SourceGraphic" in2="BackgroundImageFix" result="shape"/>
<feGaussianBlur stdDeviation="1.12808" result="effect1_foregroundBlur_136_18674"/>
</filter>
<linearGradient id="paint0_linear_136_18674" x1="-57.4511" y1="243.373" x2="1457.42" y2="91.2255" gradientUnits="userSpaceOnUse">
<stop stop-color="#FF0099"/>
<stop offset="0.65" stop-color="#A000FF" stop-opacity="0"/>
</linearGradient>
<linearGradient id="paint1_linear_136_18674" x1="-76.3742" y1="284.424" x2="1931.56" y2="55.0234" gradientUnits="userSpaceOnUse">
<stop stop-color="#FF0099"/>
<stop offset="0.65" stop-color="#A000FF" stop-opacity="0"/>
</linearGradient>
<linearGradient id="paint2_linear_136_18674" x1="388.672" y1="879.978" x2="744.969" y2="534.665" gradientUnits="userSpaceOnUse">
<stop stop-color="#5900FF" stop-opacity="0"/>
<stop offset="0.473957" stop-color="#005EFF" stop-opacity="0.31"/>
<stop offset="1" stop-color="#00FFBA"/>
</linearGradient>
<radialGradient id="paint3_radial_136_18674" cx="0" cy="0" r="1" gradientUnits="userSpaceOnUse" gradientTransform="translate(719.014 485.364) rotate(50.3128) scale(97.7556 134.309)">
<stop stop-color="#026FF7"/>
<stop offset="0.562168" stop-color="#FF00EF"/>
<stop offset="1" stop-color="#FF002B"/>
</radialGradient>
<radialGradient id="paint4_radial_136_18674" cx="0" cy="0" r="1" gradientUnits="userSpaceOnUse" gradientTransform="translate(724.871 37.2851) rotate(137.064) scale(215.695 301.306)">
<stop stop-color="#FF0065"/>
<stop offset="0.562168" stop-color="#FF00C1" stop-opacity="0.1"/>
<stop offset="1" stop-color="#FF0037" stop-opacity="0"/>
</radialGradient>
<radialGradient id="paint5_radial_136_18674" cx="0" cy="0" r="1" gradientUnits="userSpaceOnUse" gradientTransform="translate(741.965 30.21) rotate(134.706) scale(93.269 130.374)">
<stop stop-color="#FF00D6"/>
<stop offset="0.562168" stop-color="#FF004D"/>
<stop offset="1" stop-color="#FF6291"/>
</radialGradient>
<radialGradient id="paint6_radial_136_18674" cx="0" cy="0" r="1" gradientUnits="userSpaceOnUse" gradientTransform="translate(619.214 70.7998) rotate(134.402) scale(294.241 410.883)">
<stop stop-color="#00F1FF" stop-opacity="0.57"/>
<stop offset="0.463397" stop-color="#00FFB1" stop-opacity="0.12"/>
<stop offset="1" stop-color="#00C4FF" stop-opacity="0"/>
</radialGradient>
<radialGradient id="paint7_radial_136_18674" cx="0" cy="0" r="1" gradientUnits="userSpaceOnUse" gradientTransform="translate(630.113 66.3254) rotate(134.587) scale(61.7043 86.2475)">
<stop stop-color="#F7EB02"/>
<stop offset="0.562168" stop-color="#00FF76"/>
<stop offset="1" stop-color="#00C4FF"/>
</radialGradient>
<linearGradient id="paint8_linear_136_18674" x1="170.444" y1="288.957" x2="344.774" y2="478.649" gradientUnits="userSpaceOnUse">
<stop stop-color="#0CFFDE"/>
<stop offset="0.65" stop-color="#0CFFDE" stop-opacity="0"/>
</linearGradient>
<radialGradient id="paint9_radial_136_18674" cx="0" cy="0" r="1" gradientUnits="userSpaceOnUse" gradientTransform="translate(210.507 93.1185) rotate(135.967) scale(24.7246 31.1631)">
<stop stop-color="#FFE4AD"/>
<stop offset="1" stop-color="#FFEC2D"/>
</radialGradient>
<radialGradient id="paint10_radial_136_18674" cx="0" cy="0" r="1" gradientUnits="userSpaceOnUse" gradientTransform="translate(210.507 93.1185) rotate(135.967) scale(24.7246 31.1631)">
<stop stop-color="#ADFFEE"/>
<stop offset="1" stop-color="#2DF9FF"/>
</radialGradient>
<radialGradient id="paint11_radial_136_18674" cx="0" cy="0" r="1" gradientUnits="userSpaceOnUse" gradientTransform="translate(137.518 462.728) rotate(136.417) scale(60.3522 76.0186)">
<stop stop-color="#ADFFEE"/>
<stop offset="1" stop-color="#2DF9FF"/>
</radialGradient>
<radialGradient id="paint12_radial_136_18674" cx="0" cy="0" r="1" gradientUnits="userSpaceOnUse" gradientTransform="translate(137.518 462.728) rotate(136.417) scale(60.3522 76.0186)">
<stop stop-color="#FFE4AD"/>
<stop offset="1" stop-color="#FFEC2D"/>
</radialGradient>
<linearGradient id="paint13_linear_136_18674" x1="724.448" y1="147.447" x2="586.522" y2="413.09" gradientUnits="userSpaceOnUse">
<stop stop-color="#0F8AEF"/>
<stop offset="0.3" stop-color="#2B96F4"/>
<stop offset="0.83" stop-color="#66B1FF"/>
</linearGradient>
<linearGradient id="paint14_linear_136_18674" x1="252.911" y1="628.971" x2="239.189" y2="322.281" gradientUnits="userSpaceOnUse">
<stop stop-color="#0F8AEF"/>
<stop offset="0.3" stop-color="#2B96F4"/>
<stop offset="0.83" stop-color="#66B1FF"/>
</linearGradient>
<linearGradient id="paint15_linear_136_18674" x1="252.911" y1="628.971" x2="239.189" y2="322.281" gradientUnits="userSpaceOnUse">
<stop stop-color="#0F8AEF"/>
<stop offset="0.3" stop-color="#2B96F4"/>
<stop offset="0.83" stop-color="#66B1FF"/>
</linearGradient>
<linearGradient id="paint16_linear_136_18674" x1="252.934" y1="629.541" x2="239.212" y2="322.851" gradientUnits="userSpaceOnUse">
<stop stop-color="#0F8AEF"/>
<stop offset="0.3" stop-color="#2B96F4"/>
<stop offset="0.83" stop-color="#66B1FF"/>
</linearGradient>
<radialGradient id="paint17_radial_136_18674" cx="0" cy="0" r="1" gradientUnits="userSpaceOnUse" gradientTransform="translate(774.007 436.922) rotate(135.946) scale(24.0649 30.3323)">
<stop stop-color="#FFE4AD"/>
<stop offset="1" stop-color="#FFEC2D"/>
</radialGradient>
<linearGradient id="paint18_linear_136_18674" x1="252.934" y1="630.666" x2="239.212" y2="323.976" gradientUnits="userSpaceOnUse">
<stop stop-color="#0F8AEF"/>
<stop offset="0.3" stop-color="#2B96F4"/>
<stop offset="0.83" stop-color="#66B1FF"/>
</linearGradient>
<clipPath id="clip0_136_18674">
<rect width="1062" height="617" fill="white"/>
</clipPath>
</defs>
</svg>
