<svg width="104" height="32" viewBox="0 0 104 32" fill="none" xmlns="http://www.w3.org/2000/svg">
<path d="M97.7539 14.66V8.08789H100.963C101.585 8.08789 102.121 8.18804 102.572 8.38833C103.029 8.58862 103.381 8.87654 103.629 9.25209C103.877 9.62138 104 10.0595 104 10.5665C104 11.0735 103.877 11.5116 103.629 11.8809C103.381 12.2502 103.029 12.5381 102.572 12.7447C102.121 12.945 101.585 13.0451 100.963 13.0451H99.0013L100.001 12.0969V14.66H97.7539ZM100.001 12.341L99.0013 11.3364H100.82C101.131 11.3364 101.36 11.2675 101.506 11.1298C101.658 10.9921 101.734 10.8043 101.734 10.5665C101.734 10.3287 101.658 10.1409 101.506 10.0032C101.36 9.86548 101.131 9.79663 100.82 9.79663H99.0013L100.001 8.79204V12.341Z" fill="white"/>
<path d="M93.7588 10.5289H96.731V12.125H93.7588V10.5289ZM93.9113 12.9888H97.2454V14.66H91.7012V8.08789H97.1216V9.75908H93.9113V12.9888Z" fill="white"/>
<path d="M84.582 14.66V8.08789H91.0463V14.66H88.8311V9.33659L89.318 9.80602H86.3103L86.7973 9.33659V14.66H84.582Z" fill="white"/>
<path d="M75.4339 14.8269C74.9005 14.8269 74.4051 14.7455 73.9479 14.5825C73.497 14.4133 73.1032 14.1751 72.7666 13.868C72.4364 13.5609 72.1792 13.1974 71.995 12.7775C71.8108 12.3576 71.7188 11.8938 71.7188 11.3861C71.7188 10.8785 71.8108 10.4147 71.995 9.99476C72.1792 9.57484 72.4364 9.21133 72.7666 8.90423C73.1032 8.59712 73.497 8.3621 73.9479 8.19914C74.4051 8.02992 74.9005 7.94531 75.4339 7.94531C76.0881 7.94531 76.666 8.05813 77.1677 8.28375C77.6758 8.50938 78.0949 8.83529 78.4251 9.26147L77.0057 10.5118C76.8089 10.2674 76.5898 10.0794 76.3484 9.94775C76.1135 9.80987 75.8467 9.74093 75.5483 9.74093C75.3133 9.74093 75.1005 9.77853 74.91 9.85374C74.7195 9.92895 74.5544 10.0386 74.4146 10.1828C74.2813 10.3269 74.1765 10.5024 74.1003 10.7092C74.0241 10.9098 73.986 11.1354 73.986 11.3861C73.986 11.6368 74.0241 11.8656 74.1003 12.0724C74.1765 12.273 74.2813 12.4453 74.4146 12.5895C74.5544 12.7336 74.7195 12.8433 74.91 12.9185C75.1005 12.9937 75.3133 13.0313 75.5483 13.0313C75.8467 13.0313 76.1135 12.9655 76.3484 12.8339C76.5898 12.696 76.8089 12.5049 77.0057 12.2604L78.4251 13.5108C78.0949 13.9307 77.6758 14.2566 77.1677 14.4885C76.666 14.7141 76.0881 14.8269 75.4339 14.8269Z" fill="white"/>
<path d="M79.3451 10.1974C79.6901 10.2847 79.96 10.3147 80.1547 10.2874C80.3495 10.2547 80.522 10.1375 80.6722 9.9357L80.956 9.54309L81.1229 9.36315L82.8172 5.96875H84.7202L82.3749 10.2792C82.1189 10.7482 81.8101 11.1135 81.4484 11.3752C81.0923 11.6315 80.6972 11.7788 80.2632 11.8169C79.8292 11.8551 79.3702 11.7788 78.8861 11.5879L79.3451 10.1974ZM81.0979 10.8763L78.377 5.96875H80.4552L82.1662 9.54309L81.0979 10.8763Z" fill="white"/>
<path d="M91.961 28.4995C91.6788 28.4995 91.3903 28.4564 91.0955 28.3702C90.8071 28.2901 90.575 28.1823 90.3994 28.0468L91.1049 26.6146C91.2116 26.6947 91.3307 26.7594 91.4624 26.8087C91.6004 26.858 91.7321 26.8826 91.8575 26.8826C92.0456 26.8826 92.1899 26.8426 92.2902 26.7625C92.3905 26.6886 92.4721 26.5746 92.5348 26.4206L92.7511 25.8847L92.9016 25.6814L94.5478 21.5605H96.5609L94.4444 26.7163C94.2562 27.1783 94.0367 27.5386 93.7859 27.7973C93.5413 28.056 93.2654 28.2377 92.9581 28.3425C92.6571 28.4472 92.3247 28.4995 91.961 28.4995ZM92.4595 26.8456L90.2207 21.5605H92.4031L93.9458 25.4966L92.4595 26.8456Z" fill="white"/>
<path d="M87.5028 26.7179C86.922 26.7179 86.4066 26.6068 85.9569 26.3845C85.5135 26.1561 85.1637 25.8443 84.9076 25.4491C84.6515 25.054 84.5234 24.6002 84.5234 24.0877C84.5234 23.5753 84.6515 23.1215 84.9076 22.7263C85.1637 22.3312 85.5135 22.0225 85.9569 21.8002C86.4066 21.5779 86.922 21.4668 87.5028 21.4668C88.0837 21.4668 88.599 21.5779 89.0488 21.8002C89.4985 22.0225 89.8483 22.3312 90.0981 22.7263C90.3542 23.1215 90.4823 23.5753 90.4823 24.0877C90.4823 24.6002 90.3542 25.054 90.0981 25.4491C89.8483 25.8443 89.4985 26.1561 89.0488 26.3845C88.599 26.6068 88.0837 26.7179 87.5028 26.7179ZM87.5028 25.0879C87.659 25.0879 87.7995 25.0509 87.9245 24.9768C88.0494 24.9027 88.1493 24.7916 88.2243 24.6434C88.2992 24.4891 88.3367 24.3038 88.3367 24.0877C88.3367 23.8655 88.2992 23.6833 88.2243 23.5413C88.1493 23.3931 88.0494 23.282 87.9245 23.2079C87.7995 23.1338 87.659 23.0968 87.5028 23.0968C87.3467 23.0968 87.2062 23.1338 87.0812 23.2079C86.9563 23.282 86.8564 23.3931 86.7814 23.5413C86.7065 23.6833 86.669 23.8655 86.669 24.0877C86.669 24.3038 86.7065 24.4891 86.7814 24.6434C86.8564 24.7916 86.9563 24.9027 87.0812 24.9768C87.2062 25.0509 87.3467 25.0879 87.5028 25.0879Z" fill="white"/>
<path d="M79.1816 24.9856L78.7204 25.4392V21.5605H80.8381V25.4392L80.3675 24.9856H82.3535L81.8923 25.4392V21.5605H84.0006V26.6241H75.5391V21.5605H77.6568V25.4392L77.1956 24.9856H79.1816Z" fill="white"/>
<path d="M88.1255 20.6691L86.7209 18.3563L88.4251 17.3796L90.6163 20.6691H88.1255ZM84.5859 20.6691V15.6289H86.7022V20.6691H84.5859ZM86.0842 18.9921V17.398H87.9944V18.9921H86.0842ZM88.6405 18.3747L86.6553 18.1904L88.2847 15.6289H90.5133L88.6405 18.3747Z" fill="white"/>
<path d="M78.1523 20.6925V15.6289H80.2648V17.9234L82.0392 15.6289H83.992V20.6925H81.8796V18.4034L80.1145 20.6925H78.1523Z" fill="white"/>
<path d="M75.6054 20.6234V19.725L75.455 19.4842V17.7802C75.455 17.5332 75.3766 17.3449 75.22 17.2152C75.0696 17.0856 74.8221 17.0207 74.4774 17.0207C74.2455 17.0207 74.0105 17.0578 73.7724 17.1319C73.5343 17.1998 73.3306 17.2955 73.1614 17.419L72.4846 16.039C72.7854 15.8538 73.1458 15.7118 73.5656 15.613C73.9855 15.5142 74.3959 15.4648 74.797 15.4648C75.6806 15.4648 76.3636 15.6593 76.8461 16.0483C77.3349 16.4373 77.5793 17.0547 77.5793 17.9006V20.6234H75.6054ZM74.1484 20.716C73.7285 20.716 73.3776 20.645 73.0956 20.503C72.8136 20.361 72.6006 20.1726 72.4564 19.938C72.3123 19.6972 72.2402 19.4317 72.2402 19.1416C72.2402 18.8143 72.3248 18.5365 72.494 18.308C72.6632 18.0796 72.9202 17.9067 73.2648 17.7894C73.6157 17.6721 74.0575 17.6135 74.5902 17.6135H75.6618V18.6229H74.9286C74.703 18.6229 74.5369 18.66 74.4304 18.7341C74.3301 18.802 74.28 18.9069 74.28 19.0489C74.28 19.1663 74.3239 19.265 74.4116 19.3453C74.5056 19.4194 74.6309 19.4564 74.7876 19.4564C74.9317 19.4564 75.0633 19.4194 75.1824 19.3453C75.3077 19.265 75.3986 19.1416 75.455 18.9749L75.7276 19.5954C75.6461 19.972 75.4738 20.2529 75.2106 20.4381C74.9474 20.6234 74.5933 20.716 74.1484 20.716Z" fill="white"/>
<path d="M65.7812 20.6239L65.8658 18.9293C65.9033 18.9355 65.9409 18.9417 65.9785 18.9478C66.016 18.9478 66.0505 18.9478 66.0818 18.9478C66.2195 18.9478 66.329 18.9231 66.4104 18.8738C66.4918 18.8182 66.5544 18.741 66.5982 18.6422C66.6483 18.5373 66.6828 18.4138 66.7015 18.2718C66.7203 18.1237 66.7329 17.9539 66.7391 17.7625L66.8142 15.5586H71.7162V20.6239H69.5939V16.7532L70.0541 17.1884H68.2135L68.6454 16.7254L68.5985 17.8459C68.5797 18.3027 68.539 18.7132 68.4764 19.0775C68.4138 19.4355 68.3136 19.7411 68.1759 19.9942C68.0444 20.2412 67.8629 20.4326 67.6312 20.5684C67.4059 20.698 67.1179 20.7628 66.7673 20.7628C66.6296 20.7628 66.4762 20.7505 66.3071 20.7258C66.1444 20.7011 65.9691 20.6671 65.7812 20.6239Z" fill="white"/>
<path d="M82.7385 13.6986L81.9164 14.507L81.3572 15.0533L80.798 14.507L79.976 13.6986C79.646 13.3763 79.646 12.8629 79.976 12.5406C80.3003 12.2183 80.8316 12.2183 81.1615 12.5406L81.3572 12.7317L81.5529 12.5406C81.8829 12.2183 82.4141 12.2183 82.7385 12.5406C83.0684 12.8629 83.0684 13.3763 82.7385 13.6986Z" fill="#52FF00"/>
<path d="M55.7949 14.5L51.2909 18.9304" stroke="white" stroke-width="1.5" stroke-linecap="round"/>
<path d="M55.7949 19.0566L51.2909 14.6263" stroke="white" stroke-width="1.5" stroke-linecap="round"/>
<path d="M11.6554 11.3293C10.1191 11.8612 9.59263 11.3783 9.15267 10.1884L8.58289 8.65563C8.03474 7.16481 8.5324 6.65387 9.75852 6.22693L11.338 5.67399C12.8743 5.14206 13.4008 5.625 13.8408 6.81485L14.4105 8.34767C14.9587 9.83849 14.461 10.3494 13.2349 10.7764L11.6554 11.3293Z" fill="#FF4F3E"/>
<path d="M18.5373 11.3293C20.0735 11.8612 20.6 11.3783 21.04 10.1884L21.6098 8.65563C22.1579 7.16481 21.6603 6.65387 20.4341 6.22693L18.8546 5.67399C17.3184 5.14206 16.7919 5.625 16.3519 6.81485L15.7821 8.34767C15.234 9.83849 15.7316 10.3494 16.9577 10.7764L18.5373 11.3293Z" fill="#FABC22"/>
<path d="M26.0538 11.3264C24.5176 11.8651 23.9911 11.3754 23.5511 10.1861L22.9813 8.65404C22.4332 7.16396 22.9308 6.65328 24.157 6.22654L25.7365 5.67389C27.2727 5.14221 27.7992 5.62492 28.2392 6.81418L28.809 8.34623C29.3571 9.83631 28.8595 10.347 27.6334 10.7737L26.0538 11.3264Z" fill="#06C92E"/>
<path d="M32.9377 11.3293C34.4739 11.8612 35.0004 11.3783 35.4404 10.1884L36.0102 8.65563C36.5583 7.16481 36.0606 6.65387 34.8345 6.22693L33.255 5.67399C31.7188 5.14206 31.1922 5.625 30.7523 6.81485L30.1825 8.34767C29.6344 9.83849 30.132 10.3494 31.3581 10.7764L32.9377 11.3293Z" fill="#00C2FC"/>
<path d="M6.44842 20.4266C6.44842 20.4759 6.44122 20.5181 6.41962 20.5603C6.40522 20.6025 6.37643 20.6447 6.34043 20.6728C6.30443 20.708 6.26844 20.7291 6.22524 20.7502C6.18205 20.7713 6.13166 20.7783 6.08846 20.7783H5.46933C5.41894 20.7783 5.37574 20.7713 5.33255 20.7502C5.28935 20.7361 5.24616 20.708 5.21736 20.6728C5.18857 20.6377 5.15977 20.6025 5.13817 20.5603C5.11657 20.5181 5.10938 20.4688 5.10938 20.4266V18.8792C5.10938 18.83 5.11657 18.7878 5.13817 18.7456C5.15977 18.7034 5.18137 18.6612 5.21736 18.6331C5.25336 18.5979 5.28935 18.5768 5.33255 18.5557C5.37574 18.5416 5.42614 18.5276 5.46933 18.5276H5.66371C5.7573 18.408 5.82929 18.2814 5.88688 18.1407C5.95168 17.9789 6.00927 17.8172 6.05246 17.6484C6.09566 17.4655 6.13166 17.2826 6.16765 17.0927C6.19645 16.9028 6.21805 16.7129 6.23244 16.5159L6.26844 15.9603C6.27564 15.8618 6.31883 15.7704 6.39083 15.7071C6.42682 15.6719 6.47002 15.6508 6.51321 15.6297C6.55641 15.6086 6.6068 15.6016 6.65719 15.6016H9.36408C9.41447 15.6016 9.45767 15.6086 9.50806 15.6297C9.55125 15.6508 9.59445 15.6719 9.63045 15.7071C9.66644 15.7422 9.68804 15.7774 9.70964 15.8266C9.73123 15.8688 9.73843 15.9181 9.73843 15.9673V18.5346H10.0912C10.1416 18.5346 10.1848 18.5416 10.228 18.5627C10.2712 18.5768 10.3144 18.6049 10.3432 18.6401C10.3792 18.6753 10.4008 18.7104 10.4224 18.7526C10.444 18.7948 10.4511 18.8441 10.4511 18.8863V20.4337C10.4511 20.4829 10.444 20.5251 10.4224 20.5673C10.408 20.6095 10.3792 20.6517 10.3432 20.6799C10.3072 20.715 10.2712 20.7361 10.228 20.7572C10.1848 20.7783 10.1344 20.7854 10.0912 20.7854H9.45767C9.40727 20.7854 9.36408 20.7783 9.32088 20.7572C9.27769 20.7432 9.23449 20.715 9.2057 20.6799C9.1697 20.6447 9.1481 20.6095 9.1265 20.5673C9.10491 20.5251 9.09771 20.4759 9.09771 20.4337V19.8429H6.44842V20.4266ZM8.26981 16.9309H7.62908L7.61468 17.0997C7.58589 17.4022 7.52109 17.6976 7.4347 17.986C7.37711 18.1759 7.29072 18.3588 7.18273 18.5346H8.277V16.9309H8.26981Z" fill="white"/>
<path d="M12.1643 18.1949C12.2286 18.3772 12.3645 18.5326 12.5432 18.6204C12.7363 18.7149 12.9508 18.7622 13.1724 18.7554C13.3154 18.7554 13.4513 18.7487 13.5943 18.7284C13.7158 18.7082 13.8303 18.6811 13.9447 18.6406C14.009 18.6204 14.0805 18.6069 14.152 18.6069C14.2235 18.6069 14.2879 18.6204 14.3522 18.6541C14.4094 18.6879 14.4595 18.7352 14.4881 18.796L14.6311 19.0864C14.6597 19.1336 14.674 19.1944 14.674 19.2484C14.674 19.3092 14.6597 19.37 14.6311 19.4173C14.6025 19.4713 14.5524 19.5118 14.5024 19.5456C14.2664 19.6739 14.009 19.7685 13.7444 19.8225C13.5013 19.863 13.2582 19.8833 13.0151 19.8833C12.6862 19.89 12.3573 19.836 12.0499 19.7279C11.7782 19.6334 11.5279 19.4848 11.3206 19.2957C11.1132 19.1066 10.9559 18.8702 10.8486 18.6204C10.7342 18.3435 10.677 18.0463 10.6842 17.7424C10.6842 17.4588 10.7414 17.1751 10.8486 16.9185C10.9559 16.6619 11.1132 16.4255 11.3206 16.2296C11.5279 16.027 11.7782 15.8717 12.0499 15.7704C12.3573 15.6556 12.6862 15.6016 13.0151 15.6016C13.2868 15.6016 13.5514 15.6488 13.8017 15.7366C14.0519 15.8244 14.2736 15.9595 14.4666 16.1283C14.6597 16.2972 14.817 16.5065 14.9242 16.7294C15.0386 16.9793 15.103 17.2427 15.0958 17.5128C15.0958 17.6479 15.0887 17.7829 15.0672 17.918C15.0529 17.9923 15.01 18.0531 14.9457 18.1071C14.8885 18.1611 14.817 18.1881 14.7383 18.1949H12.1643ZM13.6658 17.2899C13.6658 17.1481 13.6014 17.0063 13.487 16.905C13.4155 16.8442 13.3369 16.7969 13.2439 16.7632C13.151 16.7361 13.058 16.7226 12.9651 16.7294C12.772 16.7159 12.5718 16.7632 12.4074 16.8645C12.2715 16.9725 12.1714 17.1143 12.1142 17.2764L13.6658 17.2899Z" fill="white"/>
<path d="M17.1571 19.8819C17.1068 19.8819 17.0636 19.8748 17.0205 19.8535C16.9773 19.8322 16.9342 19.8109 16.9054 19.7754C16.8694 19.7398 16.8479 19.7043 16.8263 19.6617C16.8047 19.6191 16.7975 19.5694 16.7975 19.5268V17.0341H15.9201C15.8698 17.0341 15.8266 17.027 15.7835 17.0057C15.7403 16.9915 15.6972 16.9631 15.6684 16.9276C15.6325 16.8921 15.6109 16.8566 15.5893 16.814C15.5677 16.7714 15.5605 16.7217 15.5605 16.6791V15.9689C15.5605 15.9192 15.5677 15.8766 15.5893 15.8269C15.6109 15.7843 15.6325 15.7416 15.6684 15.7061C15.7044 15.6706 15.7403 15.6493 15.7907 15.628C15.8338 15.6067 15.8842 15.5996 15.9345 15.5996H19.1492C19.1996 15.5996 19.2427 15.6067 19.2859 15.628C19.329 15.6493 19.3722 15.6706 19.4009 15.7061C19.4369 15.7416 19.4585 15.7771 19.48 15.8198C19.5016 15.8624 19.5088 15.9121 19.5088 15.9547V16.6649C19.5088 16.7146 19.5016 16.7572 19.48 16.7998C19.4585 16.8424 19.4369 16.885 19.4009 16.9134C19.365 16.9489 19.329 16.9702 19.2859 16.9915C19.2427 17.0128 19.1924 17.0199 19.1492 17.0199H18.2718V19.5055C18.2718 19.5552 18.2646 19.5978 18.2431 19.6404C18.2287 19.683 18.1999 19.7256 18.164 19.754C18.128 19.7896 18.092 19.8109 18.0489 19.8322C18.0057 19.8535 17.9554 19.8606 17.9122 19.8606H17.9051L17.1571 19.8819Z" fill="white"/>
<path d="M22.9271 17.0265C22.7222 16.9252 22.4879 16.8712 22.2537 16.8645C22.1365 16.8645 22.0194 16.8847 21.9096 16.9185C21.7998 16.9523 21.6973 17.013 21.6095 17.0873C21.5143 17.1616 21.4411 17.2562 21.3899 17.3642C21.3313 17.4858 21.302 17.6141 21.3093 17.7424C21.3093 17.8707 21.3386 17.999 21.3972 18.1139C21.4558 18.2152 21.529 18.3097 21.6241 18.3907C21.8071 18.5393 22.0414 18.6204 22.283 18.6204C22.5245 18.6136 22.7661 18.5461 22.9711 18.4245C23.0516 18.3705 23.1468 18.3435 23.2419 18.3435C23.3005 18.3435 23.359 18.357 23.4103 18.3772C23.4615 18.4043 23.5054 18.438 23.5421 18.4785L23.8422 18.85C23.8934 18.9108 23.9227 18.9851 23.9227 19.0661C23.9227 19.1201 23.9081 19.1809 23.8861 19.2282C23.8568 19.2755 23.8202 19.3227 23.769 19.3565C23.5274 19.5456 23.2419 19.6942 22.9345 19.782C22.6929 19.8427 22.4367 19.8765 22.1878 19.8833C21.8437 19.89 21.4997 19.836 21.1776 19.7279C20.8921 19.6334 20.6286 19.4848 20.4016 19.2957C20.1893 19.1066 20.021 18.877 19.9112 18.6204C19.794 18.3435 19.7355 18.0463 19.7428 17.7424C19.7428 17.4588 19.8014 17.1819 19.9112 16.9185C20.021 16.6619 20.182 16.4255 20.387 16.2296C20.592 16.0338 20.8482 15.8785 21.119 15.7704C21.4192 15.6556 21.7412 15.6016 22.0707 15.6016C22.3342 15.6016 22.605 15.6218 22.8613 15.6759C23.1248 15.7366 23.381 15.8379 23.6079 15.9865C23.6738 16.0135 23.7251 16.0608 23.7617 16.1148C23.7983 16.1689 23.8202 16.2364 23.8202 16.2972C23.8202 16.358 23.7983 16.4187 23.7617 16.4728L23.4762 16.905C23.4469 16.959 23.3956 17.0063 23.3371 17.0401C23.2785 17.0738 23.2126 17.0873 23.1394 17.0873C23.0662 17.0738 22.993 17.0603 22.9271 17.0265Z" fill="white"/>
<path d="M26.0076 17.8073V19.4684C26.0076 19.5174 26.0006 19.5595 25.9798 19.6015C25.9659 19.6436 25.9382 19.6856 25.9035 19.7137C25.8687 19.7487 25.834 19.7697 25.7924 19.7908C25.7507 19.8118 25.7021 19.8188 25.6605 19.8188H24.9663C24.9177 19.8188 24.876 19.8118 24.8344 19.7908C24.7927 19.7697 24.751 19.7487 24.7233 19.7137C24.6886 19.6786 24.6608 19.6436 24.6469 19.5945C24.6261 19.5525 24.6191 19.5034 24.6191 19.4544V15.95C24.6191 15.901 24.6261 15.8589 24.6469 15.8169C24.6608 15.7748 24.6886 15.7328 24.7233 15.7047C24.758 15.6697 24.7927 15.6487 24.8344 15.6276C24.876 15.6066 24.9246 15.5996 24.9663 15.5996H25.6605C25.7091 15.5996 25.7507 15.6066 25.7993 15.6276C25.841 15.6487 25.8826 15.6697 25.9173 15.7047C25.9521 15.7398 25.9729 15.7748 25.9937 15.8239C26.0145 15.8659 26.0215 15.915 26.0215 15.9641V17.4429L27.0975 15.8379C27.1461 15.7678 27.2155 15.7117 27.285 15.6697C27.3613 15.6276 27.4446 15.6066 27.5349 15.6066H28.1805C28.2291 15.6066 28.2777 15.6136 28.3263 15.6347C28.368 15.6557 28.4096 15.6837 28.4443 15.7188C28.5068 15.7888 28.5485 15.88 28.5485 15.9711C28.5485 16.0482 28.5207 16.1253 28.4721 16.1883L27.4793 17.4989L27.9375 18.1297C28.0556 18.319 28.2361 18.4591 28.4443 18.5292C28.5554 18.5432 28.6526 18.5923 28.729 18.6694C28.7845 18.7605 28.8053 18.8726 28.7984 18.9778V19.5525C28.7984 19.6296 28.7706 19.6997 28.7151 19.7557C28.6665 19.8188 28.597 19.8538 28.5207 19.8679C28.4721 19.8679 28.4235 19.8819 28.3818 19.8819C28.3332 19.8819 28.2916 19.8819 28.243 19.8819C28.125 19.8819 28.007 19.8679 27.8959 19.8468C27.7709 19.8188 27.646 19.7697 27.5349 19.7067C27.403 19.6296 27.278 19.5385 27.1739 19.4333C27.035 19.2932 26.9101 19.139 26.8059 18.9708L26.0076 17.8073Z" fill="white"/>
<path d="M33.047 19.8819C32.997 19.8819 32.9541 19.8748 32.9111 19.8535C32.8682 19.8322 32.8253 19.8109 32.7967 19.7754C32.761 19.7398 32.7395 19.7043 32.718 19.6617C32.6966 19.6191 32.6894 19.5694 32.6894 19.5268V17.6449L31.3234 19.6404C31.2733 19.7114 31.2161 19.7683 31.1446 19.8109C31.0731 19.8535 30.9944 19.8819 30.9086 19.8748H30.0861C30.0361 19.8748 29.9931 19.8677 29.9502 19.8464C29.9073 19.8251 29.8644 19.8038 29.8358 19.7683C29.8 19.7327 29.7714 19.6972 29.7571 19.6475C29.7357 19.6049 29.7285 19.5552 29.7285 19.5055V15.9547C29.7285 15.905 29.7357 15.8624 29.7571 15.8198C29.7714 15.7772 29.8 15.7345 29.8358 15.7061C29.8716 15.6706 29.9073 15.6493 29.9502 15.628C29.9931 15.6067 30.0432 15.5996 30.0861 15.5996H30.8013C30.8514 15.5996 30.8943 15.6067 30.9444 15.628C30.9873 15.6493 31.0302 15.6706 31.0659 15.7061C31.1017 15.7416 31.1231 15.7771 31.1446 15.8269C31.1661 15.8695 31.1732 15.9192 31.1732 15.9689V17.8366L32.5392 15.8411C32.5893 15.7771 32.6465 15.7203 32.7109 15.6706C32.7753 15.628 32.8611 15.5996 32.9398 15.6067H33.7694C33.8194 15.6067 33.8624 15.6138 33.9124 15.6351C33.9553 15.6564 33.9982 15.6777 34.034 15.7132C34.0698 15.7487 34.0912 15.7843 34.1127 15.834C34.1341 15.8766 34.1413 15.9263 34.1413 15.976V19.5268C34.1413 19.5765 34.1341 19.6191 34.1127 19.6617C34.0912 19.7043 34.0698 19.7469 34.034 19.7754C33.9982 19.8109 33.9625 19.8322 33.9196 19.8535C33.8767 19.8748 33.8266 19.8819 33.7837 19.8819H33.7765H33.047Z" fill="white"/>
<path d="M38.6087 19.8822C38.5588 19.8822 38.5159 19.8752 38.4731 19.8541C38.4302 19.833 38.3874 19.8119 38.3588 19.7767C38.3231 19.7415 38.3017 19.7064 38.2803 19.6642C38.2589 19.622 38.2517 19.5728 38.2517 19.5306V17.6668L36.8879 19.6431C36.8379 19.7134 36.7808 19.7697 36.7094 19.8119C36.638 19.8541 36.5594 19.8822 36.4738 19.8752H35.6598C35.6098 19.8752 35.5669 19.8681 35.5241 19.847C35.4812 19.833 35.4384 19.8048 35.4098 19.7697C35.3741 19.7345 35.3527 19.6993 35.3313 19.6572C35.3099 19.615 35.3027 19.5657 35.3027 19.5235V16.007C35.3027 15.9578 35.3099 15.9156 35.3313 15.8664C35.3527 15.8242 35.3741 15.782 35.4098 15.7468C35.4455 15.7116 35.4812 15.6905 35.5312 15.6694C35.5741 15.6483 35.6241 15.6413 35.674 15.6413H36.3809C36.4309 15.6413 36.4738 15.6483 36.5237 15.6694C36.5666 15.6905 36.6094 15.7116 36.6451 15.7468C36.6808 15.782 36.7023 15.8171 36.7237 15.8664C36.7451 15.9086 36.7522 15.9578 36.7522 16.007V17.8567L38.1161 15.8804C38.166 15.8171 38.2232 15.7609 38.2874 15.7116C38.3517 15.6694 38.4374 15.6413 38.5159 15.6483H39.3442C39.3942 15.6483 39.437 15.6554 39.487 15.6765C39.5299 15.6976 39.5727 15.7187 39.6084 15.7538C39.6441 15.789 39.6655 15.8242 39.6869 15.8734C39.7084 15.9156 39.7155 15.9648 39.7155 16.0141V19.5306C39.7155 19.5798 39.7084 19.622 39.6869 19.6642C39.6727 19.7064 39.6441 19.7486 39.6084 19.7767C39.5727 19.8119 39.537 19.833 39.4942 19.8541C39.4513 19.8752 39.4013 19.8822 39.3585 19.8822H39.3513H38.6087ZM38.4017 13.7987C38.4802 13.7916 38.5659 13.8057 38.6373 13.8338C38.7159 13.862 38.7801 13.9042 38.8372 13.9604C38.9372 14.073 38.9872 14.2206 38.98 14.3754C38.98 14.502 38.9443 14.6215 38.8801 14.7341C38.8158 14.8396 38.723 14.931 38.6159 14.9943C38.3731 15.1631 38.009 15.2475 37.5234 15.2475C36.9879 15.2475 36.6023 15.1631 36.3738 14.9943C36.2667 14.9239 36.181 14.8325 36.1239 14.727C36.0596 14.6215 36.0311 14.4949 36.0311 14.3754C36.0239 14.2206 36.081 14.073 36.1739 13.9604C36.231 13.9042 36.2953 13.862 36.3738 13.8338C36.4523 13.8057 36.5309 13.7987 36.6094 13.8057C36.738 13.7916 36.8665 13.8268 36.9736 13.9042C37.0521 13.9745 37.1093 14.0589 37.1378 14.1573C37.1664 14.2347 37.2092 14.305 37.2735 14.3683C37.3449 14.4316 37.4449 14.4598 37.5377 14.4527C37.5805 14.4527 37.6234 14.4527 37.6662 14.4387C37.7091 14.4246 37.7448 14.4035 37.7805 14.3754C37.8376 14.3121 37.8804 14.2417 37.9018 14.1644C37.9304 14.0659 37.9875 13.9745 38.0661 13.9112C38.1589 13.8268 38.2803 13.7916 38.4017 13.7987Z" fill="white"/>
<path d="M15.8478 26.5151C15.8478 26.5648 15.8406 26.6074 15.8189 26.65C15.8044 26.6926 15.7755 26.7352 15.7393 26.7636C15.7031 26.7991 15.6669 26.8204 15.6235 26.8418C15.5801 26.8631 15.5294 26.8702 15.486 26.8702H14.7623C14.7116 26.8702 14.6682 26.8631 14.6247 26.8418C14.5813 26.8275 14.5379 26.7991 14.5089 26.7636C14.4728 26.7281 14.4511 26.6926 14.4293 26.65C14.4076 26.6074 14.4004 26.5577 14.4004 26.5151V22.9572C14.4004 22.9075 14.4076 22.8649 14.4293 22.8151C14.4511 22.7725 14.4728 22.7299 14.5089 22.6944C14.5451 22.6589 14.5813 22.6376 14.632 22.6163C14.6754 22.595 14.7261 22.5879 14.7767 22.5879H15.4643C15.5511 22.5879 15.638 22.6092 15.7103 22.6518C15.7899 22.6873 15.8551 22.7441 15.9057 22.808L17.0203 24.0437L18.048 22.8222C18.0986 22.7583 18.171 22.7015 18.2434 22.6589C18.3158 22.6163 18.4026 22.595 18.4822 22.595H19.1336C19.1842 22.595 19.2277 22.6021 19.2783 22.6234C19.3217 22.6447 19.3652 22.666 19.4014 22.7015C19.4375 22.737 19.4593 22.7725 19.481 22.8222C19.5027 22.8649 19.5099 22.9146 19.5099 22.9643V26.5151C19.5099 26.5648 19.5027 26.6074 19.481 26.65C19.4665 26.6926 19.4375 26.7352 19.4014 26.7636C19.3652 26.7991 19.329 26.8204 19.2856 26.8418C19.2421 26.8631 19.1915 26.8702 19.148 26.8702H18.4243C18.3737 26.8702 18.3302 26.8631 18.2868 26.8418C18.2434 26.8204 18.2 26.7991 18.171 26.7636C18.1348 26.7281 18.1131 26.6926 18.0914 26.65C18.0697 26.6074 18.0625 26.5577 18.0625 26.5151V24.7752L17.2519 25.6913C17.2229 25.7268 17.1795 25.7552 17.1361 25.7765C17.0927 25.7978 17.042 25.8049 16.9986 25.8049C16.9552 25.8049 16.9045 25.7978 16.8611 25.7765C16.8176 25.7552 16.7815 25.7339 16.7453 25.6984L15.884 24.7752L15.8478 26.5151Z" fill="white"/>
<path d="M23.7453 26.8631C23.6954 26.8631 23.6526 26.856 23.6098 26.8347C23.5671 26.8134 23.5243 26.7922 23.4958 26.7567C23.4601 26.7213 23.4388 26.6858 23.4174 26.6433C23.396 26.6007 23.3889 26.5511 23.3889 26.5086V24.6298L22.0272 26.622C21.9773 26.6929 21.9203 26.7496 21.849 26.7922C21.7777 26.8347 21.6993 26.8631 21.6138 26.856H20.7939C20.744 26.856 20.7013 26.8489 20.6585 26.8276C20.6157 26.8064 20.5729 26.7851 20.5444 26.7496C20.5088 26.7142 20.4874 26.6787 20.466 26.6362C20.4446 26.5937 20.4375 26.544 20.4375 26.5015V22.9566C20.4375 22.9069 20.4446 22.8644 20.466 22.8148C20.4874 22.7722 20.5088 22.7297 20.5444 22.6942C20.5801 22.6588 20.6157 22.6375 20.6656 22.6162C20.7084 22.595 20.7583 22.5879 20.8082 22.5879H21.514C21.5639 22.5879 21.6066 22.595 21.6565 22.6162C21.6993 22.6375 21.7421 22.6588 21.7777 22.6942C21.8134 22.7297 21.8348 22.7651 21.8561 22.8148C21.8775 22.8573 21.8847 22.9069 21.8847 22.9566V24.8212L23.2463 22.8289C23.2962 22.7651 23.3532 22.7084 23.4245 22.6659C23.4887 22.6233 23.5742 22.595 23.6526 22.6021H24.4796C24.5295 22.6021 24.5722 22.6092 24.6221 22.6304C24.6649 22.6517 24.7077 22.673 24.7433 22.7084C24.779 22.7439 24.8004 22.7793 24.8218 22.8289C24.8431 22.8715 24.8503 22.9211 24.8503 22.9707V26.5157C24.8503 26.5653 24.8431 26.6078 24.8218 26.6504C24.8004 26.6929 24.779 26.7355 24.7433 26.7638C24.7077 26.7993 24.6721 26.8205 24.6293 26.8418C24.5865 26.8631 24.5366 26.8702 24.4938 26.8702H23.7453V26.8631Z" fill="white"/>
<path d="M27.2377 28.1037C27.2377 28.1517 27.2304 28.1928 27.2085 28.234C27.1867 28.2752 27.1648 28.3163 27.1283 28.3438C27.0919 28.3781 27.0554 28.3986 27.0116 28.4192C26.9679 28.4398 26.9169 28.4467 26.8731 28.4467H26.1439C26.0929 28.4467 26.0491 28.4398 26.0054 28.4192C25.9616 28.3986 25.9178 28.3781 25.8887 28.3438C25.8522 28.3095 25.8303 28.2752 25.8085 28.234C25.7866 28.1928 25.7793 28.1448 25.7793 28.1037V22.8285C25.7793 22.7805 25.7866 22.7393 25.8085 22.6913C25.8303 22.6502 25.8522 22.609 25.8887 22.5747C25.9251 22.5404 25.9616 22.5198 26.0126 22.4993C26.0564 22.4787 26.1074 22.4718 26.1585 22.4718H26.9169C26.9606 22.4718 26.9971 22.4787 27.0408 22.4924C27.0773 22.5061 27.1137 22.5267 27.1429 22.5541C27.1721 22.5816 27.194 22.6159 27.2158 22.6502C27.2304 22.6845 27.2377 22.7256 27.245 22.7668V22.7736C27.3908 22.6502 27.5586 22.5541 27.7409 22.4855C27.9669 22.3964 28.2148 22.3552 28.4628 22.3621C28.7399 22.3621 29.017 22.4101 29.2649 22.5198C29.5055 22.6227 29.717 22.7736 29.8847 22.9589C30.0597 23.1578 30.191 23.3842 30.2785 23.6311C30.3733 23.8986 30.4243 24.1868 30.4243 24.468C30.4243 24.7698 30.366 25.0648 30.2566 25.3461C30.1472 25.6136 29.9868 25.8537 29.7753 26.0595C29.5639 26.2653 29.3086 26.423 29.0315 26.5328C28.7253 26.6563 28.3971 26.7111 28.0617 26.7111C27.9159 26.7111 27.7627 26.6974 27.6169 26.6768C27.4856 26.6631 27.3617 26.6288 27.245 26.5808L27.2377 28.1037ZM27.2377 25.2843C27.3325 25.3392 27.4346 25.3804 27.544 25.4078C27.6679 25.4352 27.7919 25.4421 27.9232 25.4421C28.0544 25.4489 28.1857 25.4352 28.3096 25.3872C28.4336 25.3392 28.543 25.2637 28.6305 25.1746C28.7836 24.9893 28.8638 24.7561 28.8565 24.516C28.8638 24.2965 28.7836 24.0839 28.6378 23.9124C28.5576 23.83 28.4628 23.7615 28.3461 23.7203C28.2367 23.6791 28.1127 23.6586 27.9961 23.6654C27.8502 23.6723 27.7044 23.7066 27.5731 23.7683C27.4419 23.83 27.3252 23.9192 27.2377 24.029V25.2843Z" fill="white"/>
</svg>
