<svg width="220" height="189" viewBox="0 0 220 189" fill="none" xmlns="http://www.w3.org/2000/svg">
<path d="M44.8125 10.4727L45.8378 23.9474L59.3125 24.9727L45.8378 25.998L44.8125 39.4727L43.7872 25.998L30.3125 24.9727L43.7872 23.9474L44.8125 10.4727Z" fill="url(#paint0_radial_215_18651)"/>
<path d="M44.8125 10.4727L45.8378 23.9474L59.3125 24.9727L45.8378 25.998L44.8125 39.4727L43.7872 25.998L30.3125 24.9727L43.7872 23.9474L44.8125 10.4727Z" fill="url(#paint1_radial_215_18651)"/>
<path d="M168.812 142.473L170.05 158.735L186.312 159.973L170.05 161.21L168.812 177.473L167.575 161.21L151.312 159.973L167.575 158.735L168.812 142.473Z" fill="url(#paint2_radial_215_18651)"/>
<path d="M168.812 142.473L170.05 158.735L186.312 159.973L170.05 161.21L168.812 177.473L167.575 161.21L151.312 159.973L167.575 158.735L168.812 142.473Z" fill="url(#paint3_radial_215_18651)"/>
<path d="M199.216 122.777C199.559 126.663 196.082 129.776 192.271 128.971C175.467 125.457 153.022 118.868 121.193 129.829C95.7022 138.604 81.7403 148.707 74.8294 155.108C71.2647 158.414 65.7106 158.274 62.2334 154.879C48.1294 141.137 37.0221 127.699 25.6556 111.565C25.6556 111.565 20.7944 105.552 15.0247 91.187C13.2535 86.793 15.6469 81.7528 19.2996 78.7223C31.2532 68.8006 62.1659 46.6992 106.669 40.5729C147.064 35.0179 162.086 35.4287 184.183 39.7855C189.083 40.7568 192.846 44.6955 193.546 49.6655L195.556 78.5173C196.569 88.7711 196.992 95.1907 197.65 105.943L199.178 122.785L199.216 122.777Z" fill="white"/>
<path d="M99.2715 119.749C96.471 121.84 95.0789 121.153 93.4047 118.919L91.2418 116.044C89.1505 113.243 89.8377 111.851 92.0713 110.177L94.9468 108.014C97.7474 105.923 99.1394 106.61 100.814 108.844L102.977 111.719C105.068 114.52 104.381 115.912 102.147 117.586L99.2715 119.749Z" fill="#FF4F3E"/>
<path d="M113.372 115.41C116.863 115.564 117.628 114.213 117.756 111.424L117.927 107.83C118.08 104.338 116.729 103.574 113.941 103.446L110.347 103.275C106.855 103.121 106.09 104.472 105.963 107.261L105.792 110.855C105.638 114.347 106.989 115.111 109.778 115.239L113.372 115.41Z" fill="#FABC22"/>
<path d="M128.762 110.665C125.966 112.77 124.569 112.069 122.895 109.836L120.733 106.962C118.642 104.163 119.33 102.772 121.563 101.098L124.439 98.9359C127.24 96.8451 128.632 97.5318 130.305 99.7642L132.468 102.638C134.559 105.437 133.871 106.829 131.637 108.502L128.762 110.665Z" fill="#06C92E"/>
<path d="M142.856 106.332C146.348 106.486 147.112 105.134 147.24 102.346L147.411 98.7519C147.565 95.2601 146.214 94.4957 143.425 94.3678L139.831 94.1969C136.339 94.043 135.575 95.3942 135.447 98.1827L135.276 101.777C135.122 105.269 136.473 106.033 139.262 106.161L142.856 106.332Z" fill="#00C2FC"/>
<path d="M161.072 109.196L161.072 109.192L161.072 109.192C161.017 108.557 161.355 107.973 161.922 107.527L161.924 107.525L161.924 107.525C162.541 107.047 163.387 106.753 164.301 106.675L164.302 106.675C165.358 106.589 166.376 106.803 167.089 107.306L167.097 107.311C167.149 107.348 167.224 107.401 167.291 107.466L169.537 99.6441L169.539 99.6357L169.539 99.6357C169.604 99.4304 169.789 99.282 170.015 99.276L170.02 99.2758L170.02 99.2759L178.302 99.1878C178.409 99.1856 178.514 99.2156 178.604 99.2788C178.604 99.279 178.605 99.2795 178.606 99.28C178.618 99.2881 178.676 99.3269 178.722 99.3956C178.816 99.5224 178.845 99.6878 178.799 99.8383L176.188 108.955C176.066 109.541 175.637 110.031 175.077 110.383C174.509 110.74 173.775 110.976 172.978 111.043L172.978 111.043C172.121 111.114 171.279 110.984 170.605 110.664L170.603 110.663C170.452 110.59 170.308 110.505 170.178 110.414C169.706 110.081 169.403 109.629 169.353 109.105L169.353 109.104C169.29 108.423 169.676 107.807 170.312 107.354L170.312 107.354C170.915 106.926 171.725 106.655 172.586 106.587C173.641 106.501 174.661 106.711 175.376 107.215L175.383 107.22C175.436 107.257 175.51 107.31 175.578 107.375L177.633 100.214L170.411 100.289L167.904 109.043C167.782 109.629 167.353 110.119 166.793 110.471C166.225 110.828 165.491 111.064 164.694 111.131L164.694 111.131C163.837 111.202 162.995 111.072 162.321 110.752L162.319 110.751C162.169 110.678 162.026 110.595 161.897 110.504L161.072 109.196ZM161.072 109.196C161.123 109.718 161.424 110.169 161.894 110.502L161.072 109.196ZM166.509 108.129L166.601 108.194C166.808 108.364 166.899 108.542 166.915 108.703C166.937 108.957 166.776 109.269 166.35 109.558C165.934 109.84 165.322 110.055 164.614 110.113L164.612 110.113C163.921 110.172 163.248 110.062 162.768 109.831C162.662 109.779 162.57 109.726 162.494 109.672C162.219 109.479 162.107 109.277 162.092 109.103L162.092 109.102C162.069 108.848 162.23 108.535 162.656 108.246C163.072 107.964 163.684 107.749 164.393 107.691L164.394 107.691C165.254 107.617 166.043 107.801 166.509 108.129ZM174.796 108.038L174.887 108.102C175.094 108.273 175.185 108.451 175.201 108.612C175.223 108.866 175.062 109.178 174.637 109.466C174.221 109.749 173.609 109.963 172.9 110.021L172.899 110.022C172.207 110.081 171.535 109.971 171.054 109.739C170.949 109.688 170.856 109.635 170.78 109.581C170.505 109.387 170.393 109.186 170.378 109.011L170.378 109.009C170.356 108.781 170.492 108.48 170.911 108.183C171.347 107.876 171.99 107.656 172.679 107.6L172.68 107.6C173.54 107.526 174.33 107.709 174.796 108.038Z" fill="#0647C7" stroke="#0647C7" stroke-width="0.649291"/>
<mask id="path-9-outside-1_215_18651" maskUnits="userSpaceOnUse" x="59.7108" y="118.792" width="23.315" height="24.5026" fill="black">
<rect fill="white" x="59.7108" y="118.792" width="23.315" height="24.5026"/>
<path d="M77.2787 138.367C77.0155 138.58 76.7246 138.714 76.4132 138.764C75.6592 138.894 74.8735 138.528 74.2098 137.737C73.5721 136.978 73.1099 135.906 72.9135 134.719C72.717 133.532 72.8074 132.368 73.1687 131.435C73.3281 131.028 73.5375 130.675 73.7919 130.392L74.2258 129.91L61.3661 127.349C61.2533 127.327 61.183 127.218 61.2051 127.105C61.218 127.048 61.2518 127.008 61.2771 126.988C61.3276 126.947 61.3882 126.933 61.4497 126.943L75.3902 129.727C76.8004 129.884 78.0588 131.587 78.4218 133.784C78.7414 135.713 78.2812 137.555 77.2787 138.367ZM74.3167 130.465C73.9309 130.777 73.6921 131.249 73.5599 131.587C73.226 132.45 73.144 133.536 73.3288 134.65C73.5135 135.763 73.9372 136.766 74.5314 137.471C74.8604 137.863 75.5318 138.493 76.3494 138.354C76.5805 138.315 76.8057 138.21 77.0113 138.043C77.9056 137.32 78.3127 135.633 78.0165 133.851C77.6521 131.638 76.4379 130.314 75.4331 130.149L75.4107 130.143L75.3746 130.143C75.2351 130.125 75.11 130.126 74.993 130.143C74.7518 130.184 74.523 130.292 74.3174 130.459L74.3167 130.465Z"/>
</mask>
<path d="M77.2787 138.367C77.0155 138.58 76.7246 138.714 76.4132 138.764C75.6592 138.894 74.8735 138.528 74.2098 137.737C73.5721 136.978 73.1099 135.906 72.9135 134.719C72.717 133.532 72.8074 132.368 73.1687 131.435C73.3281 131.028 73.5375 130.675 73.7919 130.392L74.2258 129.91L61.3661 127.349C61.2533 127.327 61.183 127.218 61.2051 127.105C61.218 127.048 61.2518 127.008 61.2771 126.988C61.3276 126.947 61.3882 126.933 61.4497 126.943L75.3902 129.727C76.8004 129.884 78.0588 131.587 78.4218 133.784C78.7414 135.713 78.2812 137.555 77.2787 138.367ZM74.3167 130.465C73.9309 130.777 73.6921 131.249 73.5599 131.587C73.226 132.45 73.144 133.536 73.3288 134.65C73.5135 135.763 73.9372 136.766 74.5314 137.471C74.8604 137.863 75.5318 138.493 76.3494 138.354C76.5805 138.315 76.8057 138.21 77.0113 138.043C77.9056 137.32 78.3127 135.633 78.0165 133.851C77.6521 131.638 76.4379 130.314 75.4331 130.149L75.4107 130.143L75.3746 130.143C75.2351 130.125 75.11 130.126 74.993 130.143C74.7518 130.184 74.523 130.292 74.3174 130.459L74.3167 130.465Z" fill="#0647C7"/>
<path d="M76.4132 138.764L76.2556 137.788L76.2455 137.79L76.4132 138.764ZM74.2098 137.737L74.967 137.102L74.9665 137.101L74.2098 137.737ZM73.1687 131.435L72.2481 131.075L72.2469 131.078L73.1687 131.435ZM73.7919 130.392L73.0576 129.73L73.0569 129.731L73.7919 130.392ZM74.2258 129.91L74.9601 130.572L76.124 129.28L74.4189 128.941L74.2258 129.91ZM61.3661 127.349L61.5592 126.379L61.5504 126.377L61.3661 127.349ZM61.2051 127.105L60.2402 126.891L60.2375 126.903L60.2351 126.915L61.2051 127.105ZM61.4497 126.943L61.6433 125.974L61.6226 125.97L61.6019 125.966L61.4497 126.943ZM75.3902 129.727L75.1966 130.696L75.2383 130.705L75.2805 130.709L75.3902 129.727ZM78.4218 133.784L77.4465 133.945L77.4466 133.945L78.4218 133.784ZM74.3167 130.465L74.9385 131.234L75.2554 130.977L75.2994 130.572L74.3167 130.465ZM73.5599 131.587L72.6392 131.227L72.638 131.23L73.5599 131.587ZM74.5314 137.471L75.2885 136.835L75.2872 136.834L74.5314 137.471ZM76.3494 138.354L76.1858 137.379L76.1828 137.379L76.3494 138.354ZM78.0165 133.851L77.0412 134.011L77.0414 134.013L78.0165 133.851ZM75.4331 130.149L75.1943 131.108L75.2331 131.118L75.2727 131.124L75.4331 130.149ZM75.4107 130.143L75.6495 129.184L75.5374 129.156L75.422 129.155L75.4107 130.143ZM75.3746 130.143L75.2511 131.124L75.307 131.131L75.3633 131.131L75.3746 130.143ZM74.993 130.143L74.846 129.166L74.8366 129.167L74.8272 129.169L74.993 130.143ZM74.3174 130.459L73.6957 129.69L73.3788 129.946L73.3347 130.352L74.3174 130.459ZM76.6569 137.598C76.5155 137.712 76.3819 137.768 76.2556 137.789L76.5709 139.74C77.0672 139.66 77.5154 139.447 77.9004 139.135L76.6569 137.598ZM76.2455 137.79C75.9561 137.84 75.4941 137.73 74.967 137.102L73.4526 138.372C74.253 139.326 75.3622 139.948 76.581 139.739L76.2455 137.79ZM74.9665 137.101C74.4643 136.503 74.0622 135.605 73.8887 134.557L71.9382 134.88C72.1577 136.206 72.6799 137.453 73.453 138.373L74.9665 137.101ZM73.8887 134.557C73.7152 133.51 73.8049 132.529 74.0904 131.792L72.2469 131.078C71.8099 132.206 71.7187 133.554 71.9382 134.88L73.8887 134.557ZM74.0893 131.795C74.2131 131.479 74.365 131.233 74.527 131.053L73.0569 129.731C72.7101 130.116 72.4431 130.577 72.2481 131.075L74.0893 131.795ZM74.5263 131.053L74.9601 130.572L73.4915 129.248L73.0576 129.73L74.5263 131.053ZM74.4189 128.941L61.5592 126.379L61.173 128.318L74.0327 130.88L74.4189 128.941ZM61.5504 126.377C62.0014 126.463 62.2536 126.896 62.1751 127.296L60.2351 126.915C60.1123 127.541 60.5053 128.191 61.1818 128.32L61.5504 126.377ZM62.17 127.32C62.1232 127.531 62.0025 127.672 61.8988 127.756L60.6553 126.219C60.5012 126.344 60.3128 126.564 60.2402 126.891L62.17 127.32ZM61.8988 127.756C61.7126 127.907 61.4858 127.949 61.2975 127.92L61.6019 125.966C61.2907 125.918 60.9425 125.987 60.6553 126.219L61.8988 127.756ZM61.2561 127.912L75.1966 130.696L75.5838 128.758L61.6433 125.974L61.2561 127.912ZM75.2805 130.709C75.6213 130.747 76.0681 130.993 76.5059 131.581C76.935 132.157 77.2869 132.979 77.4465 133.945L79.3971 133.623C79.1937 132.392 78.7349 131.264 78.0915 130.4C77.4568 129.548 76.5693 128.864 75.4999 128.745L75.2805 130.709ZM77.4466 133.945C77.5865 134.79 77.5515 135.596 77.3869 136.255C77.2192 136.927 76.9384 137.37 76.6569 137.598L77.9004 139.135C78.6215 138.552 79.072 137.668 79.3051 136.734C79.5414 135.787 79.5767 134.707 79.397 133.622L77.4466 133.945ZM73.695 129.697C73.1088 130.171 72.7925 130.835 72.6393 131.227L74.4806 131.947C74.5917 131.663 74.7529 131.384 74.9385 131.234L73.695 129.697ZM72.638 131.23C72.2276 132.291 72.1462 133.562 72.3536 134.811L74.304 134.488C74.1418 133.511 74.2244 132.609 74.4818 131.944L72.638 131.23ZM72.3536 134.811C72.5603 136.057 73.0416 137.237 73.7756 138.108L75.2872 136.834C74.8327 136.295 74.4668 135.469 74.304 134.488L72.3536 134.811ZM73.7743 138.106C73.9762 138.347 74.3059 138.69 74.7436 138.956C75.1866 139.226 75.8009 139.45 76.516 139.328L76.1828 137.379C76.0803 137.397 75.95 137.376 75.7707 137.267C75.586 137.155 75.4156 136.987 75.2885 136.835L73.7743 138.106ZM76.513 139.328C76.9312 139.258 77.311 139.072 77.633 138.812L76.3895 137.275C76.3004 137.347 76.2299 137.371 76.1858 137.379L76.513 139.328ZM77.633 138.812C78.3064 138.267 78.7144 137.437 78.9215 136.575C79.1322 135.698 79.1591 134.696 78.9917 133.689L77.0414 134.013C77.1702 134.788 77.1416 135.52 76.9992 136.113C76.8532 136.721 76.6105 137.096 76.3895 137.275L77.633 138.812ZM78.9919 133.69C78.7868 132.444 78.3358 131.406 77.7537 130.636C77.1868 129.886 76.4307 129.311 75.5935 129.173L75.2727 131.124C75.4403 131.152 75.7938 131.322 76.1763 131.828C76.5436 132.314 76.8819 133.044 77.0412 134.011L78.9919 133.69ZM75.6719 129.19L75.6495 129.184L75.1719 131.102L75.1943 131.108L75.6719 129.19ZM75.422 129.155L75.3858 129.154L75.3633 131.131L75.3994 131.132L75.422 129.155ZM75.498 129.162C75.2831 129.135 75.066 129.133 74.846 129.166L75.1401 131.121C75.1541 131.119 75.187 131.115 75.2511 131.124L75.498 129.162ZM74.8272 129.169C74.4012 129.241 74.0184 129.429 73.6957 129.69L74.9392 131.227C75.0276 131.156 75.1024 131.127 75.1588 131.118L74.8272 129.169ZM73.3347 130.352L73.334 130.358L75.2994 130.572L75.3001 130.565L73.3347 130.352Z" fill="#0647C7" mask="url(#path-9-outside-1_215_18651)"/>
<path d="M63.5028 71.2729C62.9588 71.5514 62.4501 71.6143 61.9765 71.4615C61.503 71.3086 61.1438 70.9932 60.8991 70.5152C60.7219 70.1691 60.6437 69.793 60.6647 69.387C60.6937 68.956 60.8592 68.5072 61.1611 68.0405C61.5118 67.4657 62.0073 66.8895 62.6478 66.3119C63.3047 65.7259 64.0041 65.243 64.7458 64.8632C65.5205 64.4665 66.2842 64.2108 67.0367 64.0959C67.8058 63.9726 68.5348 63.9946 69.2238 64.1619C69.9044 64.3128 70.5327 64.6256 71.1087 65.1004C71.6847 65.5753 72.1752 66.2083 72.5803 66.9995C72.901 67.6259 73.0654 68.3531 73.0733 69.1812C73.0812 70.0094 72.8246 70.8897 72.3035 71.8223C73.5192 71.6367 74.527 71.7969 75.3269 72.3027C76.1268 72.8085 76.7799 73.5559 77.2863 74.5449C77.6914 75.3361 77.8773 76.146 77.8438 76.9745C77.8183 77.7781 77.6229 78.5543 77.2573 79.3032C76.9083 80.0436 76.4262 80.7274 75.811 81.3544C75.1875 81.965 74.4883 82.4686 73.7136 82.8653C73.0543 83.2028 72.4231 83.4532 71.8201 83.6163C71.242 83.7875 70.7089 83.9044 70.2209 83.9671C69.7244 84.0132 69.2896 84.0174 68.9166 83.9795C68.5435 83.9417 68.2448 83.8866 68.0205 83.8142C67.4557 83.6457 67.0399 83.4633 66.773 83.2671C66.5141 83.046 66.3087 82.7871 66.1568 82.4904C65.8783 81.9464 65.8529 81.4497 66.0804 81.0003C66.308 80.5509 66.6361 80.2165 67.0647 79.9971C67.3614 79.8451 67.6754 79.7676 68.0066 79.7644C68.3543 79.7528 68.7188 79.7535 69.0999 79.7664C69.4725 79.7628 69.8657 79.7384 70.2793 79.693C70.7095 79.6392 71.1636 79.4899 71.6416 79.2451C71.9053 79.1101 72.1646 78.9461 72.4195 78.7532C72.6825 78.5354 72.8956 78.3014 73.0588 78.0514C73.2136 77.7849 73.3061 77.4983 73.3363 77.1916C73.3745 76.8599 73.305 76.521 73.1278 76.1749C72.8662 75.6639 72.4449 75.3491 71.864 75.2304C71.2832 75.1117 70.523 75.2929 69.5834 75.774C68.9735 76.0863 68.3946 76.1746 67.8467 76.0391C67.3069 75.8786 66.885 75.5017 66.5812 74.9083C66.2858 74.3313 66.2392 73.7935 66.4415 73.2946C66.6603 72.7873 67.0746 72.3775 67.6845 72.0653C68.2119 71.7952 68.6102 71.4352 68.8792 70.9854C69.1397 70.5192 69.1307 70.014 68.8522 69.4701C68.5737 68.9261 68.1856 68.6151 67.688 68.5371C67.2068 68.4506 66.686 68.5508 66.1255 68.8378C65.7794 69.015 65.4915 69.2248 65.262 69.4672C65.0404 69.6846 64.8356 69.9144 64.6474 70.1563C64.4673 70.3734 64.2872 70.5904 64.107 70.8075C63.9349 70.9996 63.7335 71.1548 63.5028 71.2729Z" fill="url(#paint4_radial_215_18651)"/>
<path d="M82.2563 64.4754C84.0125 63.7312 85.4642 63.4076 86.6115 63.5047C87.7516 63.5847 88.5493 64.1617 89.0045 65.2359C89.1562 65.594 89.2338 65.9432 89.2373 66.2837C89.2408 66.6241 89.1872 66.9485 89.0765 67.2569C88.9829 67.558 88.8456 67.8274 88.6647 68.0649C88.4766 68.2854 88.274 68.4718 88.057 68.6241C88.8671 68.5423 89.5657 68.6485 90.153 68.9427C90.75 69.2126 91.1786 69.6544 91.4388 70.2682C91.9445 71.4618 91.8586 72.5642 91.181 73.5754C90.5131 74.5623 89.2159 75.464 87.2892 76.2805C86.8629 76.4612 86.3563 76.6658 85.7694 76.8944C85.1995 77.1158 84.6345 77.3251 84.0744 77.5222C83.5485 77.7049 83.0427 77.6979 82.5572 77.5015C82.0645 77.2879 81.7097 76.9254 81.4929 76.4139L78.1439 68.511C77.9343 68.0165 77.9242 67.518 78.1135 67.0154C78.3198 66.5056 78.663 66.1289 79.143 65.8853C79.6132 65.6659 80.1089 65.4357 80.6303 65.1947C81.1686 64.9464 81.7106 64.7066 82.2563 64.4754ZM84.8199 73.586C84.9635 73.5453 85.196 73.4769 85.5174 73.381C85.8486 73.2607 86.1505 73.1428 86.4234 73.0272C86.7814 72.8755 87.0302 72.6795 87.1698 72.4394C87.3192 72.1749 87.3469 71.9319 87.253 71.7102C87.0073 71.1305 86.3815 71.0538 85.3755 71.4801L84.1479 72.0004L84.8199 73.586ZM83.1724 69.6985L84.4512 69.1566C84.7411 69.0338 84.9886 68.8585 85.1938 68.6308C85.3917 68.386 85.4221 68.1016 85.2848 67.7777C85.1908 67.556 85.0261 67.4046 84.7906 67.3234C84.5478 67.2251 84.2559 67.2483 83.9149 67.3928C83.7956 67.4433 83.6628 67.5097 83.5166 67.5918C83.3631 67.6568 83.2133 67.7303 83.067 67.8124C82.9306 67.8702 82.8064 67.9329 82.6942 68.0006C82.5919 68.0439 82.5237 68.0728 82.4896 68.0873L83.1724 69.6985Z" fill="url(#paint5_radial_215_18651)"/>
<path d="M100.363 62.9671C100.225 62.5642 99.9328 62.2534 99.4858 62.0347C99.0504 61.7925 98.5174 61.7795 97.8867 61.9957C97.2211 62.224 96.7611 62.5383 96.5069 62.9387C96.2526 63.3391 96.1193 63.8351 96.1068 64.4266L100.363 62.9671ZM96.892 58.6662C97.6452 58.4079 98.4084 58.2931 99.1817 58.3216C99.9725 58.3441 100.715 58.5105 101.408 58.8208C102.102 59.1311 102.724 59.5738 103.273 60.1488C103.823 60.7239 104.242 61.4318 104.53 62.2726L104.71 62.7982C104.884 63.3062 104.835 63.7341 104.563 64.0819C104.308 64.4238 104.015 64.6517 103.682 64.7659L97.1391 67.0092C97.524 67.5037 98.0067 67.7982 98.5873 67.8928C99.1854 67.9814 99.8085 67.9145 100.457 67.6923C100.684 67.6142 100.932 67.5096 101.201 67.3785C101.463 67.2298 101.737 67.0577 102.022 66.862C102.179 66.7493 102.345 66.663 102.52 66.6029C102.818 66.5008 103.12 66.4953 103.425 66.5864C103.724 66.66 103.986 66.8246 104.211 67.0804C104.335 67.214 104.433 67.3859 104.505 67.5961C104.607 67.8939 104.613 68.2248 104.523 68.5886C104.444 68.929 104.259 69.2468 103.969 69.5421C103.609 69.92 103.169 70.237 102.65 70.4933C102.149 70.7435 101.653 70.9528 101.162 71.1209C100.181 71.4573 99.2457 71.6117 98.3553 71.5842C97.465 71.5567 96.6464 71.3675 95.8997 71.0167C95.1704 70.6598 94.516 70.1501 93.9364 69.4874C93.3744 68.8188 92.9342 68.0202 92.6159 67.0918C92.3216 66.2335 92.1942 65.3766 92.2337 64.5213C92.2907 63.6599 92.4947 62.8559 92.8455 62.1092C93.2079 61.3389 93.7291 60.661 94.4093 60.0754C95.0834 59.4723 95.911 59.0025 96.892 58.6662Z" fill="url(#paint6_radial_215_18651)"/>
<path d="M106.366 56.747C106.751 56.3197 107.276 55.913 107.94 55.527C108.604 55.1409 109.393 54.8274 110.306 54.5863C112.007 54.1372 113.364 54.1239 114.375 54.5463C115.387 54.9687 116.035 55.717 116.318 56.7913C116.47 57.3643 116.412 57.9444 116.146 58.5319C115.875 59.1014 115.43 59.5924 114.811 60.0047C115.704 59.9795 116.417 60.1745 116.948 60.5898C117.492 60.9824 117.856 61.5278 118.04 62.2261C118.192 62.7991 118.192 63.3448 118.042 63.8633C117.891 64.3819 117.608 64.8684 117.192 65.3231C116.776 65.7777 116.231 66.1802 115.557 66.5304C114.906 66.8938 114.151 67.189 113.291 67.4159C112.45 67.638 111.634 67.7386 110.843 67.7176C110.057 67.7144 109.443 67.6372 109 67.4858C108.323 67.2431 107.907 66.8264 107.751 66.2355C107.666 65.9132 107.68 65.6031 107.793 65.3052C107.987 64.7367 108.335 64.3862 108.837 64.2539C109.141 64.1735 109.534 64.1751 110.016 64.2586C110.363 64.3394 110.72 64.3886 111.089 64.4062C111.471 64.4011 111.814 64.3585 112.118 64.2781C112.745 64.1126 113.171 63.9139 113.397 63.6818C113.623 63.4498 113.703 63.2084 113.637 62.9578C113.571 62.7071 113.407 62.5206 113.144 62.3983C112.9 62.2712 112.554 62.2668 112.107 62.385L111.14 62.6402C110.764 62.7395 110.408 62.6993 110.074 62.5195C109.752 62.3171 109.542 62.0279 109.442 61.6519C109.343 61.2759 109.386 60.9295 109.57 60.6127C109.768 60.2732 110.055 60.0538 110.431 59.9545L111.263 59.7347C111.675 59.626 111.945 59.4495 112.072 59.2053C112.199 58.9611 112.229 58.7136 112.163 58.463C112.012 57.89 111.417 57.7406 110.378 58.0148C110.038 58.1046 109.721 58.2458 109.427 58.4383C109.151 58.6261 108.898 58.827 108.667 59.0412C108.436 59.2553 108.16 59.405 107.837 59.49C107.264 59.6413 106.769 59.5041 106.35 59.0784C106.14 58.8655 106 58.6248 105.929 58.3563C105.863 58.1056 105.862 57.8473 105.926 57.5815C105.985 57.2977 106.132 57.0196 106.366 56.747Z" fill="url(#paint7_radial_215_18651)"/>
<path d="M123.143 64.6703L123.29 65.4905C123.385 66.019 123.274 66.5 122.957 66.9332C122.661 67.3815 122.249 67.6531 121.72 67.748C121.192 67.8429 120.701 67.7334 120.25 67.4194C119.82 67.1204 119.557 66.7065 119.463 66.178L118.908 63.0886C118.832 62.6693 118.922 62.277 119.176 61.9115C119.43 61.546 119.776 61.3239 120.213 61.2454C120.395 60.893 120.537 60.4817 120.641 60.0115C120.745 59.5413 120.814 59.0396 120.85 58.5063C120.883 57.9548 120.887 57.3991 120.861 56.8393C120.851 56.2579 120.815 55.6905 120.753 55.1371L120.675 54.3891C120.617 53.854 120.746 53.3698 121.063 52.9365C121.396 52.4818 121.826 52.2069 122.355 52.112L128.287 51.0463C128.816 50.9514 129.297 51.0626 129.73 51.3798C130.178 51.6756 130.45 52.0878 130.545 52.6164L131.724 59.1779C132.289 59.0765 132.806 59.1811 133.276 59.4918C133.742 59.7843 134.023 60.1949 134.118 60.7234L134.609 63.4574C134.704 63.986 134.593 64.4669 134.275 64.9002C133.98 65.3484 133.567 65.62 133.039 65.715C132.51 65.8099 132.02 65.7004 131.569 65.3864C131.139 65.0873 130.876 64.6735 130.781 64.1449L130.634 63.3247L123.143 64.6703ZM127.623 59.9146L126.788 55.2668L124.956 55.5958L124.99 56.0977C125.049 57.1596 125.029 58.0473 124.932 58.761C124.834 59.4747 124.692 60.0458 124.506 60.4744L127.623 59.9146Z" fill="url(#paint8_radial_215_18651)"/>
<path d="M139.447 62.3816C138.32 62.4569 137.354 62.1687 136.55 61.5172C135.763 60.8459 135.327 59.8728 135.241 58.5979C135.195 57.8957 135.274 57.278 135.48 56.7446C135.685 56.2112 135.98 55.7646 136.365 55.4049C136.748 55.0267 137.201 54.7366 137.726 54.5345C138.269 54.3312 138.846 54.2092 139.456 54.1685C140.01 54.1315 140.505 54.1819 140.941 54.3199C141.395 54.4381 141.728 54.5643 141.941 54.6986L141.924 54.4491C141.881 53.8024 141.693 53.3417 141.359 53.0671C141.042 52.7727 140.616 52.6434 140.08 52.6792C139.747 52.7014 139.435 52.7501 139.143 52.8252C138.869 52.8807 138.604 52.954 138.351 53.0452C138.261 53.0883 138.179 53.1123 138.105 53.1173C138.031 53.1222 137.957 53.1271 137.883 53.1321C137.532 53.1555 137.211 53.0748 136.92 52.8901C136.648 52.7041 136.435 52.4307 136.281 52.0698C136.217 51.9441 136.179 51.7982 136.168 51.6319C136.144 51.2623 136.242 50.9217 136.462 50.61C136.7 50.2787 137.008 50.0261 137.386 49.8524C137.71 49.7009 138.127 49.5616 138.639 49.4347C139.168 49.3065 139.71 49.224 140.265 49.1869C142.168 49.0599 143.538 49.4324 144.376 50.3044C145.214 51.1765 145.688 52.4532 145.801 54.1346L146.184 59.8718C146.228 60.537 146.077 61.0574 145.731 61.4332C145.385 61.8089 144.99 62.0116 144.547 62.0412C144.011 62.077 143.596 61.9748 143.301 61.7346C143.007 61.4944 142.781 61.1661 142.623 60.7498C142.341 61.2512 141.913 61.6417 141.337 61.9214C140.761 62.1826 140.131 62.336 139.447 62.3816ZM142.107 57.193C141.701 56.9417 141.165 56.8383 140.5 56.8827C140.149 56.9061 139.868 57.0084 139.657 57.1895C139.445 57.3521 139.35 57.5905 139.371 57.9046C139.39 58.1818 139.516 58.4053 139.75 58.5753C139.984 58.7453 140.276 58.8185 140.628 58.7951C141.053 58.7667 141.38 58.6706 141.611 58.5068C141.858 58.3232 142.041 58.1439 142.159 57.969L142.107 57.193Z" fill="url(#paint9_radial_215_18651)"/>
<path d="M56.1358 98.1584C56.2378 98.0762 56.3636 97.9798 56.5133 97.8692C56.6694 97.7333 56.835 97.6132 57.0101 97.5091C57.1757 97.389 57.346 97.2769 57.5211 97.1728C57.6866 97.0527 57.8331 96.9548 57.9604 96.8791C58.7721 96.3962 59.5752 96.0801 60.3697 95.9306C61.1802 95.7717 61.9614 95.781 62.7134 95.9585C63.456 96.1201 64.1439 96.4435 64.7773 96.9286C65.4265 97.4042 65.9831 98.032 66.447 98.8118C67.4885 100.562 67.7457 102.263 67.2186 103.912C66.6915 105.561 65.3776 107.011 63.2768 108.261C62.1468 108.933 61.1777 109.477 60.3695 109.893C59.8507 110.18 59.3121 110.253 58.7537 110.111C58.2018 109.944 57.7743 109.606 57.4713 109.096L49.6747 95.9903C49.3812 95.4969 49.3054 94.9711 49.4473 94.4126C49.5891 93.8542 49.9067 93.4283 50.4001 93.1348L56.8934 89.272C57.3868 88.9785 57.9127 88.9026 58.4711 89.0445C59.0295 89.1863 59.4555 89.5039 59.749 89.9973C60.0425 90.4907 60.1183 91.0166 59.9765 91.575C59.8346 92.1334 59.517 92.5594 59.0237 92.8529L54.5595 95.5085L56.1358 98.1584ZM60.24 105.058C60.5773 104.9 60.8588 104.776 61.0846 104.684C61.301 104.577 61.5206 104.457 61.7434 104.325C62.5392 103.851 62.9809 103.362 63.0685 102.858C63.1626 102.328 63.0724 101.832 62.7978 101.371C62.5043 100.877 62.1055 100.533 61.6012 100.337C61.0875 100.125 60.4806 100.228 59.7803 100.645C59.2869 100.938 58.7822 101.303 58.266 101.739L60.24 105.058Z" fill="url(#paint10_radial_215_18651)"/>
<path d="M73.5528 94.7308C73.7844 94.9465 73.9869 95.1663 74.1605 95.3901C74.3506 95.6058 74.5449 95.8297 74.7433 96.0619C74.6526 95.7967 74.5619 95.5316 74.4712 95.2664C74.3723 94.9847 74.2941 94.6823 74.2366 94.3592L73.4485 89.9107C73.3664 89.4551 73.4209 89.0246 73.612 88.6191C73.8197 88.2053 74.1307 87.8952 74.5451 87.6888C75.175 87.3751 75.759 87.3222 76.297 87.5301C76.8267 87.7214 77.2154 88.0656 77.4631 88.5629C77.5952 88.8282 77.6734 89.1098 77.6978 89.408L78.6382 99.7698C78.744 100.979 78.7797 101.985 78.7453 102.789C78.7192 103.608 78.6146 104.292 78.4315 104.838C78.2733 105.392 78.0366 105.831 77.7214 106.154C77.431 106.484 77.0703 106.757 76.6394 106.972C76.3576 107.112 76.0758 107.211 75.7942 107.269C75.5125 107.326 75.2392 107.359 74.9741 107.367C74.6263 107.374 74.3035 107.287 74.0056 107.104C73.7243 106.913 73.5094 106.669 73.3608 106.37C73.2535 106.155 73.1875 105.939 73.163 105.724C73.1059 105.153 73.2226 104.722 73.5129 104.433C73.8032 104.143 74.1555 103.895 74.5699 103.689C74.8351 103.557 75.0094 103.367 75.0926 103.118C75.1923 102.862 75.2301 102.564 75.2058 102.224L75.1572 101.504L67.1177 94.8947C66.8779 94.7039 66.6795 94.451 66.5226 94.136C66.2584 93.6056 66.222 93.0548 66.4134 92.4837C66.6131 91.8877 67.0196 91.437 67.6329 91.1315C68.1136 90.8921 68.5651 90.8224 68.9873 90.9224C69.4178 90.9976 69.7943 91.1928 70.1168 91.508L73.5528 94.7308Z" fill="url(#paint11_radial_215_18651)"/>
<path d="M86.678 96.0279L86.9952 96.7985C87.1996 97.2951 87.1924 97.7887 86.9738 98.2792C86.7793 98.7798 86.4337 99.1322 85.9371 99.3366C85.4405 99.541 84.9384 99.5374 84.4308 99.3258C83.9473 99.1243 83.6034 98.7752 83.399 98.2786L82.2044 95.3759C82.0423 94.9821 82.0469 94.5797 82.2182 94.1687C82.3895 93.7578 82.6807 93.4678 83.0917 93.2986C83.1945 92.9159 83.2469 92.4838 83.249 92.0023C83.2511 91.5208 83.2134 91.0157 83.136 90.4868C83.0514 89.9409 82.9377 89.397 82.7948 88.855C82.6619 88.2889 82.5069 87.742 82.3297 87.2141L82.0957 86.4994C81.9255 85.9887 81.9498 85.4881 82.1684 84.9976C82.3972 84.4829 82.7599 84.1234 83.2565 83.919L88.8306 81.6249C89.3272 81.4206 89.8207 81.4277 90.3112 81.6464C90.8118 81.8408 91.1643 82.1864 91.3687 82.683L93.9059 88.8479C94.4368 88.6294 94.9646 88.6225 95.4893 88.827C96.007 89.0145 96.3681 89.3565 96.5724 89.8531L97.6296 92.4218C97.834 92.9184 97.8269 93.412 97.6082 93.9025C97.4137 94.4031 97.0682 94.7555 96.5715 94.9599C96.0749 95.1643 95.5728 95.1607 95.0652 94.9491C94.5817 94.7475 94.2378 94.3985 94.0334 93.9019L93.7163 93.1312L86.678 96.0279ZM90.0528 90.4337L88.2556 86.0669L86.5346 86.7752L86.6735 87.2587C86.9554 88.2841 87.1239 89.1559 87.1792 89.8741C87.2345 90.5923 87.2163 91.1806 87.1245 91.6388L90.0528 90.4337Z" fill="url(#paint12_radial_215_18651)"/>
<path d="M101.591 83.1165C101.789 83.3634 101.957 83.6102 102.097 83.8568C102.254 84.0977 102.414 84.3473 102.576 84.6058C102.525 84.3303 102.474 84.0548 102.422 83.7793C102.365 83.4863 102.331 83.1757 102.321 82.8477L102.185 78.332C102.17 77.8693 102.286 77.4512 102.534 77.0776C102.799 76.6983 103.152 76.4365 103.592 76.2922C104.261 76.073 104.846 76.1051 105.348 76.3887C105.845 76.6546 106.18 77.0515 106.353 77.5794C106.445 77.861 106.482 78.151 106.463 78.4496L105.893 88.8384C105.823 90.0503 105.713 91.0511 105.563 91.8409C105.418 92.6484 105.216 93.3091 104.956 93.8232C104.719 94.3491 104.421 94.7487 104.062 95.0222C103.727 95.3075 103.331 95.5252 102.873 95.6752C102.574 95.7733 102.281 95.8304 101.994 95.8466C101.707 95.8628 101.432 95.8556 101.169 95.825C100.823 95.7823 100.517 95.649 100.248 95.4252C99.9975 95.1956 99.8203 94.9224 99.7164 94.6057C99.6414 94.3769 99.6073 94.1542 99.6143 93.9376C99.6405 93.3638 99.8182 92.9548 100.147 92.7104C100.476 92.4661 100.861 92.2718 101.301 92.1275C101.582 92.0352 101.782 91.8722 101.901 91.6386C102.036 91.3991 102.117 91.1096 102.142 90.7701L102.198 90.0501L95.1999 82.3473C94.9902 82.1238 94.8305 81.8448 94.7208 81.5105C94.5362 80.9474 94.5799 80.3972 94.8519 79.8597C95.1357 79.2989 95.6032 78.9118 96.2543 78.6983C96.7646 78.531 97.2213 78.5274 97.6246 78.6874C98.0397 78.8242 98.384 79.0718 98.6575 79.4304L101.591 83.1165Z" fill="url(#paint13_radial_215_18651)"/>
<path d="M130.728 83.3975C130.847 83.9212 130.758 84.4067 130.461 84.854C130.186 85.3153 129.787 85.6055 129.263 85.7245C128.739 85.8435 128.245 85.7565 127.779 85.4635C127.336 85.1844 127.055 84.7831 126.936 84.2594L126.751 83.4468L113.343 86.4941C112.82 86.6131 112.327 86.5351 111.866 86.2602C111.419 85.963 111.135 85.5526 111.016 85.0289L109.077 76.4966C108.958 75.973 109.047 75.4875 109.344 75.0401C109.655 74.5706 110.1 74.2702 110.678 74.1389C111.256 74.0075 111.777 74.0884 112.243 74.3814C112.722 74.6523 113.021 75.0495 113.14 75.5732L114.648 82.2095L117.086 81.6554L115.578 75.0192C115.459 74.4955 115.548 74.01 115.845 73.5626C116.156 73.0931 116.601 72.7927 117.179 72.6614C117.756 72.5301 118.278 72.6109 118.743 72.9039C119.223 73.1748 119.522 73.5721 119.641 74.0957L121.149 80.732L123.587 80.1779L122.079 73.5417C121.96 73.018 122.049 72.5325 122.346 72.0852C122.657 71.6157 123.102 71.3153 123.679 71.1839C124.257 71.0526 124.788 71.1314 125.271 71.4203C125.751 71.6912 126.05 72.0884 126.169 72.6121L127.677 79.2483C128.237 79.1211 128.75 79.204 129.215 79.497C129.694 79.7679 129.993 80.1652 130.112 80.6889L130.728 83.3975Z" fill="url(#paint14_radial_215_18651)"/>
<path d="M138.187 74.1173C138.135 73.6945 137.913 73.3298 137.521 73.0232C137.146 72.696 136.627 72.5728 135.965 72.6536C135.267 72.7389 134.752 72.951 134.42 73.29C134.088 73.629 133.855 74.0866 133.72 74.6627L138.187 74.1173ZM135.682 69.1902C136.473 69.0936 137.243 69.1395 137.994 69.3276C138.763 69.5136 139.454 69.8302 140.068 70.2776C140.683 70.7249 141.199 71.2868 141.618 71.9633C142.036 72.6398 142.299 73.4192 142.407 74.3015L142.474 74.853C142.539 75.386 142.403 75.7945 142.064 76.0784C141.744 76.36 141.409 76.5221 141.06 76.5648L134.195 77.4031C134.469 77.9667 134.88 78.3549 135.428 78.5677C135.995 78.7784 136.618 78.8422 137.298 78.7591C137.537 78.7299 137.802 78.679 138.091 78.6063C138.379 78.5153 138.682 78.4036 139.002 78.2713C139.179 78.1937 139.359 78.1437 139.543 78.1212C139.856 78.083 140.152 78.1402 140.432 78.2926C140.709 78.4266 140.931 78.642 141.098 78.9387C141.192 79.0952 141.252 79.2837 141.279 79.5043C141.317 79.8168 141.254 80.1416 141.09 80.4788C140.942 80.7953 140.696 81.068 140.351 81.2967C139.92 81.5918 139.425 81.8109 138.864 81.954C138.321 82.0948 137.793 82.1967 137.278 82.2596C136.249 82.3853 135.301 82.3424 134.436 82.1309C133.571 81.9194 132.809 81.5647 132.151 81.0667C131.512 80.5664 130.977 79.9321 130.548 79.1637C130.137 78.3931 129.871 77.5206 129.752 76.5464C129.642 75.6457 129.695 74.7811 129.911 73.9525C130.146 73.1217 130.512 72.3774 131.01 71.7196C131.524 71.0411 132.175 70.486 132.961 70.0541C133.746 69.6038 134.653 69.3159 135.682 69.1902Z" fill="url(#paint15_radial_215_18651)"/>
<path d="M148.702 72.3488L148.994 79.287C149.017 79.8236 148.833 80.2947 148.442 80.7004C148.069 81.0868 147.587 81.2925 146.995 81.3174C146.403 81.3423 145.895 81.1784 145.473 80.8255C145.068 80.4533 144.854 79.9989 144.832 79.4624L144.458 70.5815C144.435 70.0449 144.601 69.5838 144.955 69.1982C145.327 68.7933 145.782 68.5796 146.318 68.557L151.314 68.3466C151.85 68.324 152.312 68.4991 152.698 68.8721C153.102 69.2258 153.316 69.6709 153.338 70.2074C153.361 70.744 153.186 71.2147 152.814 71.6196C152.46 72.0053 152.014 72.2094 151.478 72.232L148.702 72.3488Z" fill="url(#paint16_radial_215_18651)"/>
<path d="M161.176 81.2898C160.103 81.2389 159.149 81.0267 158.314 80.6534C157.479 80.28 156.77 79.7829 156.188 79.162C155.624 78.5419 155.195 77.8263 154.9 77.0151C154.623 76.2048 154.507 75.3279 154.552 74.3846C154.597 73.4412 154.795 72.5793 155.147 71.7988C155.518 71.0193 156.013 70.3476 156.633 69.7838C157.272 69.2208 158.025 68.7931 158.891 68.5005C159.758 68.208 160.728 68.0872 161.801 68.1382C162.873 68.1891 163.827 68.4013 164.662 68.7746C165.498 69.148 166.197 69.6447 166.761 70.2647C167.343 70.8856 167.773 71.6012 168.049 72.4116C168.344 73.2228 168.47 74.1 168.425 75.0434C168.38 75.9868 168.172 76.8483 167.802 77.6278C167.449 78.4083 166.954 79.08 166.315 79.6429C165.695 80.2067 164.952 80.6349 164.085 80.9274C163.219 81.22 162.249 81.3408 161.176 81.2898ZM161.616 72.0226C160.95 71.991 160.356 72.2038 159.834 72.661C159.312 73.0997 159.032 73.7445 158.991 74.5954C158.953 75.3908 159.163 76.0496 159.62 76.5719C160.077 77.0942 160.658 77.372 161.36 77.4054C162.063 77.4387 162.666 77.2356 163.169 76.796C163.673 76.338 163.945 75.6835 163.985 74.8326C164.024 74.0187 163.814 73.3599 163.356 72.8561C162.899 72.3338 162.319 72.056 161.616 72.0226Z" fill="url(#paint17_radial_215_18651)"/>
<defs>
<radialGradient id="paint0_radial_215_18651" cx="0" cy="0" r="1" gradientUnits="userSpaceOnUse" gradientTransform="translate(36.235 13.2611) rotate(49.4615) scale(28.422 39.2503)">
<stop stop-color="#FF00D6"/>
<stop offset="0.562168" stop-color="#FF004D"/>
<stop offset="1" stop-color="#FF6291"/>
</radialGradient>
<radialGradient id="paint1_radial_215_18651" cx="0" cy="0" r="1" gradientUnits="userSpaceOnUse" gradientTransform="translate(44.8182 16.1705) rotate(136.73) scale(19.1341 24.0865)">
<stop stop-color="#FFE7AB"/>
<stop offset="1" stop-color="#FABC22"/>
</radialGradient>
<radialGradient id="paint2_radial_215_18651" cx="0" cy="0" r="1" gradientUnits="userSpaceOnUse" gradientTransform="translate(158.46 145.838) rotate(49.4615) scale(34.3024 47.371)">
<stop stop-color="#FF00D6"/>
<stop offset="0.562168" stop-color="#FF004D"/>
<stop offset="1" stop-color="#FF6291"/>
</radialGradient>
<radialGradient id="paint3_radial_215_18651" cx="0" cy="0" r="1" gradientUnits="userSpaceOnUse" gradientTransform="translate(168.819 149.349) rotate(136.73) scale(23.0928 29.0699)">
<stop stop-color="#FFE7AB"/>
<stop offset="1" stop-color="#FABC22"/>
</radialGradient>
<radialGradient id="paint4_radial_215_18651" cx="0" cy="0" r="1" gradientUnits="userSpaceOnUse" gradientTransform="translate(70.4791 74.5975) rotate(62.8866) scale(17.5 8.5)">
<stop stop-color="#FFE4AD"/>
<stop offset="1" stop-color="#FABC22"/>
</radialGradient>
<radialGradient id="paint5_radial_215_18651" cx="0" cy="0" r="1" gradientUnits="userSpaceOnUse" gradientTransform="translate(84.4447 68.0732) rotate(67.0338) scale(17.5 7.5)">
<stop stop-color="#FFE4AD"/>
<stop offset="1" stop-color="#FABC22"/>
</radialGradient>
<radialGradient id="paint6_radial_215_18651" cx="0" cy="0" r="1" gradientUnits="userSpaceOnUse" gradientTransform="translate(98.1924 62.8011) rotate(71.0745) scale(17.5 7.5)">
<stop stop-color="#FFE4AD"/>
<stop offset="1" stop-color="#FABC22"/>
</radialGradient>
<radialGradient id="paint7_radial_215_18651" cx="0" cy="0" r="1" gradientUnits="userSpaceOnUse" gradientTransform="translate(111.923 58.6412) rotate(75.2105) scale(17.5 7)">
<stop stop-color="#FFE4AD"/>
<stop offset="1" stop-color="#FABC22"/>
</radialGradient>
<radialGradient id="paint8_radial_215_18651" cx="0" cy="0" r="1" gradientUnits="userSpaceOnUse" gradientTransform="translate(125.413 55.6265) rotate(79.8172) scale(17.5 8)">
<stop stop-color="#FFE4AD"/>
<stop offset="1" stop-color="#FABC22"/>
</radialGradient>
<radialGradient id="paint9_radial_215_18651" cx="0" cy="0" r="1" gradientUnits="userSpaceOnUse" gradientTransform="translate(140.581 53.5086) rotate(86.1807) scale(17.5 6.5)">
<stop stop-color="#FFE4AD"/>
<stop offset="1" stop-color="#FABC22"/>
</radialGradient>
<radialGradient id="paint10_radial_215_18651" cx="0" cy="0" r="1" gradientUnits="userSpaceOnUse" gradientTransform="translate(59.7912 100.282) rotate(59.2523) scale(17.5 9)">
<stop stop-color="#FFE4AD"/>
<stop offset="1" stop-color="#FABC22"/>
</radialGradient>
<radialGradient id="paint11_radial_215_18651" cx="0" cy="0" r="1" gradientUnits="userSpaceOnUse" gradientTransform="translate(73.2575 92.9538) rotate(63.5241) scale(17.5 7.5)">
<stop stop-color="#FFE4AD"/>
<stop offset="1" stop-color="#FABC22"/>
</radialGradient>
<radialGradient id="paint12_radial_215_18651" cx="0" cy="0" r="1" gradientUnits="userSpaceOnUse" gradientTransform="translate(86.9879 86.7086) rotate(67.6299) scale(17.5 8)">
<stop stop-color="#FFE4AD"/>
<stop offset="1" stop-color="#FABC22"/>
</radialGradient>
<radialGradient id="paint13_radial_215_18651" cx="0" cy="0" r="1" gradientUnits="userSpaceOnUse" gradientTransform="translate(101.556 81.3154) rotate(71.8454) scale(17.5 7.5)">
<stop stop-color="#FFE4AD"/>
<stop offset="1" stop-color="#FABC22"/>
</radialGradient>
<radialGradient id="paint14_radial_215_18651" cx="0" cy="0" r="1" gradientUnits="userSpaceOnUse" gradientTransform="translate(118.8 76.5371) rotate(77.1956) scale(17.5 11)">
<stop stop-color="#FFE4AD"/>
<stop offset="1" stop-color="#FABC22"/>
</radialGradient>
<radialGradient id="paint15_radial_215_18651" cx="0" cy="0" r="1" gradientUnits="userSpaceOnUse" gradientTransform="translate(136.097 73.5048) rotate(83.0378) scale(17.5 7.5)">
<stop stop-color="#FFE4AD"/>
<stop offset="1" stop-color="#FABC22"/>
</radialGradient>
<radialGradient id="paint16_radial_215_18651" cx="0" cy="0" r="1" gradientUnits="userSpaceOnUse" gradientTransform="translate(148.513 72.4679) rotate(87.5884) scale(17.5 5.5)">
<stop stop-color="#FFE4AD"/>
<stop offset="1" stop-color="#FABC22"/>
</radialGradient>
<radialGradient id="paint17_radial_215_18651" cx="0" cy="0" r="1" gradientUnits="userSpaceOnUse" gradientTransform="translate(161.817 72.477) rotate(92.719) scale(17.5 8)">
<stop stop-color="#FFE4AD"/>
<stop offset="1" stop-color="#FABC22"/>
</radialGradient>
</defs>
</svg>
