<svg width="292" height="199" viewBox="0 0 292 199" fill="none" xmlns="http://www.w3.org/2000/svg">
    <g clip-path="url(#clip0_240_15274)">
        <g filter="url(#filter0_dddddd_240_15274)">
            <path d="M42.653 172.247C42.1823 172.206 41.7728 172.057 41.4238 171.808C39.8218 170.672 40.0796 167.69 42.0038 165.156C43.2782 163.478 44.9511 162.379 46.5003 162.21L47.4299 162.107L38.531 148.701C38.4546 148.582 38.4612 148.434 38.5513 148.328C38.7403 148.104 43.2589 142.897 48.8211 143.38C49.4222 143.432 50.024 143.555 50.606 143.733C50.6909 143.761 50.7588 143.817 50.7956 143.891C50.8325 143.964 50.8391 144.05 50.8167 144.133C50.7674 144.27 50.6271 144.364 50.475 144.351C49.8858 144.172 49.3406 144.068 48.7974 144.021C44.5824 143.656 40.9102 146.843 39.5244 148.229L39.2025 148.547L48.81 163.039C49.9268 164.444 49.4919 167.057 47.8007 169.286C46.3261 171.229 44.3043 172.39 42.653 172.247ZM47.0771 162.832C45.6721 162.71 43.8471 163.796 42.5226 165.541C41.7149 166.602 41.1883 167.779 41.0442 168.848C40.8962 169.959 41.1702 170.853 41.7997 171.303C42.0532 171.481 42.3639 171.593 42.7188 171.623C44.1166 171.745 45.9488 170.659 47.2733 168.915C48.9809 166.667 49.3039 164.079 47.989 163.152C47.7355 162.974 47.4247 162.863 47.0698 162.832L47.0771 162.832Z" fill="#00FFBA"/>
        </g>
        <g filter="url(#filter1_dddddd_240_15274)">
            <path d="M185.904 35.2102C185.272 34.7907 184.901 34.2396 184.825 33.6256C184.741 32.8881 185.109 32.1463 185.862 31.5202C186.683 30.8496 187.848 30.4009 189.147 30.2559C190.652 30.0924 192.068 30.366 193.04 31.0126C193.133 31.0745 193.226 31.1364 193.304 31.2102L193.901 31.7035L197.156 19.1275C197.19 19.0092 197.289 18.9271 197.413 18.9205L209.864 18.4554C209.926 18.4521 209.983 18.4676 210.029 18.4986C210.055 18.5158 210.076 18.5295 210.09 18.5536C210.149 18.6223 210.168 18.7166 210.144 18.7971L206.578 32.6123C206.33 34.0487 204.517 35.2455 202.26 35.495C201.043 35.6282 199.862 35.4733 198.928 35.06C198.721 34.967 198.525 34.8586 198.349 34.7417C197.718 34.3221 197.346 33.771 197.27 33.157C197.176 32.3681 197.597 31.5802 198.45 30.9388C199.257 30.3333 200.376 29.9205 201.598 29.7908C203.103 29.6273 204.522 29.8958 205.494 30.5423C205.587 30.6042 205.681 30.6661 205.758 30.74L206.355 31.2333L209.515 19.024L197.641 19.4645L194.128 33.0774C193.879 34.5138 192.066 35.7106 189.809 35.9601C188.593 36.0932 187.412 35.9384 186.478 35.5251C186.271 35.4321 186.074 35.3237 185.898 35.2068L185.904 35.2102ZM192.742 31.4595C191.904 30.9024 190.583 30.6547 189.219 30.8081C186.957 31.0542 185.237 32.2906 185.384 33.5598C185.435 34.0091 185.729 34.4194 186.226 34.7496C186.37 34.8459 186.536 34.9337 186.713 35.0146C187.541 35.3865 188.648 35.5292 189.754 35.4044C192.016 35.1584 193.736 33.9219 193.589 32.6528C193.533 32.2 193.242 31.7845 192.746 31.4544L192.742 31.4595ZM205.196 30.9893C204.358 30.4322 203.037 30.1845 201.673 30.3379C200.571 30.4576 199.526 30.8379 198.799 31.3784C198.113 31.8932 197.767 32.5013 197.838 33.0895C197.889 33.5389 198.183 33.9492 198.68 34.2794C198.825 34.3757 198.99 34.4634 199.168 34.5444C199.995 34.9163 201.102 35.059 202.208 34.9342C204.47 34.6882 206.19 33.4517 206.043 32.1826C205.987 31.7298 205.696 31.3143 205.2 30.9842L205.196 30.9893Z" fill="#00FFBA"/>
        </g>
        <path opacity="0.1" d="M64.4091 31.1173L64.4064 31.12L52.5685 43.0345L52.5658 43.0372L45.3115 50.2892L38.0572 43.0372L38.0545 43.0345L26.2167 31.12L26.214 31.1173C21.9022 26.807 21.9022 19.9531 26.214 15.6428L26.214 15.6428L26.2208 15.6359C30.4464 11.3384 37.3788 11.3284 41.6946 15.6428L44.5136 18.4608L45.3115 19.2585L46.1095 18.4608L48.9284 15.6428C53.2442 11.3284 60.1766 11.3384 64.4022 15.6359L64.4022 15.6359L64.4091 15.6428C68.7208 19.9531 68.7208 26.807 64.4091 31.1173Z" stroke="white" stroke-width="2.25724"/>
        <path d="M40.1101 104.668L82.4218 147.372L111.206 176.227L139.99 147.372L182.301 104.668C199.285 87.6426 199.285 60.5208 182.301 43.4955C165.608 26.4702 138.263 26.4702 121.279 43.4955L111.206 53.5938L101.132 43.4955C84.1488 26.4702 56.804 26.4702 40.1101 43.4955C23.1267 60.5208 23.1267 87.6426 40.1101 104.668Z" fill="url(#paint0_radial_240_15274)"/>
        <path d="M143.109 92.5364V76.5469H150.789C152.278 76.5469 153.561 76.7905 154.64 77.2778C155.734 77.7651 156.577 78.4656 157.169 79.3793C157.762 80.2778 158.058 81.3437 158.058 82.5772C158.058 83.8107 157.762 84.8767 157.169 85.7751C156.577 86.6736 155.734 87.3741 154.64 87.8766C153.561 88.3639 152.278 88.6075 150.789 88.6075H146.095L148.487 86.3005V92.5364H143.109ZM148.487 86.8944L146.095 84.4503H150.447C151.191 84.4503 151.738 84.2828 152.088 83.9477C152.452 83.6127 152.635 83.1559 152.635 82.5772C152.635 81.9985 152.452 81.5417 152.088 81.2067C151.738 80.8717 151.191 80.7041 150.447 80.7041H146.095L148.487 78.26V86.8944Z" fill="white"/>
        <path d="M133.549 82.4858H140.662V86.369H133.549V82.4858ZM133.914 88.4705H141.893V92.5364H128.625V76.5469H141.597V80.6128H133.914V88.4705Z" fill="white"/>
        <path d="M111.586 92.5364V76.5469H127.056V92.5364H121.755V79.5849L122.92 80.727H115.722L116.887 79.5849V92.5364H111.586Z" fill="white"/>
        <path d="M89.6957 92.9458C88.4191 92.9458 87.2336 92.7475 86.1393 92.3511C85.0602 91.9394 84.1179 91.3599 83.3124 90.6128C82.5221 89.8656 81.9066 88.9812 81.4658 87.9596C81.0251 86.9379 80.8047 85.8096 80.8047 84.5744C80.8047 83.3393 81.0251 82.211 81.4658 81.1893C81.9066 80.1677 82.5221 79.2833 83.3124 78.5361C84.1179 77.7889 85.0602 77.2171 86.1393 76.8207C87.2336 76.409 88.4191 76.2031 89.6957 76.2031C91.2611 76.2031 92.6442 76.4776 93.8449 77.0265C95.0607 77.5755 96.0638 78.3684 96.8541 79.4053L93.4573 82.4473C92.9862 81.8526 92.4618 81.3952 91.8843 81.075C91.3219 80.7395 90.6836 80.5718 89.9693 80.5718C89.4069 80.5718 88.8978 80.6633 88.4419 80.8462C87.9859 81.0292 87.5907 81.2961 87.2564 81.6468C86.9372 81.9975 86.6864 82.4244 86.5041 82.9276C86.3217 83.4156 86.2305 83.9645 86.2305 84.5744C86.2305 85.1844 86.3217 85.7409 86.5041 86.2441C86.6864 86.7321 86.9372 87.1514 87.2564 87.5021C87.5907 87.8528 87.9859 88.1197 88.4419 88.3027C88.8978 88.4856 89.4069 88.5771 89.9693 88.5771C90.6836 88.5771 91.3219 88.417 91.8843 88.0968C92.4618 87.7613 92.9862 87.2963 93.4573 86.7016L96.8541 89.7436C96.0638 90.7653 95.0607 91.5582 93.8449 92.1224C92.6442 92.6713 91.2611 92.9458 89.6957 92.9458Z" fill="white"/>
        <path d="M99.0514 81.6788C99.877 81.891 100.523 81.964 100.989 81.8977C101.455 81.8181 101.868 81.5329 102.227 81.042L102.906 80.0868L103.306 79.649L107.361 71.3906H111.915L106.302 81.8778C105.689 83.0187 104.95 83.9076 104.085 84.5443C103.233 85.1679 102.287 85.5261 101.249 85.6189C100.21 85.7118 99.1113 85.5261 97.9528 85.0617L99.0514 81.6788ZM103.246 83.3305L96.7344 71.3906H101.708L105.803 80.0868L103.246 83.3305Z" fill="white"/>
        <path d="M129.243 126.21C128.567 126.21 127.877 126.105 127.172 125.896C126.481 125.701 125.926 125.439 125.506 125.109L127.194 121.624C127.449 121.819 127.735 121.977 128.05 122.097C128.38 122.216 128.695 122.276 128.995 122.276C129.445 122.276 129.791 122.179 130.031 121.984C130.271 121.804 130.466 121.527 130.616 121.152L131.134 119.849L131.494 119.354L135.434 109.328H140.251L135.186 121.872C134.736 122.996 134.21 123.872 133.61 124.502C133.025 125.131 132.364 125.573 131.629 125.828C130.909 126.083 130.113 126.21 129.243 126.21ZM130.436 122.186L125.078 109.328H130.301L133.993 118.904L130.436 122.186Z" fill="white"/>
        <path d="M118.583 121.877C117.193 121.877 115.96 121.607 114.884 121.066C113.822 120.51 112.985 119.752 112.372 118.79C111.76 117.829 111.453 116.725 111.453 115.478C111.453 114.231 111.76 113.127 112.372 112.166C112.985 111.205 113.822 110.453 114.884 109.913C115.96 109.372 117.193 109.102 118.583 109.102C119.973 109.102 121.207 109.372 122.283 109.913C123.359 110.453 124.196 111.205 124.794 112.166C125.407 113.127 125.714 114.231 125.714 115.478C125.714 116.725 125.407 117.829 124.794 118.79C124.196 119.752 123.359 120.51 122.283 121.066C121.207 121.607 119.973 121.877 118.583 121.877ZM118.583 117.912C118.957 117.912 119.293 117.821 119.592 117.641C119.891 117.461 120.13 117.191 120.31 116.83C120.489 116.455 120.579 116.004 120.579 115.478C120.579 114.937 120.489 114.494 120.31 114.149C120.13 113.788 119.891 113.518 119.592 113.338C119.293 113.157 118.957 113.067 118.583 113.067C118.21 113.067 117.873 113.157 117.574 113.338C117.275 113.518 117.036 113.788 116.857 114.149C116.677 114.494 116.588 114.937 116.588 115.478C116.588 116.004 116.677 116.455 116.857 116.83C117.036 117.191 117.275 117.461 117.574 117.641C117.873 117.821 118.21 117.912 118.583 117.912Z" fill="white"/>
        <path d="M98.6624 117.661L97.5587 118.765V109.328H102.627V118.765L101.501 117.661H106.253L105.15 118.765V109.328H110.195V121.648H89.9453V109.328H95.0134V118.765L93.9097 117.661H98.6624Z" fill="white"/>
        <path d="M120.072 107.161L116.711 101.534L120.789 99.1578L126.033 107.161H120.072ZM111.602 107.161V94.8984H116.666V107.161H111.602ZM115.187 103.081V99.2026H119.758V103.081H115.187ZM121.305 101.579L116.554 101.131L120.453 94.8984H125.787L121.305 101.579Z" fill="white"/>
        <path d="M96.1953 107.218V94.8984H101.251V100.481L105.497 94.8984H110.17V107.218H105.115V101.649L100.891 107.218H96.1953Z" fill="white"/>
        <path d="M90.1002 107.05V104.865L89.7402 104.279V100.133C89.7402 99.5322 89.5528 99.074 89.1779 98.7586C88.8179 98.4431 88.2256 98.2854 87.4007 98.2854C86.8459 98.2854 86.2835 98.3755 85.7136 98.5558C85.1437 98.721 84.6563 98.9538 84.2514 99.2543L82.6318 95.897C83.3516 95.4463 84.2139 95.1009 85.2187 94.8605C86.2235 94.6202 87.2058 94.5 88.1656 94.5C90.2801 94.5 91.9148 94.9732 93.0695 95.9195C94.2393 96.8659 94.8242 98.368 94.8242 100.426V107.05H90.1002ZM86.6134 107.276C85.6086 107.276 84.7688 107.103 84.0939 106.757C83.4191 106.412 82.9092 105.954 82.5643 105.383C82.2193 104.797 82.0469 104.151 82.0469 103.445C82.0469 102.649 82.2493 101.973 82.6542 101.417C83.0592 100.862 83.674 100.441 84.4989 100.156C85.3387 99.8702 86.396 99.7274 87.6707 99.7274H90.2351V102.183H88.4805C87.9406 102.183 87.5432 102.274 87.2883 102.454C87.0483 102.619 86.9283 102.874 86.9283 103.22C86.9283 103.505 87.0333 103.746 87.2433 103.941C87.4682 104.121 87.7682 104.211 88.1431 104.211C88.488 104.211 88.8029 104.121 89.0879 103.941C89.3878 103.746 89.6053 103.445 89.7402 103.04L90.3926 104.549C90.1977 105.466 89.7852 106.149 89.1554 106.6C88.5255 107.05 87.6782 107.276 86.6134 107.276Z" fill="white"/>
        <path d="M66.5938 107.05L66.796 102.927C66.8859 102.942 66.9758 102.957 67.0657 102.972C67.1556 102.972 67.238 102.972 67.3129 102.972C67.6425 102.972 67.9047 102.912 68.0995 102.792C68.2943 102.657 68.4441 102.469 68.549 102.229C68.6688 101.974 68.7512 101.673 68.7962 101.328C68.8411 100.967 68.8711 100.554 68.8861 100.089L69.0658 94.7266H80.7971V107.05H75.718V97.6329L76.8193 98.6918H72.4144L73.4482 97.5653L73.3358 100.291C73.2909 101.403 73.1935 102.402 73.0437 103.288C72.8939 104.159 72.6541 104.902 72.3245 105.518C72.0099 106.119 71.5754 106.585 71.0211 106.915C70.4817 107.23 69.7925 107.388 68.9535 107.388C68.6239 107.388 68.2568 107.358 67.8523 107.298C67.4627 107.238 67.0432 107.155 66.5938 107.05Z" fill="white"/>
        <path d="M107.18 90.1946L105.213 92.1615L103.874 93.4905L102.536 92.1615L100.569 90.1946C99.7792 89.4105 99.7792 88.1613 100.569 87.3772C101.345 86.593 102.616 86.593 103.406 87.3772L103.874 87.8423L104.343 87.3772C105.132 86.593 106.404 86.593 107.18 87.3772C107.969 88.1613 107.969 89.4105 107.18 90.1946Z" fill="#52FF00"/>
        <path d="M198.486 177.035C197.418 174.098 177.702 127.406 177.702 127.406L163.251 134.883C163.251 134.883 189.821 178.94 191.341 180.882C192.861 182.823 199.555 179.973 198.486 177.035Z" fill="#4C4C4C"/>
        <path d="M197.056 172.025L196.887 171.635C196.849 171.521 196.775 171.419 196.672 171.346C196.462 171.198 196.182 171.21 195.99 171.375C193.699 173.353 191.061 174.785 188.158 175.581C187.988 175.627 187.851 175.753 187.788 175.92C187.726 176.088 187.746 176.276 187.842 176.429L188.093 176.827C188.227 177.04 188.483 177.141 188.722 177.074C191.752 176.219 194.501 174.727 196.907 172.683C197.095 172.523 197.155 172.256 197.056 172.025Z" fill="white" stroke="white" stroke-width="1.12788" stroke-linejoin="round"/>
        <path d="M161.009 135.408C161.242 135.865 161.635 136.205 162.116 136.365C162.597 136.525 163.107 136.486 163.554 136.255L178.815 128.359C179.261 128.128 179.59 127.733 179.74 127.246C179.891 126.76 179.846 126.24 179.612 125.783L178.813 124.218L160.21 133.843L161.009 135.408Z" fill="white"/>
        <path d="M159.849 133.095C159.618 132.637 159.575 132.117 159.727 131.632C159.88 131.146 160.211 130.752 160.658 130.523L175.954 122.697C176.402 122.468 176.913 122.431 177.393 122.593C177.872 122.755 178.264 123.097 178.496 123.555L179.288 125.123L160.642 134.664L159.849 133.095Z" fill="white"/>
        <path d="M177.406 122.763C178.396 119.203 178.792 114.227 176.966 110.65C173.167 103.21 164.197 100.227 156.931 103.986C149.665 107.746 146.854 116.824 150.653 124.264C152.479 127.84 156.43 130.37 159.883 131.633L177.406 122.763Z" fill="#989898"/>
        <path d="M176.267 109.367C176.515 109.238 176.823 109.317 176.985 109.552C177.052 109.649 177.125 109.768 177.185 109.872C177.236 109.96 177.306 110.087 177.341 110.183C177.406 110.362 177.379 110.559 177.271 110.711C177.028 111.049 176.649 111.387 176.312 111.671C176.183 111.779 176.061 111.879 175.946 111.974C175.735 112.147 175.551 112.299 175.403 112.437C175.403 112.437 175.402 112.437 175.402 112.438L175.045 112.047C175.042 112.05 175.039 112.053 175.036 112.055L175.034 112.058C168.502 118.239 159.829 122.805 150.869 124.717C150.823 124.727 150.778 124.736 150.733 124.746L150.725 124.712L150.61 124.19L150.733 124.112L150.721 124.054C150.773 124.043 150.826 124.032 150.879 124.02L151.082 123.891C151.098 123.916 151.112 123.941 151.127 123.966C159.816 122.029 168.289 117.609 174.621 111.611L174.26 111.224C174.26 111.224 174.261 111.224 174.261 111.223M176.267 109.367L176.071 110.194C176.091 110.222 176.114 110.257 176.137 110.294C175.988 110.446 175.8 110.613 175.588 110.793C175.488 110.877 175.381 110.965 175.273 111.053C175.042 111.243 174.807 111.436 174.634 111.599L174.632 111.601C174.628 111.604 174.625 111.607 174.621 111.611L174.262 111.222C174.262 111.222 174.261 111.223 174.261 111.223M176.267 109.367C176.163 109.421 176.083 109.504 176.032 109.602M176.267 109.367L176.032 109.602M174.261 111.223C174.444 111.048 174.692 110.842 174.936 110.64C175.051 110.545 175.165 110.45 175.27 110.36C175.609 110.072 175.88 109.815 176.032 109.602M174.261 111.223L176.032 109.602" fill="#4C4C4C" stroke="#4C4C4C" stroke-width="1.12788" stroke-linejoin="round"/>
    </g>
    <defs>
        <filter id="filter0_dddddd_240_15274" x="-143.688" y="-38.813" width="376.681" height="393.235" filterUnits="userSpaceOnUse" color-interpolation-filters="sRGB">
            <feFlood flood-opacity="0" result="BackgroundImageFix"/>
            <feColorMatrix in="SourceAlpha" type="matrix" values="0 0 0 0 0 0 0 0 0 0 0 0 0 0 0 0 0 0 127 0" result="hardAlpha"/>
            <feOffset/>
            <feGaussianBlur stdDeviation="2.16863"/>
            <feColorMatrix type="matrix" values="0 0 0 0 0 0 0 0 0 1 0 0 0 0 0.729412 0 0 0 1 0"/>
            <feBlend mode="normal" in2="BackgroundImageFix" result="effect1_dropShadow_240_15274"/>
            <feColorMatrix in="SourceAlpha" type="matrix" values="0 0 0 0 0 0 0 0 0 0 0 0 0 0 0 0 0 0 127 0" result="hardAlpha"/>
            <feOffset/>
            <feGaussianBlur stdDeviation="4.33725"/>
            <feColorMatrix type="matrix" values="0 0 0 0 0 0 0 0 0 1 0 0 0 0 0.729412 0 0 0 1 0"/>
            <feBlend mode="normal" in2="effect1_dropShadow_240_15274" result="effect2_dropShadow_240_15274"/>
            <feColorMatrix in="SourceAlpha" type="matrix" values="0 0 0 0 0 0 0 0 0 0 0 0 0 0 0 0 0 0 127 0" result="hardAlpha"/>
            <feOffset/>
            <feGaussianBlur stdDeviation="15.1804"/>
            <feColorMatrix type="matrix" values="0 0 0 0 0 0 0 0 0 1 0 0 0 0 0.729412 0 0 0 1 0"/>
            <feBlend mode="normal" in2="effect2_dropShadow_240_15274" result="effect3_dropShadow_240_15274"/>
            <feColorMatrix in="SourceAlpha" type="matrix" values="0 0 0 0 0 0 0 0 0 0 0 0 0 0 0 0 0 0 127 0" result="hardAlpha"/>
            <feOffset/>
            <feGaussianBlur stdDeviation="30.3608"/>
            <feColorMatrix type="matrix" values="0 0 0 0 0 0 0 0 0 1 0 0 0 0 0.729412 0 0 0 1 0"/>
            <feBlend mode="normal" in2="effect3_dropShadow_240_15274" result="effect4_dropShadow_240_15274"/>
            <feColorMatrix in="SourceAlpha" type="matrix" values="0 0 0 0 0 0 0 0 0 0 0 0 0 0 0 0 0 0 127 0" result="hardAlpha"/>
            <feOffset/>
            <feGaussianBlur stdDeviation="52.047"/>
            <feColorMatrix type="matrix" values="0 0 0 0 0 0 0 0 0 1 0 0 0 0 0.729412 0 0 0 1 0"/>
            <feBlend mode="normal" in2="effect4_dropShadow_240_15274" result="effect5_dropShadow_240_15274"/>
            <feColorMatrix in="SourceAlpha" type="matrix" values="0 0 0 0 0 0 0 0 0 0 0 0 0 0 0 0 0 0 127 0" result="hardAlpha"/>
            <feOffset/>
            <feGaussianBlur stdDeviation="91.0823"/>
            <feColorMatrix type="matrix" values="0 0 0 0 0 0 0 0 0 1 0 0 0 0 0.729412 0 0 0 1 0"/>
            <feBlend mode="normal" in2="effect5_dropShadow_240_15274" result="effect6_dropShadow_240_15274"/>
            <feBlend mode="normal" in="SourceGraphic" in2="effect6_dropShadow_240_15274" result="shape"/>
        </filter>
        <filter id="filter1_dddddd_240_15274" x="75.1579" y="-97.6078" width="248.044" height="250.536" filterUnits="userSpaceOnUse" color-interpolation-filters="sRGB">
            <feFlood flood-opacity="0" result="BackgroundImageFix"/>
            <feColorMatrix in="SourceAlpha" type="matrix" values="0 0 0 0 0 0 0 0 0 0 0 0 0 0 0 0 0 0 127 0" result="hardAlpha"/>
            <feOffset/>
            <feGaussianBlur stdDeviation="1.2963"/>
            <feColorMatrix type="matrix" values="0 0 0 0 0 0 0 0 0 1 0 0 0 0 0.729412 0 0 0 1 0"/>
            <feBlend mode="normal" in2="BackgroundImageFix" result="effect1_dropShadow_240_15274"/>
            <feColorMatrix in="SourceAlpha" type="matrix" values="0 0 0 0 0 0 0 0 0 0 0 0 0 0 0 0 0 0 127 0" result="hardAlpha"/>
            <feOffset/>
            <feGaussianBlur stdDeviation="2.5926"/>
            <feColorMatrix type="matrix" values="0 0 0 0 0 0 0 0 0 1 0 0 0 0 0.729412 0 0 0 1 0"/>
            <feBlend mode="normal" in2="effect1_dropShadow_240_15274" result="effect2_dropShadow_240_15274"/>
            <feColorMatrix in="SourceAlpha" type="matrix" values="0 0 0 0 0 0 0 0 0 0 0 0 0 0 0 0 0 0 127 0" result="hardAlpha"/>
            <feOffset/>
            <feGaussianBlur stdDeviation="9.07409"/>
            <feColorMatrix type="matrix" values="0 0 0 0 0 0 0 0 0 1 0 0 0 0 0.729412 0 0 0 1 0"/>
            <feBlend mode="normal" in2="effect2_dropShadow_240_15274" result="effect3_dropShadow_240_15274"/>
            <feColorMatrix in="SourceAlpha" type="matrix" values="0 0 0 0 0 0 0 0 0 0 0 0 0 0 0 0 0 0 127 0" result="hardAlpha"/>
            <feOffset/>
            <feGaussianBlur stdDeviation="18.1482"/>
            <feColorMatrix type="matrix" values="0 0 0 0 0 0 0 0 0 1 0 0 0 0 0.729412 0 0 0 1 0"/>
            <feBlend mode="normal" in2="effect3_dropShadow_240_15274" result="effect4_dropShadow_240_15274"/>
            <feColorMatrix in="SourceAlpha" type="matrix" values="0 0 0 0 0 0 0 0 0 0 0 0 0 0 0 0 0 0 127 0" result="hardAlpha"/>
            <feOffset/>
            <feGaussianBlur stdDeviation="31.1111"/>
            <feColorMatrix type="matrix" values="0 0 0 0 0 0 0 0 0 1 0 0 0 0 0.729412 0 0 0 1 0"/>
            <feBlend mode="normal" in2="effect4_dropShadow_240_15274" result="effect5_dropShadow_240_15274"/>
            <feColorMatrix in="SourceAlpha" type="matrix" values="0 0 0 0 0 0 0 0 0 0 0 0 0 0 0 0 0 0 127 0" result="hardAlpha"/>
            <feOffset/>
            <feGaussianBlur stdDeviation="54.4445"/>
            <feColorMatrix type="matrix" values="0 0 0 0 0 0 0 0 0 1 0 0 0 0 0.729412 0 0 0 1 0"/>
            <feBlend mode="normal" in2="effect5_dropShadow_240_15274" result="effect6_dropShadow_240_15274"/>
            <feBlend mode="normal" in="SourceGraphic" in2="effect6_dropShadow_240_15274" result="shape"/>
        </filter>
        <radialGradient id="paint0_radial_240_15274" cx="0" cy="0" r="1" gradientUnits="userSpaceOnUse" gradientTransform="translate(160.797 44.717) rotate(134.583) scale(152.157 212.677)">
            <stop stop-color="#FF00D6"/>
            <stop offset="0.562168" stop-color="#FF004D"/>
            <stop offset="1" stop-color="#FF6291"/>
        </radialGradient>
        <clipPath id="clip0_240_15274">
            <rect width="292" height="199" fill="white"/>
        </clipPath>
    </defs>
</svg>
