<svg width="421" height="346" viewBox="0 0 421 346" fill="none" xmlns="http://www.w3.org/2000/svg">
<g clip-path="url(#clip0_133_5097)">
<path d="M191.502 260.322L36.5647 105.674L70.0834 81.2843L220.04 231.816L191.502 260.322Z" fill="url(#paint0_linear_133_5097)"/>
<path d="M49.5582 66.2031L44.6434 81.3294H28.7387L41.6059 90.678L36.6911 105.804L49.5582 96.4557L62.4254 105.804L57.5106 90.678L70.3778 81.3294H54.4731L49.5582 66.2031Z" fill="url(#paint1_radial_133_5097)"/>
<path d="M219.36 201.552L346.719 70.3812L318.984 49.5057L195.722 177.188L219.36 201.552Z" fill="url(#paint2_linear_133_5097)"/>
<path d="M335.962 37.0156L340.012 49.7609H353.119L342.515 57.638L346.565 70.3833L335.962 62.5062L325.358 70.3833L329.408 57.638L318.805 49.7609H331.911L335.962 37.0156Z" fill="url(#paint3_radial_133_5097)"/>
<path d="M83.42 195.408L159.179 271.87L210.717 323.534L262.255 271.87L338.014 195.408C368.423 164.924 368.423 116.362 338.014 85.8784C308.123 55.3947 259.162 55.3947 228.753 85.8784L210.717 103.959L192.68 85.8784C162.271 55.3947 113.31 55.3947 83.42 85.8784C53.0111 116.362 53.0111 164.924 83.42 195.408Z" fill="url(#paint4_radial_133_5097)"/>
<path d="M83.42 195.408L159.179 271.87L210.717 323.534L262.255 271.87L338.014 195.408C368.423 164.924 368.423 116.362 338.014 85.8784C308.123 55.3947 259.162 55.3947 228.753 85.8784L210.717 103.959L192.68 85.8784C162.271 55.3947 113.31 55.3947 83.42 85.8784C53.0111 116.362 53.0111 164.924 83.42 195.408Z" fill="url(#paint5_radial_133_5097)"/>
<path d="M140.304 95.5171L182.209 137.812L210.717 166.39L239.225 137.812L281.131 95.5171C297.951 78.6551 297.951 51.7935 281.131 34.9316C264.597 18.0697 237.515 18.0697 220.694 34.9316L210.717 44.933L200.74 34.9316C183.92 18.0697 156.837 18.0697 140.304 34.9316C123.483 51.7935 123.483 78.6551 140.304 95.5171Z" fill="url(#paint6_radial_133_5097)"/>
<path d="M242.793 83.256V67.3711H250.447C251.931 67.3711 253.211 67.6131 254.286 68.0973C255.376 68.5814 256.217 69.2773 256.807 70.185C257.398 71.0776 257.693 72.1366 257.693 73.362C257.693 74.5874 257.398 75.6464 256.807 76.539C256.217 77.4315 255.376 78.1275 254.286 78.6267C253.211 79.1108 251.931 79.3529 250.447 79.3529H245.768L248.153 77.0609V83.256H242.793ZM248.153 77.6509L245.768 75.2228H250.107C250.849 75.2228 251.394 75.0564 251.742 74.7235C252.106 74.3907 252.287 73.9369 252.287 73.362C252.287 72.7871 252.106 72.3332 251.742 72.0004C251.394 71.6676 250.849 71.5012 250.107 71.5012H245.768L248.153 69.0731V77.6509Z" fill="white"/>
<path d="M233.264 73.2712H240.354V77.129H233.264V73.2712ZM233.627 79.2167H241.581V83.256H228.355V67.3711H241.285V71.4104H233.627V79.2167Z" fill="white"/>
<path d="M211.371 83.256V67.3711H226.791V83.256H221.507V70.3892L222.668 71.5239H215.494L216.655 70.3892V83.256H211.371Z" fill="white"/>
<path d="M189.55 83.6605C188.277 83.6605 187.096 83.4635 186.005 83.0697C184.929 82.6607 183.99 82.085 183.187 81.3427C182.399 80.6005 181.786 79.7218 181.346 78.7069C180.907 77.6919 180.688 76.5709 180.688 75.3439C180.688 74.1169 180.907 72.9959 181.346 71.9809C181.786 70.966 182.399 70.0874 183.187 69.3451C183.99 68.6028 184.929 68.0347 186.005 67.6409C187.096 67.2318 188.277 67.0273 189.55 67.0273C191.11 67.0273 192.489 67.3 193.685 67.8454C194.897 68.3907 195.897 69.1784 196.685 70.2085L193.299 73.2307C192.83 72.6399 192.307 72.1854 191.731 71.8673C191.171 71.534 190.534 71.3674 189.822 71.3674C189.262 71.3674 188.754 71.4583 188.3 71.6401C187.845 71.8219 187.452 72.087 187.118 72.4354C186.8 72.7838 186.55 73.208 186.368 73.7079C186.187 74.1926 186.096 74.738 186.096 75.3439C186.096 75.9498 186.187 76.5028 186.368 77.0027C186.55 77.4874 186.8 77.904 187.118 78.2524C187.452 78.6008 187.845 78.8659 188.3 79.0477C188.754 79.2295 189.262 79.3204 189.822 79.3204C190.534 79.3204 191.171 79.1613 191.731 78.8432C192.307 78.51 192.83 78.0479 193.299 77.4571L196.685 80.4793C195.897 81.4942 194.897 82.2819 193.685 82.8424C192.489 83.3878 191.11 83.6605 189.55 83.6605Z" fill="white"/>
<path d="M198.88 72.4709C199.703 72.6817 200.346 72.7542 200.811 72.6883C201.276 72.6092 201.687 72.3259 202.045 71.8382L202.722 70.8893L203.121 70.4544L207.162 62.25H211.701L206.107 72.6686C205.496 73.802 204.76 74.6851 203.897 75.3177C203.048 75.9371 202.105 76.293 201.07 76.3852C200.035 76.4775 198.94 76.293 197.785 75.8317L198.88 72.4709ZM203.061 74.1117L196.57 62.25H201.528L205.609 70.8893L203.061 74.1117Z" fill="white"/>
<path d="M228.979 116.709C228.306 116.709 227.618 116.605 226.915 116.397C226.227 116.203 225.673 115.942 225.254 115.615L226.937 112.153C227.192 112.347 227.476 112.503 227.79 112.622C228.119 112.741 228.433 112.801 228.733 112.801C229.181 112.801 229.525 112.704 229.765 112.511C230.004 112.332 230.199 112.057 230.348 111.684L230.864 110.389L231.223 109.898L235.15 99.9375H239.952L234.903 112.399C234.454 113.516 233.931 114.387 233.333 115.012C232.749 115.637 232.091 116.076 231.358 116.33C230.64 116.583 229.847 116.709 228.979 116.709ZM230.169 112.712L224.828 99.9375H230.034L233.714 109.451L230.169 112.712Z" fill="white"/>
<path d="M218.345 112.403C216.96 112.403 215.731 112.134 214.658 111.597C213.6 111.045 212.765 110.291 212.155 109.336C211.544 108.381 211.238 107.284 211.238 106.046C211.238 104.807 211.544 103.71 212.155 102.755C212.765 101.8 213.6 101.054 214.658 100.517C215.731 99.9796 216.96 99.7109 218.345 99.7109C219.731 99.7109 220.96 99.9796 222.033 100.517C223.106 101.054 223.94 101.8 224.536 102.755C225.147 103.71 225.452 104.807 225.452 106.046C225.452 107.284 225.147 108.381 224.536 109.336C223.94 110.291 223.106 111.045 222.033 111.597C220.96 112.134 219.731 112.403 218.345 112.403ZM218.345 108.463C218.718 108.463 219.053 108.374 219.351 108.195C219.649 108.016 219.887 107.747 220.066 107.389C220.245 107.016 220.334 106.568 220.334 106.046C220.334 105.509 220.245 105.068 220.066 104.725C219.887 104.367 219.649 104.098 219.351 103.919C219.053 103.74 218.718 103.651 218.345 103.651C217.973 103.651 217.638 103.74 217.34 103.919C217.042 104.098 216.803 104.367 216.624 104.725C216.446 105.068 216.356 105.509 216.356 106.046C216.356 106.568 216.446 107.016 216.624 107.389C216.803 107.747 217.042 108.016 217.34 108.195C217.638 108.374 217.973 108.463 218.345 108.463Z" fill="white"/>
<path d="M198.494 108.216L197.393 109.312V99.9375H202.445V109.312L201.322 108.216H206.06L204.96 109.312V99.9375H209.989V112.176H189.805V99.9375H194.856V109.312L193.756 108.216H198.494Z" fill="white"/>
<path d="M219.826 97.7837L216.476 92.1938L220.541 89.833L225.768 97.7837H219.826ZM211.383 97.7837V85.6016H216.431V97.7837H211.383ZM214.957 93.7304V89.8776H219.513V93.7304H214.957ZM221.055 92.2383L216.319 91.7929L220.206 85.6016H225.522L221.055 92.2383Z" fill="white"/>
<path d="M196.035 97.8404V85.6016H201.074V91.1474L205.307 85.6016H209.965V97.8404H204.926V92.3075L200.716 97.8404H196.035Z" fill="white"/>
<path d="M189.965 97.6714V95.5001L189.606 94.9181V90.7993C189.606 90.2024 189.419 89.7472 189.045 89.4338C188.687 89.1205 188.096 88.9638 187.274 88.9638C186.721 88.9638 186.16 89.0533 185.592 89.2324C185.024 89.3965 184.538 89.6278 184.135 89.9263L182.52 86.591C183.238 86.1433 184.098 85.8001 185.099 85.5613C186.101 85.3225 187.08 85.2031 188.036 85.2031C190.144 85.2031 191.773 85.6732 192.924 86.6134C194.09 87.5535 194.673 89.0458 194.673 91.0903V97.6714H189.965ZM186.489 97.8953C185.488 97.8953 184.651 97.7236 183.978 97.3804C183.305 97.0372 182.797 96.582 182.453 96.0149C182.109 95.4329 181.938 94.7912 181.938 94.0899C181.938 93.2989 182.139 92.6274 182.543 92.0752C182.947 91.5231 183.559 91.1052 184.382 90.8217C185.219 90.5382 186.272 90.3964 187.543 90.3964H190.099V92.8363H188.35C187.812 92.8363 187.416 92.9259 187.162 93.1049C186.923 93.2691 186.803 93.5228 186.803 93.866C186.803 94.1496 186.908 94.3883 187.117 94.5823C187.341 94.7614 187.64 94.8509 188.014 94.8509C188.358 94.8509 188.672 94.7614 188.956 94.5823C189.255 94.3883 189.471 94.0899 189.606 93.6869L190.256 95.1867C190.062 96.097 189.651 96.776 189.023 97.2237C188.395 97.6714 187.551 97.8953 186.489 97.8953Z" fill="white"/>
<path d="M166.527 97.6728L166.729 93.5768C166.819 93.5917 166.908 93.6067 166.998 93.6216C167.087 93.6216 167.17 93.6216 167.244 93.6216C167.573 93.6216 167.834 93.5619 168.028 93.4425C168.222 93.3082 168.372 93.1217 168.476 92.883C168.596 92.6293 168.678 92.3309 168.723 91.9877C168.767 91.6296 168.797 91.2192 168.812 90.7567L168.991 85.4297H180.685V97.6728H175.622V88.317L176.72 89.369H172.329L173.36 88.2498L173.248 90.9581C173.203 92.0623 173.106 93.0546 172.956 93.9349C172.807 94.8004 172.568 95.539 172.24 96.1508C171.926 96.7476 171.493 97.2102 170.94 97.5385C170.403 97.8518 169.716 98.0085 168.879 98.0085C168.551 98.0085 168.185 97.9787 167.782 97.919C167.394 97.8593 166.975 97.7772 166.527 97.6728Z" fill="white"/>
<path d="M206.977 80.9301L205.016 82.8841L203.682 84.2044L202.348 82.8841L200.387 80.9301C199.6 80.1511 199.6 78.9101 200.387 78.1311C201.161 77.3521 202.428 77.3521 203.215 78.1311L203.682 78.5932L204.149 78.1311C204.936 77.3521 206.203 77.3521 206.977 78.1311C207.764 78.9101 207.764 80.1511 206.977 80.9301Z" fill="#52FF00"/>
<path d="M130.268 347.504L33.2173 247.364L54.117 231.67L148.049 329.143L130.268 347.504Z" fill="url(#paint7_linear_133_5097)"/>
<path d="M41.4473 221.873L38.3527 231.677L28.3387 231.677L36.4402 237.736L33.3457 247.54L41.4473 241.481L49.5488 247.54L46.4543 237.736L54.5559 231.677L44.5418 231.677L41.4473 221.873Z" fill="url(#paint8_radial_133_5097)"/>
<path d="M109.554 67.8242L109.841 71.5914L113.608 71.8781L109.841 72.1648L109.554 75.932L109.267 72.1648L105.5 71.8781L109.267 71.5914L109.554 67.8242Z" fill="white"/>
<path fill-rule="evenodd" clip-rule="evenodd" d="M359.493 220.697L365.237 214.914C367.989 212.162 367.989 207.78 365.237 205.028C362.533 202.277 358.103 202.277 355.352 205.028L353.72 206.66L352.088 205.028C349.337 202.277 344.907 202.277 342.203 205.028C341.658 205.573 341.221 206.182 340.892 206.83L190.765 356.966L207.103 373.305L359.599 220.802L359.493 220.697Z" fill="url(#paint9_radial_133_5097)"/>
<path d="M342.203 214.914L349.057 221.814L353.72 226.477L358.383 221.814L365.237 214.914C367.989 212.162 367.989 207.78 365.237 205.028C362.533 202.277 358.103 202.277 355.352 205.028L353.72 206.66L352.088 205.028C349.337 202.277 344.907 202.277 342.203 205.028C339.452 207.78 339.452 212.162 342.203 214.914Z" fill="url(#paint10_radial_133_5097)"/>
<path fill-rule="evenodd" clip-rule="evenodd" d="M366.681 273.849L366.879 274.049L371.889 268.984L379.255 261.489C382.212 258.5 382.212 253.74 379.255 250.751C376.349 247.763 371.589 247.763 368.632 250.751L366.879 252.524L365.125 250.751C362.453 248.05 358.308 247.79 355.389 249.971L355.198 249.78L290.453 314.602L308.215 332.386L366.681 273.849Z" fill="url(#paint11_radial_133_5097)"/>
<path d="M354.502 261.489L361.868 268.984L366.879 274.049L371.889 268.984L379.255 261.489C382.212 258.5 382.212 253.74 379.255 250.751C376.349 247.763 371.589 247.763 368.632 250.751L366.879 252.524L365.125 250.751C362.169 247.763 357.408 247.763 354.502 250.751C351.546 253.74 351.546 258.5 354.502 261.489Z" fill="url(#paint12_radial_133_5097)"/>
<path fill-rule="evenodd" clip-rule="evenodd" d="M376.741 297.276V327.843H376.741C376.741 327.856 376.741 327.868 376.741 327.88C376.741 336.388 302.409 343.285 210.716 343.285C119.023 343.285 44.6914 336.388 44.6914 327.88C44.6914 327.868 44.6916 327.856 44.6919 327.843H44.6914V297.276V296.87H44.7478C47.0657 288.55 120.485 281.871 210.716 281.871C300.948 281.871 374.367 288.55 376.685 296.87H376.741V297.276Z" fill="#FF0199"/>
<path fill-rule="evenodd" clip-rule="evenodd" d="M376.741 297.276V327.843H376.741C376.741 327.856 376.741 327.868 376.741 327.88C376.741 336.388 302.409 343.285 210.716 343.285C119.023 343.285 44.6914 336.388 44.6914 327.88C44.6914 327.868 44.6916 327.856 44.6919 327.843H44.6914V297.276V296.87H44.7478C47.0657 288.55 120.485 281.871 210.716 281.871C300.948 281.871 374.367 288.55 376.685 296.87H376.741V297.276Z" fill="url(#paint13_linear_133_5097)" fill-opacity="0.5"/>
<ellipse cx="210.716" cy="297.68" rx="166.025" ry="15.4048" fill="#FF0199"/>
<ellipse cx="210.716" cy="297.68" rx="166.025" ry="15.4048" fill="url(#paint14_radial_133_5097)"/>
<ellipse cx="210.716" cy="297.68" rx="166.025" ry="15.4048" fill="white" fill-opacity="0.2"/>
<path d="M37.7979 137.957L38.2852 144.361L44.6895 144.849L38.2852 145.336L37.7979 151.74L37.3105 145.336L30.9062 144.849L37.3105 144.361L37.7979 137.957Z" fill="url(#paint15_radial_133_5097)"/>
<path d="M37.7979 137.957L38.2852 144.361L44.6895 144.849L38.2852 145.336L37.7979 151.74L37.3105 145.336L30.9062 144.849L37.3105 144.361L37.7979 137.957Z" fill="url(#paint16_radial_133_5097)"/>
<g filter="url(#filter0_dddddd_133_5097)">
<path d="M303.469 164.691C303.16 164.553 302.918 164.356 302.74 164.105C301.922 162.957 302.792 160.986 304.684 159.71C305.937 158.865 307.324 158.508 308.411 158.754L309.063 158.901L306.174 147.693C306.151 147.593 306.19 147.494 306.275 147.443C306.455 147.335 310.724 144.845 314.372 146.473C314.766 146.649 315.144 146.874 315.496 147.131C315.547 147.17 315.58 147.223 315.588 147.282C315.595 147.341 315.58 147.401 315.546 147.452C315.48 147.534 315.363 147.565 315.264 147.521C314.907 147.262 314.563 147.063 314.206 146.904C311.442 145.67 308.216 146.983 306.956 147.603L306.664 147.745L309.779 159.859C310.206 161.077 309.302 162.755 307.639 163.877C306.189 164.856 304.551 165.174 303.469 164.691ZM308.655 159.313C307.734 158.902 306.247 159.215 304.945 160.093C304.151 160.627 303.521 161.306 303.174 162C302.814 162.723 302.791 163.395 303.112 163.849C303.242 164.029 303.426 164.178 303.658 164.282C304.575 164.691 306.067 164.38 307.369 163.502C309.048 162.369 309.87 160.683 309.197 159.744C309.067 159.564 308.883 159.415 308.651 159.311L308.655 159.313Z" fill="#00FFBA"/>
</g>
<g filter="url(#filter1_dddddd_133_5097)">
<path d="M281.925 205.632C282.154 205.613 282.354 205.539 282.524 205.415C283.304 204.851 283.175 203.365 282.234 202.101C281.61 201.264 280.793 200.715 280.037 200.629L279.583 200.577L283.911 193.908C283.948 193.848 283.945 193.775 283.9 193.722C283.808 193.61 281.598 191.012 278.884 191.248C278.591 191.273 278.298 191.334 278.014 191.422C277.972 191.436 277.939 191.463 277.921 191.5C277.903 191.537 277.9 191.58 277.911 191.621C277.936 191.689 278.004 191.736 278.078 191.73C278.366 191.641 278.631 191.59 278.896 191.567C280.953 191.389 282.748 192.98 283.426 193.672L283.583 193.831L278.911 201.04C278.367 201.739 278.582 203.041 279.41 204.153C280.131 205.122 281.119 205.702 281.925 205.632ZM279.756 200.939C280.441 200.879 281.333 201.422 281.981 202.292C282.376 202.821 282.635 203.408 282.706 203.941C282.779 204.495 282.647 204.939 282.34 205.163C282.217 205.251 282.065 205.307 281.892 205.322C281.21 205.381 280.315 204.839 279.667 203.969C278.831 202.847 278.671 201.558 279.311 201.097C279.435 201.009 279.586 200.954 279.76 200.939L279.756 200.939Z" fill="#00FFBA"/>
</g>
<path fill-rule="evenodd" clip-rule="evenodd" d="M106.352 256.568L106.158 256.375L98.4856 248.641C95.4058 245.558 95.4058 240.646 98.4856 237.562C101.513 234.479 106.471 234.479 109.551 237.562L111.378 239.391L113.205 237.562C116.284 234.479 121.243 234.479 124.27 237.562C124.466 237.758 124.649 237.962 124.82 238.172C125.09 238.315 125.343 238.5 125.57 238.727L153.529 266.633C154.762 267.863 154.762 269.858 153.529 271.088L139.343 285.248C138.11 286.478 136.112 286.478 134.879 285.248L106.921 257.342C106.686 257.108 106.497 256.847 106.352 256.568Z" fill="url(#paint17_linear_133_5097)" fill-opacity="0.25"/>
<g filter="url(#filter2_f_133_5097)">
<path d="M123.91 248.281L123.909 248.282L116.237 256.015L116.236 256.016L111.378 260.88L106.52 256.016L106.518 256.015L98.847 248.282L98.8458 248.281C95.9646 245.397 95.9646 240.807 98.8458 237.922L98.8458 237.922L98.8488 237.919C101.675 235.041 106.308 235.036 109.191 237.922L111.018 239.751L111.378 240.112L111.738 239.751L113.565 237.922C116.447 235.036 121.081 235.041 123.907 237.919L123.907 237.919L123.91 237.922C126.791 240.807 126.791 245.397 123.91 248.281Z" stroke="#00FFE1" stroke-width="1.01816"/>
</g>
<path d="M123.91 248.281L123.909 248.282L116.237 256.015L116.236 256.016L111.378 260.88L106.52 256.016L106.518 256.015L98.847 248.282L98.8458 248.281C95.9646 245.397 95.9646 240.807 98.8458 237.922L98.8458 237.922L98.8488 237.919C101.675 235.041 106.308 235.036 109.191 237.922L111.018 239.751L111.378 240.112L111.738 239.751L113.565 237.922C116.447 235.036 121.081 235.041 123.907 237.919L123.907 237.919L123.91 237.922C126.791 240.807 126.791 245.397 123.91 248.281Z" stroke="#00FFE1" stroke-width="1.01816"/>
<g filter="url(#filter3_f_133_5097)">
<path d="M124.073 248.444L124.072 248.444L116.4 256.177L116.399 256.178L111.378 261.205L106.356 256.178L106.356 256.177L98.6838 248.444L98.6831 248.444C95.7122 245.469 95.7122 240.734 98.6831 237.76L98.6831 237.76L98.6848 237.758C101.602 234.787 106.382 234.785 109.354 237.76L111.18 239.589L111.378 239.786L111.575 239.589L113.402 237.76C116.374 234.785 121.154 234.787 124.071 237.758L124.073 237.76C127.043 240.734 127.043 245.469 124.073 248.444Z" stroke="#96FFC0" stroke-width="0.558348"/>
</g>
<g clip-path="url(#clip1_133_5097)" filter="url(#filter4_dddddd_133_5097)">
<path d="M275.115 118.795C274.608 118.402 274.328 117.913 274.301 117.389C274.276 116.76 274.632 116.156 275.306 115.673C276.04 115.156 277.052 114.848 278.158 114.806C279.439 114.76 280.617 115.079 281.399 115.685C281.474 115.744 281.549 115.802 281.61 115.869L282.084 116.323L285.602 105.889C285.638 105.791 285.727 105.728 285.832 105.73L296.375 106.104C296.428 106.105 296.475 106.121 296.512 106.15C296.533 106.166 296.55 106.179 296.56 106.201C296.605 106.262 296.616 106.343 296.591 106.41L292.734 117.872C292.436 119.071 290.831 119.972 288.91 120.043C287.875 120.081 286.887 119.877 286.124 119.471C285.955 119.379 285.795 119.275 285.654 119.166C285.147 118.772 284.866 118.283 284.84 117.759C284.809 117.086 285.213 116.446 285.972 115.956C286.691 115.494 287.661 115.214 288.7 115.179C289.981 115.134 291.163 115.448 291.945 116.055C292.02 116.113 292.095 116.171 292.156 116.238L292.63 116.692L296.046 106.563L285.991 106.204L282.191 117.498C281.893 118.698 280.289 119.598 278.367 119.67C277.332 119.708 276.344 119.504 275.581 119.097C275.412 119.006 275.253 118.902 275.111 118.792L275.115 118.795ZM281.12 116.045C280.446 115.522 279.346 115.232 278.185 115.277C276.259 115.346 274.731 116.286 274.777 117.368C274.793 117.751 275.016 118.116 275.415 118.426C275.532 118.516 275.666 118.6 275.811 118.68C276.487 119.045 277.413 119.234 278.355 119.197C280.28 119.128 281.809 118.188 281.762 117.106C281.742 116.72 281.522 116.351 281.123 116.041L281.12 116.045ZM291.666 116.414C290.992 115.892 289.892 115.601 288.731 115.647C287.792 115.68 286.887 115.937 286.24 116.349C285.629 116.743 285.3 117.235 285.323 117.737C285.339 118.12 285.562 118.485 285.961 118.795C286.078 118.885 286.212 118.97 286.357 119.049C287.033 119.415 287.959 119.603 288.901 119.566C290.826 119.497 292.355 118.558 292.308 117.476C292.288 117.089 292.068 116.72 291.669 116.41L291.666 116.414Z" fill="#00FFBA"/>
</g>
<path d="M291.254 153.425C290.418 146.059 285.579 139.858 278.781 137.619C277.099 137.062 273.942 137.279 272.27 138.538C272.105 138.672 271.827 138.899 271.682 139.105C271.476 139.394 271.156 139.941 271.115 140.446C271.342 140.25 271.734 140.436 271.734 140.694C271.672 142.737 273.261 145.048 275.427 145.223C276.397 145.099 277.388 145.13 278.337 145.213C279.657 145.326 280.978 145.564 282.268 145.883C282.464 145.935 282.546 146.09 282.546 146.244C282.546 146.461 282.371 146.678 282.103 146.616C280.761 146.286 279.369 146.028 277.986 145.935C277.212 145.883 276.418 145.863 275.634 145.935C275.593 145.945 275.541 145.956 275.5 145.956H275.479C274.819 146.038 274.158 146.193 273.55 146.461C272.941 146.729 272.394 147.142 272.012 147.679C271.62 148.256 271.455 148.927 271.362 149.608C271.321 149.928 271.311 150.237 271.332 150.547C271.342 150.557 271.342 150.578 271.342 150.588C271.352 150.712 271.362 150.825 271.383 150.949C271.383 150.949 271.383 150.949 271.393 150.97C271.507 151.671 271.806 152.342 272.322 152.889C273.209 153.858 274.427 154.447 275.685 154.88C275.954 154.952 276.191 155.045 276.469 155.127C276.769 155.21 277.078 155.293 277.377 155.365L277.408 155.385C277.481 155.396 277.532 155.416 277.573 155.468C277.584 155.489 277.604 155.499 277.615 155.509C277.646 155.54 277.656 155.581 277.666 155.623C277.677 155.664 277.687 155.695 277.687 155.736C277.687 155.777 277.677 155.829 277.666 155.87C277.646 155.922 277.625 155.963 277.594 155.994C277.584 156.015 277.563 156.025 277.542 156.046C277.491 156.077 277.419 156.108 277.336 156.108H277.305C276.439 156.149 275.541 156.376 274.767 156.778C273.663 157.366 272.972 158.367 272.982 159.646C272.982 160.358 273.158 161.173 273.447 161.844C273.55 162.071 273.777 162.463 273.983 162.7C274.282 163.051 274.654 163.371 275.046 163.618C276.408 164.454 278.058 164.753 279.637 164.877C279.874 164.877 280.008 165.104 280.008 165.29C280.008 165.403 279.967 165.496 279.895 165.558C279.843 165.599 279.771 165.63 279.668 165.62C279.616 165.61 279.554 165.61 279.503 165.61C277.677 165.455 275.768 165.084 274.272 163.98C273.529 163.433 272.962 162.7 272.642 161.834C272.301 160.915 272.136 159.842 272.301 158.883C272.58 157.17 274.024 156.097 275.613 155.633C274.004 155.107 272.415 154.323 271.414 152.951C270.599 151.826 270.444 150.433 270.692 149.102C270.836 148.318 271.105 147.586 271.62 146.977C272.105 146.379 272.776 145.966 273.478 145.687C273.622 145.625 273.766 145.574 273.911 145.533C272.147 144.676 270.929 142.675 270.981 140.725C270.981 140.622 271.022 140.539 271.084 140.477C270.547 139.745 269.732 139.229 268.546 139.136C261.345 138.558 261.035 148.132 262.902 150.485C250.388 156.118 238.244 166.538 230.156 174.4C230.146 174.421 230.125 174.431 230.104 174.441C229.815 174.72 229.537 174.988 229.269 175.256C232.178 171.594 235.799 166.456 235.645 163.866C235.49 161.473 234.613 158.512 233.602 155.788C234.778 155.509 236.821 154.374 234.757 149.917C232.88 145.863 230.754 147.689 230.259 148.205C230.197 148.071 230.156 148.009 230.156 148.009C221.933 138.063 209.965 138.424 202.65 140.219C202.434 139.528 202.042 138.599 201.433 138.465C198.73 137.867 195.862 139.466 194.593 140.446C193.602 141.21 194.025 142.974 194.345 143.923C188.609 147.421 186.803 147.906 184.647 151.104C182.377 154.457 183.326 158.254 185.256 171.315C185.256 171.315 185.07 171.573 184.75 172.068C177.549 160.998 169.666 135.226 169.666 135.226C169.666 135.226 175.867 127.839 170.822 124.248C165.777 120.648 160.061 129.242 160.061 129.242C150.539 123.949 142.471 121.184 139.933 124.723C137.683 127.87 141.129 131.078 143.636 132.688C139.117 130.428 134.846 129.159 133.33 132.688C132.205 135.298 134.609 137.65 137.384 139.322C134.485 138.414 131.555 138.372 130.936 142.087C129.863 148.607 148.186 153.549 148.186 153.549C155.625 165.641 164.219 177.33 169.801 185.223C172.689 189.298 173.474 194.467 171.895 199.182C167.221 213.203 163.858 231.474 167.149 251.51C167.149 251.51 166.406 266.934 167.902 274.755C170.533 288.445 173.432 288.518 173.432 288.518C173.205 288.538 166.478 289.199 165.519 297.628C165.447 298.329 165.684 299.041 166.179 299.557C167.283 300.744 169.966 302.559 176.135 303.013C185.142 303.674 196.976 294.409 196.976 294.409C196.976 294.409 198.049 293.645 197.966 289.322H197.977C198.09 282.689 198.854 268.513 204.569 267.863C209.119 267.337 212.689 272.733 217.858 284.298C220.654 290.53 223.512 297.143 228.392 301.29C233.519 305.654 243.568 311.473 250.336 307.666C253.658 305.789 253.039 299.371 252.389 297.958C250.212 293.253 246.787 289.333 246.787 289.333C247.324 274.641 244.992 263.282 237.625 246.919C237.625 246.919 235.624 227.43 230.218 212.491C228.123 203.205 247.293 187.389 279.668 170.995C279.668 170.995 281.195 170.376 283.238 168.942C284.837 167.828 286.745 166.218 288.499 164.031C289.83 162.349 290.645 160.554 291.058 158.677C291.202 157.996 291.295 157.294 291.347 156.593C291.357 156.407 291.367 156.231 291.367 156.056C291.378 155.716 291.378 155.385 291.367 155.045C291.347 154.498 291.306 153.962 291.254 153.415V153.425Z" fill="#53AFFA"/>
<path d="M288.5 164.042C289.831 162.36 290.646 160.565 291.059 158.688C290.667 160.596 289.852 162.422 288.5 164.125C286.746 166.322 284.837 167.89 283.238 168.953C284.837 167.839 286.746 166.229 288.5 164.042Z" fill="url(#paint18_linear_133_5097)"/>
<path d="M291.347 156.602C291.296 157.313 291.213 158.005 291.059 158.686C291.203 158.005 291.296 157.303 291.347 156.602Z" fill="url(#paint19_linear_133_5097)"/>
<path d="M291.252 153.386C290.416 146.019 285.588 139.819 278.779 137.57C277.097 137.012 273.93 137.219 272.258 138.477C272.052 138.642 271.794 138.859 271.66 139.055C271.422 139.416 271.144 139.808 271.082 140.448C271.371 140.149 271.732 140.396 271.732 140.654C271.67 142.697 273.259 145.008 275.426 145.173C276.395 145.06 277.386 145.091 278.335 145.173C279.666 145.287 280.976 145.514 282.266 145.844C282.73 145.968 282.575 146.69 282.111 146.576C280.77 146.236 279.377 145.988 277.994 145.895C277.221 145.844 276.426 145.834 275.642 145.916C275.601 145.916 275.549 145.926 275.508 145.937H275.487C274.817 146.019 274.157 146.174 273.558 146.442C272.949 146.71 272.403 147.113 272.021 147.66C271.629 148.227 271.464 148.908 271.371 149.589C271.33 149.909 271.319 150.218 271.34 150.528C271.34 150.538 271.34 150.559 271.34 150.569C271.35 150.693 271.371 150.817 271.381 150.93C271.381 150.93 271.381 150.941 271.381 150.951C271.505 151.663 271.804 152.323 272.31 152.87C273.197 153.84 274.414 154.428 275.673 154.861C275.972 154.975 276.179 155.016 276.457 155.109C276.756 155.201 277.066 155.274 277.365 155.346C277.365 155.346 277.386 155.346 277.396 155.346C277.468 155.346 277.53 155.387 277.571 155.439C277.582 155.459 277.602 155.47 277.613 155.48C277.644 155.511 277.654 155.552 277.664 155.583C277.706 155.717 277.685 155.862 277.592 155.965C277.582 155.986 277.561 155.996 277.541 156.017C277.489 156.058 277.417 156.078 277.334 156.078H277.293C276.426 156.12 275.529 156.347 274.755 156.749C273.651 157.337 272.949 158.338 272.97 159.617C272.97 160.339 273.145 161.144 273.434 161.815C273.537 162.042 273.775 162.434 273.981 162.671C274.27 163.022 274.652 163.331 275.044 163.579C276.406 164.425 278.056 164.714 279.625 164.838C280.006 164.858 280.192 165.312 279.975 165.477C279.913 165.519 279.759 165.581 279.666 165.581C279.604 165.581 279.552 165.581 279.501 165.57C277.675 165.415 275.766 165.054 274.27 163.94C273.527 163.393 272.96 162.661 272.64 161.794C272.299 160.866 272.124 159.803 272.299 158.833C272.588 157.12 274.022 156.058 275.611 155.594C274.002 155.067 272.413 154.283 271.412 152.911C270.597 151.787 270.442 150.394 270.69 149.052C270.834 148.279 271.103 147.536 271.619 146.927C272.114 146.339 272.774 145.926 273.476 145.638C273.62 145.576 273.764 145.524 273.909 145.483C272.145 144.626 270.927 142.635 270.979 140.675C270.979 140.572 271.02 140.489 271.072 140.438C270.535 139.705 269.72 139.189 268.544 139.096C261.343 138.529 261.033 148.093 262.901 150.445C250.386 156.078 238.243 166.499 230.154 174.36C230.133 174.371 230.123 174.391 230.102 174.402C224.098 180.251 220.332 184.678 220.332 184.678L221.735 194.076L230.216 212.451C228.121 203.166 247.311 187.381 279.687 170.997C279.687 170.997 281.193 170.337 283.236 168.903C284.824 167.788 286.743 166.179 288.487 163.992C290.437 161.547 291.262 158.864 291.355 156.027C291.355 155.686 291.355 155.346 291.355 155.005C291.335 154.469 291.293 153.922 291.242 153.386H291.252Z" fill="url(#paint20_linear_133_5097)"/>
<path d="M277.406 155.336C277.478 155.336 277.54 155.377 277.581 155.429C277.54 155.387 277.478 155.357 277.406 155.336Z" fill="url(#paint21_linear_133_5097)"/>
<path d="M277.666 155.582C277.707 155.716 277.687 155.861 277.594 155.964C277.676 155.861 277.707 155.716 277.666 155.582Z" fill="url(#paint22_linear_133_5097)"/>
<path d="M291.366 156.016C291.283 158.884 290.458 161.608 288.498 164.073C286.744 166.261 284.835 167.829 283.246 168.902C284.835 167.787 286.754 166.178 288.498 163.991C290.447 161.546 291.273 158.863 291.366 156.026V156.016Z" fill="url(#paint23_linear_133_5097)"/>
<path d="M277.581 155.429C277.581 155.429 277.478 155.357 277.406 155.336C277.478 155.336 277.54 155.377 277.581 155.429Z" fill="#53AFFA"/>
<path d="M277.594 155.956C277.676 155.853 277.707 155.708 277.666 155.574C277.707 155.708 277.687 155.853 277.594 155.956Z" fill="#53AFFA"/>
<path d="M282.109 146.565C280.768 146.225 279.375 145.977 277.993 145.884C277.219 145.833 276.425 145.823 275.641 145.905C275.599 145.905 275.548 145.915 275.506 145.926H275.486C274.815 146.008 274.155 146.163 273.557 146.431C272.948 146.7 272.401 147.102 272.019 147.649C271.627 148.216 271.462 148.897 271.369 149.578C271.328 149.898 271.318 150.207 271.338 150.517C271.338 150.527 271.338 150.548 271.338 150.558C271.338 150.682 271.359 150.795 271.38 150.919C271.38 150.919 271.38 150.93 271.38 150.94C271.503 151.652 271.803 152.312 272.308 152.859C273.195 153.829 274.413 154.417 275.672 154.85C275.929 154.943 276.198 155.025 276.456 155.098C276.755 155.191 277.064 155.273 277.364 155.345C277.364 155.345 277.384 155.345 277.394 155.345C277.467 155.366 277.529 155.397 277.57 155.438C277.58 155.459 277.601 155.469 277.611 155.479C277.642 155.51 277.652 155.552 277.663 155.583C277.704 155.706 277.663 155.861 277.591 155.964C277.58 155.985 277.56 155.995 277.539 156.016C277.487 156.057 277.415 156.078 277.333 156.078H277.291C276.425 156.119 275.527 156.346 274.753 156.748C273.649 157.336 272.948 158.337 272.968 159.617C272.968 160.339 273.144 161.144 273.433 161.814C273.536 162.041 273.773 162.433 273.98 162.67C274.268 163.021 274.65 163.331 275.042 163.578C276.404 164.424 278.055 164.713 279.623 164.837C280.005 164.858 280.098 165.343 279.881 165.518C279.819 165.559 279.747 165.59 279.654 165.58C279.592 165.58 279.54 165.58 279.489 165.57C277.663 165.415 275.754 165.054 274.258 163.939C273.515 163.393 272.948 162.66 272.628 161.793C272.287 160.865 272.112 159.802 272.287 158.832C272.576 157.12 274.01 156.057 275.599 155.593C273.99 155.067 272.401 154.283 271.4 152.91C270.585 151.786 270.43 150.393 270.678 149.052C270.822 148.278 271.091 147.535 271.607 146.927C272.102 146.338 272.762 145.926 273.464 145.637C273.608 145.575 273.753 145.523 273.897 145.482C272.133 144.626 270.915 142.635 270.967 140.674C270.967 140.551 271.029 140.458 271.101 140.396C271.318 140.21 271.72 140.282 271.71 140.643C271.648 142.686 273.237 144.997 275.403 145.162C276.373 145.049 277.364 145.08 278.313 145.162C279.644 145.276 280.954 145.503 282.244 145.833C282.708 145.957 282.553 146.679 282.089 146.565H282.109Z" fill="#53AFFA"/>
<path d="M277.414 155.336C277.486 155.336 277.548 155.377 277.589 155.429C277.548 155.387 277.486 155.357 277.414 155.336Z" fill="#53AFFA"/>
<path d="M277.602 155.956C277.684 155.853 277.715 155.708 277.674 155.574C277.715 155.708 277.694 155.853 277.602 155.956Z" fill="#53AFFA"/>
<path d="M217.927 205.414C209.013 196.262 199.522 204.929 198.727 205.61C197.933 204.929 185.346 191.909 177.02 202.494C168.611 213.182 172.542 253.739 197.221 259.548C202.596 260.817 208.724 257.092 211.17 254.451C224.241 240.337 226.078 213.781 217.917 205.403L217.927 205.414Z" fill="white"/>
<path d="M175.742 289.653C175.866 289.602 175.98 289.509 176.103 289.457C176.258 289.364 176.258 289.344 176.361 289.292C177.94 289.529 179.488 289.983 180.922 290.664C180.86 290.706 180.808 290.757 180.746 290.798C180.344 291.118 179.993 291.479 179.673 291.871C178.456 293.388 177.785 295.266 177.476 297.154C177.197 298.887 177.187 300.641 177.342 302.374C177.383 302.9 178.219 302.911 178.177 302.374C177.857 298.691 178.167 293.976 181.252 291.448C181.293 291.407 181.324 291.387 181.365 291.356H181.376H181.396C181.396 291.356 181.407 291.335 181.417 291.325C181.468 291.283 181.53 291.242 181.592 291.211C181.644 291.17 181.706 291.129 181.757 291.098C182.779 291.655 183.738 292.346 184.594 293.161C185.688 294.203 186.596 295.4 187.339 296.7C187.597 297.164 188.319 296.751 188.061 296.287C186.761 294.028 184.966 292.067 182.727 290.685C180.984 289.622 179.023 288.921 177.011 288.57C176.114 288.415 175.216 288.322 174.308 288.291C173.772 288.271 173.772 289.096 174.308 289.117L174.865 289.148C174.092 289.499 173.349 289.932 172.658 290.396C170.8 291.634 169.16 293.285 168.252 295.338C167.643 296.731 167.406 298.227 167.52 299.743C167.561 300.27 168.397 300.27 168.355 299.743C168.17 297.288 169.005 294.987 170.666 293.171C171.873 291.841 173.39 290.798 175.01 290.004C175.154 289.932 175.309 289.86 175.454 289.798C175.515 289.767 175.577 289.746 175.639 289.715C175.66 289.705 175.67 289.695 175.701 289.684M181.252 290.437C181.252 290.437 181.272 290.417 181.283 290.417C181.272 290.427 181.262 290.437 181.252 290.448V290.437Z" fill="#0087EA"/>
<path d="M237.977 294.854C237.977 294.854 237.904 294.833 237.883 294.822C237.914 294.822 237.956 294.843 237.977 294.854Z" fill="#0087EA"/>
<path d="M247.9 295.286C246.93 294.296 245.857 293.398 244.722 292.594C245.434 292.645 246.146 292.769 246.837 292.975C247.353 293.13 247.58 292.336 247.064 292.181C244.268 291.366 241.379 291.779 238.81 293.079C236.881 294.048 235.179 295.451 233.703 297.009C233.363 297.37 233.064 297.835 232.672 298.144C232.259 298.485 232.847 299.062 233.26 298.732C233.559 298.485 233.796 298.124 234.054 297.845C234.642 297.205 235.261 296.597 235.922 296.029C236.479 295.544 237.077 295.09 237.696 294.688C237.737 294.74 237.789 294.791 237.851 294.822H237.83C237.861 294.853 237.892 294.874 237.913 294.894C238.037 295.018 238.16 295.152 238.274 295.286C238.614 295.689 238.975 296.236 239.295 296.751C240.368 298.536 241.08 300.507 241.534 302.529C241.895 304.169 242.06 305.841 242.091 307.512C242.091 308.038 242.937 308.038 242.927 307.512C242.875 304.665 242.411 301.796 241.369 299.124C240.76 297.566 239.976 296.04 238.903 294.75C238.769 294.585 238.614 294.389 238.429 294.234C239.595 293.553 240.853 293.037 242.174 292.759C242.545 292.686 242.927 292.635 243.298 292.604C243.309 292.614 243.319 292.625 243.34 292.635C247.095 295.101 250.355 298.567 251.449 302.993C251.583 303.519 251.666 304.056 251.748 304.592C251.82 305.108 252.625 304.892 252.553 304.376C252.058 300.909 250.376 297.804 247.91 295.286H247.9ZM237.882 294.822C237.882 294.822 237.954 294.843 237.975 294.853C237.933 294.853 237.903 294.832 237.882 294.822Z" fill="#0087EA"/>
<path d="M237.798 294.812C237.798 294.801 237.798 294.791 237.777 294.791C237.777 294.791 237.788 294.801 237.798 294.812Z" fill="#0087EA"/>
<path d="M237.977 294.854C237.977 294.854 237.904 294.833 237.883 294.822C237.914 294.822 237.956 294.843 237.977 294.854Z" fill="#0087EA"/>
<path d="M230.113 174.453C229.824 174.732 229.546 175 229.277 175.268C229.566 174.979 229.834 174.711 230.113 174.453Z" fill="#53AFFA"/>
<path d="M175.783 195.034C176.464 193.095 160.73 173.905 148.216 153.59C148.216 153.59 129.779 148.556 130.862 142.025C132.152 134.854 142.056 141.509 141.964 141.478C141.964 141.478 131.089 137.63 133.246 132.636C135.072 128.406 139.395 130.191 145.048 133.431C145.048 133.431 136.31 129.634 139.849 124.671C142.387 121.122 150.547 123.99 160.08 129.283C160.08 129.283 165.786 120.689 170.841 124.29C175.886 127.88 169.686 135.267 169.686 135.267C169.686 135.267 178.29 163.392 185.729 173.502L175.773 195.034H175.783Z" fill="url(#paint24_linear_133_5097)"/>
<path d="M147.368 137.538C147.368 137.538 143.344 139.416 143.117 142.036C143.148 147.618 150.37 150.434 155.446 142.542C157.231 139.766 159.986 135.155 156.777 131.75C154.353 129.377 150.453 129.748 147.378 137.538H147.368Z" fill="#53AFFA"/>
<path d="M223.592 158.254C223.613 156.449 217.495 152.569 210.768 150.774C204.567 149.113 197.768 149.402 196.644 150.258C194.828 151.651 192.569 155.334 192.775 158.182C193.002 161.329 199.687 169.252 204.268 170.552C208.663 171.852 219.734 167.911 221.642 165.373C223.376 163.083 223.572 160.514 223.592 158.244V158.254Z" fill="white"/>
<path d="M198.366 153.871C198.366 153.871 204.835 161.114 218.587 158.235C218.587 158.235 216.328 160.247 215.595 162.372C214.605 165.22 209.477 166.51 206.155 166.076C201.626 165.468 199.253 163.332 199.47 158.431C199.552 156.533 198.355 153.881 198.355 153.881L198.366 153.871Z" fill="#003461"/>
<path d="M200.245 162.72C200.245 162.72 206.435 160.646 211.119 165.64C211.119 165.64 206.363 167.208 202.287 164.845C200.73 163.927 200.234 162.72 200.234 162.72H200.245Z" fill="#FF846E"/>
<path d="M222.797 151.516C222.085 149.669 220.393 147.76 218.217 147.946C217.102 148.049 216.122 148.606 215.266 149.277C214.843 149.607 215.441 150.185 215.854 149.855C216.958 148.998 218.433 148.359 219.774 149.071C220.651 149.535 221.26 150.34 221.724 151.186C221.807 151.33 221.879 151.475 221.941 151.629C221.951 151.66 221.962 151.681 221.972 151.712C221.951 151.681 221.931 151.609 221.962 151.681C221.962 151.702 221.972 151.712 221.982 151.733C222.168 152.228 222.973 152.011 222.787 151.516H222.797Z" fill="#0071DF"/>
<path d="M207.848 146.966C206.888 145.449 205.093 144.098 203.195 144.479C202.277 144.665 201.492 145.253 200.853 145.913C200.481 146.295 201.069 146.873 201.441 146.491C202.318 145.583 203.463 144.954 204.742 145.377C205.568 145.656 206.259 146.285 206.806 146.935C206.899 147.048 206.919 147.079 207.033 147.234C207.064 147.286 207.095 147.327 207.126 147.368C207.404 147.812 208.137 147.399 207.848 146.955V146.966Z" fill="#0071DF"/>
<path d="M225.583 143.635C225.315 143.047 224.252 141.283 220.961 140.726C220.28 140.612 219.197 141.396 219.826 142.459C220.373 143.388 223.984 145.162 224.675 145.183C225.397 145.203 225.934 144.43 225.573 143.625L225.583 143.635Z" fill="#0071DF"/>
<path d="M210.387 139.032C209.85 138.671 208.004 137.722 204.919 138.96C204.279 139.218 203.763 140.446 204.867 141.024C205.827 141.529 209.84 141.168 210.449 140.828C211.078 140.477 211.119 139.538 210.387 139.043V139.032Z" fill="#0071DF"/>
<path d="M210.057 149.434C210.057 149.434 203.743 147.598 203.114 149.909C202.856 150.848 205.105 153.561 207.984 155.562C209.376 155.748 216.578 154.882 216.66 153.458C216.805 151.064 210.057 149.434 210.057 149.434Z" fill="#0071DF"/>
<path d="M181.281 290.416C181.281 290.416 181.26 290.437 181.25 290.447C181.25 290.447 181.271 290.416 181.281 290.416Z" fill="#0087EA"/>
<path d="M181.25 290.437C181.25 290.437 181.271 290.416 181.281 290.416C181.271 290.426 181.26 290.437 181.25 290.447V290.437Z" fill="#0087EA"/>
<path d="M268.284 146.461C268.284 146.461 268.192 146.482 268.14 146.482H268.109C268.171 146.482 268.233 146.461 268.284 146.461Z" fill="#53AFFA"/>
<path d="M269.977 156.625C270.039 156.625 270.09 156.614 270.132 156.594C270.08 156.625 270.008 156.645 269.926 156.625H269.977Z" fill="#53AFFA"/>
<path d="M278.28 175.337C278.28 173.226 276.51 139.039 276.51 139.039L265.374 140.448C265.374 140.448 272.211 174.545 272.739 176.129C273.266 177.712 278.28 177.448 278.28 175.337Z" fill="#4C4C4C"/>
<path d="M278.415 171.837L278.397 171.545C278.4 171.488 278.384 171.43 278.349 171.381C278.28 171.284 278.154 171.245 278.042 171.286C276.074 172.018 274.007 172.32 271.919 172.154C271.836 172.147 271.754 172.181 271.699 172.244C271.644 172.307 271.622 172.392 271.64 172.474L271.709 172.784C271.734 172.898 271.831 172.982 271.948 172.991C274.097 173.146 276.214 172.837 278.242 172.101C278.351 172.061 278.422 171.954 278.415 171.837Z" fill="white" stroke="white" stroke-width="0.527706" stroke-linejoin="round"/>
<path d="M263.799 140.261C263.842 140.605 264.017 140.911 264.291 141.124C264.565 141.336 264.905 141.429 265.249 141.386L277.009 139.898C277.353 139.855 277.659 139.68 277.872 139.406C278.084 139.132 278.177 138.791 278.134 138.447L277.985 137.27L263.65 139.083L263.799 140.261Z" fill="white"/>
<path d="M263.586 138.53C263.544 138.186 263.639 137.846 263.852 137.573C264.066 137.3 264.373 137.127 264.717 137.085L276.483 135.649C276.828 135.607 277.168 135.702 277.441 135.915C277.714 136.129 277.887 136.436 277.929 136.78L278.073 137.959L263.73 139.709L263.586 138.53Z" fill="white"/>
<path d="M277.411 136.024C278.893 133.992 280.324 130.926 279.983 128.234C279.275 122.635 274.162 118.67 268.563 119.379C262.964 120.087 258.999 125.2 259.708 130.799C260.048 133.491 262.014 136.009 263.955 137.607L277.411 136.024Z" fill="#989898"/>
<path d="M280.143 127.576C280.108 127.448 279.985 127.366 279.853 127.383C279.796 127.39 279.745 127.416 279.706 127.453C279.543 127.565 279.291 127.671 279 127.777C278.906 127.811 278.808 127.846 278.709 127.88C278.506 127.951 278.304 128.022 278.148 128.089C272.534 130.47 265.912 131.347 259.739 130.486C259.654 130.474 259.568 130.504 259.509 130.567C259.45 130.631 259.426 130.719 259.445 130.803C259.455 130.85 259.461 130.902 259.469 130.961C259.469 130.962 259.469 130.964 259.469 130.965C259.473 130.993 259.477 131.025 259.482 131.054C259.486 131.08 259.493 131.12 259.508 131.159C259.542 131.251 259.623 131.316 259.72 131.329C266.006 132.185 272.784 131.332 278.505 128.9C278.636 128.845 278.798 128.789 278.979 128.727C279.075 128.694 279.176 128.659 279.281 128.622C279.567 128.519 279.88 128.396 280.103 128.247C280.176 128.198 280.22 128.116 280.22 128.028C280.22 127.971 280.207 127.885 280.194 127.815C280.181 127.738 280.162 127.649 280.143 127.576Z" fill="#4C4C4C" stroke="#4C4C4C" stroke-width="0.527706" stroke-linejoin="round"/>
<path d="M278.923 165.045C275.766 164.777 274.012 163.756 273.29 163.013C273.074 162.786 272.682 162.187 272.578 161.96C272.289 161.29 272.062 160.248 272.052 159.536C272.042 158.257 272.682 156.977 273.785 156.389C274.549 155.987 276.231 155.337 276.231 155.337C276.313 155.337 276.117 155.337 275.818 155.244C275.508 155.172 275.281 155.027 274.951 154.924C273.713 154.491 272.372 153.903 271.485 152.933C270.979 152.386 270.577 151.024 270.556 150.89C270.536 150.777 270.474 149.807 270.505 149.487C270.597 148.806 270.711 148.074 271.103 147.496C271.474 146.949 272.032 146.433 272.63 146.165C273.228 145.897 273.662 145.763 274.466 145.67C272.424 145.381 271.165 143.864 270.639 141.894C270.546 141.563 270.505 140.697 270.505 140.305C270.546 139.985 270.659 139.644 270.835 139.314C271.949 137.251 276.21 136.735 278.232 137.395C285.093 139.634 289.932 145.907 290.757 153.273C291.18 157.122 290.551 160.908 287.93 164.055C283.865 168.955 279.284 170.802 279.284 170.802C279.088 167.563 279.13 168.037 278.985 165.623" fill="url(#paint25_linear_133_5097)"/>
<path d="M281.429 146.483C280.098 146.143 278.715 145.895 277.343 145.802C276.58 145.751 275.785 145.741 275.011 145.823C274.97 145.823 274.919 145.833 274.877 145.844H274.857C274.196 145.926 273.546 146.081 272.938 146.349C272.339 146.617 271.782 147.02 271.411 147.567C271.019 148.134 270.854 148.815 270.771 149.496C270.73 149.816 270.719 150.125 270.74 150.435C270.74 150.445 270.74 150.466 270.74 150.476C270.74 150.6 270.761 150.713 270.781 150.837C270.781 150.837 270.781 150.848 270.781 150.858C270.905 151.57 271.204 152.23 271.71 152.777C272.597 153.747 273.804 154.335 275.042 154.768C275.3 154.861 275.558 154.943 275.816 155.016C276.115 155.108 276.414 155.191 276.714 155.263C276.714 155.263 276.734 155.263 276.745 155.263C276.817 155.284 276.868 155.315 276.92 155.356C276.93 155.377 276.951 155.387 276.961 155.397C276.992 155.428 277.003 155.47 277.013 155.501C277.054 155.624 277.013 155.779 276.941 155.882C276.93 155.903 276.91 155.913 276.889 155.934C276.837 155.975 276.765 155.996 276.693 155.996H276.652C275.795 156.037 274.898 156.264 274.134 156.666C273.041 157.254 272.35 158.255 272.36 159.535C272.36 160.257 272.535 161.061 272.814 161.732C272.917 161.959 273.144 162.351 273.35 162.588C273.639 162.939 274.011 163.249 274.403 163.496C275.754 164.342 277.384 164.631 278.953 164.755C279.324 164.776 279.427 165.261 279.21 165.436C279.159 165.477 279.087 165.508 278.983 165.498C278.932 165.498 278.87 165.498 278.818 165.488C277.013 165.333 275.115 164.972 273.629 163.857C272.896 163.311 272.329 162.578 272.019 161.711C271.679 160.783 271.514 159.72 271.679 158.75C271.957 157.038 273.381 155.975 274.97 155.511C273.371 154.985 271.792 154.201 270.802 152.828C269.987 151.704 269.842 150.311 270.08 148.97C270.224 148.196 270.492 147.453 270.998 146.844C271.483 146.256 272.143 145.844 272.845 145.555C272.989 145.493 273.123 145.441 273.268 145.4C271.514 144.544 270.307 142.553 270.358 140.592C270.358 140.468 270.41 140.376 270.482 140.314C270.699 140.128 271.101 140.2 271.091 140.561C271.039 142.604 272.607 144.915 274.753 145.08C275.713 144.967 276.703 144.998 277.642 145.08C278.953 145.194 281.542 145.751 281.542 145.751C282.006 145.864 281.852 146.597 281.387 146.483H281.429Z" fill="#53AFFA"/>
<path d="M276.754 155.242C276.826 155.242 276.877 155.283 276.929 155.335C276.888 155.294 276.826 155.263 276.754 155.242Z" fill="#53AFFA"/>
<path d="M276.949 155.874C277.032 155.771 277.063 155.626 277.021 155.492C277.063 155.626 277.042 155.771 276.949 155.874Z" fill="#53AFFA"/>
<g clip-path="url(#clip2_133_5097)" filter="url(#filter5_dddddd_133_5097)">
<path d="M245.446 176.047C245.303 175.786 245.232 175.513 245.237 175.236C245.242 174.564 245.681 173.941 246.469 173.49C247.225 173.057 248.225 172.824 249.282 172.839C250.339 172.854 251.332 173.114 252.082 173.572C252.41 173.773 252.683 174.009 252.888 174.274L253.237 174.724L257.456 164C257.492 163.905 257.598 163.861 257.692 163.898C257.74 163.918 257.769 163.954 257.782 163.979C257.81 164.029 257.812 164.083 257.794 164.135L253.214 175.76C252.858 176.955 251.188 177.778 249.232 177.75C247.514 177.726 245.992 177.04 245.446 176.047ZM252.743 174.716C252.533 174.334 252.162 174.054 251.89 173.887C251.195 173.463 250.269 173.223 249.277 173.209C248.285 173.196 247.352 173.406 246.649 173.81C246.259 174.034 245.609 174.516 245.602 175.245C245.6 175.451 245.656 175.662 245.767 175.866C246.254 176.752 247.65 177.367 249.237 177.389C251.208 177.418 252.543 176.574 252.842 175.731L252.85 175.713L252.856 175.681C252.893 175.563 252.913 175.455 252.916 175.351C252.918 175.136 252.86 174.921 252.748 174.718L252.743 174.716Z" fill="#00FFBA"/>
</g>
</g>
<defs>
<filter id="filter0_dddddd_133_5097" x="205.086" y="48.5743" width="207.851" height="213.687" filterUnits="userSpaceOnUse" color-interpolation-filters="sRGB">
<feFlood flood-opacity="0" result="BackgroundImageFix"/>
<feColorMatrix in="SourceAlpha" type="matrix" values="0 0 0 0 0 0 0 0 0 0 0 0 0 0 0 0 0 0 127 0" result="hardAlpha"/>
<feOffset/>
<feGaussianBlur stdDeviation="1.1589"/>
<feColorMatrix type="matrix" values="0 0 0 0 0 0 0 0 0 1 0 0 0 0 0.729412 0 0 0 1 0"/>
<feBlend mode="normal" in2="BackgroundImageFix" result="effect1_dropShadow_133_5097"/>
<feColorMatrix in="SourceAlpha" type="matrix" values="0 0 0 0 0 0 0 0 0 0 0 0 0 0 0 0 0 0 127 0" result="hardAlpha"/>
<feOffset/>
<feGaussianBlur stdDeviation="2.3178"/>
<feColorMatrix type="matrix" values="0 0 0 0 0 0 0 0 0 1 0 0 0 0 0.729412 0 0 0 1 0"/>
<feBlend mode="normal" in2="effect1_dropShadow_133_5097" result="effect2_dropShadow_133_5097"/>
<feColorMatrix in="SourceAlpha" type="matrix" values="0 0 0 0 0 0 0 0 0 0 0 0 0 0 0 0 0 0 127 0" result="hardAlpha"/>
<feOffset/>
<feGaussianBlur stdDeviation="8.1123"/>
<feColorMatrix type="matrix" values="0 0 0 0 0 0 0 0 0 1 0 0 0 0 0.729412 0 0 0 1 0"/>
<feBlend mode="normal" in2="effect2_dropShadow_133_5097" result="effect3_dropShadow_133_5097"/>
<feColorMatrix in="SourceAlpha" type="matrix" values="0 0 0 0 0 0 0 0 0 0 0 0 0 0 0 0 0 0 127 0" result="hardAlpha"/>
<feOffset/>
<feGaussianBlur stdDeviation="16.2246"/>
<feColorMatrix type="matrix" values="0 0 0 0 0 0 0 0 0 1 0 0 0 0 0.729412 0 0 0 1 0"/>
<feBlend mode="normal" in2="effect3_dropShadow_133_5097" result="effect4_dropShadow_133_5097"/>
<feColorMatrix in="SourceAlpha" type="matrix" values="0 0 0 0 0 0 0 0 0 0 0 0 0 0 0 0 0 0 127 0" result="hardAlpha"/>
<feOffset/>
<feGaussianBlur stdDeviation="27.8136"/>
<feColorMatrix type="matrix" values="0 0 0 0 0 0 0 0 0 1 0 0 0 0 0.729412 0 0 0 1 0"/>
<feBlend mode="normal" in2="effect4_dropShadow_133_5097" result="effect5_dropShadow_133_5097"/>
<feColorMatrix in="SourceAlpha" type="matrix" values="0 0 0 0 0 0 0 0 0 0 0 0 0 0 0 0 0 0 127 0" result="hardAlpha"/>
<feOffset/>
<feGaussianBlur stdDeviation="48.6738"/>
<feColorMatrix type="matrix" values="0 0 0 0 0 0 0 0 0 1 0 0 0 0 0.729412 0 0 0 1 0"/>
<feBlend mode="normal" in2="effect5_dropShadow_133_5097" result="effect6_dropShadow_133_5097"/>
<feBlend mode="normal" in="SourceGraphic" in2="effect6_dropShadow_133_5097" result="shape"/>
</filter>
<filter id="filter1_dddddd_133_5097" x="180.559" y="93.8849" width="200.726" height="209.101" filterUnits="userSpaceOnUse" color-interpolation-filters="sRGB">
<feFlood flood-opacity="0" result="BackgroundImageFix"/>
<feColorMatrix in="SourceAlpha" type="matrix" values="0 0 0 0 0 0 0 0 0 0 0 0 0 0 0 0 0 0 127 0" result="hardAlpha"/>
<feOffset/>
<feGaussianBlur stdDeviation="1.1589"/>
<feColorMatrix type="matrix" values="0 0 0 0 0 0 0 0 0 1 0 0 0 0 0.729412 0 0 0 1 0"/>
<feBlend mode="normal" in2="BackgroundImageFix" result="effect1_dropShadow_133_5097"/>
<feColorMatrix in="SourceAlpha" type="matrix" values="0 0 0 0 0 0 0 0 0 0 0 0 0 0 0 0 0 0 127 0" result="hardAlpha"/>
<feOffset/>
<feGaussianBlur stdDeviation="2.3178"/>
<feColorMatrix type="matrix" values="0 0 0 0 0 0 0 0 0 1 0 0 0 0 0.729412 0 0 0 1 0"/>
<feBlend mode="normal" in2="effect1_dropShadow_133_5097" result="effect2_dropShadow_133_5097"/>
<feColorMatrix in="SourceAlpha" type="matrix" values="0 0 0 0 0 0 0 0 0 0 0 0 0 0 0 0 0 0 127 0" result="hardAlpha"/>
<feOffset/>
<feGaussianBlur stdDeviation="8.1123"/>
<feColorMatrix type="matrix" values="0 0 0 0 0 0 0 0 0 1 0 0 0 0 0.729412 0 0 0 1 0"/>
<feBlend mode="normal" in2="effect2_dropShadow_133_5097" result="effect3_dropShadow_133_5097"/>
<feColorMatrix in="SourceAlpha" type="matrix" values="0 0 0 0 0 0 0 0 0 0 0 0 0 0 0 0 0 0 127 0" result="hardAlpha"/>
<feOffset/>
<feGaussianBlur stdDeviation="16.2246"/>
<feColorMatrix type="matrix" values="0 0 0 0 0 0 0 0 0 1 0 0 0 0 0.729412 0 0 0 1 0"/>
<feBlend mode="normal" in2="effect3_dropShadow_133_5097" result="effect4_dropShadow_133_5097"/>
<feColorMatrix in="SourceAlpha" type="matrix" values="0 0 0 0 0 0 0 0 0 0 0 0 0 0 0 0 0 0 127 0" result="hardAlpha"/>
<feOffset/>
<feGaussianBlur stdDeviation="27.8136"/>
<feColorMatrix type="matrix" values="0 0 0 0 0 0 0 0 0 1 0 0 0 0 0.729412 0 0 0 1 0"/>
<feBlend mode="normal" in2="effect4_dropShadow_133_5097" result="effect5_dropShadow_133_5097"/>
<feColorMatrix in="SourceAlpha" type="matrix" values="0 0 0 0 0 0 0 0 0 0 0 0 0 0 0 0 0 0 127 0" result="hardAlpha"/>
<feOffset/>
<feGaussianBlur stdDeviation="48.6738"/>
<feColorMatrix type="matrix" values="0 0 0 0 0 0 0 0 0 1 0 0 0 0 0.729412 0 0 0 1 0"/>
<feBlend mode="normal" in2="effect5_dropShadow_133_5097" result="effect6_dropShadow_133_5097"/>
<feBlend mode="normal" in="SourceGraphic" in2="effect6_dropShadow_133_5097" result="shape"/>
</filter>
<filter id="filter2_f_133_5097" x="91.4462" y="230.52" width="39.8614" height="35.8087" filterUnits="userSpaceOnUse" color-interpolation-filters="sRGB">
<feFlood flood-opacity="0" result="BackgroundImageFix"/>
<feBlend mode="normal" in="SourceGraphic" in2="BackgroundImageFix" result="shape"/>
<feGaussianBlur stdDeviation="2.36477" result="effect1_foregroundBlur_133_5097"/>
</filter>
<filter id="filter3_f_133_5097" x="95.716" y="234.79" width="31.322" height="27.2692" filterUnits="userSpaceOnUse" color-interpolation-filters="sRGB">
<feFlood flood-opacity="0" result="BackgroundImageFix"/>
<feBlend mode="normal" in="SourceGraphic" in2="BackgroundImageFix" result="shape"/>
<feGaussianBlur stdDeviation="0.229908" result="effect1_foregroundBlur_133_5097"/>
</filter>
<filter id="filter4_dddddd_133_5097" x="176.274" y="2.03137" width="221.031" height="222.394" filterUnits="userSpaceOnUse" color-interpolation-filters="sRGB">
<feFlood flood-opacity="0" result="BackgroundImageFix"/>
<feColorMatrix in="SourceAlpha" type="matrix" values="0 0 0 0 0 0 0 0 0 0 0 0 0 0 0 0 0 0 127 0" result="hardAlpha"/>
<feOffset/>
<feGaussianBlur stdDeviation="1.1589"/>
<feColorMatrix type="matrix" values="0 0 0 0 0 0 0 0 0 1 0 0 0 0 0.729412 0 0 0 1 0"/>
<feBlend mode="normal" in2="BackgroundImageFix" result="effect1_dropShadow_133_5097"/>
<feColorMatrix in="SourceAlpha" type="matrix" values="0 0 0 0 0 0 0 0 0 0 0 0 0 0 0 0 0 0 127 0" result="hardAlpha"/>
<feOffset/>
<feGaussianBlur stdDeviation="2.3178"/>
<feColorMatrix type="matrix" values="0 0 0 0 0 0 0 0 0 1 0 0 0 0 0.729412 0 0 0 1 0"/>
<feBlend mode="normal" in2="effect1_dropShadow_133_5097" result="effect2_dropShadow_133_5097"/>
<feColorMatrix in="SourceAlpha" type="matrix" values="0 0 0 0 0 0 0 0 0 0 0 0 0 0 0 0 0 0 127 0" result="hardAlpha"/>
<feOffset/>
<feGaussianBlur stdDeviation="8.1123"/>
<feColorMatrix type="matrix" values="0 0 0 0 0 0 0 0 0 1 0 0 0 0 0.729412 0 0 0 1 0"/>
<feBlend mode="normal" in2="effect2_dropShadow_133_5097" result="effect3_dropShadow_133_5097"/>
<feColorMatrix in="SourceAlpha" type="matrix" values="0 0 0 0 0 0 0 0 0 0 0 0 0 0 0 0 0 0 127 0" result="hardAlpha"/>
<feOffset/>
<feGaussianBlur stdDeviation="16.2246"/>
<feColorMatrix type="matrix" values="0 0 0 0 0 0 0 0 0 1 0 0 0 0 0.729412 0 0 0 1 0"/>
<feBlend mode="normal" in2="effect3_dropShadow_133_5097" result="effect4_dropShadow_133_5097"/>
<feColorMatrix in="SourceAlpha" type="matrix" values="0 0 0 0 0 0 0 0 0 0 0 0 0 0 0 0 0 0 127 0" result="hardAlpha"/>
<feOffset/>
<feGaussianBlur stdDeviation="27.8136"/>
<feColorMatrix type="matrix" values="0 0 0 0 0 0 0 0 0 1 0 0 0 0 0.729412 0 0 0 1 0"/>
<feBlend mode="normal" in2="effect4_dropShadow_133_5097" result="effect5_dropShadow_133_5097"/>
<feColorMatrix in="SourceAlpha" type="matrix" values="0 0 0 0 0 0 0 0 0 0 0 0 0 0 0 0 0 0 127 0" result="hardAlpha"/>
<feOffset/>
<feGaussianBlur stdDeviation="48.6738"/>
<feColorMatrix type="matrix" values="0 0 0 0 0 0 0 0 0 1 0 0 0 0 0.729412 0 0 0 1 0"/>
<feBlend mode="normal" in2="effect5_dropShadow_133_5097" result="effect6_dropShadow_133_5097"/>
<feBlend mode="normal" in="SourceGraphic" in2="effect6_dropShadow_133_5097" result="shape"/>
</filter>
<filter id="filter5_dddddd_133_5097" x="167.043" y="87.7387" width="171.027" height="167.98" filterUnits="userSpaceOnUse" color-interpolation-filters="sRGB">
<feFlood flood-opacity="0" result="BackgroundImageFix"/>
<feColorMatrix in="SourceAlpha" type="matrix" values="0 0 0 0 0 0 0 0 0 0 0 0 0 0 0 0 0 0 127 0" result="hardAlpha"/>
<feOffset/>
<feGaussianBlur stdDeviation="0.905734"/>
<feColorMatrix type="matrix" values="0 0 0 0 0 0 0 0 0 1 0 0 0 0 0.729412 0 0 0 1 0"/>
<feBlend mode="normal" in2="BackgroundImageFix" result="effect1_dropShadow_133_5097"/>
<feColorMatrix in="SourceAlpha" type="matrix" values="0 0 0 0 0 0 0 0 0 0 0 0 0 0 0 0 0 0 127 0" result="hardAlpha"/>
<feOffset/>
<feGaussianBlur stdDeviation="1.81147"/>
<feColorMatrix type="matrix" values="0 0 0 0 0 0 0 0 0 1 0 0 0 0 0.729412 0 0 0 1 0"/>
<feBlend mode="normal" in2="effect1_dropShadow_133_5097" result="effect2_dropShadow_133_5097"/>
<feColorMatrix in="SourceAlpha" type="matrix" values="0 0 0 0 0 0 0 0 0 0 0 0 0 0 0 0 0 0 127 0" result="hardAlpha"/>
<feOffset/>
<feGaussianBlur stdDeviation="6.34013"/>
<feColorMatrix type="matrix" values="0 0 0 0 0 0 0 0 0 1 0 0 0 0 0.729412 0 0 0 1 0"/>
<feBlend mode="normal" in2="effect2_dropShadow_133_5097" result="effect3_dropShadow_133_5097"/>
<feColorMatrix in="SourceAlpha" type="matrix" values="0 0 0 0 0 0 0 0 0 0 0 0 0 0 0 0 0 0 127 0" result="hardAlpha"/>
<feOffset/>
<feGaussianBlur stdDeviation="12.6803"/>
<feColorMatrix type="matrix" values="0 0 0 0 0 0 0 0 0 1 0 0 0 0 0.729412 0 0 0 1 0"/>
<feBlend mode="normal" in2="effect3_dropShadow_133_5097" result="effect4_dropShadow_133_5097"/>
<feColorMatrix in="SourceAlpha" type="matrix" values="0 0 0 0 0 0 0 0 0 0 0 0 0 0 0 0 0 0 127 0" result="hardAlpha"/>
<feOffset/>
<feGaussianBlur stdDeviation="21.7376"/>
<feColorMatrix type="matrix" values="0 0 0 0 0 0 0 0 0 1 0 0 0 0 0.729412 0 0 0 1 0"/>
<feBlend mode="normal" in2="effect4_dropShadow_133_5097" result="effect5_dropShadow_133_5097"/>
<feColorMatrix in="SourceAlpha" type="matrix" values="0 0 0 0 0 0 0 0 0 0 0 0 0 0 0 0 0 0 127 0" result="hardAlpha"/>
<feOffset/>
<feGaussianBlur stdDeviation="38.0408"/>
<feColorMatrix type="matrix" values="0 0 0 0 0 0 0 0 0 1 0 0 0 0 0.729412 0 0 0 1 0"/>
<feBlend mode="normal" in2="effect5_dropShadow_133_5097" result="effect6_dropShadow_133_5097"/>
<feBlend mode="normal" in="SourceGraphic" in2="effect6_dropShadow_133_5097" result="shape"/>
</filter>
<linearGradient id="paint0_linear_133_5097" x1="230.954" y1="269.696" x2="55.9116" y2="86.7209" gradientUnits="userSpaceOnUse">
<stop offset="0.526589" stop-color="#0647C7"/>
<stop offset="1" stop-color="#ED00FF"/>
</linearGradient>
<radialGradient id="paint1_radial_133_5097" cx="0" cy="0" r="1" gradientUnits="userSpaceOnUse" gradientTransform="translate(62.5078 70.4129) rotate(130.538) scale(42.9093 59.257)">
<stop stop-color="#FF3E00"/>
<stop offset="0.562168" stop-color="#FFC800"/>
<stop offset="1" stop-color="#FFDD62"/>
</radialGradient>
<linearGradient id="paint2_linear_133_5097" x1="203.718" y1="185.429" x2="334.727" y2="58.328" gradientUnits="userSpaceOnUse">
<stop stop-color="#5900FF" stop-opacity="0"/>
<stop offset="0.473957" stop-color="#005EFF" stop-opacity="0.31"/>
<stop offset="1" stop-color="#00FFBA"/>
</linearGradient>
<radialGradient id="paint3_radial_133_5097" cx="0" cy="0" r="1" gradientUnits="userSpaceOnUse" gradientTransform="translate(325.29 40.5628) rotate(50.0893) scale(35.8215 49.2868)">
<stop stop-color="#026FF7"/>
<stop offset="0.562168" stop-color="#FF00EF"/>
<stop offset="1" stop-color="#FF002B"/>
</radialGradient>
<radialGradient id="paint4_radial_133_5097" cx="0" cy="0" r="1" gradientUnits="userSpaceOnUse" gradientTransform="translate(299.51 88.0655) rotate(134.583) scale(272.436 380.799)">
<stop stop-color="#FF00D6"/>
<stop offset="0.562168" stop-color="#FF004D"/>
<stop offset="1" stop-color="#FF6291"/>
</radialGradient>
<radialGradient id="paint5_radial_133_5097" cx="0" cy="0" r="1" gradientUnits="userSpaceOnUse" gradientTransform="translate(299.51 88.0655) rotate(134.583) scale(272.436 380.799)">
<stop stop-color="#A000FF"/>
<stop offset="0.562168" stop-color="#A000FF"/>
<stop offset="1" stop-color="#FF0099"/>
</radialGradient>
<radialGradient id="paint6_radial_133_5097" cx="0" cy="0" r="1" gradientUnits="userSpaceOnUse" gradientTransform="translate(259.833 36.1414) rotate(134.583) scale(150.697 210.637)">
<stop stop-color="#FF00D6"/>
<stop offset="0.562168" stop-color="#FF004D"/>
<stop offset="1" stop-color="#FF6291"/>
</radialGradient>
<linearGradient id="paint7_linear_133_5097" x1="142.034" y1="335.354" x2="42.0247" y2="238.505" gradientUnits="userSpaceOnUse">
<stop stop-color="#5900FF" stop-opacity="0"/>
<stop offset="0.473957" stop-color="#005EFF" stop-opacity="0.31"/>
<stop offset="1" stop-color="#00FFBA"/>
</linearGradient>
<radialGradient id="paint8_radial_133_5097" cx="0" cy="0" r="1" gradientUnits="userSpaceOnUse" gradientTransform="translate(49.6007 224.602) rotate(129.72) scale(27.4787 37.7619)">
<stop stop-color="#026FF7"/>
<stop offset="0.562168" stop-color="#FF00EF"/>
<stop offset="1" stop-color="#FF002B"/>
</radialGradient>
<radialGradient id="paint9_radial_133_5097" cx="0" cy="0" r="1" gradientUnits="userSpaceOnUse" gradientTransform="translate(378.356 186.491) rotate(136.253) scale(207.843 216.134)">
<stop stop-color="#FF00C7" stop-opacity="0.62"/>
<stop offset="0.562168" stop-color="#DB00FF" stop-opacity="0.03"/>
<stop offset="1" stop-color="#FF0099" stop-opacity="0"/>
</radialGradient>
<radialGradient id="paint10_radial_133_5097" cx="0" cy="0" r="1" gradientUnits="userSpaceOnUse" gradientTransform="translate(361.754 205.226) rotate(134.653) scale(24.6179 34.4108)">
<stop stop-color="#02D9F7"/>
<stop offset="0.562168" stop-color="#A000FF"/>
<stop offset="1" stop-color="#FF0099"/>
</radialGradient>
<radialGradient id="paint11_radial_133_5097" cx="0" cy="0" r="1" gradientUnits="userSpaceOnUse" gradientTransform="translate(377.68 246.355) rotate(135.023) scale(91.1991 127.45)">
<stop stop-color="#00F1FF" stop-opacity="0.92"/>
<stop offset="0.562168" stop-color="#00FFB1" stop-opacity="0.1"/>
<stop offset="1" stop-color="#00C4FF" stop-opacity="0"/>
</radialGradient>
<radialGradient id="paint12_radial_133_5097" cx="0" cy="0" r="1" gradientUnits="userSpaceOnUse" gradientTransform="translate(375.512 250.965) rotate(134.346) scale(26.5997 37.174)">
<stop stop-color="#F7EB02"/>
<stop offset="0.562168" stop-color="#00FF76"/>
<stop offset="1" stop-color="#00C4FF"/>
</radialGradient>
<linearGradient id="paint13_linear_133_5097" x1="-37.2083" y1="313.262" x2="408.026" y2="313.262" gradientUnits="userSpaceOnUse">
<stop stop-color="#CD06FE" stop-opacity="0.1"/>
<stop offset="0.63" stop-color="#CD06FE"/>
<stop offset="0.846419" stop-color="#CD06FE"/>
<stop offset="1" stop-color="#CD06FE" stop-opacity="0.2"/>
</linearGradient>
<radialGradient id="paint14_radial_133_5097" cx="0" cy="0" r="1" gradientUnits="userSpaceOnUse" gradientTransform="translate(210.716 297.68) scale(270.795 25.126)">
<stop stop-color="#FF0199"/>
<stop offset="1" stop-color="#FF00D6" stop-opacity="0"/>
</radialGradient>
<radialGradient id="paint15_radial_133_5097" cx="0" cy="0" r="1" gradientUnits="userSpaceOnUse" gradientTransform="translate(33.7211 139.282) rotate(49.4615) scale(13.5085 18.655)">
<stop stop-color="#FF00D6"/>
<stop offset="0.562168" stop-color="#FF004D"/>
<stop offset="1" stop-color="#FF6291"/>
</radialGradient>
<radialGradient id="paint16_radial_133_5097" cx="0" cy="0" r="1" gradientUnits="userSpaceOnUse" gradientTransform="translate(37.8006 140.665) rotate(136.73) scale(9.09409 11.4479)">
<stop stop-color="#FFE7AB"/>
<stop offset="1" stop-color="#FABC22"/>
</radialGradient>
<linearGradient id="paint17_linear_133_5097" x1="117.55" y1="240.57" x2="152.876" y2="279.123" gradientUnits="userSpaceOnUse">
<stop stop-color="#0CFFDE"/>
<stop offset="0.65" stop-color="#0CFFDE" stop-opacity="0"/>
</linearGradient>
<linearGradient id="paint18_linear_133_5097" x1="289.315" y1="164.506" x2="276.759" y2="160.534" gradientUnits="userSpaceOnUse">
<stop stop-color="#0087EA"/>
<stop offset="0.3" stop-color="#0093EF"/>
<stop offset="0.83" stop-color="#53AFFA"/>
</linearGradient>
<linearGradient id="paint19_linear_133_5097" x1="291.378" y1="157.695" x2="290.378" y2="157.386" gradientUnits="userSpaceOnUse">
<stop stop-color="#0087EA"/>
<stop offset="0.3" stop-color="#0093EF"/>
<stop offset="0.83" stop-color="#53AFFA"/>
</linearGradient>
<linearGradient id="paint20_linear_133_5097" x1="283.081" y1="184.048" x2="226.233" y2="166.065" gradientUnits="userSpaceOnUse">
<stop stop-color="#0087EA"/>
<stop offset="0.3" stop-color="#0093EF"/>
<stop offset="0.83" stop-color="#53AFFA"/>
</linearGradient>
<linearGradient id="paint21_linear_133_5097" x1="277.581" y1="155.408" x2="277.036" y2="155.233" gradientUnits="userSpaceOnUse">
<stop stop-color="#0087EA"/>
<stop offset="0.3" stop-color="#0093EF"/>
<stop offset="0.83" stop-color="#53AFFA"/>
</linearGradient>
<linearGradient id="paint22_linear_133_5097" x1="277.687" y1="155.778" x2="277.47" y2="155.716" gradientUnits="userSpaceOnUse">
<stop stop-color="#0087EA"/>
<stop offset="0.3" stop-color="#0093EF"/>
<stop offset="0.83" stop-color="#53AFFA"/>
</linearGradient>
<linearGradient id="paint23_linear_133_5097" x1="289.705" y1="163.217" x2="277.149" y2="159.245" gradientUnits="userSpaceOnUse">
<stop stop-color="#0087EA"/>
<stop offset="0.3" stop-color="#0093EF"/>
<stop offset="0.83" stop-color="#53AFFA"/>
</linearGradient>
<linearGradient id="paint24_linear_133_5097" x1="138.755" y1="124.651" x2="192.239" y2="178.754" gradientUnits="userSpaceOnUse">
<stop stop-color="#0087EA"/>
<stop offset="0.3" stop-color="#0093EF"/>
<stop offset="0.83" stop-color="#53AFFA"/>
</linearGradient>
<linearGradient id="paint25_linear_133_5097" x1="290.963" y1="157.947" x2="220.859" y2="135.776" gradientUnits="userSpaceOnUse">
<stop stop-color="#0087EA"/>
<stop offset="0.3" stop-color="#0093EF"/>
<stop offset="0.83" stop-color="#53AFFA"/>
</linearGradient>
<clipPath id="clip0_133_5097">
<rect width="420.431" height="345.45" fill="white" transform="translate(0.5 0.140625)"/>
</clipPath>
<clipPath id="clip1_133_5097">
<rect width="15.4048" height="23.1071" fill="white" transform="translate(287.785 99.3789) rotate(37.8083)"/>
</clipPath>
<clipPath id="clip2_133_5097">
<rect width="8.91854" height="16.6209" fill="white" transform="translate(257.695 163.82) rotate(61.2381)"/>
</clipPath>
</defs>
</svg>
