<svg width="163" height="153" viewBox="0 0 163 153" fill="none" xmlns="http://www.w3.org/2000/svg">
<path opacity="0.1" d="M159.234 18.0185L159.231 18.0209L149.01 28.3087L149.007 28.3111L142.743 34.5729L136.479 28.3111L136.477 28.3087L126.256 18.0209L126.253 18.0185C122.53 14.2967 122.53 8.37855 126.253 4.65669L126.253 4.65671L126.259 4.65074C129.908 0.93994 135.894 0.931345 139.62 4.65669L142.054 7.09001L142.743 7.77877L143.432 7.09001L145.866 4.65669C149.593 0.931345 155.579 0.93994 159.228 4.65074L159.228 4.65076L159.234 4.65669C162.957 8.37855 162.957 14.2967 159.234 18.0185Z" stroke="white" stroke-width="1.94907"/>
<path fill-rule="evenodd" clip-rule="evenodd" d="M33.7833 85.5157L33.3485 85.0804L16.0871 67.6814C9.15848 60.7448 9.15848 49.6947 16.0871 42.7581C22.8975 35.8215 34.053 35.8215 40.9816 42.7581L45.0912 46.8724L49.2008 42.7581C56.1293 35.8215 67.2849 35.8215 74.0953 42.7581C74.5356 43.1989 74.9479 43.6563 75.3322 44.1282C75.9392 44.4503 76.5092 44.8666 77.0207 45.3771L139.921 108.159C142.693 110.927 142.693 115.414 139.921 118.182L108.004 150.038C105.232 152.806 100.736 152.806 97.9634 150.038L35.0635 87.2558C34.5366 86.73 34.1099 86.1421 33.7833 85.5157Z" fill="url(#paint0_linear_111_2627)" fill-opacity="0.25"/>
<g filter="url(#filter0_f_111_2627)">
<path d="M73.285 66.872L73.2823 66.8748L56.0236 84.271L56.0208 84.2737L45.0912 95.216L34.1615 84.2737L34.1588 84.271L16.9001 66.8748L16.8974 66.872C10.4154 60.3826 10.4154 50.0569 16.8974 43.5675L16.8974 43.5675L16.9043 43.5605C23.262 37.085 33.6862 37.0749 40.1713 43.5675L44.2809 47.6818L45.0912 48.4931L45.9015 47.6818L50.0111 43.5675C56.4962 37.0749 66.9204 37.085 73.2781 43.5605L73.278 43.5605L73.285 43.5675C79.7669 50.0569 79.7669 60.3826 73.285 66.872Z" stroke="#00FFE1" stroke-width="2.29059"/>
</g>
<path d="M73.285 66.872L73.2823 66.8748L56.0236 84.271L56.0208 84.2737L45.0912 95.216L34.1615 84.2737L34.1588 84.271L16.9001 66.8748L16.8974 66.872C10.4154 60.3826 10.4154 50.0569 16.8974 43.5675L16.8974 43.5675L16.9043 43.5605C23.262 37.085 33.6862 37.0749 40.1713 43.5675L44.2809 47.6818L45.0912 48.4931L45.9015 47.6818L50.0111 43.5675C56.4962 37.0749 66.9204 37.085 73.2781 43.5605L73.278 43.5605L73.285 43.5675C79.7669 50.0569 79.7669 60.3826 73.285 66.872Z" stroke="#00FFE1" stroke-width="2.29059"/>
<g filter="url(#filter1_f_111_2627)">
<path d="M73.651 67.2376L73.6495 67.2391L56.3895 84.6365L56.388 84.638L45.0912 95.9479L33.7943 84.638L33.7928 84.6365L16.5329 67.2391L16.5314 67.2376C9.84778 60.5462 9.84778 49.8933 16.5314 43.202L16.5314 43.202L16.5352 43.1981C23.0974 36.5144 33.8519 36.5089 40.5372 43.202L44.6468 47.3163L45.0912 47.7612L45.5356 47.3163L49.6451 43.202C56.3305 36.5089 67.085 36.5144 73.6471 43.1981L73.651 43.2019C80.3346 49.8933 80.3346 60.5462 73.651 67.2376Z" stroke="#96FFC0" stroke-width="1.25613"/>
</g>
<defs>
<filter id="filter0_f_111_2627" x="0.250447" y="26.9155" width="89.6817" height="80.5616" filterUnits="userSpaceOnUse" color-interpolation-filters="sRGB">
<feFlood flood-opacity="0" result="BackgroundImageFix"/>
<feBlend mode="normal" in="SourceGraphic" in2="BackgroundImageFix" result="shape"/>
<feGaussianBlur stdDeviation="5.32009" result="effect1_foregroundBlur_111_2627"/>
</filter>
<filter id="filter1_f_111_2627" x="9.85616" y="36.5212" width="70.4703" height="61.3502" filterUnits="userSpaceOnUse" color-interpolation-filters="sRGB">
<feFlood flood-opacity="0" result="BackgroundImageFix"/>
<feBlend mode="normal" in="SourceGraphic" in2="BackgroundImageFix" result="shape"/>
<feGaussianBlur stdDeviation="0.517231" result="effect1_foregroundBlur_111_2627"/>
</filter>
<linearGradient id="paint0_linear_111_2627" x1="58.977" y1="49.5235" x2="138.45" y2="136.259" gradientUnits="userSpaceOnUse">
<stop stop-color="#0CFFDE"/>
<stop offset="0.65" stop-color="#0CFFDE" stop-opacity="0"/>
</linearGradient>
</defs>
</svg>
