<svg width="265" height="37" viewBox="0 0 265 37" fill="none" xmlns="http://www.w3.org/2000/svg">
<path d="M129.252 33.578C128.806 33.3798 128.456 33.0969 128.199 32.7359C127.016 31.0877 128.27 28.2609 131.001 26.4326C132.811 25.2216 134.814 24.7102 136.385 25.0653L137.328 25.2771L133.14 9.18909C133.106 9.04643 133.162 8.90415 133.286 8.83161C133.546 8.67631 139.71 5.1083 144.982 7.44958C145.552 7.70261 146.099 8.02499 146.607 8.3943C146.681 8.45078 146.729 8.52767 146.74 8.61226C146.751 8.69685 146.729 8.7825 146.679 8.85596C146.585 8.97332 146.416 9.01789 146.272 8.95387C145.756 8.58151 145.258 8.29678 144.744 8.06814C140.749 6.29389 136.089 8.17384 134.27 9.06164L133.848 9.26456L138.363 26.6523C138.981 28.4001 137.678 30.807 135.277 32.4158C133.183 33.8187 130.817 34.273 129.252 33.578ZM136.739 25.8676C135.407 25.2762 133.26 25.7236 131.379 26.9825C130.233 27.7475 129.323 28.7207 128.823 29.7168C128.305 30.7526 128.272 31.7175 128.736 32.3692C128.924 32.6279 129.19 32.8416 129.526 32.9909C130.851 33.5793 133.006 33.135 134.886 31.8761C137.31 30.2535 138.496 27.834 137.523 26.4863C137.335 26.2276 137.069 26.0139 136.732 25.8645L136.739 25.8676Z" fill="#00FFBA" stroke="#00FFBA" stroke-width="0.64393"/>
<path d="M248.4 20.8353C248.268 20.5944 248.206 20.3406 248.219 20.0803C248.243 19.4489 248.689 18.8523 249.471 18.4068C250.22 17.9787 251.203 17.7323 252.234 17.7165C253.265 17.7008 254.227 17.9165 254.946 18.3251C255.26 18.5049 255.52 18.719 255.713 18.9611L256.04 19.374L260.461 9.18866C260.499 9.0992 260.603 9.05507 260.694 9.08688C260.74 9.10444 260.767 9.13687 260.78 9.15997C260.805 9.20616 260.806 9.25733 260.787 9.30632L255.989 20.3468C255.608 21.4788 253.955 22.2985 252.047 22.327C250.371 22.3528 248.905 21.7525 248.4 20.8353ZM255.558 19.3806C255.364 19.0275 255.01 18.7751 254.75 18.626C254.084 18.2482 253.186 18.0489 252.219 18.064C251.251 18.0791 250.334 18.3027 249.638 18.7018C249.25 18.9226 248.602 19.3938 248.575 20.0783C248.567 20.2717 248.616 20.4683 248.719 20.6564C249.169 21.4746 250.514 22.0126 252.062 21.9881C253.985 21.9604 255.311 21.1305 255.627 20.3304L255.636 20.3128L255.642 20.2834C255.682 20.1716 255.703 20.0695 255.709 19.9719C255.717 19.7699 255.667 19.57 255.564 19.3819L255.558 19.3806Z" fill="#00FFBA" stroke="#00FFBA" stroke-width="0.748739"/>
<path d="M2.37178 19.1591C1.87834 18.7767 1.60586 18.3018 1.58009 17.793C1.55572 17.1822 1.90194 16.5948 2.55822 16.1255C3.27216 15.6236 4.25616 15.3245 5.33168 15.283C6.57789 15.2385 7.72424 15.5478 8.48462 16.1369C8.55743 16.1933 8.63023 16.2498 8.68963 16.3151L9.15059 16.7559L12.5749 6.61976C12.6099 6.52466 12.6966 6.46315 12.7987 6.4651L23.0539 6.82626C23.105 6.82724 23.1508 6.8434 23.1872 6.8716C23.2074 6.88727 23.2236 6.89981 23.2335 6.92038C23.2776 6.98031 23.2878 7.05896 23.2634 7.1237L19.5098 18.2591C19.22 19.4242 17.659 20.2991 15.7902 20.3693C14.7832 20.4061 13.8223 20.2084 13.0797 19.8132C12.9154 19.7244 12.7604 19.6237 12.6229 19.5171C12.1295 19.1348 11.857 18.6599 11.8312 18.151C11.8013 17.4973 12.194 16.8752 12.9331 16.3993C13.632 15.9501 14.5758 15.6778 15.5869 15.6441C16.8331 15.5997 17.9825 15.9049 18.7429 16.4941C18.8157 16.5505 18.8885 16.6069 18.9479 16.6722L19.4089 17.113L22.7331 7.27249L12.9529 6.92551L9.25459 17.8979C8.96486 19.063 7.40386 19.9379 5.53501 20.0081C4.52802 20.0449 3.56713 19.8472 2.82455 19.452C2.66022 19.3633 2.50525 19.2625 2.36774 19.1559L2.37178 19.1591ZM8.21317 16.4863C7.55795 15.9786 6.48786 15.6963 5.35814 15.7409C3.48525 15.808 1.99832 16.721 2.04326 17.7723C2.05863 18.1444 2.27553 18.4991 2.66381 18.7999C2.77706 18.8877 2.90776 18.9696 3.04874 19.0467C3.70604 19.4016 4.60684 19.5849 5.52288 19.5484C7.39577 19.4813 8.8827 18.5684 8.83776 17.5171C8.81835 17.1418 8.60457 16.7831 8.21629 16.4823L8.21317 16.4863ZM18.4715 16.8434C17.8163 16.3358 16.7462 16.0535 15.6164 16.0981C14.7035 16.1305 13.8224 16.3806 13.1936 16.7812C12.5988 17.1631 12.2786 17.642 12.3016 18.1294C12.3169 18.5016 12.5338 18.8562 12.9221 19.1571C13.0354 19.2448 13.1661 19.3268 13.307 19.4038C13.9643 19.7587 14.8651 19.942 15.7812 19.9056C17.6541 19.8385 19.141 18.9255 19.0961 17.8742C19.0767 17.4989 18.8629 17.1403 18.4746 16.8394L18.4715 16.8434Z" fill="#00FFBA" stroke="#00FFBA" stroke-width="0.748739"/>
</svg>
