<svg width="127" height="58" viewBox="0 0 127 58" fill="none" xmlns="http://www.w3.org/2000/svg">
<path d="M58.7842 47.1495C58.0913 46.8418 57.5476 46.4025 57.1483 45.8419C55.3108 43.2823 57.2587 38.8924 61.5008 36.053C64.3104 34.1725 67.4222 33.3783 69.8612 33.9298L71.3255 34.2586L64.8225 9.27451C64.7691 9.05296 64.8563 8.83202 65.0481 8.71936C65.4516 8.47819 75.0256 2.93719 83.2125 6.57312C84.0973 6.96606 84.9461 7.4667 85.7364 8.04024C85.8503 8.12794 85.9243 8.24735 85.9417 8.37871C85.9591 8.51008 85.9245 8.6431 85.8473 8.75718C85.7008 8.93942 85.439 9.00865 85.2152 8.90923C84.4143 8.33095 83.6414 7.88878 82.8419 7.53371C76.6377 4.77836 69.4021 7.69787 66.5763 9.07659L65.9216 9.39172L72.9324 36.3942C73.8934 39.1085 71.8692 42.8463 68.1399 45.3447C64.8881 47.5234 61.2147 48.2289 58.7842 47.1495ZM70.4112 35.1756C68.3432 34.2571 65.0075 34.9519 62.0873 36.907C60.3079 38.0951 58.8944 39.6064 58.1176 41.1533C57.3129 42.7619 57.2622 44.2603 57.9821 45.2724C58.274 45.6741 58.6871 46.006 59.2095 46.2379C61.2669 47.1516 64.6132 46.4616 67.5334 44.5065C71.298 41.9868 73.139 38.2294 71.628 36.1364C71.3361 35.7347 70.9229 35.4028 70.4006 35.1709L70.4112 35.1756Z" fill="#00FFBA" stroke="#00FFBA"/>
<path d="M104.775 53.5749C104.598 53.2532 104.516 52.9141 104.533 52.5665C104.565 51.7232 105.161 50.9264 106.205 50.3314C107.206 49.7597 108.518 49.4305 109.895 49.4095C111.273 49.3885 112.557 49.6766 113.518 50.2223C113.937 50.4625 114.284 50.7483 114.541 51.0717L114.979 51.6231L120.883 38.0198C120.934 37.9004 121.072 37.8414 121.194 37.8839C121.256 37.9074 121.292 37.9507 121.309 37.9815C121.342 38.0432 121.343 38.1116 121.318 38.177L114.91 52.9224C114.401 54.4343 112.194 55.5291 109.645 55.5672C107.407 55.6016 105.449 54.7999 104.775 53.5749ZM114.335 51.6319C114.076 51.1604 113.603 50.8233 113.255 50.6242C112.366 50.1196 111.167 49.8534 109.875 49.8736C108.583 49.8938 107.358 50.1924 106.427 50.7254C105.91 51.0203 105.045 51.6496 105.009 52.5638C104.998 52.8221 105.063 53.0848 105.201 53.3359C105.801 54.4287 107.597 55.1473 109.666 55.1145C112.234 55.0775 114.005 53.9692 114.427 52.9006L114.438 52.877L114.447 52.8377C114.5 52.6885 114.529 52.5521 114.537 52.4217C114.548 52.152 114.48 51.8849 114.342 51.6338L114.335 51.6319Z" fill="#00FFBA" stroke="#00FFBA"/>
<path d="M2.35018 27.0413C1.69116 26.5306 1.32723 25.8964 1.29282 25.2167C1.26026 24.401 1.72268 23.6165 2.59918 22.9897C3.5527 22.3194 4.86691 21.9199 6.30336 21.8644C7.96777 21.8051 9.49882 22.2181 10.5144 23.0049C10.6116 23.0803 10.7088 23.1556 10.7882 23.2429L11.4038 23.8316L15.9772 10.294C16.024 10.167 16.1398 10.0848 16.2762 10.0874L29.9728 10.5698C30.041 10.5711 30.1021 10.5927 30.1508 10.6304C30.1778 10.6513 30.1994 10.668 30.2127 10.6955C30.2716 10.7755 30.2852 10.8806 30.2526 10.967L25.2393 25.8393C24.8524 27.3954 22.7675 28.5638 20.2715 28.6576C18.9266 28.7067 17.6433 28.4427 16.6515 27.9148C16.432 27.7963 16.2251 27.6617 16.0414 27.5194C15.3824 27.0088 15.0184 26.3745 14.984 25.6949C14.9441 24.8219 15.4685 23.991 16.4557 23.3553C17.3892 22.7554 18.6497 22.3917 20 22.3468C21.6644 22.2874 23.1996 22.6951 24.2152 23.4819C24.3124 23.5573 24.4096 23.6326 24.4889 23.7199L25.1046 24.3086L29.5444 11.1658L16.4821 10.7024L11.5427 25.3569C11.1558 26.913 9.07092 28.0815 6.57493 28.1753C5.23001 28.2244 3.94667 27.9603 2.95488 27.4325C2.73541 27.314 2.52845 27.1794 2.34478 27.0371L2.35018 27.0413ZM10.1518 23.4716C9.27672 22.7935 7.84753 22.4165 6.3387 22.4761C3.8373 22.5657 1.85139 23.785 1.91142 25.1891C1.93194 25.6861 2.22163 26.1598 2.74021 26.5616C2.89146 26.6788 3.06602 26.7882 3.25431 26.8912C4.13219 27.3652 5.33527 27.61 6.55873 27.5613C9.06012 27.4717 11.046 26.2523 10.986 24.8482C10.9601 24.347 10.6746 23.868 10.156 23.4662L10.1518 23.4716ZM23.8526 23.9486C22.9775 23.2705 21.5483 22.8935 20.0395 22.9531C18.8202 22.9964 17.6433 23.3304 16.8036 23.8655C16.0092 24.3755 15.5815 25.015 15.6122 25.6661C15.6327 26.1631 15.9224 26.6368 16.441 27.0386C16.5922 27.1558 16.7668 27.2652 16.9551 27.3682C17.833 27.8422 19.0361 28.087 20.2595 28.0383C22.7609 27.9487 24.7468 26.7293 24.6868 25.3252C24.6609 24.824 24.3753 24.345 23.8568 23.9432L23.8526 23.9486Z" fill="#00FFBA" stroke="#00FFBA"/>
</svg>
