<svg width="247" height="45" viewBox="0 0 247 45" fill="none" xmlns="http://www.w3.org/2000/svg">
<path d="M106.495 20.3274L118.103 32.0674L126 40L133.897 32.0674L145.505 20.3274C150.165 15.647 150.165 8.19083 145.505 3.51036C140.925 -1.17012 133.423 -1.17012 128.764 3.51036L126 6.28651L123.236 3.51036C118.577 -1.17012 111.075 -1.17012 106.495 3.51036C101.835 8.19083 101.835 15.647 106.495 20.3274Z" fill="url(#paint0_radial_102_2624)"/>
<path d="M231.5 11L232.596 25.404L247 26.5L232.596 27.596L231.5 42L230.404 27.596L216 26.5L230.404 25.404L231.5 11Z" fill="url(#paint1_radial_102_2624)"/>
<path d="M231.5 11L232.596 25.404L247 26.5L232.596 27.596L231.5 42L230.404 27.596L216 26.5L230.404 25.404L231.5 11Z" fill="url(#paint2_radial_102_2624)"/>
<path d="M231.5 11L232.596 25.404L247 26.5L232.596 27.596L231.5 42L230.404 27.596L216 26.5L230.404 25.404L231.5 11Z" fill="white" fill-opacity="0.2"/>
<path d="M17.5723 11L18.7743 26.7979L34.5723 28L18.7743 29.2021L17.5723 45L16.3702 29.2021L0.572266 28L16.3702 26.7979L17.5723 11Z" fill="url(#paint3_radial_102_2624)"/>
<path d="M17.5723 11L18.7743 26.7979L34.5723 28L18.7743 29.2021L17.5723 45L16.3702 29.2021L0.572266 28L16.3702 26.7979L17.5723 11Z" fill="url(#paint4_radial_102_2624)"/>
<defs>
<radialGradient id="paint0_radial_102_2624" cx="0" cy="0" r="1" gradientUnits="userSpaceOnUse" gradientTransform="translate(139.606 3.84615) rotate(134.524) scale(41.788 58.4074)">
<stop stop-color="#F7EB02"/>
<stop offset="0.562168" stop-color="#00FF76"/>
<stop offset="1" stop-color="#00C4FF"/>
</radialGradient>
<radialGradient id="paint1_radial_102_2624" cx="0" cy="0" r="1" gradientUnits="userSpaceOnUse" gradientTransform="translate(222.331 13.9808) rotate(49.4615) scale(30.3821 41.9572)">
<stop stop-color="#FF00D6"/>
<stop offset="0.562168" stop-color="#FF004D"/>
<stop offset="1" stop-color="#FF6291"/>
</radialGradient>
<radialGradient id="paint2_radial_102_2624" cx="0" cy="0" r="1" gradientUnits="userSpaceOnUse" gradientTransform="translate(231.506 17.0908) rotate(136.73) scale(20.4536 25.7476)">
<stop stop-color="#ADFFEE"/>
<stop offset="1" stop-color="#2DF9FF"/>
</radialGradient>
<radialGradient id="paint3_radial_102_2624" cx="0" cy="0" r="1" gradientUnits="userSpaceOnUse" gradientTransform="translate(7.51593 14.2692) rotate(49.4615) scale(33.3223 46.0175)">
<stop stop-color="#FF00D6"/>
<stop offset="0.562168" stop-color="#FF004D"/>
<stop offset="1" stop-color="#FF6291"/>
</radialGradient>
<radialGradient id="paint4_radial_102_2624" cx="0" cy="0" r="1" gradientUnits="userSpaceOnUse" gradientTransform="translate(17.5789 17.6802) rotate(136.73) scale(22.433 28.2393)">
<stop stop-color="#FFE7AB"/>
<stop offset="1" stop-color="#FABC22"/>
</radialGradient>
</defs>
</svg>
