<svg width="319" height="224" viewBox="0 0 319 224" fill="none" xmlns="http://www.w3.org/2000/svg">
<g clip-path="url(#clip0_225_15452)">
<g clip-path="url(#clip1_225_15452)">
<path d="M127.361 133.987C129.592 128.738 129.539 122.793 127.218 117.587C124.258 110.978 120.451 103.166 120.382 97.023C120.148 75.1217 137.003 68.2082 140.006 56.3238C140.006 56.3238 135.416 51.2298 136.471 47.3236C138.068 41.3787 153.155 35.0914 158.298 36.7395C161.493 37.7562 162.403 41.4055 162.403 41.4055C177.922 37.4993 187.745 40.56 192.861 41.8549C211.665 46.628 221.791 56.5111 221.791 56.5111C224.543 54.2316 225.39 53.6217 226.747 53.9481C231.539 55.1092 241.329 64.5215 240.978 72.1412C240.765 76.8286 232.854 79.0974 232.854 79.0974C230.825 88.7986 240.802 105.879 234.509 119.556C232.955 122.937 229.521 127.047 226.06 130.996C223.303 134.11 222.829 138.648 224.889 142.265C233.998 158.28 256.997 203.223 248.437 235.473L91.4521 233.461C91.4521 233.461 72.5843 194.827 127.356 134.014" fill="#66B1FF"/>
<path d="M131.478 179.298C152.983 160.648 172.352 180.967 173.91 182.667C175.783 181.309 198.92 165.295 216.154 187.854C228.844 204.467 222.379 229.614 214.308 247.665L123.68 248.473C117.9 229.346 112.612 195.66 131.478 179.298Z" fill="white"/>
<path d="M143.139 79.5597C147.677 76.0135 175.408 82.279 175.408 82.279C175.408 82.279 198.573 87.1292 203.542 96.3526C205.315 99.655 208.176 108.677 204.603 112.838C200.319 117.826 182.547 132.705 169.643 131.391C157.965 130.156 136.779 104.489 136.344 97.7997C135.951 91.7515 139.274 82.5917 143.155 79.5544" fill="white"/>
<path d="M160.923 46.2107C162.494 45.1908 167.829 42.613 176.456 46.7262C178.25 47.5836 179.565 51.3383 176.376 52.9354C173.596 54.3308 162.265 52.6944 160.572 51.5792C158.878 50.4641 158.793 47.6005 160.928 46.2107" fill="#0073E4"/>
<path d="M210.795 59.9629C209.839 58.4372 206.228 53.9778 196.72 53.4761C194.754 53.3685 191.933 55.8312 194.086 58.5447C195.961 60.9101 206.778 64.6168 208.776 64.4683C210.774 64.3199 212.088 62.0313 210.801 59.9629" fill="#0073E4"/>
<path d="M170.68 79.1742C170.68 79.1742 188.229 83.6936 186.14 89.0843C184.05 94.4749 171.938 100.846 165.605 99.2121C157.166 97.0341 151.638 86.1439 152.379 80.3884C153.12 74.6329 170.664 79.1742 170.664 79.1742" fill="#0073E4"/>
<path d="M192.317 100.861C184.356 106.713 172.846 114.209 151.903 102.217C150.698 101.526 150.463 103.677 160.029 112.785C165.661 118.145 171.475 121.353 175.983 120.259C180.93 119.061 183.885 114.763 186.358 111.67C192.686 103.756 194.763 99.0553 192.311 100.856" fill="#143860"/>
<path d="M187.506 74.7133C186.55 79.0229 189.235 83.2943 193.497 84.2599C193.513 84.2599 193.53 84.2654 193.551 84.2708C197.841 85.2527 202.114 82.5579 203.119 78.232C204.075 73.9224 201.39 69.651 197.128 68.6854C197.112 68.6854 197.095 68.68 197.074 68.6745C192.784 67.6926 188.511 70.3874 187.506 74.7133Z" fill="white"/>
<path d="M154.504 65.7229C153.552 70.0331 156.24 74.3051 160.511 75.2653C160.522 75.2653 160.533 75.2653 160.543 75.2708C164.837 76.2529 169.113 73.5576 170.119 69.2311C171.076 64.9209 168.389 60.6489 164.123 59.6832C164.107 59.6832 164.09 59.6777 164.069 59.6723C159.776 58.6957 155.504 61.3963 154.504 65.7229Z" fill="white"/>
<path d="M158.827 176.161L157.159 176.446C156.193 176.614 155.269 175.977 155.094 175.019L153.321 164.036C153.151 163.083 155.715 162.661 155.715 162.661C156.979 162.324 157.765 162.377 157.935 163.33L160.287 174.155C160.451 175.108 159.809 176.014 158.843 176.182H158.832" fill="#F4901E"/>
<path d="M107.117 154.618L107.214 154.926C107.594 156.156 106.844 157.441 105.548 157.8C105.542 157.8 105.537 157.8 105.526 157.805L99.7581 159.379C98.4459 159.738 97.0748 159.035 96.6784 157.8L96.5819 157.492C96.1963 156.262 96.0463 155.407 97.3853 155.048L104.364 152.538C105.682 152.179 106.71 153.363 107.096 154.597" fill="#F4901E"/>
<path d="M116.711 247.831C127.267 249.227 154.771 247.911 154.771 247.911C160.428 247.292 165.823 244.713 165.274 237.213C163.886 218.18 160.049 188.13 153.496 157.222C151.826 149.339 150.001 144.878 139.397 146.999C127.982 149.286 109.379 152.75 99.1323 156.876C92.7658 159.439 91.4209 162.046 92.8084 170.158C96.2025 189.953 101.582 222.14 107.804 241.312C109.373 246.141 111.7 247.175 116.706 247.825" fill="#FFBC00"/>
<path d="M142.25 176.349L145.802 175.86C148.162 175.307 149.673 172.993 149.238 170.605L146.645 156.826C146.221 154.592 144.079 153.124 141.852 153.544C141.73 153.566 141.603 153.598 141.481 153.635L137.44 154.698C135.107 155.326 133.941 157.214 134.418 159.559L137.202 173.158C137.663 175.403 139.848 176.849 142.085 176.386C142.138 176.376 142.197 176.365 142.25 176.349Z" fill="#F4901E"/>
<path d="M135.935 157.536C134.747 159.317 135.311 161.668 137.188 162.793C137.291 162.854 137.399 162.911 137.508 162.962C139.677 164.035 142.356 163.368 143.685 161.422C144.878 159.646 144.319 157.294 142.443 156.165C142.318 156.088 142.188 156.021 142.058 155.959C139.883 154.912 137.22 155.605 135.913 157.556" fill="#333333"/>
<path d="M138.398 170.979C138.981 173.404 141.371 174.906 143.778 174.361C146.158 173.788 147.68 171.424 147.235 168.988C146.664 166.536 144.235 165.017 141.811 165.596H141.8C139.437 166.191 137.942 168.549 138.393 170.974" fill="#333333"/>
<path d="M116.313 195.877C116.26 201.123 120.472 205.419 125.717 205.472C130.963 205.525 135.259 201.313 135.312 196.067C135.365 190.822 131.153 186.526 125.907 186.473C125.876 186.473 125.844 186.473 125.813 186.473C120.593 186.452 116.345 190.658 116.313 195.877Z" fill="#F4901E"/>
<path d="M125.698 226.616C119.38 216.903 124.426 212.602 124.426 212.602C124.426 212.602 115.308 203.914 119.343 196.311C122.765 189.862 128.717 192.603 128.717 192.603C124.048 187.794 119.891 182.564 126.39 176.777C134.013 169.992 147.842 180.41 157.796 188.152L156.396 179.165C154.996 168.164 164.38 166.503 167.989 168.084C172.86 170.221 175.442 174.592 176.048 183.835C176.251 186.613 177.118 189.301 178.577 191.668C180.264 194.452 181.691 197.385 182.835 200.43C195.131 211.651 228.943 208.91 236.336 201.574C238.183 199.741 238.881 197.203 236.831 192.053C231.306 178.161 224.104 139.473 224.104 139.473C271.92 187.436 288.603 207.392 276.535 233.332C263.563 261.228 215.295 271.059 164.077 254.17C164.077 254.159 138.814 246.78 125.698 226.616Z" fill="url(#paint0_linear_225_15452)"/>
<path d="M125.312 192.473C126.183 192.514 127.037 192.698 127.844 193.015C127.163 192.335 135.347 199.325 140.92 202.088C141.811 202.528 141.026 203.823 140.135 203.383C134.572 200.624 129.552 196.93 125.318 192.473" fill="#66B1FF"/>
<path d="M123.318 213.744C123.57 213.271 123.897 212.845 124.283 212.473C129.307 217.99 135.28 222.576 141.917 226.029C142.818 226.497 142.019 227.843 141.113 227.375C134.422 223.896 128.401 219.288 123.312 213.75" fill="#66B1FF"/>
<path d="M105.428 181.055C108.725 187.111 104.785 192.58 100.441 196.345C104.642 194.278 109.421 193.355 111.644 198.006C114.674 204.356 112.446 209.302 105.482 214.69C108.571 213.147 112.292 212.501 114.174 216.725C118.826 227.172 107.715 235.289 107.715 235.289C106.444 240.63 101.536 242.494 97.2938 242.472C83.247 242.414 79.2755 227.262 79.3128 212.762C79.3553 196.682 82.4176 190.257 84.5603 186.652C86.772 182.914 93.8167 177.477 99.447 177.477C101.967 177.386 104.307 178.785 105.428 181.055Z" fill="url(#paint1_linear_225_15452)"/>
<path d="M94.5715 199.07C97.4591 196.387 100.746 194.165 104.313 192.473C103.303 193.746 102.167 194.92 100.92 195.973C101.215 195.832 97.4748 198.484 95.5603 200.271C94.8292 200.952 93.8404 199.746 94.5662 199.086" fill="#66B1FF"/>
<path d="M98.9 217.056C101.3 216.492 103.618 215.639 105.795 214.527C106.891 213.982 108.081 213.625 109.313 213.473C106.413 215.87 102.942 217.576 99.1962 218.448C98.235 218.674 97.9439 217.262 98.9 217.041" fill="#66B1FF"/>
<path d="M183.313 112.564C183.313 112.564 170.08 111.459 166.346 116.92C165.918 117.55 169.626 119.825 173.871 119.426C175.072 119.313 178.132 118.256 180.467 115.874" fill="#ED7865"/>
<mask id="mask0_225_15452" style="mask-type:luminance" maskUnits="userSpaceOnUse" x="187" y="68" width="17" height="17">
<path d="M187.506 74.7133C186.55 79.0229 189.235 83.2943 193.497 84.2599C193.513 84.2599 193.53 84.2654 193.551 84.2708C197.841 85.2527 202.114 82.5579 203.119 78.232C204.075 73.9224 201.39 69.651 197.128 68.6854C197.112 68.6854 197.095 68.68 197.074 68.6745C192.784 67.6926 188.511 70.3874 187.506 74.7133Z" fill="white"/>
</mask>
<g mask="url(#mask0_225_15452)">
<path d="M200.313 78.4727C200.313 81.7845 197.624 84.4727 194.313 84.4727C191.001 84.4727 188.312 81.7845 188.312 78.4727C188.312 75.1608 191.001 72.4727 194.313 72.4727C197.624 72.4727 200.313 75.1608 200.313 78.4727Z" fill="#333333"/>
</g>
<mask id="mask1_225_15452" style="mask-type:luminance" maskUnits="userSpaceOnUse" x="154" y="59" width="17" height="17">
<path d="M154.504 65.7229C153.552 70.0331 156.24 74.3051 160.511 75.2653C160.522 75.2653 160.533 75.2653 160.543 75.2708C164.837 76.2529 169.113 73.5576 170.119 69.2311C171.076 64.9209 168.389 60.6489 164.123 59.6832C164.107 59.6832 164.09 59.6777 164.069 59.6723C159.776 58.6957 155.504 61.3963 154.504 65.7229Z" fill="white"/>
</mask>
<g mask="url(#mask1_225_15452)">
<path d="M167.313 69.4727C167.313 72.7859 164.85 75.4727 161.812 75.4727C158.775 75.4727 156.312 72.7859 156.312 69.4727C156.312 66.1594 158.775 63.4727 161.812 63.4727C164.85 63.4727 167.313 66.1594 167.313 69.4727Z" fill="#333333"/>
</g>
<path d="M202.313 85.8885C202.313 85.8885 195.307 80.0411 184.312 79.4727V83.1042L200.175 90.4727L202.313 85.8885Z" fill="#66B1FF"/>
<path d="M170.313 75.9706C170.313 75.9706 162.028 70.9638 150.312 72.9304L152.697 76.6416L169.706 77.4727L170.313 75.9706Z" fill="#66B1FF"/>
</g>
<path d="M142.312 140.473C142.202 139.66 141.504 137.765 139.595 136.692C137.686 135.618 135.797 135.943 135.091 136.239" stroke="#0647C7" stroke-width="1.16549" stroke-linecap="round"/>
<path d="M148.312 129.473C147.581 129.936 145.549 130.73 143.279 130.2C141.009 129.669 139.873 128.232 139.588 127.58" stroke="#0647C7" stroke-width="1.16549" stroke-linecap="round"/>
<path d="M143.312 134.473C139.607 133.12 139.019 132.549 137.763 131.918" stroke="#0647C7" stroke-width="1.16549" stroke-linecap="round"/>
<path d="M151.312 136.473C147.467 135.593 146.813 135.099 145.489 134.63" stroke="#0647C7" stroke-width="1.16549" stroke-linecap="round"/>
</g>
<path d="M69.0419 108.01C87.0357 103.971 115.848 96.9804 124.891 100.176C133.934 103.371 138.612 122.538 134.586 130.249C131.568 136.029 127.949 137.996 74.0853 149.581C37.0736 157.543 31.642 157.88 24.3999 154.823C17.1578 151.766 11.7731 133.588 17.6877 125.839C25.9065 115.074 52.0619 111.821 69.0419 108.01Z" fill="#0647C7"/>
<path d="M36.5081 125.045C36.4475 124.771 36.4939 124.52 36.6473 124.292C36.8094 124.061 37.0319 123.915 37.3146 123.853C37.5442 123.802 37.7621 123.823 37.968 123.917C38.1721 124.001 38.3848 124.168 38.6063 124.415L41.6849 127.78L42.4462 123.554C42.5074 123.244 42.6038 123.009 42.7355 122.85C42.8671 122.692 43.0611 122.584 43.3172 122.528C43.5734 122.471 43.8065 122.498 44.0163 122.609C44.2243 122.712 44.3585 122.9 44.419 123.174C44.4542 123.333 44.4495 123.542 44.4051 123.802L43.1484 130.125C42.9796 130.996 42.7262 131.672 42.3881 132.155C42.048 132.628 41.5555 132.936 40.9106 133.078C40.7428 133.115 40.5568 133.133 40.3527 133.132C40.1133 133.139 39.8891 133.068 39.6803 132.919C39.4714 132.771 39.3396 132.573 39.285 132.325C39.2596 132.211 39.2587 132.081 39.2824 131.937C39.3318 131.657 39.4655 131.466 39.6835 131.362C39.9083 131.248 40.1621 131.159 40.4448 131.097C40.6214 131.058 40.7594 130.99 40.8586 130.894C40.9578 130.798 41.0291 130.639 41.0726 130.416L41.1303 130.112L36.8474 125.637C36.6661 125.446 36.553 125.248 36.5081 125.045ZM47.4116 127.071C47.4721 127.345 47.5744 127.536 47.7186 127.643C47.8627 127.75 48.0319 127.782 48.2263 127.739C48.3323 127.716 48.4584 127.679 48.6047 127.628C48.749 127.568 48.8649 127.505 48.9523 127.44L48.6067 125.876C48.55 125.62 48.5949 125.383 48.7414 125.166C48.8947 124.937 49.1216 124.79 49.4219 124.724C49.7135 124.659 49.9681 124.7 50.1858 124.847C50.4015 124.984 50.5377 125.181 50.5943 125.437L51.5463 129.744C51.6029 130 51.5546 130.242 51.4012 130.471C51.2548 130.688 51.0402 130.828 50.7575 130.891C50.4748 130.953 50.2168 130.917 49.9834 130.784C49.7569 130.639 49.6153 130.439 49.5587 130.183L49.336 129.176C49.1769 129.294 48.983 129.402 48.7543 129.499C48.5343 129.593 48.3051 129.667 48.0666 129.72C47.6602 129.81 47.304 129.833 46.9979 129.789C46.6986 129.735 46.4382 129.625 46.2166 129.461C46.0019 129.286 45.8226 129.062 45.6786 128.788C45.5416 128.503 45.432 128.175 45.35 127.804L45.1069 126.704C45.0502 126.448 45.0976 126.202 45.249 125.964C45.4073 125.716 45.6542 125.555 45.9899 125.481C46.2903 125.415 46.5537 125.454 46.7803 125.599C47.0137 125.732 47.1587 125.927 47.2153 126.183L47.4116 127.071ZM54.7593 130.007C54.2204 130.126 53.7328 130.058 53.2964 129.802C52.8669 129.536 52.5848 129.098 52.45 128.488C52.3758 128.152 52.3688 127.848 52.4289 127.576C52.4891 127.303 52.5988 127.066 52.758 126.864C52.9152 126.653 53.1132 126.48 53.3518 126.344C53.5992 126.206 53.8687 126.104 54.1602 126.04C54.4252 125.981 54.6681 125.97 54.8889 126.004C55.1165 126.028 55.2867 126.065 55.3995 126.114L55.3732 125.995C55.3048 125.685 55.1799 125.477 54.9985 125.369C54.824 125.25 54.6086 125.218 54.3524 125.275C54.1934 125.31 54.0462 125.356 53.9107 125.414C53.7821 125.461 53.6598 125.516 53.544 125.578C53.5037 125.606 53.4659 125.623 53.4306 125.631C53.3952 125.639 53.3599 125.647 53.3246 125.655C53.1567 125.692 52.9958 125.676 52.8418 125.608C52.6967 125.539 52.5736 125.422 52.4727 125.259C52.4326 125.203 52.4037 125.135 52.3861 125.056C52.3471 124.879 52.3693 124.707 52.4529 124.541C52.5434 124.363 52.6736 124.219 52.8435 124.107C52.9888 124.01 53.1803 123.912 53.4179 123.814C53.6643 123.713 53.92 123.633 54.185 123.575C55.0949 123.374 55.7842 123.453 56.2529 123.813C56.7215 124.173 57.0447 124.755 57.2224 125.559L57.8288 128.301C57.8991 128.619 57.8645 128.882 57.7249 129.089C57.5853 129.295 57.4095 129.422 57.1975 129.469C56.9413 129.526 56.7333 129.507 56.5734 129.412C56.4136 129.318 56.2803 129.176 56.1735 128.986C56.0741 129.249 55.8958 129.469 55.6385 129.646C55.3792 129.815 55.0862 129.935 54.7593 130.007ZM55.6632 127.306C55.4484 127.215 55.1819 127.204 54.8639 127.274C54.6961 127.311 54.5679 127.381 54.4795 127.484C54.3891 127.578 54.3605 127.7 54.3937 127.851C54.423 127.983 54.5004 128.082 54.626 128.147C54.7515 128.212 54.8982 128.226 55.066 128.189C55.2692 128.144 55.4204 128.073 55.5196 127.977C55.6257 127.87 55.7009 127.77 55.7452 127.677L55.6632 127.306ZM62.5552 123.853C62.4227 123.882 62.2578 123.891 62.0606 123.879C61.9576 123.874 61.8555 123.873 61.7544 123.877C61.6622 123.879 61.5675 123.891 61.4703 123.912C61.3113 123.947 61.1626 124.008 61.0241 124.094C60.8856 124.18 60.7673 124.294 60.669 124.436C60.5687 124.57 60.4964 124.725 60.4521 124.901C60.4166 125.076 60.4222 125.269 60.4691 125.481C60.514 125.684 60.5938 125.857 60.7084 125.998C60.8231 126.139 60.955 126.254 61.104 126.341C61.2511 126.42 61.4066 126.474 61.5705 126.503C61.7412 126.52 61.9061 126.512 62.0651 126.477C62.1887 126.449 62.3051 126.41 62.4141 126.358C62.523 126.306 62.6212 126.247 62.7086 126.182C62.7892 126.127 62.8717 126.081 62.9561 126.044C63.0386 125.998 63.124 125.965 63.2123 125.946C63.495 125.883 63.755 125.969 63.9922 126.204C64.1137 126.335 64.1921 126.48 64.2272 126.639C64.2663 126.815 64.2573 126.984 64.2002 127.145C64.1431 127.306 64.058 127.445 63.945 127.563C63.778 127.729 63.5487 127.886 63.2571 128.034C62.9743 128.18 62.6607 128.291 62.3162 128.367C61.8215 128.476 61.3543 128.5 60.9148 128.44C60.4752 128.379 60.0838 128.244 59.7406 128.032C59.3974 127.821 59.1033 127.538 58.8583 127.185C58.6222 126.829 58.4524 126.417 58.3489 125.949C58.2532 125.516 58.2385 125.093 58.3047 124.68C58.3709 124.267 58.5097 123.889 58.7211 123.546C58.9393 123.192 59.2252 122.893 59.5787 122.648C59.9303 122.394 60.3402 122.216 60.8084 122.113C61.1441 122.039 61.4557 122.002 61.7433 122.004C62.0308 122.005 62.2771 122.029 62.4821 122.077C62.6764 122.117 62.8377 122.197 62.9661 122.317C63.0926 122.428 63.1734 122.563 63.2085 122.722C63.2398 122.864 63.2332 123.023 63.1889 123.199C63.0933 123.563 62.8821 123.781 62.5552 123.853ZM68.5049 126C68.5616 126.256 68.5132 126.499 68.3599 126.727C68.2134 126.945 67.9989 127.085 67.7162 127.147C67.4335 127.209 67.1754 127.174 66.942 127.04C66.7155 126.895 66.5739 126.695 66.5173 126.439L65.8143 123.259L65.0192 123.434C64.763 123.491 64.5217 123.447 64.2952 123.302C64.0755 123.147 63.9345 122.928 63.872 122.645C63.8095 122.363 63.8461 122.109 63.9817 121.885C64.1243 121.649 64.3237 121.503 64.5798 121.447L68.1576 120.657C68.4138 120.6 68.6517 120.65 68.8713 120.805C69.0979 120.95 69.2424 121.163 69.3049 121.446C69.3674 121.729 69.3273 121.988 69.1848 122.223C69.0491 122.447 68.8532 122.588 68.597 122.645L67.8019 122.82L68.5049 126ZM72.6214 119.588C73.5313 119.387 74.2575 119.361 74.8 119.51C75.3406 119.65 75.6724 119.999 75.7954 120.555C75.8364 120.741 75.8426 120.915 75.814 121.079C75.7853 121.243 75.7307 121.394 75.6501 121.532C75.5783 121.668 75.4884 121.786 75.3803 121.884C75.2703 121.973 75.1564 122.044 75.0386 122.098C75.435 122.131 75.7611 122.244 76.0171 122.438C76.2798 122.621 76.4464 122.871 76.5167 123.189C76.6534 123.807 76.514 124.329 76.0984 124.755C75.6897 125.169 74.9862 125.486 73.988 125.707C73.7671 125.756 73.5056 125.809 73.2033 125.866C72.9098 125.922 72.6198 125.972 72.3332 126.017C72.0642 126.057 71.8219 126.009 71.6062 125.871C71.3885 125.725 71.2503 125.519 71.1918 125.254L70.2866 121.16C70.23 120.904 70.2695 120.663 70.4052 120.439C70.5497 120.212 70.7481 120.062 71.0004 119.988C71.2458 119.924 71.5044 119.858 71.7763 119.789C72.057 119.717 72.3388 119.651 72.6214 119.588ZM73.0417 124.193C73.1144 124.186 73.2321 124.174 73.395 124.156C73.5648 124.128 73.7204 124.098 73.8618 124.067C74.0473 124.026 74.1842 123.954 74.2727 123.851C74.368 123.738 74.4029 123.623 74.3776 123.509C74.3112 123.208 74.0174 123.116 73.4962 123.231L72.8601 123.371L73.0417 124.193ZM72.5965 122.179L73.259 122.032C73.4092 121.999 73.5437 121.937 73.6626 121.846C73.7794 121.746 73.8193 121.612 73.7822 121.444C73.7568 121.329 73.6912 121.242 73.5853 121.182C73.4774 121.113 73.3351 121.098 73.1585 121.137C73.0966 121.151 73.0269 121.171 72.9494 121.197C72.8699 121.215 72.7913 121.237 72.7138 121.263C72.6431 121.279 72.5778 121.298 72.518 121.32C72.4649 121.332 72.4296 121.34 72.4119 121.344L72.5965 122.179ZM81.1842 124.202C80.6718 124.315 80.1949 124.337 79.7533 124.267C79.3118 124.198 78.9141 124.054 78.5601 123.836C78.2149 123.616 77.9208 123.333 77.6778 122.988C77.4437 122.642 77.2768 122.243 77.1772 121.793C77.0776 121.342 77.0609 120.91 77.1271 120.497C77.2022 120.082 77.3498 119.702 77.57 119.357C77.799 119.01 78.0991 118.712 78.4703 118.464C78.8416 118.215 79.2833 118.034 79.7957 117.921C80.3081 117.808 80.785 117.786 81.2265 117.855C81.6681 117.925 82.0614 118.069 82.4066 118.29C82.7606 118.508 83.0547 118.79 83.2888 119.137C83.5318 119.482 83.7031 119.88 83.8027 120.33C83.9023 120.781 83.9146 121.213 83.8395 121.628C83.7733 122.041 83.6257 122.421 83.3967 122.768C83.1765 123.113 82.8808 123.41 82.5095 123.659C82.1383 123.908 81.6965 124.088 81.1842 124.202ZM80.2058 119.776C79.8878 119.846 79.6349 120.023 79.4472 120.305C79.2575 120.578 79.2075 120.918 79.2974 121.325C79.3813 121.704 79.5645 121.988 79.8469 122.176C80.1293 122.364 80.4384 122.421 80.7741 122.347C81.1098 122.272 81.3681 122.1 81.5489 121.828C81.7278 121.548 81.7724 121.204 81.6825 120.798C81.5966 120.409 81.4134 120.126 81.133 119.947C80.8506 119.759 80.5415 119.702 80.2058 119.776ZM86.8041 116.457C87.714 116.256 88.4402 116.23 88.9827 116.379C89.5233 116.519 89.855 116.868 89.9781 117.424C90.0191 117.61 90.0253 117.784 89.9966 117.948C89.968 118.112 89.9134 118.263 89.8327 118.401C89.7609 118.538 89.671 118.655 89.563 118.753C89.453 118.842 89.3391 118.913 89.2212 118.967C89.6177 119 89.9438 119.113 90.1997 119.307C90.4625 119.49 90.6291 119.74 90.6994 120.058C90.8361 120.677 90.6966 121.198 90.2811 121.624C89.8724 122.038 89.1689 122.356 88.1707 122.576C87.9498 122.625 87.6882 122.678 87.3859 122.735C87.0925 122.791 86.8024 122.841 86.5158 122.886C86.2469 122.926 86.0046 122.878 85.7888 122.74C85.5711 122.594 85.433 122.388 85.3744 122.123L84.4693 118.029C84.4127 117.773 84.4522 117.532 84.5879 117.308C84.7324 117.081 84.9307 116.931 85.183 116.857C85.4284 116.793 85.6871 116.727 85.959 116.658C86.2397 116.587 86.5214 116.52 86.8041 116.457ZM87.2244 121.062C87.297 121.055 87.4148 121.043 87.5777 121.025C87.7475 120.997 87.9031 120.967 88.0444 120.936C88.2299 120.895 88.3669 120.823 88.4553 120.72C88.5507 120.607 88.5856 120.492 88.5602 120.378C88.4938 120.077 88.2 119.985 87.6788 120.1L87.0428 120.24L87.2244 121.062ZM86.7792 119.048L87.4417 118.901C87.5919 118.868 87.7264 118.806 87.8452 118.715C87.9621 118.615 88.002 118.481 87.9649 118.313C87.9395 118.199 87.8739 118.111 87.7679 118.051C87.6601 117.982 87.5178 117.967 87.3411 118.006C87.2793 118.02 87.2096 118.04 87.132 118.066C87.0525 118.084 86.974 118.106 86.8965 118.132C86.8258 118.148 86.7605 118.167 86.7006 118.189C86.6476 118.201 86.6123 118.209 86.5946 118.213L86.7792 119.048ZM93.9299 121.36C93.391 121.479 92.9034 121.411 92.467 121.155C92.0375 120.888 91.7553 120.45 91.6206 119.841C91.5464 119.505 91.5393 119.201 91.5995 118.928C91.6597 118.656 91.7694 118.418 91.9285 118.217C92.0858 118.006 92.2837 117.832 92.5223 117.696C92.7698 117.558 93.0393 117.457 93.3308 117.393C93.5958 117.334 93.8387 117.322 94.0594 117.357C94.2871 117.381 94.4573 117.417 94.5701 117.467L94.5437 117.347C94.4754 117.038 94.3505 116.83 94.1691 116.721C93.9945 116.602 93.7792 116.571 93.523 116.628C93.364 116.663 93.2167 116.709 93.0812 116.767C92.9526 116.814 92.8304 116.869 92.7145 116.931C92.6743 116.959 92.6365 116.976 92.6011 116.984C92.5658 116.992 92.5305 117 92.4951 117.008C92.3273 117.045 92.1664 117.029 92.0124 116.961C91.8672 116.891 91.7442 116.775 91.6433 116.612C91.6031 116.556 91.5742 116.488 91.5567 116.409C91.5176 116.232 91.5399 116.06 91.6235 115.894C91.714 115.716 91.8441 115.572 92.014 115.46C92.1594 115.363 92.3508 115.265 92.5884 115.166C92.8349 115.066 93.0906 114.986 93.3556 114.928C94.2655 114.727 94.9548 114.806 95.4234 115.166C95.8921 115.526 96.2153 116.108 96.393 116.911L96.9994 119.654C97.0697 119.972 97.035 120.235 96.8954 120.441C96.7559 120.648 96.5801 120.775 96.3681 120.822C96.1119 120.878 95.9039 120.859 95.744 120.765C95.5842 120.671 95.4509 120.529 95.3441 120.339C95.2447 120.602 95.0663 120.822 94.809 120.999C94.5498 121.168 94.2567 121.288 93.9299 121.36ZM94.8337 118.659C94.6189 118.568 94.3525 118.557 94.0345 118.627C93.8666 118.664 93.7385 118.734 93.6501 118.837C93.5597 118.931 93.5311 119.053 93.5643 119.203C93.5936 119.336 93.671 119.435 93.7965 119.5C93.9221 119.565 94.0688 119.578 94.2366 119.541C94.4398 119.497 94.591 119.426 94.6902 119.33C94.7963 119.223 94.8715 119.123 94.9157 119.03L94.8337 118.659ZM101.581 118.698C101.637 118.955 101.589 119.197 101.436 119.425C101.289 119.643 101.074 119.783 100.792 119.845C100.509 119.908 100.251 119.872 100.018 119.738C99.7911 119.594 99.6496 119.393 99.5929 119.137L98.8899 115.957L98.0949 116.133C97.8387 116.189 97.5973 116.145 97.3708 116.001C97.1512 115.845 97.0101 115.626 96.9476 115.344C96.8851 115.061 96.9217 114.807 97.0574 114.583C97.1999 114.348 97.3993 114.202 97.6555 114.145L101.233 113.355C101.489 113.299 101.727 113.348 101.947 113.504C102.174 113.648 102.318 113.862 102.38 114.144C102.443 114.427 102.403 114.686 102.26 114.921C102.125 115.146 101.929 115.286 101.673 115.343L100.878 115.518L101.581 118.698ZM106.141 113.731C106.663 113.616 107.109 113.582 107.481 113.63C107.862 113.675 108.176 113.777 108.424 113.936C108.681 114.092 108.882 114.289 109.027 114.525C109.172 114.762 109.274 115.013 109.332 115.278C109.397 115.569 109.408 115.873 109.367 116.187C109.334 116.5 109.228 116.797 109.049 117.077C108.879 117.356 108.624 117.607 108.285 117.83C107.954 118.051 107.528 118.219 107.006 118.334L105.403 118.688C105.147 118.745 104.906 118.705 104.682 118.57C104.464 118.423 104.327 118.222 104.27 117.966L103.348 113.792C103.291 113.536 103.336 113.299 103.482 113.081C103.636 112.853 103.854 112.707 104.136 112.645C104.419 112.583 104.674 112.624 104.9 112.768C105.134 112.902 105.279 113.097 105.335 113.353L105.452 113.883L106.141 113.731ZM106.082 116.732L106.586 116.621C106.851 116.562 107.033 116.466 107.134 116.333C107.241 116.189 107.273 116.02 107.23 115.825C107.187 115.631 107.091 115.49 106.942 115.403C106.802 115.313 106.595 115.299 106.321 115.359L105.804 115.473L106.082 116.732ZM47.6552 137.389C48.5651 137.188 49.2913 137.162 49.8338 137.311C50.3744 137.451 50.7061 137.799 50.8292 138.356C50.8702 138.541 50.8764 138.716 50.8477 138.879C50.8191 139.043 50.7645 139.194 50.6838 139.333C50.612 139.469 50.5221 139.586 50.4141 139.684C50.3041 139.773 50.1902 139.845 50.0723 139.898C50.4688 139.931 50.7949 140.045 51.0508 140.238C51.3136 140.421 51.4802 140.672 51.5505 140.99C51.6872 141.608 51.5477 142.13 51.1322 142.555C50.7235 142.969 50.02 143.287 49.0218 143.507C48.8009 143.556 48.5393 143.609 48.237 143.667C47.9436 143.722 47.6535 143.772 47.3669 143.817C47.098 143.858 46.8557 143.809 46.6399 143.672C46.4223 143.525 46.2841 143.319 46.2255 143.054L45.3204 138.96C45.2638 138.704 45.3033 138.464 45.439 138.239C45.5835 138.013 45.7819 137.862 46.0341 137.788C46.2795 137.725 46.5382 137.658 46.8101 137.589C47.0908 137.518 47.3725 137.451 47.6552 137.389ZM48.0755 141.993C48.1481 141.986 48.2659 141.974 48.4288 141.957C48.5986 141.928 48.7542 141.899 48.8955 141.867C49.081 141.826 49.218 141.755 49.3064 141.652C49.4018 141.538 49.4367 141.424 49.4113 141.309C49.3449 141.009 49.0511 140.916 48.5299 141.031L47.8939 141.171L48.0755 141.993ZM47.6303 139.979L48.2928 139.833C48.443 139.799 48.5775 139.737 48.6963 139.646C48.8132 139.546 48.8531 139.412 48.816 139.245C48.7906 139.13 48.725 139.042 48.6191 138.982C48.5112 138.914 48.3689 138.899 48.1922 138.938C48.1304 138.951 48.0607 138.971 47.9831 138.998C47.9036 139.015 47.8251 139.037 47.7476 139.064C47.6769 139.079 47.6116 139.098 47.5517 139.121C47.4987 139.132 47.4634 139.14 47.4457 139.144L47.6303 139.979ZM57.2266 138.694L57.666 140.682C57.7226 140.938 57.6743 141.18 57.5209 141.409C57.3745 141.626 57.1599 141.766 56.8772 141.829C56.5945 141.891 56.3365 141.855 56.1031 141.722C55.8766 141.577 55.735 141.377 55.6784 141.121L54.7264 136.814C54.6697 136.558 54.7146 136.321 54.8611 136.104C55.0144 135.875 55.2324 135.73 55.5151 135.667C55.7978 135.605 56.0524 135.646 56.2789 135.791C56.5124 135.924 56.6574 136.119 56.714 136.375L57.1329 138.27L57.9275 135.83C57.9974 135.601 58.0992 135.412 58.2328 135.262C58.3645 135.103 58.5452 134.998 58.7749 134.948C59.1017 134.876 59.374 134.913 59.5917 135.059C59.8182 135.204 59.9598 135.404 60.0164 135.66C60.0633 135.872 60.0419 136.09 59.9524 136.314L59.3236 137.87L60.8338 139.232C61.0181 139.395 61.1357 139.592 61.1864 139.821C61.245 140.086 61.204 140.341 61.0634 140.585C60.9316 140.827 60.7156 140.981 60.4152 141.048C60.159 141.104 59.9388 141.093 59.7544 141.013C59.5788 140.931 59.4033 140.808 59.2278 140.643L57.2266 138.694ZM65.2762 140.002C64.7639 140.115 64.2869 140.137 63.8454 140.068C63.4039 139.999 63.0061 139.855 62.6521 139.637C62.3069 139.416 62.0128 139.134 61.7699 138.789C61.5357 138.442 61.3688 138.044 61.2693 137.593C61.1697 137.143 61.153 136.711 61.2192 136.298C61.2942 135.883 61.4418 135.503 61.662 135.158C61.8911 134.811 62.1912 134.513 62.5624 134.264C62.9336 134.016 63.3754 133.835 63.8878 133.722C64.4001 133.609 64.8771 133.587 65.3186 133.656C65.7601 133.725 66.1534 133.87 66.4986 134.09C66.8526 134.309 67.1467 134.591 67.3809 134.938C67.6239 135.283 67.7951 135.68 67.8947 136.131C67.9943 136.581 68.0066 137.014 67.9316 137.429C67.8654 137.842 67.7177 138.222 67.4887 138.569C67.2685 138.914 66.9728 139.211 66.6016 139.46C66.2304 139.708 65.7886 139.889 65.2762 140.002ZM64.2979 135.577C63.9798 135.647 63.727 135.823 63.5392 136.106C63.3495 136.379 63.2996 136.719 63.3894 137.125C63.4734 137.505 63.6566 137.789 63.939 137.977C64.2214 138.165 64.5304 138.221 64.8661 138.147C65.2018 138.073 65.4601 137.9 65.641 137.629C65.8199 137.348 65.8644 137.005 65.7746 136.599C65.6887 136.21 65.5055 135.926 65.225 135.747C64.9426 135.56 64.6335 135.503 64.2979 135.577ZM72.4557 132.9C72.3991 132.644 72.444 132.407 72.5905 132.19C72.7438 131.961 72.9618 131.816 73.2445 131.753C73.5272 131.691 73.7818 131.732 74.0083 131.877C74.2417 132.01 74.3867 132.205 74.4434 132.462L75.3954 136.768C75.452 137.024 75.4037 137.266 75.2503 137.495C75.1039 137.712 74.8893 137.852 74.6066 137.915C74.3239 137.977 74.0659 137.941 73.8325 137.808C73.6059 137.663 73.4644 137.463 73.4077 137.207L73.1295 135.948L71.2081 136.372L71.4863 137.631C71.543 137.887 71.4946 138.129 71.3413 138.358C71.1948 138.575 70.9802 138.715 70.6976 138.778C70.4149 138.84 70.1568 138.804 69.9234 138.671C69.6969 138.526 69.5553 138.326 69.4987 138.07L68.5467 133.763C68.4901 133.507 68.535 133.27 68.6814 133.053C68.8348 132.824 69.0528 132.679 69.3355 132.616C69.6182 132.554 69.8728 132.595 70.0993 132.74C70.3327 132.873 70.4777 133.068 70.5343 133.325L70.798 134.517L72.7194 134.093L72.4557 132.9ZM78.3971 134.021L78.8365 136.008C78.8931 136.264 78.8448 136.507 78.6914 136.735C78.545 136.953 78.3304 137.093 78.0477 137.155C77.765 137.218 77.507 137.182 77.2736 137.048C77.047 136.904 76.9055 136.703 76.8488 136.447L75.8968 132.141C75.8402 131.885 75.8851 131.648 76.0316 131.43C76.1849 131.202 76.4029 131.056 76.6856 130.994C76.9683 130.931 77.2229 130.972 77.4494 131.117C77.6828 131.251 77.8278 131.446 77.8845 131.702L78.3034 133.597L79.098 131.156C79.1679 130.928 79.2697 130.738 79.4033 130.588C79.535 130.43 79.7157 130.325 79.9453 130.274C80.2722 130.202 80.5445 130.239 80.7622 130.386C80.9887 130.53 81.1303 130.731 81.1869 130.987C81.2338 131.199 81.2124 131.417 81.1229 131.64L80.4941 133.196L82.0043 134.558C82.1886 134.722 82.3061 134.918 82.3569 135.148C82.4155 135.413 82.3745 135.667 82.2339 135.911C82.1021 136.154 81.8861 136.308 81.5857 136.374C81.3295 136.431 81.1092 136.419 80.9248 136.339C80.7493 136.258 80.5738 136.134 80.3983 135.969L78.3971 134.021ZM85.7137 131.933C85.7979 132.063 85.868 132.191 85.9238 132.317C85.9884 132.442 86.054 132.571 86.1206 132.705C86.1089 132.568 86.0973 132.432 86.0857 132.296C86.0721 132.15 86.0708 131.998 86.0818 131.838L86.2344 129.636C86.2493 129.411 86.3261 129.213 86.4647 129.044C86.612 128.872 86.7962 128.762 87.017 128.713C87.3527 128.639 87.6358 128.683 87.8662 128.845C88.0947 128.999 88.2382 129.208 88.2968 129.473C88.328 129.614 88.3318 129.757 88.3081 129.901L87.5283 134.923C87.4354 135.509 87.3333 135.99 87.222 136.367C87.1126 136.752 86.9822 137.063 86.8308 137.301C86.6903 137.545 86.5262 137.725 86.3386 137.84C86.1618 137.963 85.9586 138.049 85.7289 138.1C85.5788 138.133 85.4335 138.147 85.2932 138.14C85.1529 138.134 85.0194 138.117 84.8929 138.09C84.7271 138.052 84.5844 137.973 84.4648 137.851C84.354 137.727 84.2811 137.586 84.2459 137.427C84.2205 137.312 84.2148 137.202 84.2286 137.097C84.2692 136.819 84.3754 136.629 84.5472 136.526C84.7191 136.424 84.9154 136.348 85.1363 136.299C85.2776 136.268 85.3827 136.198 85.4515 136.09C85.5291 135.981 85.5823 135.844 85.6109 135.68L85.6731 135.333L82.6439 131.249C82.5528 131.13 82.4887 130.987 82.4516 130.819C82.3891 130.536 82.437 130.271 82.5952 130.023C82.7604 129.764 83.0064 129.598 83.3332 129.526C83.5894 129.47 83.8117 129.49 84 129.588C84.1952 129.674 84.3506 129.811 84.4661 129.999L85.7137 131.933ZM92.149 131.888C92.3187 131.943 92.4693 131.975 92.6008 131.983C92.7392 131.98 92.9144 131.955 93.1264 131.909C93.5593 131.813 93.849 131.615 93.9955 131.314C94.1489 131.002 94.1846 130.661 94.1026 130.29C94.0265 129.945 93.8604 129.676 93.6045 129.482C93.3575 129.287 93.044 129.231 92.6641 129.315C92.2931 129.397 91.9876 129.649 91.7477 130.073L92.149 131.888ZM90.3399 127.98C90.5872 127.925 90.7889 127.936 90.9448 128.013C91.1096 128.088 91.2454 128.178 91.3523 128.284C91.485 128.088 91.68 127.901 91.9373 127.724C92.1926 127.538 92.5058 127.404 92.8768 127.322C93.2744 127.234 93.6532 127.23 94.0132 127.308C94.3821 127.384 94.7116 127.533 95.0019 127.756C95.2921 127.98 95.54 128.263 95.7457 128.607C95.9603 128.948 96.1164 129.34 96.214 129.782C96.3136 130.232 96.3278 130.674 96.2567 131.106C96.1924 131.528 96.0512 131.916 95.8329 132.27C95.6235 132.622 95.3386 132.926 94.9782 133.181C94.6266 133.435 94.2079 133.615 93.722 133.723C93.5188 133.768 93.3117 133.795 93.1007 133.804C92.9005 133.821 92.7229 133.814 92.5679 133.783L92.9546 135.532C93.0112 135.788 92.9619 136.026 92.8066 136.246C92.6621 136.472 92.4485 136.616 92.1658 136.679C91.8831 136.741 91.6241 136.701 91.3887 136.559C91.1642 136.423 91.0236 136.227 90.9669 135.971L89.473 129.213C89.4164 128.957 89.4584 128.707 89.599 128.463C89.7484 128.217 89.9954 128.056 90.3399 127.98ZM101.23 127.604C101.097 127.634 100.932 127.642 100.735 127.63C100.632 127.625 100.53 127.625 100.429 127.628C100.337 127.63 100.242 127.642 100.145 127.663C99.9859 127.698 99.8372 127.759 99.6987 127.845C99.5602 127.931 99.4419 128.045 99.3436 128.188C99.2433 128.321 99.171 128.476 99.1267 128.652C99.0912 128.827 99.0968 129.02 99.1437 129.232C99.1886 129.435 99.2684 129.608 99.3831 129.749C99.4977 129.891 99.6296 130.005 99.7786 130.093C99.9258 130.171 100.081 130.225 100.245 130.254C100.416 130.272 100.581 130.263 100.74 130.228C100.863 130.201 100.98 130.161 101.089 130.109C101.198 130.057 101.296 129.999 101.383 129.933C101.464 129.878 101.546 129.832 101.631 129.795C101.713 129.749 101.799 129.716 101.887 129.697C102.17 129.634 102.43 129.721 102.667 129.955C102.788 130.086 102.867 130.231 102.902 130.39C102.941 130.567 102.932 130.735 102.875 130.896C102.818 131.057 102.733 131.196 102.62 131.314C102.453 131.48 102.223 131.638 101.932 131.785C101.649 131.931 101.335 132.042 100.991 132.118C100.496 132.227 100.029 132.252 99.5894 132.191C99.1498 132.131 98.7584 131.995 98.4152 131.783C98.072 131.572 97.7779 131.289 97.533 130.936C97.2969 130.58 97.1271 130.169 97.0236 129.7C96.9279 129.268 96.9131 128.845 96.9793 128.432C97.0455 128.019 97.1843 127.641 97.3957 127.297C97.6139 126.944 97.8998 126.644 98.2534 126.399C98.605 126.146 99.0149 125.967 99.4831 125.864C99.8187 125.79 100.13 125.753 100.418 125.755C100.705 125.756 100.952 125.781 101.157 125.828C101.351 125.868 101.512 125.949 101.641 126.069C101.767 126.18 101.848 126.315 101.883 126.474C101.914 126.615 101.908 126.774 101.863 126.95C101.768 127.314 101.557 127.532 101.23 127.604ZM106.938 126.817C106.893 126.614 106.768 126.447 106.563 126.316C106.365 126.174 106.107 126.139 105.789 126.209C105.453 126.283 105.213 126.41 105.067 126.591C104.922 126.771 104.83 127.004 104.791 127.291L106.938 126.817ZM105.489 124.538C105.869 124.454 106.246 124.44 106.62 124.497C107.002 124.551 107.354 124.673 107.673 124.862C107.993 125.051 108.27 125.3 108.506 125.609C108.741 125.919 108.905 126.285 108.999 126.709L109.058 126.974C109.114 127.23 109.067 127.435 108.916 127.589C108.773 127.741 108.618 127.836 108.45 127.873L105.151 128.601C105.31 128.862 105.528 129.032 105.805 129.11C106.091 129.186 106.397 129.188 106.724 129.115C106.838 129.09 106.965 129.053 107.102 129.004C107.237 128.946 107.38 128.878 107.529 128.799C107.612 128.753 107.697 128.72 107.785 128.7C107.936 128.667 108.082 128.681 108.225 128.742C108.367 128.794 108.485 128.889 108.58 129.025C108.633 129.097 108.671 129.186 108.694 129.292C108.728 129.442 108.712 129.603 108.648 129.775C108.591 129.935 108.484 130.079 108.327 130.207C108.131 130.37 107.901 130.5 107.635 130.596C107.377 130.69 107.125 130.764 106.878 130.819C106.383 130.928 105.92 130.951 105.49 130.889C105.059 130.826 104.672 130.689 104.329 130.478C103.994 130.265 103.705 129.981 103.46 129.628C103.224 129.272 103.054 128.86 102.95 128.392C102.855 127.959 102.84 127.536 102.906 127.123C102.981 126.708 103.124 126.329 103.336 125.986C103.554 125.632 103.844 125.332 104.207 125.085C104.567 124.83 104.995 124.647 105.489 124.538Z" fill="white"/>
<path d="M50.3125 62.4727L51.5146 78.2706L67.3125 79.4727L51.5146 80.6747L50.3125 96.4727L49.1104 80.6747L33.3125 79.4727L49.1104 78.2706L50.3125 62.4727Z" fill="url(#paint2_radial_225_15452)"/>
<path d="M50.3125 62.4727L51.5146 78.2706L67.3125 79.4727L51.5146 80.6747L50.3125 96.4727L49.1104 80.6747L33.3125 79.4727L49.1104 78.2706L50.3125 62.4727Z" fill="url(#paint3_radial_225_15452)"/>
<path opacity="0.1" d="M67.044 191.631L67.0419 191.633L58.2115 200.729L58.2095 200.731L52.8125 206.253L47.4155 200.731L47.4135 200.729L38.5831 191.633L38.581 191.631C35.3595 188.334 35.3595 183.085 38.581 179.789L38.5811 179.789L38.5861 179.784C41.7327 176.508 46.8863 176.501 50.1001 179.789L50.6621 179.24L50.1001 179.789L52.2029 181.94L52.8125 182.564L53.4221 181.94L55.5249 179.789C58.7387 176.501 63.8923 176.508 67.0389 179.784L67.0388 179.784L67.044 179.789C70.2655 183.085 70.2655 188.334 67.044 191.631Z" stroke="#FF0199" stroke-width="1.70479"/>
<path d="M12.75 112.867C12.6464 113.681 12.8306 115.692 14.3966 117.223C15.9626 118.754 17.8712 118.929 18.6297 118.825" stroke="#0647C7" stroke-width="1.16549" stroke-linecap="round"/>
<path d="M4.10938 121.938C4.93623 121.679 7.10381 121.438 9.15926 122.538C11.2147 123.638 11.9405 125.32 12.0464 126.024" stroke="#0647C7" stroke-width="1.16549" stroke-linecap="round"/>
<path d="M4.50781 115.133C8.48652 116.901 13.8876 121.372 14.9369 122.307" stroke="#0647C7" stroke-width="1.16549" stroke-linecap="round"/>
<defs>
<linearGradient id="paint0_linear_225_15452" x1="137.042" y1="246.422" x2="261.427" y2="174.883" gradientUnits="userSpaceOnUse">
<stop stop-color="#0F8AEF"/>
<stop offset="0.37" stop-color="#3D8AE7"/>
<stop offset="0.7" stop-color="#66B1FF"/>
</linearGradient>
<linearGradient id="paint1_linear_225_15452" x1="115.312" y1="209.975" x2="79.3128" y2="209.975" gradientUnits="userSpaceOnUse">
<stop stop-color="#0F8AEF"/>
<stop offset="0.58" stop-color="#408DE9"/>
<stop offset="0.73" stop-color="#4390EA"/>
<stop offset="0.85" stop-color="#4D99F0"/>
<stop offset="0.96" stop-color="#5EAAFA"/>
<stop offset="1" stop-color="#66B1FF"/>
</linearGradient>
<radialGradient id="paint2_radial_225_15452" cx="0" cy="0" r="1" gradientUnits="userSpaceOnUse" gradientTransform="translate(40.2562 65.7419) rotate(49.4615) scale(33.3223 46.0175)">
<stop stop-color="#FF00D6"/>
<stop offset="0.562168" stop-color="#FF004D"/>
<stop offset="1" stop-color="#FF6291"/>
</radialGradient>
<radialGradient id="paint3_radial_225_15452" cx="0" cy="0" r="1" gradientUnits="userSpaceOnUse" gradientTransform="translate(50.3192 69.1529) rotate(136.73) scale(22.433 28.2393)">
<stop stop-color="#FFE7AB"/>
<stop offset="1" stop-color="#FABC22"/>
</radialGradient>
<clipPath id="clip0_225_15452">
<rect width="247" height="223" fill="white" transform="translate(71.3125 0.472656)"/>
</clipPath>
<clipPath id="clip1_225_15452">
<path d="M17.3125 26.4727H281.312V224.473H41.3125C28.0577 224.473 17.3125 213.727 17.3125 200.473V26.4727Z" fill="white"/>
</clipPath>
</defs>
</svg>
