<svg width="264" height="83" viewBox="0 0 264 83" fill="none" xmlns="http://www.w3.org/2000/svg">
<path d="M111 18L105.163 35.9656H86.2725L101.555 47.0689L95.7176 65.0344L111 53.9311L126.282 65.0344L120.445 47.0689L135.727 35.9656H116.837L111 18Z" fill="url(#paint0_radial_102_2623)"/>
<path d="M28.6449 57.721L20.8219 65.6455L15.5 71L10.1781 65.6455L2.35507 57.721C-0.785022 54.5617 -0.785022 49.5288 2.35507 46.3695C5.4416 43.2102 10.4974 43.2102 13.6375 46.3695L15.5 48.2434L17.3625 46.3695C20.5026 43.2102 25.5584 43.2102 28.6449 46.3695C31.785 49.5288 31.785 54.5617 28.6449 57.721Z" fill="url(#paint1_radial_102_2623)"/>
<path d="M28.6449 57.721L20.8219 65.6455L15.5 71L10.1781 65.6455L2.35507 57.721C-0.785022 54.5617 -0.785022 49.5288 2.35507 46.3695C5.4416 43.2102 10.4974 43.2102 13.6375 46.3695L15.5 48.2434L17.3625 46.3695C20.5026 43.2102 25.5584 43.2102 28.6449 46.3695C31.785 49.5288 31.785 54.5617 28.6449 57.721Z" fill="#FF0199"/>
<g filter="url(#filter0_f_102_2623)">
<path d="M246.27 41.3054L246.267 41.3084L229.214 58.4966L229.211 58.4996L218.5 69.223L207.789 58.4996L207.786 58.4966L190.734 41.3084L190.731 41.3054C184.375 34.9419 184.375 24.818 190.731 18.4545L190.731 18.4546L190.738 18.4469C196.971 12.0987 207.192 12.0876 213.551 18.4545L217.612 22.5198L218.5 23.4093L219.389 22.5198L223.449 18.4545C229.809 12.0876 240.029 12.0987 246.262 18.4469L246.262 18.4469L246.27 18.4545C252.626 24.818 252.626 34.9419 246.27 41.3054Z" stroke="#00FFE1" stroke-width="2.51157"/>
</g>
<path d="M246.27 41.3054L246.267 41.3084L229.214 58.4966L229.211 58.4996L218.5 69.223L207.789 58.4996L207.786 58.4966L190.734 41.3084L190.731 41.3054C184.375 34.9419 184.375 24.818 190.731 18.4545L190.731 18.4546L190.738 18.4469C196.971 12.0987 207.192 12.0876 213.551 18.4545L217.612 22.5198L218.5 23.4093L219.389 22.5198L223.449 18.4545C229.809 12.0876 240.029 12.0987 246.262 18.4469L246.262 18.4469L246.27 18.4545C252.626 24.818 252.626 34.9419 246.27 41.3054Z" stroke="#00FFE1" stroke-width="2.51157"/>
<g filter="url(#filter1_f_102_2623)">
<path d="M246.671 41.7062L246.669 41.7078L229.616 58.8974L229.614 58.899L218.5 70.0255L207.387 58.899L207.385 58.8974L190.331 41.7078L190.33 41.7062C183.752 35.1213 183.752 24.6386 190.33 18.0538L190.33 18.0538L190.334 18.0495C196.791 11.473 207.373 11.467 213.953 18.0538L218.013 22.119L218.5 22.6068L218.987 22.119L223.048 18.0538C229.627 11.467 240.21 11.473 246.667 18.0496L246.671 18.0538C253.248 24.6386 253.248 35.1213 246.671 41.7062Z" stroke="#96FFC0" stroke-width="1.37732"/>
</g>
<defs>
<filter id="filter0_f_102_2623" x="173.041" y="0.760089" width="90.9183" height="81.9066" filterUnits="userSpaceOnUse" color-interpolation-filters="sRGB">
<feFlood flood-opacity="0" result="BackgroundImageFix"/>
<feBlend mode="normal" in="SourceGraphic" in2="BackgroundImageFix" result="shape"/>
<feGaussianBlur stdDeviation="5.83333" result="effect1_foregroundBlur_102_2623"/>
</filter>
<filter id="filter1_f_102_2623" x="183.574" y="11.2925" width="69.8535" height="60.8418" filterUnits="userSpaceOnUse" color-interpolation-filters="sRGB">
<feFlood flood-opacity="0" result="BackgroundImageFix"/>
<feBlend mode="normal" in="SourceGraphic" in2="BackgroundImageFix" result="shape"/>
<feGaussianBlur stdDeviation="0.56713" result="effect1_foregroundBlur_102_2623"/>
</filter>
<radialGradient id="paint0_radial_102_2623" cx="0" cy="0" r="1" gradientUnits="userSpaceOnUse" gradientTransform="translate(126.38 23) rotate(130.538) scale(50.9636 70.3798)">
<stop stop-color="#FF3E00"/>
<stop offset="0.0001" stop-color="#FFC800"/>
<stop offset="1" stop-color="#FFDD62"/>
</radialGradient>
<radialGradient id="paint1_radial_102_2623" cx="0" cy="0" r="1" gradientUnits="userSpaceOnUse" gradientTransform="translate(6.33099 46.5962) rotate(45.5219) scale(28.1846 39.3927)">
<stop stop-color="#00F0D6"/>
<stop offset="0.562168" stop-color="#0088F0"/>
<stop offset="1" stop-color="#52B4FF"/>
</radialGradient>
</defs>
</svg>
