<svg width="266" height="183" viewBox="0 0 266 183" fill="none" xmlns="http://www.w3.org/2000/svg">
<g clip-path="url(#clip0_215_14797)">
<path d="M122.444 97.1873C120.219 93.4042 134.222 74.8206 131.038 56.2315C129.484 47.1499 111.015 26.7135 111.015 26.7135C114.488 23.2346 114.549 20.8619 114.549 20.8619C114.077 13.3621 98.1826 6.23834 94.8594 7.00159C91.5362 7.76485 89.9938 11.3156 89.9938 11.3156C42.9916 0.265037 29.4324 25.01 29.4324 25.01C27.1411 20.7789 24.1008 20.3972 22.0369 20.8673C16.7719 22.062 9.07136 32.023 7.48465 39.6722C6.50821 44.3734 15.4959 50.8611 15.4959 50.8611C15.9175 61.2424 10.6692 71.7178 11.4071 82.2319C12.1172 92.3202 29.3158 100.423 28.467 103.902C11.9397 171.82 11.9896 211.211 20.306 234.573C20.306 234.573 -4.31031 298.349 1.03237 311.214C21.5154 313.647 40.4062 319.056 61.1445 320.439C66.2042 307.951 75.5858 274.45 90.1492 266.619C99.3033 268.527 83.7524 307.431 77.4555 322.651C94.7484 323.415 135.271 314.87 134.71 314.637C160.775 313.891 157.795 225.149 157.795 225.149C160.78 181.991 150.123 144.266 122.449 97.1818L122.444 97.1873Z" fill="#66B1FF"/>
<path d="M225.354 61.9149C207.129 71.5662 202.913 76.9145 202.913 76.9145C198.147 72.4788 187.051 65.5597 181.304 69.8517C168.865 79.1324 186.247 89.8013 191.229 94.7735C187.201 154.329 122.445 98.0866 122.445 98.0866L145.619 159.317C194.126 189.949 214.198 180.481 242.703 115.746C242.703 115.746 259.386 114.342 258.886 102.992C258.587 96.2669 254.709 94.3698 254.709 94.3698C254.709 94.3698 257.693 88.8501 254.858 82.0305C251.973 75.0949 242.642 75.8692 242.642 75.8692C242.642 75.8692 267.197 67.0475 261.044 54.5534C256.506 45.339 230.531 59.1772 225.36 61.9149H225.354Z" fill="#66B1FF"/>
<g clip-path="url(#clip1_215_14797)">
<path d="M27.3893 107.922C27.3893 107.922 -10.018 148.343 -31.3388 174.355C-47.844 194.492 -59.93 209.108 -42.9699 231.27C-38.3318 237.332 -28.9447 243.339 -28.9447 243.339L17.0349 202.939V174.355C17.0349 174.355 26.5238 164.945 29.958 140.233C30.9566 133.037 27.3893 107.922 27.3893 107.922Z" fill="#66B1FF"/>
</g>
<path d="M103.317 53.9577C99.7274 47.3649 73.2027 53.305 73.236 53.4654C73.2027 53.3106 46.1952 58.3381 45.1467 66.3246C44.5086 71.1862 43.0773 80.6107 46.4726 85.771C50.2286 91.4788 73.0917 100.229 83.0336 97.9222C92.6316 95.7928 105.819 80.041 106.729 73.2768C107.55 67.1597 105.664 58.2662 103.311 53.9521L103.317 53.9577Z" fill="white"/>
<path d="M44.1419 35.3291C45.4679 33.9685 50.1559 30.2021 59.6817 31.9719C61.6568 32.337 63.8205 35.578 61.0188 37.8788C58.5721 39.8865 46.9492 41.1365 45.0129 40.5004C43.0323 39.8478 42.3444 37.1654 44.1419 35.3236V35.3291Z" fill="#0073E4"/>
<path d="M89.0589 16.795C87.3002 15.7939 81.4527 13.3106 72.9976 17.9786C71.2444 18.9465 70.3456 22.9287 73.8575 24.4607C76.9255 25.7992 88.4819 23.62 90.1019 22.3866C91.7607 21.1201 91.4445 18.1556 89.0589 16.8005V16.795Z" fill="#0073E4"/>
<path d="M74.6525 55.0821C74.6525 55.0821 57.759 58.5886 59.501 63.7378C61.2431 68.887 74.0367 75.076 78.6248 74.1247C84.8663 72.5097 92.4725 62.416 92.0065 56.9957C91.5405 51.5811 74.6525 55.0821 74.6525 55.0821Z" fill="#0073E4"/>
<path d="M64.4175 49.1365C60.9333 45.9231 55.1302 43.4121 50.9359 46.7527C48.8499 48.4119 47.7015 50.9838 46.9137 53.4616C46.5641 54.5567 48.2896 55.0268 48.6391 53.9372C49.6488 50.7515 51.6017 46.9905 55.3965 46.9242C57.7544 46.8855 60.0068 48.058 61.9098 49.4075C62.3925 49.7504 62.6421 49.9218 63.1581 50.3975C64.0014 51.1773 65.2663 49.9163 64.423 49.1365H64.4175Z" fill="#0073E4"/>
<path d="M85.4175 48.2879C89.6306 48.2879 93.046 44.8831 93.046 40.683C93.046 36.4829 89.6306 33.0781 85.4175 33.0781C81.2044 33.0781 77.7891 36.4829 77.7891 40.683C77.7891 44.8831 81.2044 48.2879 85.4175 48.2879Z" fill="white"/>
<path d="M85.415 45.6625C88.1727 45.6625 90.4082 43.4339 90.4082 40.6848C90.4082 37.9356 88.1727 35.707 85.415 35.707C82.6574 35.707 80.4219 37.9356 80.4219 40.6848C80.4219 43.4339 82.6574 45.6625 85.415 45.6625Z" fill="#3B3B3B"/>
<path d="M76.625 51.7704L76.6638 48.6179C76.6638 48.6179 77.8012 45.5427 84.836 44.4255C89.8236 43.6346 93.868 46.0349 93.868 46.0349L94.212 50.3932L76.625 51.7649V51.7704Z" fill="#66B1FF"/>
<path d="M89.3258 77.2368C85.6808 74.6429 78.0413 79.4934 73.6029 78.8739C67.9995 78.0941 59.2282 69.0181 53.8744 70.8488C50.8008 71.8996 48.7814 79.3552 50.0796 82.3197C52.7815 88.4755 65.514 92.1037 72.2548 92.1037C76.0551 92.1037 83.1843 90.9201 86.2745 87.8339C88.416 85.699 91.7891 78.9846 89.3258 77.2313V77.2368Z" fill="white"/>
<path d="M72.2546 92.9325C65.8245 92.9325 52.2819 89.4039 49.3193 82.6507C48.3373 80.4163 49.0031 76.589 50.1626 73.9563C50.8062 72.4962 51.9269 70.6378 53.6079 70.0626C57.0865 68.8679 61.5248 71.5946 65.8134 74.2273C68.6317 75.9585 71.5444 77.7449 73.7192 78.0491C75.4058 78.2814 77.797 77.59 80.1105 76.9208C83.6778 75.8866 87.3616 74.8191 89.8083 76.5558C90.2965 76.8987 90.8957 77.5845 91.0011 78.8787C91.2508 81.8819 88.6765 86.6108 86.8623 88.4194C83.5668 91.7047 76.1548 92.9325 72.2546 92.9325ZM55.4332 71.4342C54.9782 71.4342 54.5455 71.495 54.146 71.6333C53.2917 71.9264 52.3929 73.016 51.6827 74.6255C50.5399 77.2195 50.1681 80.455 50.845 81.987C53.2916 87.5676 65.3529 91.2733 72.2546 91.2733C76.1548 91.2733 82.9011 90.0233 85.6862 87.2468C87.2729 85.665 89.542 81.351 89.3478 79.017C89.3034 78.4805 89.137 78.1154 88.843 77.9108C87.051 76.6387 83.761 77.5956 80.5765 78.5137C77.9801 79.2659 75.5279 79.9794 73.4918 79.6918C70.9674 79.3433 68.0437 77.5458 64.9424 75.6376C61.5637 73.5636 58.0851 71.4287 55.4387 71.4287L55.4332 71.4342Z" fill="#0073E4"/>
<path d="M54.9875 87.6173C54.8544 87.6173 54.7212 87.5841 54.5936 87.5177C54.1886 87.302 54.0388 86.7988 54.2552 86.395L61.351 73.2095C61.5674 72.8057 62.0723 72.6564 62.4773 72.8721C62.8823 73.0878 63.0321 73.5911 62.8157 73.9949L55.7199 87.1803C55.5701 87.4569 55.2816 87.6173 54.9875 87.6173Z" fill="#0073E4"/>
<path d="M66.9631 91.9404C66.9021 91.9404 66.8411 91.9349 66.7801 91.9183C66.3307 91.8187 66.0533 91.3707 66.1531 90.9282L69.1157 77.8423C69.2156 77.3943 69.6595 77.1122 70.1088 77.2173C70.5582 77.3168 70.8356 77.7649 70.7357 78.2073L67.7731 91.2933C67.6844 91.6804 67.3404 91.9404 66.9631 91.9404Z" fill="#0073E4"/>
<path d="M81.9512 90.7116C81.5351 90.7116 81.1745 90.3964 81.1246 89.9761L79.8097 78.4388C79.7598 77.9852 80.0871 77.5704 80.542 77.5206C80.997 77.4709 81.4131 77.7972 81.463 78.2507L82.7779 89.788C82.8278 90.2416 82.5005 90.6563 82.0455 90.7061C82.0123 90.7061 81.9845 90.7061 81.9512 90.7061V90.7116Z" fill="#0073E4"/>
<path d="M23.7422 48.2893L112.626 24.8828L111.494 30.4635L103.361 33.0795C103.361 33.0795 107.411 48.1565 91.1498 51.7737C76.6142 55.0092 73.1134 40.7619 73.1134 40.7619L66.983 42.2385C66.983 42.2385 71.2937 56.7017 56.2976 60.6784C39.8424 65.0367 36.4858 50.8556 36.4858 50.8556L26.4496 53.9695L23.7477 48.2893H23.7422Z" fill="#333238"/>
<path d="M32.9141 56.6515L35.3441 56.2588C37.3358 55.9381 38.928 54.5277 39.3719 52.6859L40.4981 48.0234L41.5855 52.8075C41.9961 54.6051 43.4885 56.0154 45.4025 56.4137L48.1931 56.9944L44.6979 57.8185C43.1445 58.1835 41.9461 59.345 41.6133 60.8107L40.5037 65.6778L39.5494 61.2255C39.1555 59.3948 37.6964 57.9181 35.7768 57.4092L32.9196 56.6515H32.9141Z" fill="white"/>
<path d="M95.2656 28.4187L96.5472 28.2196C97.5958 28.0537 98.4335 27.3237 98.6665 26.3724L99.2601 23.9609L99.8316 26.4332C100.048 27.3624 100.83 28.0924 101.84 28.2971L103.31 28.5958L101.468 29.0217C100.647 29.2097 100.02 29.8125 99.8427 30.5702L99.2601 33.0868L98.7553 30.786C98.55 29.8402 97.7788 29.077 96.7691 28.8115L95.2656 28.4187Z" fill="white"/>
<path opacity="0.5" d="M84.4564 52.0355C84.2789 51.8751 91.3747 30.4487 91.3747 30.4487L95.2638 29.3867L86.6867 52.2512C86.6867 52.2512 84.9169 52.4558 84.4564 52.0355Z" fill="white"/>
<path opacity="0.5" d="M90.4045 52.1567L89.5391 52.1234L97.7778 28.7889L98.793 28.5234L90.4045 52.1567Z" fill="white"/>
<path d="M225.354 61.6337C207.129 71.285 202.913 76.6333 202.913 76.6333C198.147 72.1976 187.051 65.2785 181.304 69.5704C168.865 78.8511 186.247 89.5201 191.229 94.4923C187.201 154.048 122.445 97.8053 122.445 97.8053L151.752 154.307C195.048 187.409 209.738 186.053 242.703 115.465C242.703 115.465 259.386 114.06 258.886 102.711C258.587 95.9857 254.709 94.0885 254.709 94.0885C254.709 94.0885 257.693 88.5688 254.858 81.7493C251.973 74.8136 242.642 75.5879 242.642 75.5879C242.642 75.5879 267.197 66.7663 261.044 54.2721C256.506 45.0578 230.531 58.8959 225.36 61.6337H225.354Z" fill="url(#paint0_linear_215_14797)"/>
<path d="M217.09 90.9593C217.09 90.9593 227.8 85.7099 232.782 88.5414C242.753 95.4652 239.25 113.082 218.9 112.332C211.738 112.067 205.589 109.468 203.402 99.5962C202.099 92.388 206.996 87.0869 217.09 90.9593Z" fill="#66B1FF"/>
<path d="M225.355 61.6337C207.13 71.285 202.914 76.6333 202.914 76.6333C198.148 72.1976 187.052 65.2785 181.305 69.5704C168.866 78.8511 186.248 89.5201 191.23 94.4923C187.202 154.048 199.363 81.7493 199.363 81.7493L222.812 86.4261C221.348 93.4832 218.975 95.7768 226.649 101.727C219.828 116.178 233.044 118.303 242.704 115.465C242.704 115.465 259.387 114.06 258.887 102.711C258.588 95.9857 254.71 94.0885 254.71 94.0885C254.71 94.0885 257.694 88.5688 254.859 81.7493C251.974 74.8136 242.643 75.5879 242.643 75.5879C242.643 75.5879 267.198 66.7663 261.045 54.2721C256.507 45.0578 230.532 58.8959 225.361 61.6337H225.355Z" fill="url(#paint1_linear_215_14797)"/>
<path d="M35.7181 146.345C58.4449 122.604 83.3888 143.536 85.3975 145.296C87.4124 143.536 112.35 122.604 135.077 146.345C160.299 172.691 137.319 226.19 129.481 238.785C121.642 251.38 106.128 271.829 85.1701 272.452C64.2056 271.829 49.1533 251.386 41.3145 238.785C33.4757 226.19 10.4962 172.697 35.7181 146.345Z" fill="white"/>
<path d="M233.41 117.915C233.41 117.915 233.36 117.915 233.337 117.915C233.049 117.893 226.225 117.251 224.361 111.743C222.735 106.942 224.111 104.016 224.849 102.445C224.977 102.18 225.126 101.859 225.182 101.671C221.187 98.0704 219.523 94.4588 220.228 90.9412C221.714 83.5077 233.288 79.415 233.776 79.249C234.208 79.0997 234.686 79.3264 234.835 79.7578C234.985 80.1892 234.758 80.6649 234.325 80.8142C234.214 80.853 223.157 84.7688 221.859 91.2675C221.271 94.2044 222.807 97.3293 226.419 100.548C227.24 101.278 226.769 102.274 226.358 103.148C225.676 104.602 224.533 107.036 225.942 111.206C227.462 115.697 233.421 116.25 233.482 116.256C233.942 116.294 234.281 116.698 234.242 117.152C234.203 117.583 233.842 117.909 233.415 117.909L233.41 117.915Z" fill="#0073E4"/>
<path d="M230.838 102.798C227.698 102.798 225.706 102.001 225.545 101.935C225.118 101.758 224.918 101.271 225.096 100.851C225.274 100.43 225.756 100.226 226.183 100.403C226.283 100.442 233.357 103.201 241.984 97.5489C242.367 97.3 242.883 97.4051 243.138 97.7867C243.393 98.1683 243.282 98.6827 242.899 98.9371C238.206 102.012 233.962 102.803 230.844 102.803L230.838 102.798Z" fill="#0073E4"/>
</g>
<g clip-path="url(#clip2_215_14797)">
<path d="M122.444 97.1873C120.219 93.4042 134.222 74.8206 131.038 56.2315C129.484 47.1499 111.015 26.7135 111.015 26.7135C114.488 23.2346 114.549 20.8619 114.549 20.8619C114.077 13.3621 98.1826 6.23834 94.8594 7.00159C91.5362 7.76485 89.9938 11.3156 89.9938 11.3156C42.9916 0.265037 29.4324 25.01 29.4324 25.01C27.1411 20.7789 24.1008 20.3972 22.0369 20.8673C16.7719 22.062 9.07136 32.023 7.48465 39.6722C6.50821 44.3734 15.4959 50.8611 15.4959 50.8611C15.9175 61.2424 10.6692 71.7178 11.4071 82.2319C12.1172 92.3202 29.3158 100.423 28.467 103.902C11.9397 171.82 11.9896 211.211 20.306 234.573C20.306 234.573 -4.31031 298.349 1.03237 311.214C21.5154 313.647 40.4062 319.056 61.1445 320.439C66.2042 307.951 75.5858 274.45 90.1492 266.619C99.3033 268.527 83.7524 307.431 77.4555 322.651C94.7484 323.415 135.271 314.87 134.71 314.637C160.775 313.891 157.795 225.149 157.795 225.149C160.78 181.991 150.123 144.266 122.449 97.1818L122.444 97.1873Z" fill="#66B1FF"/>
<path d="M225.354 61.9149C207.129 71.5662 202.913 76.9145 202.913 76.9145C198.147 72.4788 187.051 65.5597 181.304 69.8517C168.865 79.1324 186.247 89.8013 191.229 94.7735C187.201 154.329 122.445 98.0866 122.445 98.0866L145.619 159.317C194.126 189.949 214.198 180.481 242.703 115.746C242.703 115.746 259.386 114.342 258.886 102.992C258.587 96.2669 254.709 94.3698 254.709 94.3698C254.709 94.3698 257.693 88.8501 254.858 82.0305C251.973 75.0949 242.642 75.8692 242.642 75.8692C242.642 75.8692 267.197 67.0475 261.044 54.5534C256.506 45.339 230.531 59.1772 225.36 61.9149H225.354Z" fill="#66B1FF"/>
<path d="M103.317 53.9577C99.7274 47.3649 73.2027 53.305 73.236 53.4654C73.2027 53.3106 46.1952 58.3381 45.1467 66.3246C44.5086 71.1862 43.0773 80.6107 46.4726 85.771C50.2286 91.4788 73.0917 100.229 83.0336 97.9222C92.6316 95.7928 105.819 80.041 106.729 73.2768C107.55 67.1597 105.664 58.2662 103.311 53.9521L103.317 53.9577Z" fill="white"/>
<path d="M44.1419 35.3291C45.4679 33.9685 50.1559 30.2021 59.6817 31.9719C61.6568 32.337 63.8205 35.578 61.0188 37.8788C58.5721 39.8865 46.9492 41.1365 45.0129 40.5004C43.0323 39.8478 42.3444 37.1654 44.1419 35.3236V35.3291Z" fill="#0073E4"/>
<path d="M89.0589 16.795C87.3002 15.7939 81.4527 13.3106 72.9976 17.9786C71.2444 18.9465 70.3456 22.9287 73.8575 24.4607C76.9255 25.7992 88.4819 23.62 90.1019 22.3866C91.7607 21.1201 91.4445 18.1556 89.0589 16.8005V16.795Z" fill="#0073E4"/>
<path d="M74.6525 55.0821C74.6525 55.0821 57.759 58.5886 59.501 63.7378C61.2431 68.887 74.0367 75.076 78.6248 74.1247C84.8663 72.5097 92.4725 62.416 92.0065 56.9957C91.5405 51.5811 74.6525 55.0821 74.6525 55.0821Z" fill="#0073E4"/>
<path d="M64.4175 49.1365C60.9333 45.9231 55.1302 43.4121 50.9359 46.7527C48.8499 48.4119 47.7015 50.9838 46.9137 53.4616C46.5641 54.5567 48.2896 55.0268 48.6391 53.9372C49.6488 50.7515 51.6017 46.9905 55.3965 46.9242C57.7544 46.8855 60.0068 48.058 61.9098 49.4075C62.3925 49.7504 62.6421 49.9218 63.1581 50.3975C64.0014 51.1773 65.2663 49.9163 64.423 49.1365H64.4175Z" fill="#0073E4"/>
<path d="M85.4175 48.2879C89.6306 48.2879 93.046 44.8831 93.046 40.683C93.046 36.4829 89.6306 33.0781 85.4175 33.0781C81.2044 33.0781 77.7891 36.4829 77.7891 40.683C77.7891 44.8831 81.2044 48.2879 85.4175 48.2879Z" fill="white"/>
<path d="M85.415 45.6625C88.1727 45.6625 90.4082 43.4339 90.4082 40.6848C90.4082 37.9356 88.1727 35.707 85.415 35.707C82.6574 35.707 80.4219 37.9356 80.4219 40.6848C80.4219 43.4339 82.6574 45.6625 85.415 45.6625Z" fill="#3B3B3B"/>
<path d="M76.625 51.7704L76.6638 48.6179C76.6638 48.6179 77.8012 45.5427 84.836 44.4255C89.8236 43.6346 93.868 46.0349 93.868 46.0349L94.212 50.3932L76.625 51.7649V51.7704Z" fill="#66B1FF"/>
<path d="M89.3258 77.2368C85.6808 74.6429 78.0413 79.4934 73.6029 78.8739C67.9995 78.0941 59.2282 69.0181 53.8744 70.8488C50.8008 71.8996 48.7814 79.3552 50.0796 82.3197C52.7815 88.4755 65.514 92.1037 72.2548 92.1037C76.0551 92.1037 83.1843 90.9201 86.2745 87.8339C88.416 85.699 91.7891 78.9846 89.3258 77.2313V77.2368Z" fill="white"/>
<path d="M72.2546 92.9325C65.8245 92.9325 52.2819 89.4039 49.3193 82.6507C48.3373 80.4163 49.0031 76.589 50.1626 73.9563C50.8062 72.4962 51.9269 70.6378 53.6079 70.0626C57.0865 68.8679 61.5248 71.5946 65.8134 74.2273C68.6317 75.9585 71.5444 77.7449 73.7192 78.0491C75.4058 78.2814 77.797 77.59 80.1105 76.9208C83.6778 75.8866 87.3616 74.8191 89.8083 76.5558C90.2965 76.8987 90.8957 77.5845 91.0011 78.8787C91.2508 81.8819 88.6765 86.6108 86.8623 88.4194C83.5668 91.7047 76.1548 92.9325 72.2546 92.9325ZM55.4332 71.4342C54.9782 71.4342 54.5455 71.495 54.146 71.6333C53.2917 71.9264 52.3929 73.016 51.6827 74.6255C50.5399 77.2195 50.1681 80.455 50.845 81.987C53.2916 87.5676 65.3529 91.2733 72.2546 91.2733C76.1548 91.2733 82.9011 90.0233 85.6862 87.2468C87.2729 85.665 89.542 81.351 89.3478 79.017C89.3034 78.4805 89.137 78.1154 88.843 77.9108C87.051 76.6387 83.761 77.5956 80.5765 78.5137C77.9801 79.2659 75.5279 79.9794 73.4918 79.6918C70.9674 79.3433 68.0437 77.5458 64.9424 75.6376C61.5637 73.5636 58.0851 71.4287 55.4387 71.4287L55.4332 71.4342Z" fill="#0073E4"/>
<path d="M54.9875 87.6173C54.8544 87.6173 54.7212 87.5841 54.5936 87.5177C54.1886 87.302 54.0388 86.7988 54.2552 86.395L61.351 73.2095C61.5674 72.8057 62.0723 72.6564 62.4773 72.8721C62.8823 73.0878 63.0321 73.5911 62.8157 73.9949L55.7199 87.1803C55.5701 87.4569 55.2816 87.6173 54.9875 87.6173Z" fill="#0073E4"/>
<path d="M66.9631 91.9404C66.9021 91.9404 66.8411 91.9349 66.7801 91.9183C66.3307 91.8187 66.0533 91.3707 66.1531 90.9282L69.1157 77.8423C69.2156 77.3943 69.6595 77.1122 70.1088 77.2173C70.5582 77.3168 70.8356 77.7649 70.7357 78.2073L67.7731 91.2933C67.6844 91.6804 67.3404 91.9404 66.9631 91.9404Z" fill="#0073E4"/>
<path d="M81.9512 90.7116C81.5351 90.7116 81.1745 90.3964 81.1246 89.9761L79.8097 78.4388C79.7598 77.9852 80.0871 77.5704 80.542 77.5206C80.997 77.4709 81.4131 77.7972 81.463 78.2507L82.7779 89.788C82.8278 90.2416 82.5005 90.6563 82.0455 90.7061C82.0123 90.7061 81.9845 90.7061 81.9512 90.7061V90.7116Z" fill="#0073E4"/>
<path d="M23.7422 48.2893L112.626 24.8828L111.494 30.4635L103.361 33.0795C103.361 33.0795 107.411 48.1565 91.1498 51.7737C76.6142 55.0092 73.1134 40.7619 73.1134 40.7619L66.983 42.2385C66.983 42.2385 71.2937 56.7017 56.2976 60.6784C39.8424 65.0367 36.4858 50.8556 36.4858 50.8556L26.4496 53.9695L23.7477 48.2893H23.7422Z" fill="#333238"/>
<path d="M32.9141 56.6515L35.3441 56.2588C37.3358 55.9381 38.928 54.5277 39.3719 52.6859L40.4981 48.0234L41.5855 52.8075C41.9961 54.6051 43.4885 56.0154 45.4025 56.4137L48.1931 56.9944L44.6979 57.8185C43.1445 58.1835 41.9461 59.345 41.6133 60.8107L40.5037 65.6778L39.5494 61.2255C39.1555 59.3948 37.6964 57.9181 35.7768 57.4092L32.9196 56.6515H32.9141Z" fill="white"/>
<path d="M95.2656 28.4187L96.5472 28.2196C97.5958 28.0537 98.4335 27.3237 98.6665 26.3724L99.2601 23.9609L99.8316 26.4332C100.048 27.3624 100.83 28.0924 101.84 28.2971L103.31 28.5958L101.468 29.0217C100.647 29.2097 100.02 29.8125 99.8427 30.5702L99.2601 33.0868L98.7553 30.786C98.55 29.8402 97.7788 29.077 96.7691 28.8115L95.2656 28.4187Z" fill="white"/>
<path opacity="0.5" d="M84.4564 52.0355C84.2789 51.8751 91.3747 30.4487 91.3747 30.4487L95.2638 29.3867L86.6867 52.2512C86.6867 52.2512 84.9169 52.4558 84.4564 52.0355Z" fill="white"/>
<path opacity="0.5" d="M90.4045 52.1567L89.5391 52.1234L97.7778 28.7889L98.793 28.5234L90.4045 52.1567Z" fill="white"/>
<path d="M225.354 61.6337C207.129 71.285 202.913 76.6333 202.913 76.6333C198.147 72.1976 187.051 65.2785 181.304 69.5704C168.865 78.8511 186.247 89.5201 191.229 94.4923C187.201 154.048 122.445 97.8053 122.445 97.8053L151.752 154.307C195.048 187.409 209.738 186.053 242.703 115.465C242.703 115.465 259.386 114.06 258.886 102.711C258.587 95.9857 254.709 94.0885 254.709 94.0885C254.709 94.0885 257.693 88.5688 254.858 81.7493C251.973 74.8136 242.642 75.5879 242.642 75.5879C242.642 75.5879 267.197 66.7663 261.044 54.2721C256.506 45.0578 230.531 58.8959 225.36 61.6337H225.354Z" fill="url(#paint2_linear_215_14797)"/>
<path d="M217.09 90.9593C217.09 90.9593 227.8 85.7099 232.782 88.5414C242.753 95.4652 239.25 113.082 218.9 112.332C211.738 112.067 205.589 109.468 203.402 99.5962C202.099 92.388 206.996 87.0869 217.09 90.9593Z" fill="#66B1FF"/>
<path d="M225.355 61.6337C207.13 71.285 202.914 76.6333 202.914 76.6333C198.148 72.1976 187.052 65.2785 181.305 69.5704C168.866 78.8511 186.248 89.5201 191.23 94.4923C187.202 154.048 199.363 81.7493 199.363 81.7493L222.812 86.4261C221.348 93.4832 218.975 95.7768 226.649 101.727C219.828 116.178 233.044 118.303 242.704 115.465C242.704 115.465 259.387 114.06 258.887 102.711C258.588 95.9857 254.71 94.0885 254.71 94.0885C254.71 94.0885 257.694 88.5688 254.859 81.7493C251.974 74.8136 242.643 75.5879 242.643 75.5879C242.643 75.5879 267.198 66.7663 261.045 54.2721C256.507 45.0578 230.532 58.8959 225.361 61.6337H225.355Z" fill="url(#paint3_linear_215_14797)"/>
<path d="M233.41 117.915C233.41 117.915 233.36 117.915 233.337 117.915C233.049 117.893 226.225 117.251 224.361 111.743C222.735 106.942 224.111 104.016 224.849 102.445C224.977 102.18 225.126 101.859 225.182 101.671C221.187 98.0704 219.523 94.4588 220.228 90.9412C221.714 83.5077 233.288 79.415 233.776 79.249C234.208 79.0997 234.686 79.3264 234.835 79.7578C234.985 80.1892 234.758 80.6649 234.325 80.8142C234.214 80.853 223.157 84.7688 221.859 91.2675C221.271 94.2044 222.807 97.3293 226.419 100.548C227.24 101.278 226.769 102.274 226.358 103.148C225.676 104.602 224.533 107.036 225.942 111.206C227.462 115.697 233.421 116.25 233.482 116.256C233.942 116.294 234.281 116.698 234.242 117.152C234.203 117.583 233.842 117.909 233.415 117.909L233.41 117.915Z" fill="#0073E4"/>
<path d="M230.838 102.798C227.698 102.798 225.706 102.001 225.545 101.935C225.118 101.758 224.918 101.271 225.096 100.851C225.274 100.43 225.756 100.226 226.183 100.403C226.283 100.442 233.357 103.201 241.984 97.5489C242.367 97.3 242.883 97.4051 243.138 97.7867C243.393 98.1683 243.282 98.6827 242.899 98.9371C238.206 102.012 233.962 102.803 230.844 102.803L230.838 102.798Z" fill="#0073E4"/>
</g>
<defs>
<linearGradient id="paint0_linear_215_14797" x1="248.818" y1="66.8746" x2="159.61" y2="173.829" gradientUnits="userSpaceOnUse">
<stop stop-color="#0F8AEF"/>
<stop offset="0.3" stop-color="#2B96F4"/>
<stop offset="0.83" stop-color="#66B1FF"/>
</linearGradient>
<linearGradient id="paint1_linear_215_14797" x1="248.819" y1="66.8746" x2="159.612" y2="173.829" gradientUnits="userSpaceOnUse">
<stop stop-color="#0F8AEF"/>
<stop offset="0.3" stop-color="#2B96F4"/>
<stop offset="0.83" stop-color="#66B1FF"/>
</linearGradient>
<linearGradient id="paint2_linear_215_14797" x1="248.818" y1="66.8746" x2="159.61" y2="173.829" gradientUnits="userSpaceOnUse">
<stop stop-color="#0F8AEF"/>
<stop offset="0.3" stop-color="#2B96F4"/>
<stop offset="0.83" stop-color="#66B1FF"/>
</linearGradient>
<linearGradient id="paint3_linear_215_14797" x1="248.819" y1="66.8746" x2="159.612" y2="173.829" gradientUnits="userSpaceOnUse">
<stop stop-color="#0F8AEF"/>
<stop offset="0.3" stop-color="#2B96F4"/>
<stop offset="0.83" stop-color="#66B1FF"/>
</linearGradient>
<clipPath id="clip0_215_14797">
<rect width="257" height="182" rx="18" transform="matrix(-1 0 0 1 265.312 0.472656)" fill="white"/>
</clipPath>
<clipPath id="clip1_215_14797">
<rect width="22" height="136" fill="white" transform="translate(8.32031 107.469)"/>
</clipPath>
<clipPath id="clip2_215_14797">
<rect width="265" height="107" rx="18" transform="matrix(-1 0 0 1 265.312 0.472656)" fill="white"/>
</clipPath>
</defs>
</svg>
