<svg width="306" height="198" viewBox="0 0 306 198" fill="none" xmlns="http://www.w3.org/2000/svg">
<path d="M72.0242 130.844L70.9785 144.586L57.2359 145.632L70.9785 146.678L72.0242 160.42L73.0699 146.678L86.8125 145.632L73.0699 144.586L72.0242 130.844Z" fill="url(#paint0_radial_229_20063)"/>
<path d="M72.0242 130.844L70.9785 144.586L57.2359 145.632L70.9785 146.678L72.0242 160.42L73.0699 146.678L86.8125 145.632L73.0699 144.586L72.0242 130.844Z" fill="url(#paint1_radial_229_20063)"/>
<g clip-path="url(#clip0_229_20063)">
<path d="M104.565 127.566C102.854 123.54 102.895 118.98 104.676 114.987C106.946 109.918 109.866 103.927 109.919 99.215C110.098 82.4169 97.1704 77.1144 94.8674 67.9991C94.8674 67.9991 98.3873 64.092 97.5788 61.096C96.3538 56.5364 84.7816 51.714 80.8371 52.9781C78.3871 53.7579 77.6887 56.5569 77.6887 56.5569C65.7858 53.5609 58.252 55.9084 54.3279 56.9016C39.9055 60.5625 32.139 68.1428 32.139 68.1428C30.0279 66.3944 29.3786 65.9266 28.3374 66.1769C24.6624 67.0675 17.1531 74.2866 17.4226 80.1309C17.5859 83.7261 23.6538 85.4662 23.6538 85.4662C25.2095 92.907 17.5573 106.007 22.3838 116.497C23.5762 119.091 26.21 122.243 28.8641 125.272C30.9793 127.661 31.3427 131.141 29.7625 133.915C22.7758 146.199 5.13576 180.669 11.7018 205.405L132.108 203.862C132.108 203.862 146.579 174.23 104.569 127.587" fill="#66B1FF"/>
<path d="M101.41 162.323C84.9158 148.018 70.0597 163.602 68.8651 164.906C67.4283 163.865 49.6823 151.582 36.4641 168.884C26.7311 181.626 31.69 200.914 37.8803 214.759L107.391 215.379C111.824 200.709 115.88 174.872 101.41 162.323Z" fill="white"/>
<path d="M92.4675 85.8181C88.9865 83.0982 67.7174 87.9038 67.7174 87.9038C67.7174 87.9038 49.9498 91.6239 46.139 98.6981C44.7791 101.231 42.5846 108.151 45.3247 111.342C48.6103 115.168 62.2413 126.58 72.1389 125.572C81.096 124.625 97.345 104.939 97.6789 99.808C97.9802 95.1691 95.4315 88.1437 92.4553 85.8141" fill="white"/>
<path d="M78.8272 60.2393C77.6224 59.4571 73.5302 57.4799 66.9139 60.6347C65.5376 61.2923 64.5288 64.1721 66.9751 65.3971C69.107 66.4673 77.798 65.2123 79.0967 64.3569C80.3955 63.5016 80.4609 61.3053 78.8231 60.2393" fill="#0073E4"/>
<path d="M40.5752 70.7905C41.3086 69.6203 44.0782 66.1999 51.3712 65.8151C52.879 65.7326 55.0424 67.6215 53.3912 69.7027C51.9531 71.5169 43.6563 74.36 42.1239 74.2461C40.5916 74.1322 39.5836 72.3769 40.5711 70.7905" fill="#0073E4"/>
<path d="M71.342 85.5238C71.342 85.5238 57.8817 88.9902 59.4845 93.1248C61.0873 97.2593 70.377 102.146 75.2345 100.893C81.707 99.2222 85.9471 90.8695 85.3788 86.4551C84.8104 82.0407 71.3543 85.5238 71.3543 85.5238" fill="#0073E4"/>
<path d="M54.7454 102.157C60.8512 106.646 69.6794 112.395 85.7426 103.197C86.6665 102.667 86.8472 104.317 79.5095 111.303C75.1899 115.414 70.7306 117.875 67.2732 117.036C63.4792 116.116 61.2126 112.82 59.3156 110.448C54.4622 104.377 52.8689 100.772 54.7495 102.153" fill="#143860"/>
<path d="M58.4377 82.1069C59.1711 85.4123 57.1117 88.6884 53.8423 89.429C53.8299 89.429 53.8174 89.4332 53.8008 89.4374C50.5107 90.1905 47.2331 88.1236 46.4623 84.8056C45.7289 81.5002 47.7884 78.2241 51.0577 77.4835C51.0702 77.4835 51.0825 77.4793 51.0991 77.4751C54.3892 76.722 57.667 78.7889 58.4377 82.1069Z" fill="white"/>
<path d="M83.7515 75.2079C84.4814 78.5138 82.4203 81.7904 79.1441 82.5269C79.1359 82.5269 79.1276 82.5269 79.1193 82.5311C75.8266 83.2843 72.5463 81.2171 71.775 77.8987C71.0409 74.5928 73.1019 71.3162 76.374 70.5755C76.3864 70.5755 76.3989 70.5714 76.4155 70.5672C79.7082 69.8181 82.9843 71.8895 83.7515 75.2079Z" fill="white"/>
<path d="M80.4348 159.913L81.7135 160.131C82.4547 160.26 83.1633 159.772 83.2977 159.037L84.6579 150.613C84.7882 149.882 82.8212 149.559 82.8212 149.559C81.8519 149.3 81.2492 149.341 81.1189 150.072L79.3148 158.375C79.1886 159.105 79.6814 159.8 80.4225 159.929H80.4307" fill="#F4901E"/>
<path d="M120.096 143.387L120.022 143.624C119.73 144.567 120.305 145.553 121.299 145.828C121.304 145.828 121.308 145.828 121.316 145.832L125.74 147.039C126.747 147.315 127.798 146.775 128.102 145.828L128.176 145.592C128.472 144.649 128.587 143.993 127.56 143.717L122.207 141.792C121.197 141.517 120.408 142.425 120.112 143.372" fill="#F4901E"/>
<path d="M112.74 214.881C104.644 215.952 83.5476 214.943 83.5476 214.943C79.209 214.468 75.0708 212.49 75.4924 206.738C76.5566 192.14 79.4996 169.092 84.526 145.385C85.8071 139.339 87.2069 135.918 95.3399 137.545C104.095 139.298 118.364 141.956 126.222 145.12C131.105 147.086 132.137 149.085 131.073 155.307C128.47 170.49 124.344 195.177 119.571 209.882C118.368 213.585 116.583 214.378 112.744 214.877" fill="#FFBC00"/>
<path d="M93.1467 160.054L90.4219 159.679C88.6122 159.254 87.4531 157.48 87.7866 155.649L89.7754 145.08C90.1007 143.366 91.7437 142.241 93.4518 142.563C93.5453 142.579 93.643 142.604 93.7365 142.632L96.8354 143.448C98.6248 143.929 99.5195 145.377 99.1535 147.176L97.0184 157.606C96.6646 159.328 94.9891 160.437 93.2728 160.083C93.2322 160.074 93.1874 160.066 93.1467 160.054Z" fill="#F4901E"/>
<path d="M97.9915 145.629C98.9024 146.995 98.4698 148.799 97.0306 149.661C96.9515 149.709 96.8683 149.752 96.7851 149.791C95.1213 150.614 93.0665 150.102 92.0474 148.61C91.1322 147.247 91.5607 145.444 92.9999 144.578C93.0956 144.519 93.1954 144.467 93.2952 144.42C94.9633 143.617 97.0057 144.148 98.0081 145.645" fill="#333333"/>
<path d="M96.1063 155.942C95.6594 157.802 93.8258 158.954 91.9796 158.536C90.1544 158.097 88.9868 156.284 89.3282 154.415C89.7666 152.534 91.6297 151.369 93.4886 151.813H93.497C95.3095 152.269 96.4561 154.078 96.1105 155.938" fill="#333333"/>
<path d="M113.039 175.034C113.079 179.057 109.849 182.352 105.826 182.393C101.802 182.433 98.5071 179.203 98.4666 175.179C98.4261 171.156 101.656 167.861 105.68 167.82C105.704 167.82 105.728 167.82 105.753 167.82C109.756 167.804 113.014 171.03 113.039 175.034Z" fill="#F4901E"/>
<path d="M105.843 198.612C110.689 191.162 106.819 187.863 106.819 187.863C106.819 187.863 113.812 181.199 110.718 175.368C108.092 170.422 103.528 172.524 103.528 172.524C107.108 168.836 110.297 164.824 105.312 160.386C99.4658 155.181 88.859 163.172 81.2244 169.11L82.2981 162.217C83.3718 153.78 76.1742 152.505 73.4061 153.718C69.6705 155.357 67.6903 158.71 67.2249 165.799C67.0697 167.93 66.4043 169.991 65.2856 171.807C63.9914 173.942 62.8973 176.192 62.0195 178.527C52.5885 187.133 26.6553 185.031 20.9845 179.404C19.5678 177.999 19.033 176.052 20.6049 172.102C24.8427 161.447 30.3665 131.773 30.3665 131.773C-6.30817 168.561 -19.1033 183.867 -9.84785 203.763C0.101631 225.159 37.1233 232.699 76.4068 219.745C76.4068 219.737 95.7832 214.078 105.843 198.612Z" fill="url(#paint2_linear_229_20063)"/>
<path d="M106.141 172.422C105.473 172.453 104.818 172.595 104.199 172.838C104.721 172.316 98.4444 177.677 94.1695 179.797C93.486 180.134 94.0886 181.127 94.7721 180.79C99.0389 178.674 102.889 175.84 106.137 172.422" fill="#66B1FF"/>
<path d="M107.668 188.741C107.474 188.378 107.224 188.051 106.928 187.766C103.074 191.997 98.4932 195.515 93.4021 198.163C92.7112 198.522 93.324 199.555 94.019 199.196C99.1511 196.527 103.769 192.993 107.672 188.745" fill="#66B1FF"/>
<path d="M121.391 163.67C118.863 168.315 121.885 172.509 125.216 175.397C121.995 173.812 118.329 173.103 116.624 176.671C114.3 181.541 116.008 185.334 121.35 189.468C118.981 188.284 116.127 187.788 114.683 191.028C111.115 199.04 119.638 205.267 119.638 205.267C120.612 209.363 124.376 210.793 127.63 210.776C138.404 210.731 141.45 199.11 141.422 187.989C141.389 175.655 139.04 170.727 137.397 167.962C135.7 165.095 130.297 160.925 125.979 160.925C124.046 160.855 122.252 161.929 121.391 163.67Z" fill="url(#paint3_linear_229_20063)"/>
<path d="M129.715 177.482C127.501 175.424 124.979 173.72 122.244 172.422C123.019 173.399 123.89 174.299 124.846 175.107C124.62 174.998 127.489 177.032 128.957 178.403C129.518 178.925 130.276 178.001 129.719 177.494" fill="#66B1FF"/>
<path d="M126.401 191.28C124.56 190.847 122.782 190.193 121.113 189.34C120.272 188.922 119.359 188.648 118.415 188.531C120.638 190.37 123.3 191.678 126.174 192.348C126.911 192.521 127.134 191.438 126.401 191.268" fill="#66B1FF"/>
<path d="M61.6565 111.133C61.6565 111.133 71.8057 110.285 74.6694 114.473C74.9978 114.957 72.1541 116.702 68.8978 116.396C67.9766 116.309 65.6296 115.499 63.8393 113.671" fill="#ED7865"/>
<mask id="mask0_229_20063" style="mask-type:luminance" maskUnits="userSpaceOnUse" x="46" y="77" width="13" height="13">
<path d="M58.4377 82.1069C59.1711 85.4123 57.1117 88.6884 53.8423 89.429C53.8299 89.429 53.8174 89.4332 53.8008 89.4374C50.5107 90.1905 47.2331 88.1236 46.4623 84.8056C45.7289 81.5002 47.7884 78.2241 51.0577 77.4835C51.0702 77.4835 51.0825 77.4793 51.0991 77.4751C54.3892 76.722 57.667 78.7889 58.4377 82.1069Z" fill="white"/>
</mask>
<g mask="url(#mask0_229_20063)">
<path d="M48.6164 84.9926C48.6164 87.5327 50.6781 89.5945 53.2183 89.5945C55.7585 89.5945 57.8203 87.5327 57.8203 84.9926C57.8203 82.4524 55.7585 80.3906 53.2183 80.3906C50.6781 80.3906 48.6164 82.4524 48.6164 84.9926Z" fill="#333333"/>
</g>
<mask id="mask1_229_20063" style="mask-type:luminance" maskUnits="userSpaceOnUse" x="71" y="70" width="13" height="13">
<path d="M83.7515 75.2079C84.4814 78.5138 82.4203 81.7904 79.1441 82.5269C79.1359 82.5269 79.1276 82.5269 79.1193 82.5311C75.8266 83.2843 72.5463 81.2171 71.775 77.8987C71.0409 74.5928 73.1019 71.3162 76.374 70.5755C76.3864 70.5755 76.3989 70.5714 76.4155 70.5672C79.7082 69.8181 82.9843 71.8895 83.7515 75.2079Z" fill="white"/>
</mask>
<g mask="url(#mask1_229_20063)">
<path d="M73.9303 78.0863C73.9303 80.6276 75.8193 82.6883 78.1488 82.6883C80.4783 82.6883 82.3672 80.6276 82.3672 78.0863C82.3672 75.5451 80.4783 73.4844 78.1488 73.4844C75.8193 73.4844 73.9303 75.5451 73.9303 78.0863Z" fill="#333333"/>
</g>
<path d="M47.0848 90.6709C47.0848 90.6709 52.458 86.186 60.8906 85.75V88.5354L48.7243 94.1869L47.0848 90.6709Z" fill="#66B1FF"/>
<path d="M71.6289 83.0657C71.6289 83.0657 77.9831 79.2255 86.9688 80.7339L85.1395 83.5804L72.0942 84.2178L71.6289 83.0657Z" fill="#66B1FF"/>
</g>
<path d="M139.578 130.461C139.674 129.754 140.282 128.106 141.942 127.172C143.603 126.238 145.246 126.52 145.86 126.778" stroke="#0647C7" stroke-width="1.01386" stroke-linecap="round"/>
<path d="M134.359 120.898C134.996 121.301 136.763 121.992 138.738 121.531C140.713 121.069 141.701 119.819 141.949 119.252" stroke="#0647C7" stroke-width="1.01386" stroke-linecap="round"/>
<path d="M138.703 125.242C141.927 124.066 142.438 123.569 143.531 123.02" stroke="#0647C7" stroke-width="1.01386" stroke-linecap="round"/>
<path d="M131.75 126.984C135.095 126.219 135.664 125.79 136.816 125.381" stroke="#0647C7" stroke-width="1.01386" stroke-linecap="round"/>
<path d="M200.812 101.61C216.322 105.708 241.366 111.867 247.066 117.96C252.765 124.053 248.69 140.725 242.489 145.063C237.841 148.315 234.259 148.382 188.033 135.723C156.269 127.025 151.941 125.107 147.577 119.843C143.212 114.579 146.346 98.3873 154.019 94.7774C164.681 89.7635 186.176 97.742 200.812 101.61Z" fill="#0647C7"/>
<path d="M169.661 102.946C169.725 102.706 169.864 102.528 170.077 102.412C170.298 102.297 170.532 102.273 170.78 102.339C170.981 102.393 171.143 102.498 171.266 102.656C171.392 102.805 171.491 103.022 171.564 103.307L172.608 107.202L174.928 104.196C175.103 103.978 175.274 103.834 175.442 103.763C175.61 103.692 175.806 103.686 176.03 103.746C176.254 103.806 176.426 103.923 176.546 104.096C176.667 104.261 176.696 104.463 176.631 104.703C176.594 104.842 176.505 105.004 176.364 105.19L172.801 109.639C172.313 110.254 171.838 110.681 171.376 110.922C170.916 111.155 170.404 111.196 169.84 111.045C169.694 111.005 169.54 110.944 169.381 110.859C169.19 110.767 169.043 110.62 168.94 110.418C168.836 110.216 168.814 110.007 168.872 109.791C168.899 109.691 168.951 109.589 169.028 109.485C169.181 109.286 169.364 109.19 169.577 109.197C169.8 109.199 170.035 109.233 170.283 109.3C170.437 109.341 170.573 109.344 170.69 109.309C170.807 109.275 170.928 109.179 171.053 109.022L171.222 108.806L169.686 103.549C169.621 103.325 169.613 103.124 169.661 102.946ZM177.391 108.981C177.327 109.221 177.329 109.412 177.399 109.555C177.468 109.697 177.588 109.792 177.758 109.837C177.851 109.862 177.965 109.884 178.1 109.904C178.238 109.916 178.354 109.914 178.45 109.898L178.816 108.531C178.876 108.306 179.008 108.139 179.211 108.028C179.425 107.911 179.663 107.888 179.925 107.958C180.18 108.027 180.364 108.163 180.475 108.366C180.588 108.562 180.614 108.772 180.554 108.997L179.546 112.764C179.486 112.988 179.349 113.158 179.136 113.275C178.932 113.386 178.707 113.409 178.459 113.342C178.212 113.276 178.024 113.143 177.895 112.943C177.777 112.737 177.747 112.522 177.807 112.298L178.043 111.417C177.87 111.445 177.674 111.451 177.455 111.433C177.244 111.418 177.034 111.382 176.825 111.327C176.47 111.231 176.181 111.104 175.958 110.945C175.746 110.78 175.586 110.589 175.479 110.369C175.382 110.145 175.332 109.895 175.331 109.622C175.34 109.342 175.387 109.04 175.474 108.716L175.732 107.754C175.792 107.53 175.93 107.355 176.145 107.231C176.37 107.101 176.63 107.075 176.923 107.154C177.186 107.224 177.377 107.362 177.496 107.568C177.624 107.768 177.659 107.98 177.599 108.204L177.391 108.981ZM181.96 114.281C181.488 114.154 181.134 113.902 180.895 113.523C180.667 113.139 180.624 112.68 180.767 112.147C180.846 111.853 180.964 111.612 181.122 111.422C181.281 111.233 181.464 111.091 181.671 110.998C181.88 110.897 182.106 110.841 182.349 110.832C182.599 110.824 182.852 110.855 183.107 110.923C183.339 110.985 183.534 111.075 183.693 111.192C183.862 111.304 183.981 111.402 184.049 111.486L184.077 111.382C184.15 111.112 184.137 110.897 184.039 110.738C183.95 110.574 183.794 110.461 183.57 110.401C183.431 110.364 183.296 110.34 183.166 110.33C183.046 110.315 182.928 110.308 182.812 110.31C182.769 110.315 182.732 110.313 182.701 110.305C182.67 110.297 182.639 110.288 182.608 110.28C182.462 110.241 182.342 110.163 182.248 110.047C182.163 109.933 182.114 109.791 182.101 109.622C182.092 109.562 182.097 109.497 182.116 109.428C182.157 109.273 182.245 109.147 182.378 109.051C182.522 108.948 182.683 108.888 182.862 108.87C183.015 108.853 183.205 108.854 183.432 108.873C183.667 108.895 183.9 108.937 184.132 108.999C184.927 109.212 185.436 109.555 185.657 110.029C185.878 110.502 185.895 111.091 185.706 111.794L185.064 114.193C184.989 114.471 184.855 114.663 184.661 114.769C184.468 114.874 184.278 114.902 184.092 114.852C183.868 114.792 183.713 114.693 183.626 114.553C183.539 114.414 183.492 114.248 183.486 114.056C183.301 114.222 183.071 114.322 182.797 114.356C182.525 114.382 182.246 114.357 181.96 114.281ZM183.77 112.53C183.639 112.37 183.434 112.253 183.156 112.179C183.009 112.139 182.88 112.142 182.769 112.187C182.659 112.224 182.587 112.308 182.552 112.439C182.521 112.555 182.542 112.664 182.614 112.766C182.686 112.868 182.795 112.939 182.942 112.978C183.12 113.026 183.267 113.032 183.384 112.998C183.511 112.957 183.611 112.909 183.683 112.854L183.77 112.53ZM190.586 112.63C190.47 112.599 190.337 112.538 190.188 112.448C190.109 112.402 190.029 112.36 189.948 112.322C189.875 112.286 189.796 112.256 189.711 112.234C189.572 112.196 189.43 112.183 189.287 112.194C189.143 112.206 189.003 112.247 188.868 112.318C188.735 112.382 188.615 112.474 188.509 112.595C188.41 112.717 188.335 112.871 188.286 113.057C188.238 113.234 188.23 113.402 188.263 113.56C188.295 113.718 188.352 113.861 188.433 113.991C188.516 114.112 188.617 114.218 188.733 114.307C188.86 114.391 188.993 114.451 189.132 114.489C189.24 114.518 189.348 114.534 189.454 114.538C189.561 114.541 189.662 114.535 189.757 114.52C189.843 114.509 189.926 114.507 190.008 114.512C190.091 114.51 190.172 114.519 190.249 114.539C190.496 114.606 190.665 114.779 190.755 115.06C190.798 115.212 190.8 115.358 190.763 115.497C190.721 115.652 190.645 115.78 190.535 115.883C190.425 115.986 190.301 116.061 190.165 116.107C189.966 116.17 189.722 116.2 189.433 116.197C189.151 116.196 188.86 116.155 188.559 116.074C188.126 115.958 187.749 115.787 187.429 115.56C187.109 115.334 186.857 115.067 186.674 114.761C186.491 114.456 186.375 114.114 186.327 113.737C186.287 113.362 186.321 112.969 186.431 112.56C186.532 112.181 186.693 111.843 186.914 111.546C187.134 111.249 187.397 111.009 187.703 110.826C188.018 110.637 188.365 110.519 188.742 110.471C189.121 110.415 189.516 110.442 189.925 110.552C190.219 110.63 190.478 110.729 190.703 110.847C190.928 110.965 191.112 111.085 191.253 111.206C191.389 111.317 191.483 111.445 191.535 111.592C191.589 111.731 191.597 111.869 191.56 112.009C191.527 112.132 191.457 112.254 191.35 112.375C191.127 112.621 190.872 112.706 190.586 112.63ZM194.38 116.74C194.32 116.964 194.183 117.134 193.97 117.251C193.766 117.362 193.541 117.385 193.293 117.318C193.046 117.252 192.858 117.119 192.73 116.919C192.611 116.713 192.581 116.498 192.641 116.274L193.386 113.492L192.691 113.306C192.467 113.245 192.295 113.113 192.176 112.907C192.067 112.695 192.046 112.466 192.112 112.219C192.178 111.971 192.31 111.787 192.508 111.666C192.716 111.54 192.932 111.507 193.156 111.567L196.286 112.406C196.51 112.466 196.676 112.601 196.785 112.813C196.904 113.019 196.93 113.245 196.864 113.492C196.798 113.74 196.661 113.927 196.453 114.053C196.255 114.174 196.044 114.204 195.82 114.144L195.125 113.958L194.38 116.74ZM200.224 113.387C201.02 113.6 201.601 113.876 201.966 114.214C202.333 114.544 202.451 114.953 202.321 115.439C202.277 115.602 202.211 115.741 202.122 115.858C202.032 115.975 201.928 116.071 201.808 116.147C201.696 116.225 201.578 116.28 201.453 116.313C201.331 116.338 201.212 116.347 201.098 116.342C201.395 116.529 201.605 116.751 201.727 117.007C201.859 117.258 201.887 117.522 201.813 117.8C201.668 118.341 201.346 118.694 200.846 118.858C200.357 119.017 199.675 118.979 198.802 118.745C198.609 118.693 198.382 118.628 198.121 118.55C197.868 118.474 197.62 118.395 197.377 118.314C197.15 118.236 196.979 118.099 196.866 117.903C196.755 117.7 196.73 117.482 196.792 117.25L197.751 113.668C197.811 113.444 197.94 113.271 198.138 113.151C198.344 113.032 198.561 112.995 198.789 113.039C199.008 113.09 199.238 113.143 199.479 113.199C199.729 113.258 199.977 113.32 200.224 113.387ZM198.677 117.171C198.737 117.195 198.834 117.234 198.969 117.287C199.114 117.334 199.248 117.374 199.372 117.407C199.534 117.451 199.671 117.45 199.782 117.405C199.903 117.355 199.977 117.279 200.004 117.179C200.074 116.916 199.882 116.724 199.426 116.602L198.869 116.452L198.677 117.171ZM199.149 115.409L199.728 115.565C199.86 115.6 199.99 115.606 200.121 115.583C200.253 115.552 200.339 115.463 200.378 115.316C200.405 115.216 200.389 115.121 200.331 115.03C200.274 114.932 200.169 114.863 200.014 114.821C199.96 114.807 199.897 114.794 199.826 114.783C199.756 114.764 199.685 114.75 199.614 114.739C199.552 114.722 199.493 114.711 199.437 114.704C199.39 114.691 199.36 114.683 199.344 114.679L199.149 115.409ZM205.063 120.498C204.615 120.378 204.231 120.2 203.913 119.966C203.595 119.732 203.341 119.457 203.153 119.141C202.972 118.827 202.856 118.486 202.806 118.116C202.763 117.749 202.795 117.368 202.9 116.974C203.006 116.58 203.169 116.234 203.389 115.937C203.617 115.642 203.888 115.404 204.202 115.223C204.523 115.044 204.88 114.933 205.272 114.889C205.665 114.845 206.086 114.883 206.534 115.003C206.982 115.123 207.365 115.301 207.683 115.535C208.001 115.769 208.251 116.043 208.432 116.357C208.621 116.673 208.737 117.014 208.779 117.382C208.829 117.751 208.801 118.133 208.696 118.527C208.59 118.921 208.424 119.266 208.196 119.561C207.975 119.858 207.705 120.096 207.383 120.275C207.07 120.456 206.717 120.568 206.324 120.612C205.931 120.656 205.511 120.618 205.063 120.498ZM206.099 116.626C205.821 116.552 205.551 116.587 205.288 116.732C205.028 116.869 204.85 117.115 204.755 117.471C204.666 117.803 204.694 118.101 204.839 118.363C204.984 118.626 205.204 118.796 205.497 118.875C205.791 118.954 206.064 118.923 206.317 118.784C206.571 118.637 206.746 118.386 206.841 118.03C206.932 117.69 206.904 117.393 206.757 117.138C206.612 116.875 206.393 116.705 206.099 116.626ZM212.63 116.712C213.426 116.925 214.006 117.201 214.371 117.539C214.738 117.869 214.857 118.278 214.727 118.765C214.683 118.927 214.617 119.066 214.527 119.183C214.438 119.3 214.334 119.396 214.214 119.472C214.102 119.55 213.984 119.605 213.859 119.638C213.737 119.663 213.618 119.673 213.504 119.667C213.801 119.854 214.011 120.076 214.133 120.332C214.265 120.583 214.293 120.847 214.219 121.126C214.074 121.667 213.752 122.019 213.252 122.184C212.763 122.342 212.081 122.304 211.208 122.07C211.015 122.019 210.788 121.954 210.527 121.876C210.274 121.799 210.026 121.721 209.783 121.639C209.555 121.561 209.385 121.424 209.272 121.228C209.161 121.025 209.136 120.807 209.198 120.575L210.157 116.993C210.217 116.769 210.346 116.597 210.544 116.476C210.75 116.357 210.967 116.32 211.195 116.365C211.414 116.415 211.644 116.468 211.885 116.525C212.134 116.583 212.383 116.646 212.63 116.712ZM211.083 120.496C211.143 120.521 211.24 120.559 211.375 120.612C211.52 120.659 211.654 120.699 211.777 120.732C211.94 120.776 212.076 120.775 212.188 120.73C212.309 120.68 212.383 120.605 212.41 120.504C212.48 120.241 212.287 120.049 211.832 119.927L211.275 119.778L211.083 120.496ZM211.554 118.734L212.134 118.89C212.265 118.925 212.396 118.931 212.527 118.908C212.659 118.877 212.745 118.788 212.784 118.642C212.811 118.541 212.795 118.446 212.737 118.356C212.68 118.258 212.574 118.188 212.42 118.146C212.366 118.132 212.303 118.119 212.231 118.108C212.162 118.09 212.091 118.075 212.02 118.064C211.958 118.047 211.899 118.036 211.843 118.029C211.796 118.017 211.765 118.008 211.75 118.004L211.554 118.734ZM216.223 123.464C215.752 123.338 215.397 123.085 215.159 122.707C214.93 122.323 214.887 121.864 215.03 121.331C215.109 121.037 215.227 120.796 215.386 120.606C215.544 120.417 215.727 120.275 215.934 120.182C216.143 120.08 216.369 120.025 216.612 120.015C216.863 120.008 217.115 120.038 217.37 120.107C217.602 120.169 217.798 120.259 217.957 120.376C218.126 120.487 218.244 120.585 218.313 120.67L218.341 120.566C218.413 120.295 218.4 120.081 218.302 119.922C218.213 119.757 218.057 119.645 217.833 119.585C217.694 119.548 217.559 119.524 217.43 119.514C217.31 119.498 217.191 119.492 217.075 119.493C217.032 119.499 216.995 119.497 216.964 119.489C216.933 119.48 216.902 119.472 216.872 119.464C216.725 119.424 216.605 119.347 216.512 119.231C216.426 119.117 216.377 118.975 216.364 118.806C216.356 118.746 216.361 118.681 216.379 118.611C216.421 118.457 216.508 118.331 216.642 118.234C216.785 118.132 216.946 118.072 217.125 118.053C217.279 118.037 217.469 118.038 217.695 118.057C217.93 118.079 218.163 118.12 218.395 118.182C219.191 118.396 219.699 118.739 219.92 119.213C220.141 119.686 220.158 120.274 219.97 120.977L219.327 123.377C219.253 123.655 219.119 123.847 218.925 123.952C218.731 124.058 218.541 124.086 218.356 124.036C218.132 123.976 217.976 123.876 217.889 123.737C217.802 123.598 217.755 123.432 217.749 123.24C217.564 123.405 217.334 123.505 217.06 123.54C216.788 123.566 216.509 123.541 216.223 123.464ZM218.033 121.713C217.902 121.554 217.697 121.437 217.419 121.362C217.272 121.323 217.143 121.326 217.032 121.37C216.923 121.407 216.851 121.491 216.815 121.623C216.784 121.739 216.805 121.848 216.877 121.95C216.949 122.052 217.058 122.123 217.205 122.162C217.383 122.21 217.53 122.216 217.647 122.181C217.774 122.141 217.874 122.093 217.946 122.038L218.033 121.713ZM223.312 124.495C223.252 124.719 223.115 124.889 222.902 125.006C222.698 125.117 222.473 125.139 222.225 125.073C221.978 125.007 221.79 124.874 221.661 124.673C221.543 124.468 221.513 124.253 221.573 124.029L222.318 121.247L221.622 121.06C221.398 121 221.227 120.867 221.108 120.661C220.999 120.45 220.978 120.221 221.044 119.973C221.11 119.726 221.242 119.542 221.44 119.421C221.648 119.295 221.864 119.261 222.088 119.321L225.218 120.16C225.442 120.22 225.608 120.356 225.717 120.568C225.836 120.773 225.862 121 225.796 121.247C225.73 121.494 225.593 121.681 225.385 121.808C225.187 121.929 224.976 121.959 224.752 121.899L224.057 121.713L223.312 124.495ZM228.916 122.456C229.372 122.578 229.736 122.734 230.008 122.923C230.289 123.114 230.494 123.322 230.624 123.547C230.762 123.775 230.839 124.011 230.857 124.256C230.874 124.501 230.851 124.739 230.789 124.971C230.721 125.226 230.606 125.468 230.445 125.699C230.292 125.931 230.088 126.12 229.834 126.268C229.587 126.417 229.284 126.51 228.927 126.546C228.577 126.585 228.174 126.543 227.718 126.421L226.315 126.045C226.091 125.985 225.919 125.856 225.798 125.658C225.687 125.454 225.661 125.24 225.721 125.016L226.699 121.365C226.759 121.141 226.891 120.973 227.094 120.862C227.308 120.745 227.538 120.72 227.785 120.786C228.033 120.853 228.216 120.989 228.334 121.194C228.463 121.395 228.497 121.607 228.437 121.831L228.313 122.295L228.916 122.456ZM227.646 124.787L228.086 124.905C228.318 124.967 228.501 124.966 228.634 124.902C228.777 124.833 228.871 124.713 228.916 124.543C228.962 124.373 228.944 124.224 228.863 124.094C228.789 123.967 228.632 123.871 228.393 123.807L227.941 123.686L227.646 124.787ZM173.275 117.552C174.071 117.765 174.652 118.041 175.017 118.379C175.384 118.709 175.502 119.118 175.372 119.605C175.328 119.767 175.262 119.906 175.173 120.023C175.083 120.14 174.979 120.236 174.859 120.312C174.748 120.39 174.629 120.445 174.504 120.478C174.382 120.503 174.263 120.512 174.149 120.507C174.447 120.694 174.656 120.916 174.778 121.172C174.91 121.423 174.938 121.687 174.864 121.966C174.719 122.506 174.397 122.859 173.898 123.023C173.408 123.182 172.726 123.144 171.853 122.91C171.66 122.859 171.433 122.794 171.172 122.715C170.92 122.639 170.672 122.56 170.428 122.479C170.201 122.401 170.03 122.264 169.917 122.068C169.806 121.865 169.781 121.647 169.844 121.415L170.802 117.833C170.862 117.609 170.991 117.437 171.189 117.316C171.395 117.197 171.612 117.16 171.84 117.204C172.059 117.255 172.289 117.308 172.53 117.365C172.78 117.423 173.028 117.485 173.275 117.552ZM171.728 121.336C171.788 121.361 171.885 121.399 172.02 121.452C172.165 121.499 172.299 121.539 172.423 121.572C172.585 121.616 172.722 121.615 172.833 121.57C172.954 121.52 173.028 121.445 173.055 121.344C173.125 121.081 172.933 120.889 172.477 120.767L171.92 120.618L171.728 121.336ZM172.2 119.574L172.779 119.73C172.911 119.765 173.042 119.771 173.172 119.748C173.304 119.717 173.39 119.628 173.43 119.481C173.456 119.381 173.441 119.286 173.382 119.195C173.325 119.097 173.22 119.028 173.065 118.986C173.011 118.972 172.948 118.959 172.877 118.948C172.807 118.93 172.737 118.915 172.665 118.904C172.603 118.887 172.544 118.876 172.488 118.869C172.442 118.856 172.411 118.848 172.395 118.844L172.2 119.574ZM180.254 122.478L179.788 124.217C179.728 124.441 179.592 124.612 179.378 124.728C179.175 124.84 178.949 124.862 178.702 124.796C178.455 124.729 178.267 124.596 178.138 124.396C178.019 124.19 177.99 123.975 178.05 123.751L179.058 119.984C179.118 119.76 179.25 119.592 179.454 119.481C179.667 119.364 179.898 119.339 180.145 119.405C180.392 119.472 180.575 119.608 180.694 119.814C180.823 120.014 180.857 120.226 180.797 120.45L180.353 122.108L181.972 120.516C182.12 120.365 182.277 120.258 182.443 120.195C182.611 120.124 182.795 120.116 182.996 120.17C183.282 120.246 183.481 120.387 183.592 120.59C183.711 120.796 183.74 121.011 183.68 121.235C183.63 121.421 183.525 121.583 183.363 121.722L182.235 122.687L182.865 124.371C182.943 124.574 182.956 124.776 182.902 124.977C182.84 125.209 182.704 125.392 182.494 125.526C182.292 125.663 182.059 125.696 181.797 125.625C181.573 125.565 181.404 125.466 181.292 125.328C181.188 125.193 181.1 125.024 181.03 124.823L180.254 122.478ZM186.037 126.787C185.589 126.667 185.206 126.489 184.888 126.255C184.57 126.021 184.316 125.746 184.127 125.43C183.946 125.116 183.831 124.775 183.78 124.405C183.738 124.038 183.77 123.657 183.875 123.263C183.981 122.869 184.143 122.523 184.364 122.226C184.592 121.931 184.863 121.693 185.176 121.512C185.497 121.333 185.854 121.222 186.247 121.178C186.64 121.134 187.06 121.172 187.508 121.292C187.956 121.412 188.34 121.59 188.658 121.824C188.976 122.058 189.226 122.332 189.407 122.646C189.596 122.961 189.711 123.303 189.754 123.671C189.804 124.04 189.776 124.422 189.67 124.816C189.565 125.21 189.398 125.555 189.17 125.85C188.95 126.147 188.679 126.385 188.358 126.564C188.044 126.745 187.691 126.857 187.299 126.901C186.906 126.945 186.485 126.907 186.037 126.787ZM187.074 122.915C186.796 122.84 186.525 122.876 186.263 123.021C186.003 123.158 185.825 123.404 185.73 123.76C185.641 124.092 185.669 124.389 185.814 124.652C185.959 124.914 186.178 125.085 186.472 125.164C186.765 125.242 187.039 125.212 187.291 125.073C187.546 124.926 187.721 124.674 187.816 124.319C187.907 123.979 187.879 123.682 187.732 123.427C187.587 123.164 187.367 122.994 187.074 122.915ZM194.567 124.141C194.627 123.917 194.758 123.749 194.962 123.638C195.175 123.521 195.406 123.496 195.653 123.562C195.9 123.628 196.083 123.764 196.202 123.97C196.331 124.17 196.365 124.383 196.305 124.607L195.297 128.374C195.237 128.598 195.1 128.768 194.886 128.885C194.683 128.996 194.457 129.019 194.21 128.952C193.963 128.886 193.775 128.753 193.646 128.553C193.527 128.347 193.498 128.132 193.558 127.908L193.853 126.807L192.172 126.356L191.877 127.457C191.817 127.682 191.681 127.852 191.467 127.969C191.264 128.08 191.038 128.102 190.791 128.036C190.544 127.97 190.356 127.836 190.227 127.636C190.108 127.431 190.079 127.216 190.139 126.991L191.147 123.224C191.207 123 191.339 122.832 191.543 122.721C191.756 122.605 191.987 122.579 192.234 122.646C192.481 122.712 192.664 122.848 192.783 123.054C192.912 123.254 192.946 123.466 192.886 123.69L192.607 124.733L194.287 125.184L194.567 124.141ZM198.772 127.442L198.307 129.181C198.247 129.405 198.11 129.575 197.896 129.692C197.693 129.803 197.467 129.825 197.22 129.759C196.973 129.693 196.785 129.56 196.656 129.36C196.537 129.154 196.508 128.939 196.568 128.715L197.577 124.947C197.637 124.723 197.768 124.556 197.972 124.445C198.185 124.328 198.416 124.303 198.663 124.369C198.91 124.435 199.093 124.571 199.212 124.777C199.341 124.977 199.375 125.189 199.315 125.413L198.871 127.071L200.49 125.48C200.638 125.329 200.795 125.222 200.961 125.159C201.129 125.088 201.314 125.079 201.514 125.133C201.8 125.21 201.999 125.35 202.11 125.554C202.229 125.76 202.258 125.974 202.198 126.199C202.149 126.384 202.043 126.546 201.882 126.685L200.754 127.65L201.384 129.335C201.462 129.538 201.474 129.74 201.42 129.941C201.358 130.173 201.222 130.356 201.012 130.49C200.81 130.626 200.578 130.659 200.315 130.589C200.091 130.529 199.923 130.43 199.81 130.292C199.706 130.156 199.619 129.988 199.548 129.787L198.772 127.442ZM205.365 128.787C205.378 128.923 205.381 129.052 205.373 129.174C205.373 129.298 205.372 129.426 205.369 129.558C205.416 129.446 205.462 129.335 205.509 129.223C205.557 129.103 205.619 128.983 205.692 128.862L206.71 127.197C206.813 127.026 206.954 126.902 207.132 126.825C207.318 126.751 207.507 126.739 207.7 126.791C207.994 126.87 208.198 127.02 208.313 127.241C208.429 127.455 208.457 127.677 208.395 127.909C208.362 128.033 208.306 128.146 208.229 128.25L205.57 131.873C205.258 132.295 204.982 132.63 204.741 132.881C204.498 133.139 204.269 133.33 204.053 133.454C203.843 133.588 203.641 133.663 203.447 133.677C203.258 133.701 203.063 133.686 202.863 133.632C202.731 133.597 202.612 133.548 202.504 133.486C202.396 133.424 202.299 133.357 202.211 133.283C202.096 133.186 202.016 133.066 201.972 132.921C201.936 132.779 201.936 132.638 201.973 132.499C202 132.399 202.04 132.31 202.094 132.233C202.239 132.032 202.4 131.926 202.577 131.915C202.754 131.905 202.938 131.925 203.132 131.977C203.255 132.01 203.366 131.999 203.464 131.942C203.57 131.888 203.667 131.802 203.756 131.685L203.947 131.438L203.235 126.998C203.212 126.868 203.22 126.729 203.259 126.582C203.325 126.335 203.471 126.146 203.696 126.016C203.932 125.88 204.192 125.851 204.478 125.928C204.702 125.988 204.868 126.094 204.976 126.247C205.094 126.395 205.16 126.566 205.174 126.76L205.365 128.787ZM210.433 131.375C210.544 131.487 210.649 131.574 210.749 131.634C210.859 131.688 211.006 131.74 211.192 131.79C211.57 131.891 211.878 131.854 212.116 131.677C212.364 131.495 212.531 131.242 212.618 130.917C212.698 130.616 212.678 130.337 212.556 130.08C212.442 129.826 212.219 129.655 211.886 129.566C211.562 129.479 211.219 129.552 210.858 129.787L210.433 131.375ZM210.607 127.57C210.823 127.628 210.977 127.719 211.068 127.843C211.167 127.969 211.236 128.095 211.277 128.222C211.461 128.122 211.69 128.055 211.964 128.021C212.241 127.979 212.541 128.002 212.866 128.089C213.213 128.182 213.512 128.333 213.763 128.541C214.022 128.751 214.219 129.002 214.356 129.296C214.493 129.589 214.572 129.913 214.593 130.266C214.622 130.622 214.585 130.993 214.482 131.379C214.376 131.773 214.207 132.126 213.975 132.436C213.753 132.741 213.484 132.988 213.168 133.177C212.86 133.367 212.513 133.49 212.126 133.543C211.747 133.599 211.344 133.57 210.919 133.456C210.742 133.408 210.568 133.345 210.399 133.267C210.235 133.198 210.098 133.12 209.989 133.033L209.58 134.563C209.52 134.787 209.384 134.953 209.173 135.062C208.967 135.181 208.74 135.207 208.493 135.141C208.246 135.075 208.059 134.938 207.932 134.73C207.811 134.532 207.781 134.321 207.841 134.097L209.424 128.185C209.484 127.961 209.618 127.782 209.828 127.647C210.046 127.515 210.305 127.489 210.607 127.57ZM219.305 131.716C219.189 131.685 219.056 131.624 218.907 131.534C218.828 131.488 218.748 131.446 218.667 131.408C218.594 131.372 218.515 131.342 218.43 131.319C218.291 131.282 218.149 131.269 218.006 131.28C217.862 131.291 217.722 131.333 217.587 131.404C217.454 131.468 217.334 131.56 217.228 131.681C217.129 131.803 217.054 131.957 217.005 132.143C216.957 132.32 216.949 132.488 216.982 132.646C217.014 132.803 217.071 132.947 217.152 133.077C217.235 133.198 217.336 133.304 217.452 133.393C217.579 133.477 217.712 133.537 217.851 133.574C217.959 133.603 218.067 133.62 218.173 133.624C218.28 133.627 218.381 133.621 218.476 133.605C218.562 133.595 218.645 133.593 218.727 133.598C218.81 133.596 218.891 133.605 218.968 133.625C219.215 133.692 219.384 133.865 219.474 134.146C219.517 134.298 219.519 134.444 219.482 134.583C219.44 134.738 219.364 134.866 219.254 134.969C219.144 135.072 219.02 135.147 218.884 135.193C218.685 135.256 218.441 135.285 218.152 135.283C217.87 135.282 217.579 135.241 217.278 135.16C216.845 135.044 216.468 134.873 216.148 134.646C215.828 134.419 215.576 134.153 215.393 133.847C215.21 133.542 215.094 133.2 215.046 132.823C215.006 132.447 215.04 132.055 215.15 131.645C215.251 131.267 215.412 130.929 215.633 130.632C215.853 130.335 216.116 130.095 216.422 129.912C216.737 129.723 217.084 129.604 217.461 129.556C217.84 129.501 218.235 129.528 218.644 129.638C218.938 129.716 219.197 129.815 219.422 129.933C219.647 130.051 219.831 130.171 219.972 130.292C220.108 130.403 220.202 130.531 220.254 130.678C220.308 130.817 220.316 130.955 220.279 131.095C220.246 131.218 220.176 131.34 220.069 131.461C219.846 131.707 219.591 131.792 219.305 131.716ZM224.106 133.425C224.153 133.247 224.123 133.065 224.016 132.879C223.918 132.687 223.73 132.554 223.452 132.479C223.158 132.401 222.918 132.402 222.73 132.484C222.542 132.567 222.375 132.712 222.228 132.921L224.106 133.425ZM223.898 131.046C224.23 131.135 224.531 131.278 224.802 131.474C225.08 131.673 225.306 131.912 225.48 132.19C225.654 132.469 225.77 132.777 225.828 133.116C225.887 133.455 225.866 133.81 225.767 134.18L225.705 134.412C225.645 134.636 225.524 134.778 225.343 134.837C225.169 134.898 225.009 134.909 224.862 134.87L221.976 134.096C221.994 134.366 222.097 134.588 222.282 134.762C222.475 134.938 222.714 135.064 223 135.141C223.101 135.168 223.215 135.19 223.343 135.208C223.472 135.218 223.612 135.222 223.762 135.221C223.845 135.218 223.925 135.227 224.003 135.248C224.134 135.283 224.243 135.354 224.331 135.46C224.421 135.559 224.475 135.681 224.494 135.827C224.506 135.905 224.5 135.99 224.475 136.083C224.44 136.214 224.362 136.334 224.242 136.443C224.131 136.546 223.989 136.615 223.813 136.651C223.593 136.7 223.359 136.707 223.112 136.674C222.872 136.643 222.643 136.598 222.427 136.54C221.994 136.424 221.622 136.254 221.309 136.029C220.996 135.805 220.749 135.54 220.565 135.234C220.39 134.93 220.278 134.59 220.23 134.212C220.19 133.837 220.225 133.445 220.334 133.035C220.436 132.656 220.596 132.318 220.817 132.021C221.045 131.726 221.312 131.487 221.617 131.304C221.933 131.115 222.283 130.998 222.668 130.952C223.055 130.899 223.465 130.93 223.898 131.046Z" fill="white"/>
<path opacity="0.1" d="M177.319 165.905L177.32 165.906L185.002 173.819L185.004 173.821L189.699 178.625L194.393 173.821L194.395 173.819L202.077 165.906L202.079 165.905C204.881 163.037 204.881 158.471 202.079 155.604L202.079 155.604L202.074 155.599C199.337 152.75 194.854 152.743 192.058 155.604L191.528 155.085L192.058 155.604L190.229 157.475L189.699 158.018L189.168 157.475L187.339 155.604C184.543 152.743 180.06 152.75 177.323 155.599L177.323 155.599L177.319 155.604C174.516 158.471 174.516 163.037 177.319 165.905Z" stroke="#FF0199" stroke-width="1.483"/>
<path d="M252.281 106.453C252.371 107.161 252.211 108.91 250.849 110.242C249.487 111.574 247.826 111.727 247.167 111.636" stroke="#0647C7" stroke-width="1.01386" stroke-linecap="round"/>
<path d="M259.805 114.344C259.085 114.119 257.2 113.91 255.412 114.866C253.624 115.823 252.992 117.286 252.9 117.899" stroke="#0647C7" stroke-width="1.01386" stroke-linecap="round"/>
<path d="M259.461 108.422C256 109.96 251.302 113.85 250.389 114.663" stroke="#0647C7" stroke-width="1.01386" stroke-linecap="round"/>
<path d="M57.2947 0.8125L56.6675 9.0547L48.4253 9.68186L56.6675 10.309L57.2947 18.5512L57.9219 10.309L66.1641 9.68186L57.9219 9.0547L57.2947 0.8125Z" fill="url(#paint4_radial_229_20063)"/>
<path d="M57.2947 0.8125L56.6675 9.0547L48.4253 9.68186L56.6675 10.309L57.2947 18.5512L57.9219 10.309L66.1641 9.68186L57.9219 9.0547L57.2947 0.8125Z" fill="url(#paint5_radial_229_20063)"/>
<path d="M296.826 126.18L296.199 134.422L287.957 135.049L296.199 135.676L296.826 143.918L297.453 135.676L305.695 135.049L297.453 134.422L296.826 126.18Z" fill="url(#paint6_radial_229_20063)"/>
<path d="M296.826 126.18L296.199 134.422L287.957 135.049L296.199 135.676L296.826 143.918L297.453 135.676L305.695 135.049L297.453 134.422L296.826 126.18Z" fill="url(#paint7_radial_229_20063)"/>
<defs>
<radialGradient id="paint0_radial_229_20063" cx="0" cy="0" r="1" gradientUnits="userSpaceOnUse" gradientTransform="translate(80.7722 133.688) rotate(130.538) scale(28.9871 40.0307)">
<stop stop-color="#FF00D6"/>
<stop offset="0.562168" stop-color="#FF004D"/>
<stop offset="1" stop-color="#FF6291"/>
</radialGradient>
<radialGradient id="paint1_radial_229_20063" cx="0" cy="0" r="1" gradientUnits="userSpaceOnUse" gradientTransform="translate(72.0184 136.655) rotate(43.2703) scale(19.5145 24.5654)">
<stop stop-color="#FFE7AB"/>
<stop offset="1" stop-color="#FABC22"/>
</radialGradient>
<linearGradient id="paint2_linear_229_20063" x1="97.1427" y1="213.803" x2="1.74047" y2="158.933" gradientUnits="userSpaceOnUse">
<stop stop-color="#0F8AEF"/>
<stop offset="0.37" stop-color="#3D8AE7"/>
<stop offset="0.7" stop-color="#66B1FF"/>
</linearGradient>
<linearGradient id="paint3_linear_229_20063" x1="113.811" y1="185.851" x2="141.422" y2="185.851" gradientUnits="userSpaceOnUse">
<stop stop-color="#0F8AEF"/>
<stop offset="0.58" stop-color="#408DE9"/>
<stop offset="0.73" stop-color="#4390EA"/>
<stop offset="0.85" stop-color="#4D99F0"/>
<stop offset="0.96" stop-color="#5EAAFA"/>
<stop offset="1" stop-color="#66B1FF"/>
</linearGradient>
<radialGradient id="paint4_radial_229_20063" cx="0" cy="0" r="1" gradientUnits="userSpaceOnUse" gradientTransform="translate(62.5414 2.51814) rotate(130.538) scale(17.3852 24.0086)">
<stop stop-color="#FF00D6"/>
<stop offset="0.562168" stop-color="#FF004D"/>
<stop offset="1" stop-color="#FF6291"/>
</radialGradient>
<radialGradient id="paint5_radial_229_20063" cx="0" cy="0" r="1" gradientUnits="userSpaceOnUse" gradientTransform="translate(57.2912 4.29776) rotate(43.2703) scale(11.7039 14.7332)">
<stop stop-color="#FFE7AB"/>
<stop offset="1" stop-color="#FABC22"/>
</radialGradient>
<radialGradient id="paint6_radial_229_20063" cx="0" cy="0" r="1" gradientUnits="userSpaceOnUse" gradientTransform="translate(302.073 127.885) rotate(130.538) scale(17.3852 24.0086)">
<stop stop-color="#FF00D6"/>
<stop offset="0.562168" stop-color="#FF004D"/>
<stop offset="1" stop-color="#FF6291"/>
</radialGradient>
<radialGradient id="paint7_radial_229_20063" cx="0" cy="0" r="1" gradientUnits="userSpaceOnUse" gradientTransform="translate(296.822 129.665) rotate(43.2703) scale(11.7039 14.7332)">
<stop stop-color="#FFE7AB"/>
<stop offset="1" stop-color="#FABC22"/>
</radialGradient>
<clipPath id="clip0_229_20063">
<path d="M188.734 61.8069C188.734 52.3262 181.049 44.6406 171.568 44.6406H18.0256C8.54492 44.6406 0.859329 52.3262 0.859329 61.8069V180.063C0.859329 189.544 8.54492 197.229 18.0256 197.229H170.564C180.599 197.229 188.734 189.095 188.734 179.059V61.8069Z" fill="white"/>
</clipPath>
</defs>
</svg>
