<svg width="336" height="328" viewBox="0 0 336 328" fill="none" xmlns="http://www.w3.org/2000/svg">
    <g clip-path="url(#clip0_229_20440)">
        <path d="M169.36 207.988C161.023 200.773 149.436 198.836 139.679 203.178C136.768 204.471 132.784 208.452 133.631 211.821C134.999 217.246 140.787 220.436 140.787 220.436C139.712 217.309 134.728 211.531 130.033 215.158C121.521 221.728 130.825 232.478 135.256 233.189C121.093 265.764 90.0703 226.601 90.0703 226.601L105.143 272.514C134.706 295.455 155.239 289.091 174.404 238.842C174.404 238.842 177.75 231.882 177.11 222.421C176.698 216.362 173.713 211.755 169.364 207.991L169.36 207.988Z" fill="url(#paint0_linear_229_20440)"/>
        <g clip-path="url(#clip1_229_20440)">
            <path d="M175.768 241.819L176.137 242.148C174.752 245.14 172.717 247.858 170.244 250.012L169.832 249.743C172.342 247.588 174.395 244.84 175.768 241.816L175.768 241.819Z" fill="white"/>
        </g>
        <g filter="url(#filter0_dd_229_20440)">
            <path d="M107.462 187.62C106.979 187.406 106.6 187.099 106.322 186.709C105.041 184.925 106.399 181.865 109.356 179.886C111.314 178.575 113.483 178.022 115.183 178.406L116.203 178.635L111.671 161.222C111.634 161.068 111.694 160.914 111.828 160.835C112.109 160.667 118.782 156.805 124.488 159.34C125.105 159.613 125.696 159.962 126.247 160.362C126.327 160.423 126.378 160.506 126.39 160.598C126.402 160.69 126.378 160.782 126.324 160.862C126.222 160.989 126.04 161.037 125.884 160.968C125.326 160.565 124.787 160.256 124.23 160.009C119.906 158.089 114.863 160.123 112.893 161.084L112.437 161.304L117.323 180.124C117.993 182.016 116.582 184.621 113.983 186.362C111.717 187.881 109.156 188.372 107.462 187.62ZM115.566 179.275C114.125 178.634 111.8 179.119 109.765 180.481C108.524 181.309 107.539 182.363 106.998 183.441C106.437 184.562 106.402 185.606 106.903 186.312C107.107 186.592 107.395 186.823 107.759 186.985C109.193 187.622 111.525 187.141 113.56 185.778C116.184 184.022 117.467 181.403 116.414 179.944C116.211 179.664 115.923 179.433 115.559 179.271L115.566 179.275Z" fill="#00FFBA"/>
        </g>
        <g clip-path="url(#clip2_229_20440)" filter="url(#filter1_d_229_20440)">
        </g>
        <path d="M100.259 242.82L94.6747 231.467C94.0603 227.251 101.799 216.388 101.877 208.965C102.043 193.434 90.1744 188.533 88.0612 180.106C88.0612 180.106 91.2921 176.491 90.5519 173.724C89.4268 169.509 78.8054 165.053 75.1822 166.22C72.9432 166.942 72.2918 169.528 72.2918 169.528C61.3632 166.757 54.4462 168.928 50.8452 169.846C37.5998 173.228 30.4682 180.225 30.4682 180.225C28.529 178.61 27.9332 178.177 26.9784 178.406C23.6069 179.229 16.7121 185.903 16.96 191.307C17.1118 194.63 22.6816 196.252 22.6816 196.252C24.1101 203.134 17.0859 215.243 21.5158 224.94C23.1257 228.463 27.5854 233.126 30.7792 236.819C30.683 238.39 29.6614 240.101 29.1359 241.708C8.40359 304.803 13.1779 342.306 13.1779 342.306C13.1779 342.306 36.2897 352.118 64.0388 352.122C95.7145 352.126 115.455 341.788 115.455 341.788C115.455 341.788 119.737 300.777 100.267 242.823L100.259 242.82Z" fill="#66B1FF"/>
        <path d="M22.4693 315.853C16.5143 287.079 29.4304 240.609 29.4304 240.609C29.4304 240.609 -11.8125 284.211 -10.2538 323.556C-10.0474 328.765 -7.61156 340.576 0.200724 341.44C0.200724 341.44 4.61904 347.856 9.09268 344.401C9.09268 344.401 12.096 349.703 16.6065 345.83C18.9244 343.837 18.8433 339.604 18.3531 336.361C18.7511 336.713 19.2045 336.958 19.7093 337.058C23.7518 337.871 28.4981 330.413 22.7826 316.588C22.6757 316.328 22.5726 316.087 22.4657 315.857L22.4693 315.853Z" fill="url(#paint1_linear_229_20440)"/>
        <path d="M94.3433 269.593C80.752 255.5 65.8363 267.928 64.6308 268.973C63.4253 267.925 48.5133 255.5 34.9183 269.593C19.8313 285.236 33.5789 316.993 38.2668 324.473C42.9547 331.953 52.2301 344.092 64.7685 344.46C77.3031 344.092 86.3069 331.953 90.9948 324.473C95.6827 316.993 109.427 285.236 94.3433 269.593Z" fill="white"/>
    </g>
    <g clip-path="url(#clip3_229_20440)">
        <path d="M169.344 207.98C161.007 200.765 149.421 198.828 139.663 203.17C136.753 204.463 132.768 208.444 133.616 211.814C134.983 217.238 140.771 220.428 140.771 220.428C139.697 217.301 134.712 211.523 130.017 215.15C121.505 221.72 130.809 232.471 135.24 233.181C121.078 265.756 90.0547 226.593 90.0547 226.593L105.128 272.507C134.69 295.447 155.223 289.083 174.389 238.834C174.389 238.834 177.734 231.874 177.095 222.413C176.682 216.355 173.697 211.747 169.348 207.984L169.344 207.98Z" fill="url(#paint2_linear_229_20440)"/>
        <path d="M177.854 242.356C175.492 240.396 135.603 210.63 135.603 210.63L126.839 224.395C126.839 224.395 171.333 248.41 173.594 249.29C175.855 250.17 180.216 244.317 177.854 242.356Z" fill="#4C4C4C"/>
        <path d="M174.062 238.947L173.719 238.695C173.658 238.64 173.578 238.604 173.491 238.598C173.318 238.584 173.157 238.689 173.1 238.853C172.091 241.735 170.51 244.327 168.385 246.509C168.3 246.596 168.261 246.718 168.281 246.838C168.3 246.958 168.376 247.062 168.484 247.118L168.895 247.329C169.046 247.407 169.23 247.376 169.347 247.254C171.517 244.994 173.137 242.338 174.196 239.386C174.254 239.226 174.199 239.048 174.062 238.947Z" fill="white" stroke="white" stroke-width="0.767236" stroke-linejoin="round"/>
        <path d="M133.064 206.818C132.167 203.273 130.065 198.825 126.738 196.707C119.816 192.3 110.633 194.338 106.226 201.259C101.82 208.181 103.858 217.364 110.779 221.771C114.107 223.889 118.749 224.029 122.339 223.342L133.064 206.818Z" fill="#989898"/>
        <path d="M125.666 196.061C125.769 195.898 125.976 195.836 126.151 195.917C126.251 195.962 126.367 196.024 126.466 196.08C126.556 196.131 126.665 196.196 126.728 196.249C126.827 196.331 126.878 196.456 126.865 196.584C126.824 196.972 126.671 197.435 126.52 197.851C126.465 198.003 126.41 198.149 126.358 198.287C126.26 198.547 126.172 198.78 126.111 198.978C126.111 198.979 126.111 198.979 126.111 198.979L125.744 198.867C123.173 207.457 117.872 215.773 111.125 221.966L125.666 196.061ZM125.666 196.061C125.621 196.132 125.603 196.212 125.608 196.291M125.666 196.061L125.608 196.291M125.608 196.291C125.582 196.576 125.466 196.957 125.315 197.381C125.266 197.518 125.213 197.66 125.16 197.802C125.051 198.095 124.942 198.387 124.872 198.625L125.608 196.291Z" fill="#4C4C4C" stroke="#4C4C4C" stroke-width="0.767236" stroke-linejoin="round"/>
        <path fill-rule="evenodd" clip-rule="evenodd" d="M122.207 223.425C122.314 223.917 122.607 224.339 123.031 224.611L123.715 225.051L123.711 225.059L125.167 225.986C125.592 226.257 126.097 226.346 126.589 226.236C127.081 226.127 127.501 225.833 127.772 225.408L137.028 210.871C137.299 210.445 137.387 209.94 137.278 209.448C137.169 208.956 136.875 208.536 136.45 208.265L135.841 207.878L135.844 207.874L134.392 206.94C133.968 206.668 133.463 206.577 132.971 206.684C132.478 206.791 132.057 207.083 131.784 207.507L122.464 222.003C122.191 222.427 122.1 222.932 122.207 223.425Z" fill="#ECECEC"/>
        <g clip-path="url(#clip4_229_20440)">
            <path d="M167.629 207.191C158.957 200.284 147.25 198.871 137.643 203.727C134.778 205.173 130.807 210.091 131.801 213.462C133.403 218.887 142.35 216.353 142.35 216.353C140.688 218.013 139.974 219.494 140.971 223.1C150.496 232.622 150.694 224.032 155.17 224.542C147.323 235.899 161.458 235.986 161.458 235.986L167.921 232.105L172.542 232.026C160.482 224.457 170.327 236.398 173.781 237.962C173.781 237.962 177.06 230.978 176.018 221.432C175.347 215.32 172.156 210.799 167.633 207.195L167.629 207.191Z" fill="url(#paint3_linear_229_20440)"/>
            <path d="M132.861 214.908C135.4 217.506 140.173 218.059 143.053 215.599C143.586 215.142 142.772 214.427 142.242 214.88C139.8 216.97 135.694 216.249 133.608 214.116C133.12 213.617 132.376 214.413 132.861 214.908Z" fill="#66B1FF"/>
            <path d="M150.477 208.625C148.728 209.643 147.045 210.775 145.486 212.052C143.595 213.598 141.727 215.42 140.73 217.646C140.266 218.683 139.993 219.812 140.098 220.94C140.204 222.113 140.694 223.168 141.379 224.126C142.557 225.771 144.224 227.069 146.323 227.379C149.744 227.88 153.196 226.186 156.047 224.536C156.679 224.167 156.065 223.243 155.433 223.611C152.995 225.025 150.153 226.459 147.237 226.36C145.37 226.297 143.782 225.353 142.664 223.952C142.028 223.153 141.477 222.274 141.289 221.267C141.112 220.304 141.275 219.295 141.645 218.387C142.485 216.315 144.175 214.613 145.883 213.167C147.492 211.806 149.269 210.618 151.096 209.553C151.728 209.185 151.114 208.261 150.481 208.629L150.477 208.625Z" fill="#66B1FF"/>
            <path d="M155.291 223.836C153.079 226.126 151.636 229.882 153.668 232.669C154.519 233.84 155.832 234.767 157.176 235.367C158.425 235.925 159.815 236.089 161.178 235.883C164.038 235.449 166.527 233.763 168.681 231.961C169.232 231.501 168.399 230.771 167.856 231.227C166.049 232.738 163.972 234.15 161.623 234.694C160.943 234.85 160.208 234.918 159.524 234.863C159.046 234.823 158.38 234.665 158.033 234.535C157.013 234.145 155.981 233.483 155.211 232.749C153.845 231.445 153.521 229.691 154.08 227.936C154.475 226.702 155.211 225.507 156.117 224.571C156.616 224.055 155.787 223.32 155.291 223.836Z" fill="#66B1FF"/>
        </g>
        <path d="M100.251 242.82L94.6669 231.467C94.0525 227.251 101.791 216.388 101.869 208.965C102.035 193.434 90.1666 188.533 88.0534 180.106C88.0534 180.106 91.2842 176.491 90.5441 173.724C89.419 169.509 78.7976 165.053 75.1744 166.22C72.9354 166.942 72.284 169.528 72.284 169.528C61.3554 166.757 54.4384 168.928 50.8374 169.846C37.592 173.228 30.4604 180.225 30.4604 180.225C28.5211 178.61 27.9254 178.177 26.9706 178.406C23.5991 179.229 16.7043 185.903 16.9522 191.307C17.104 194.63 22.6738 196.252 22.6738 196.252C24.1023 203.134 17.0781 215.243 21.508 224.94C23.1179 228.463 27.5775 233.126 30.7714 236.819C30.6752 238.39 29.6536 240.101 29.1281 241.708C8.39578 304.803 13.17 342.306 13.17 342.306C13.17 342.306 36.2819 352.118 64.031 352.122C95.7067 352.126 115.447 341.788 115.447 341.788C115.447 341.788 119.729 300.777 100.259 242.823L100.251 242.82Z" fill="#66B1FF"/>
        <path d="M85.4587 196.769C82.2464 194.26 62.6203 198.693 62.6203 198.693C62.6203 198.693 44.1109 202.416 42.7162 208.637C42.1375 211.215 40.2754 216.811 41.9669 220.289C44.0441 224.561 64.3934 232.684 72.0383 229.381C80.3249 228.507 91.8275 211.647 92.1391 206.918C92.4173 202.643 88.2072 198.912 85.4623 196.769H85.4587Z" fill="white"/>
        <path d="M38.7933 186.526C39.4127 185.389 41.801 182.04 48.5031 181.375C49.8913 181.237 51.9736 182.937 50.5556 184.968C49.3167 186.744 41.8084 189.778 40.3903 189.73C38.9387 189.683 37.9536 188.066 38.7933 186.526Z" fill="#0073E4"/>
        <path d="M75.0661 176.443C74.0047 175.74 70.3829 173.916 64.259 176.228C62.9897 176.708 61.9684 179.044 64.1386 180.168C66.0316 181.146 73.9536 180.502 75.1609 179.855C76.3973 179.19 76.5068 177.394 75.0661 176.44V176.443Z" fill="#0073E4"/>
        <path d="M65.4223 196.484C65.4223 196.484 53.1921 199.635 54.6338 203.393C56.0754 207.152 64.5346 211.592 68.9475 210.458C74.8315 208.942 78.6834 201.329 78.1662 197.33C77.6489 193.334 65.4188 196.484 65.4188 196.484H65.4223Z" fill="#0073E4"/>
        <path d="M56.416 194.325C53.66 192.092 49.4261 190.795 46.2367 192.849C44.6254 193.886 43.5179 195.522 42.7215 197.241C42.4214 197.89 43.3808 198.456 43.6808 197.804C44.8106 195.362 46.6813 193.054 49.5521 192.931C51.3746 192.853 53.1452 193.539 54.6751 194.471C54.9381 194.631 55.1972 194.799 55.4454 194.978C55.5158 195.026 55.5826 195.079 55.6492 195.131C55.7493 195.205 55.5233 195.03 55.627 195.112C56.1789 195.559 56.9717 194.773 56.4123 194.322L56.416 194.325Z" fill="#0073E4"/>
        <path d="M80.0262 186.967C77.0769 185.363 72.7588 184.722 70.1308 187.185C68.8074 188.423 68.1382 190.156 67.7715 191.845C67.624 192.518 68.7166 192.808 68.8641 192.131C69.3783 189.758 70.5846 187.307 73.3033 186.737C75.0086 186.383 76.8123 186.798 78.4231 187.421C78.4873 187.446 78.631 187.503 78.8088 187.582C78.9184 187.632 79.0318 187.682 79.1415 187.732C79.2473 187.783 79.3532 187.833 79.4553 187.89C80.0906 188.234 80.6614 187.307 80.0262 186.963V186.967Z" fill="#0073E4"/>
        <path d="M22.4615 315.853C16.5065 287.079 29.4226 240.609 29.4226 240.609C29.4226 240.609 -11.8204 284.211 -10.2616 323.556C-10.0552 328.765 -7.61937 340.576 0.192911 341.44C0.192911 341.44 4.61123 347.856 9.08487 344.401C9.08487 344.401 12.0882 349.703 16.5987 345.83C18.9166 343.837 18.8354 339.604 18.3453 336.361C18.7433 336.713 19.1966 336.958 19.7015 337.058C23.744 337.871 28.4903 330.413 22.7748 316.588C22.6679 316.328 22.5648 316.087 22.4579 315.857L22.4615 315.853Z" fill="url(#paint4_linear_229_20440)"/>
        <path d="M81.982 207.159C77.2594 212.168 70.3099 218.749 54.4442 213.153C53.5315 212.83 53.6403 214.335 61.3439 219.379C65.8788 222.348 70.2681 223.819 73.2212 222.504C76.462 221.062 77.9481 217.746 79.2551 215.315C82.599 209.097 83.4325 205.614 81.9777 207.156" fill="#143860"/>
        <path d="M77.3309 216.237C77.3309 216.237 68.1198 217.138 66.2461 221.349C66.0317 221.835 68.8596 222.93 71.7202 222.124C72.5294 221.896 74.4947 220.788 75.7956 218.863" fill="#ED7865"/>
    </g>
    <g filter="url(#filter2_dddddd_229_20440)">
        <path d="M103.794 165.823C103.283 165.596 102.882 165.272 102.587 164.858C101.231 162.969 102.669 159.73 105.799 157.635C107.872 156.247 110.168 155.661 111.968 156.068L113.048 156.311L108.25 137.876C108.21 137.712 108.275 137.549 108.416 137.466C108.714 137.288 115.778 133.199 121.819 135.882C122.472 136.172 123.099 136.542 123.682 136.965C123.766 137.03 123.82 137.118 123.833 137.215C123.846 137.312 123.82 137.41 123.763 137.494C123.655 137.628 123.462 137.679 123.297 137.606C122.706 137.179 122.136 136.853 121.546 136.591C116.968 134.558 111.629 136.712 109.544 137.73L109.061 137.962L114.234 157.887C114.943 159.889 113.449 162.648 110.698 164.491C108.298 166.099 105.588 166.619 103.794 165.823ZM112.374 156.987C110.848 156.31 108.386 156.822 106.232 158.265C104.919 159.142 103.875 160.257 103.302 161.398C102.709 162.585 102.671 163.691 103.202 164.438C103.418 164.734 103.723 164.979 104.108 165.15C105.626 165.824 108.095 165.315 110.25 163.873C113.028 162.013 114.386 159.241 113.271 157.696C113.056 157.4 112.751 157.155 112.366 156.984L112.374 156.987Z" fill="#00FFBA"/>
    </g>
    <g filter="url(#filter3_dddddd_229_20440)">
        <path d="M55.4295 116.591C54.9432 116.214 54.6747 115.746 54.6493 115.244C54.6253 114.642 54.9665 114.063 55.6132 113.601C56.3168 113.106 57.2865 112.812 58.3465 112.771C59.5746 112.727 60.7043 113.032 61.4537 113.612C61.5254 113.668 61.5972 113.723 61.6557 113.788L62.11 114.222L65.4846 104.233C65.5191 104.139 65.6045 104.079 65.7052 104.081L75.8116 104.437C75.862 104.438 75.9071 104.453 75.9429 104.481C75.9629 104.497 75.9788 104.509 75.9886 104.529C76.0321 104.588 76.0421 104.666 76.0181 104.73L72.3189 115.704C72.0334 116.852 70.495 117.714 68.6533 117.783C67.6609 117.819 66.7139 117.625 65.9821 117.235C65.8202 117.148 65.6675 117.048 65.5319 116.943C65.0457 116.567 64.7771 116.099 64.7517 115.597C64.7223 114.953 65.1092 114.34 65.8376 113.871C66.5264 113.428 67.4565 113.16 68.4529 113.127C69.681 113.083 70.8138 113.384 71.5632 113.964C71.6349 114.02 71.7067 114.075 71.7652 114.14L72.2195 114.574L75.4955 104.876L65.8571 104.534L62.2125 115.348C61.9269 116.496 60.3886 117.358 58.5469 117.427C57.5545 117.464 56.6075 117.269 55.8757 116.879C55.7138 116.792 55.561 116.692 55.4255 116.587L55.4295 116.591ZM61.1862 113.957C60.5404 113.456 59.4859 113.178 58.3725 113.222C56.5268 113.288 55.0615 114.188 55.1058 115.224C55.1209 115.591 55.3347 115.94 55.7173 116.237C55.8289 116.323 55.9577 116.404 56.0966 116.48C56.7444 116.83 57.6321 117.01 58.5349 116.974C60.3806 116.908 61.846 116.008 61.8017 114.972C61.7826 114.602 61.5719 114.249 61.1892 113.953L61.1862 113.957ZM71.2957 114.308C70.6499 113.808 69.5954 113.53 68.482 113.574C67.5824 113.606 66.714 113.852 66.0943 114.247C65.5082 114.624 65.1926 115.095 65.2153 115.576C65.2304 115.943 65.4442 116.292 65.8268 116.589C65.9384 116.675 66.0672 116.756 66.2061 116.832C66.8539 117.181 67.7416 117.362 68.6444 117.326C70.4901 117.26 71.9555 116.36 71.9112 115.324C71.8921 114.954 71.6814 114.601 71.2987 114.305L71.2957 114.308Z" fill="#00FFBA"/>
    </g>
    <g filter="url(#filter4_dddddd_229_20440)">
        <path d="M249.635 262.035C249.393 261.596 249.281 261.133 249.304 260.659C249.348 259.509 250.161 258.421 251.585 257.61C252.951 256.829 254.741 256.38 256.621 256.352C258.5 256.323 260.252 256.716 261.563 257.461C262.136 257.788 262.609 258.178 262.96 258.62L263.557 259.372L271.613 240.811C271.682 240.648 271.871 240.568 272.037 240.626C272.121 240.658 272.17 240.717 272.193 240.759C272.24 240.843 272.241 240.936 272.206 241.025L263.463 261.145C262.768 263.208 259.758 264.701 256.28 264.753C253.225 264.8 250.553 263.706 249.635 262.035ZM262.679 259.384C262.325 258.741 261.68 258.281 261.205 258.009C259.992 257.32 258.356 256.957 256.593 256.985C254.83 257.012 253.159 257.42 251.889 258.147C251.183 258.549 250.002 259.408 249.953 260.655C249.938 261.008 250.027 261.366 250.215 261.709C251.035 263.2 253.485 264.18 256.308 264.136C259.811 264.085 262.228 262.573 262.804 261.115L262.819 261.083L262.832 261.029C262.903 260.826 262.943 260.64 262.954 260.462C262.968 260.094 262.877 259.729 262.688 259.386L262.679 259.384Z" fill="#00FFBA"/>
    </g>
    <defs>
        <filter id="filter0_dd_229_20440" x="-21.1194" y="31.5134" width="274.473" height="283.418" filterUnits="userSpaceOnUse" color-interpolation-filters="sRGB">
            <feFlood flood-opacity="0" result="BackgroundImageFix"/>
            <feColorMatrix in="SourceAlpha" type="matrix" values="0 0 0 0 0 0 0 0 0 0 0 0 0 0 0 0 0 0 127 0" result="hardAlpha"/>
            <feOffset/>
            <feGaussianBlur stdDeviation="36.2752"/>
            <feColorMatrix type="matrix" values="0 0 0 0 0 0 0 0 0 1 0 0 0 0 0.729412 0 0 0 1 0"/>
            <feBlend mode="normal" in2="BackgroundImageFix" result="effect1_dropShadow_229_20440"/>
            <feColorMatrix in="SourceAlpha" type="matrix" values="0 0 0 0 0 0 0 0 0 0 0 0 0 0 0 0 0 0 127 0" result="hardAlpha"/>
            <feOffset/>
            <feGaussianBlur stdDeviation="63.4816"/>
            <feColorMatrix type="matrix" values="0 0 0 0 0 0 0 0 0 1 0 0 0 0 0.729412 0 0 0 1 0"/>
            <feBlend mode="normal" in2="effect1_dropShadow_229_20440" result="effect2_dropShadow_229_20440"/>
            <feBlend mode="normal" in="SourceGraphic" in2="effect2_dropShadow_229_20440" result="shape"/>
        </filter>
        <filter id="filter1_d_229_20440" x="76.5538" y="125.538" width="135.767" height="132.713" filterUnits="userSpaceOnUse" color-interpolation-filters="sRGB">
            <feFlood flood-opacity="0" result="BackgroundImageFix"/>
            <feColorMatrix in="SourceAlpha" type="matrix" values="0 0 0 0 0 0 0 0 0 0 0 0 0 0 0 0 0 0 127 0" result="hardAlpha"/>
            <feOffset/>
            <feGaussianBlur stdDeviation="29.6567"/>
            <feColorMatrix type="matrix" values="0 0 0 0 0 0 0 0 0 1 0 0 0 0 0.729412 0 0 0 1 0"/>
            <feBlend mode="normal" in2="BackgroundImageFix" result="effect1_dropShadow_229_20440"/>
            <feBlend mode="normal" in="SourceGraphic" in2="effect1_dropShadow_229_20440" result="shape"/>
        </filter>
        <filter id="filter2_dddddd_229_20440" x="-32.337" y="0.561447" width="290.588" height="300.041" filterUnits="userSpaceOnUse" color-interpolation-filters="sRGB">
            <feFlood flood-opacity="0" result="BackgroundImageFix"/>
            <feColorMatrix in="SourceAlpha" type="matrix" values="0 0 0 0 0 0 0 0 0 0 0 0 0 0 0 0 0 0 127 0" result="hardAlpha"/>
            <feOffset/>
            <feGaussianBlur stdDeviation="1.60018"/>
            <feColorMatrix type="matrix" values="0 0 0 0 0 0 0 0 0 1 0 0 0 0 0.729412 0 0 0 1 0"/>
            <feBlend mode="normal" in2="BackgroundImageFix" result="effect1_dropShadow_229_20440"/>
            <feColorMatrix in="SourceAlpha" type="matrix" values="0 0 0 0 0 0 0 0 0 0 0 0 0 0 0 0 0 0 127 0" result="hardAlpha"/>
            <feOffset/>
            <feGaussianBlur stdDeviation="3.20036"/>
            <feColorMatrix type="matrix" values="0 0 0 0 0 0 0 0 0 1 0 0 0 0 0.729412 0 0 0 1 0"/>
            <feBlend mode="normal" in2="effect1_dropShadow_229_20440" result="effect2_dropShadow_229_20440"/>
            <feColorMatrix in="SourceAlpha" type="matrix" values="0 0 0 0 0 0 0 0 0 0 0 0 0 0 0 0 0 0 127 0" result="hardAlpha"/>
            <feOffset/>
            <feGaussianBlur stdDeviation="11.2013"/>
            <feColorMatrix type="matrix" values="0 0 0 0 0 0 0 0 0 1 0 0 0 0 0.729412 0 0 0 1 0"/>
            <feBlend mode="normal" in2="effect2_dropShadow_229_20440" result="effect3_dropShadow_229_20440"/>
            <feColorMatrix in="SourceAlpha" type="matrix" values="0 0 0 0 0 0 0 0 0 0 0 0 0 0 0 0 0 0 127 0" result="hardAlpha"/>
            <feOffset/>
            <feGaussianBlur stdDeviation="22.4025"/>
            <feColorMatrix type="matrix" values="0 0 0 0 0 0 0 0 0 1 0 0 0 0 0.729412 0 0 0 1 0"/>
            <feBlend mode="normal" in2="effect3_dropShadow_229_20440" result="effect4_dropShadow_229_20440"/>
            <feColorMatrix in="SourceAlpha" type="matrix" values="0 0 0 0 0 0 0 0 0 0 0 0 0 0 0 0 0 0 127 0" result="hardAlpha"/>
            <feOffset/>
            <feGaussianBlur stdDeviation="38.4043"/>
            <feColorMatrix type="matrix" values="0 0 0 0 0 0 0 0 0 1 0 0 0 0 0.729412 0 0 0 1 0"/>
            <feBlend mode="normal" in2="effect4_dropShadow_229_20440" result="effect5_dropShadow_229_20440"/>
            <feColorMatrix in="SourceAlpha" type="matrix" values="0 0 0 0 0 0 0 0 0 0 0 0 0 0 0 0 0 0 127 0" result="hardAlpha"/>
            <feOffset/>
            <feGaussianBlur stdDeviation="67.2076"/>
            <feColorMatrix type="matrix" values="0 0 0 0 0 0 0 0 0 1 0 0 0 0 0.729412 0 0 0 1 0"/>
            <feBlend mode="normal" in2="effect5_dropShadow_229_20440" result="effect6_dropShadow_229_20440"/>
            <feBlend mode="normal" in="SourceGraphic" in2="effect6_dropShadow_229_20440" result="shape"/>
        </filter>
        <filter id="filter3_dddddd_229_20440" x="-26.3467" y="17.6533" width="185.936" height="187.209" filterUnits="userSpaceOnUse" color-interpolation-filters="sRGB">
            <feFlood flood-opacity="0" result="BackgroundImageFix"/>
            <feColorMatrix in="SourceAlpha" type="matrix" values="0 0 0 0 0 0 0 0 0 0 0 0 0 0 0 0 0 0 127 0" result="hardAlpha"/>
            <feOffset/>
            <feGaussianBlur stdDeviation="0.956509"/>
            <feColorMatrix type="matrix" values="0 0 0 0 0 0 0 0 0 1 0 0 0 0 0.729412 0 0 0 1 0"/>
            <feBlend mode="normal" in2="BackgroundImageFix" result="effect1_dropShadow_229_20440"/>
            <feColorMatrix in="SourceAlpha" type="matrix" values="0 0 0 0 0 0 0 0 0 0 0 0 0 0 0 0 0 0 127 0" result="hardAlpha"/>
            <feOffset/>
            <feGaussianBlur stdDeviation="1.91302"/>
            <feColorMatrix type="matrix" values="0 0 0 0 0 0 0 0 0 1 0 0 0 0 0.729412 0 0 0 1 0"/>
            <feBlend mode="normal" in2="effect1_dropShadow_229_20440" result="effect2_dropShadow_229_20440"/>
            <feColorMatrix in="SourceAlpha" type="matrix" values="0 0 0 0 0 0 0 0 0 0 0 0 0 0 0 0 0 0 127 0" result="hardAlpha"/>
            <feOffset/>
            <feGaussianBlur stdDeviation="6.69556"/>
            <feColorMatrix type="matrix" values="0 0 0 0 0 0 0 0 0 1 0 0 0 0 0.729412 0 0 0 1 0"/>
            <feBlend mode="normal" in2="effect2_dropShadow_229_20440" result="effect3_dropShadow_229_20440"/>
            <feColorMatrix in="SourceAlpha" type="matrix" values="0 0 0 0 0 0 0 0 0 0 0 0 0 0 0 0 0 0 127 0" result="hardAlpha"/>
            <feOffset/>
            <feGaussianBlur stdDeviation="13.3911"/>
            <feColorMatrix type="matrix" values="0 0 0 0 0 0 0 0 0 1 0 0 0 0 0.729412 0 0 0 1 0"/>
            <feBlend mode="normal" in2="effect3_dropShadow_229_20440" result="effect4_dropShadow_229_20440"/>
            <feColorMatrix in="SourceAlpha" type="matrix" values="0 0 0 0 0 0 0 0 0 0 0 0 0 0 0 0 0 0 127 0" result="hardAlpha"/>
            <feOffset/>
            <feGaussianBlur stdDeviation="22.9562"/>
            <feColorMatrix type="matrix" values="0 0 0 0 0 0 0 0 0 1 0 0 0 0 0.729412 0 0 0 1 0"/>
            <feBlend mode="normal" in2="effect4_dropShadow_229_20440" result="effect5_dropShadow_229_20440"/>
            <feColorMatrix in="SourceAlpha" type="matrix" values="0 0 0 0 0 0 0 0 0 0 0 0 0 0 0 0 0 0 127 0" result="hardAlpha"/>
            <feOffset/>
            <feGaussianBlur stdDeviation="40.1734"/>
            <feColorMatrix type="matrix" values="0 0 0 0 0 0 0 0 0 1 0 0 0 0 0.729412 0 0 0 1 0"/>
            <feBlend mode="normal" in2="effect5_dropShadow_229_20440" result="effect6_dropShadow_229_20440"/>
            <feBlend mode="normal" in="SourceGraphic" in2="effect6_dropShadow_229_20440" result="shape"/>
        </filter>
        <filter id="filter4_dddddd_229_20440" x="182.932" y="177.697" width="159.136" height="153.168" filterUnits="userSpaceOnUse" color-interpolation-filters="sRGB">
            <feFlood flood-opacity="0" result="BackgroundImageFix"/>
            <feColorMatrix in="SourceAlpha" type="matrix" values="0 0 0 0 0 0 0 0 0 0 0 0 0 0 0 0 0 0 127 0" result="hardAlpha"/>
            <feOffset/>
            <feGaussianBlur stdDeviation="0.747556"/>
            <feColorMatrix type="matrix" values="0 0 0 0 0 0 0 0 0 1 0 0 0 0 0.729412 0 0 0 1 0"/>
            <feBlend mode="normal" in2="BackgroundImageFix" result="effect1_dropShadow_229_20440"/>
            <feColorMatrix in="SourceAlpha" type="matrix" values="0 0 0 0 0 0 0 0 0 0 0 0 0 0 0 0 0 0 127 0" result="hardAlpha"/>
            <feOffset/>
            <feGaussianBlur stdDeviation="1.49511"/>
            <feColorMatrix type="matrix" values="0 0 0 0 0 0 0 0 0 1 0 0 0 0 0.729412 0 0 0 1 0"/>
            <feBlend mode="normal" in2="effect1_dropShadow_229_20440" result="effect2_dropShadow_229_20440"/>
            <feColorMatrix in="SourceAlpha" type="matrix" values="0 0 0 0 0 0 0 0 0 0 0 0 0 0 0 0 0 0 127 0" result="hardAlpha"/>
            <feOffset/>
            <feGaussianBlur stdDeviation="5.23289"/>
            <feColorMatrix type="matrix" values="0 0 0 0 0 0 0 0 0 1 0 0 0 0 0.729412 0 0 0 1 0"/>
            <feBlend mode="normal" in2="effect2_dropShadow_229_20440" result="effect3_dropShadow_229_20440"/>
            <feColorMatrix in="SourceAlpha" type="matrix" values="0 0 0 0 0 0 0 0 0 0 0 0 0 0 0 0 0 0 127 0" result="hardAlpha"/>
            <feOffset/>
            <feGaussianBlur stdDeviation="10.4658"/>
            <feColorMatrix type="matrix" values="0 0 0 0 0 0 0 0 0 1 0 0 0 0 0.729412 0 0 0 1 0"/>
            <feBlend mode="normal" in2="effect3_dropShadow_229_20440" result="effect4_dropShadow_229_20440"/>
            <feColorMatrix in="SourceAlpha" type="matrix" values="0 0 0 0 0 0 0 0 0 0 0 0 0 0 0 0 0 0 127 0" result="hardAlpha"/>
            <feOffset/>
            <feGaussianBlur stdDeviation="17.9414"/>
            <feColorMatrix type="matrix" values="0 0 0 0 0 0 0 0 0 1 0 0 0 0 0.729412 0 0 0 1 0"/>
            <feBlend mode="normal" in2="effect4_dropShadow_229_20440" result="effect5_dropShadow_229_20440"/>
            <feColorMatrix in="SourceAlpha" type="matrix" values="0 0 0 0 0 0 0 0 0 0 0 0 0 0 0 0 0 0 127 0" result="hardAlpha"/>
            <feOffset/>
            <feGaussianBlur stdDeviation="31.3974"/>
            <feColorMatrix type="matrix" values="0 0 0 0 0 0 0 0 0 1 0 0 0 0 0.729412 0 0 0 1 0"/>
            <feBlend mode="normal" in2="effect5_dropShadow_229_20440" result="effect6_dropShadow_229_20440"/>
            <feBlend mode="normal" in="SourceGraphic" in2="effect6_dropShadow_229_20440" result="shape"/>
        </filter>
        <linearGradient id="paint0_linear_229_20440" x1="153.674" y1="198.376" x2="109.283" y2="275.979" gradientUnits="userSpaceOnUse">
            <stop stop-color="#0F8AEF"/>
            <stop offset="0.3" stop-color="#2B96F4"/>
            <stop offset="0.83" stop-color="#66B1FF"/>
        </linearGradient>
        <linearGradient id="paint1_linear_229_20440" x1="9.56804" y1="347.243" x2="9.56804" y2="240.609" gradientUnits="userSpaceOnUse">
            <stop stop-color="#0F8AEF"/>
            <stop offset="0.3" stop-color="#2B96F4"/>
            <stop offset="0.83" stop-color="#66B1FF"/>
        </linearGradient>
        <linearGradient id="paint2_linear_229_20440" x1="153.658" y1="198.368" x2="109.267" y2="275.971" gradientUnits="userSpaceOnUse">
            <stop stop-color="#0F8AEF"/>
            <stop offset="0.3" stop-color="#2B96F4"/>
            <stop offset="0.83" stop-color="#66B1FF"/>
        </linearGradient>
        <linearGradient id="paint3_linear_229_20440" x1="151.168" y1="197.894" x2="109.548" y2="278.341" gradientUnits="userSpaceOnUse">
            <stop stop-color="#0F8AEF"/>
            <stop offset="0.3" stop-color="#2B96F4"/>
            <stop offset="0.83" stop-color="#66B1FF"/>
        </linearGradient>
        <linearGradient id="paint4_linear_229_20440" x1="9.56023" y1="347.243" x2="9.56023" y2="240.609" gradientUnits="userSpaceOnUse">
            <stop stop-color="#0F8AEF"/>
            <stop offset="0.3" stop-color="#2B96F4"/>
            <stop offset="0.83" stop-color="#66B1FF"/>
        </linearGradient>
        <clipPath id="clip0_229_20440">
            <path d="M17.5781 247.578H219.002V288.002H30.1236C23.1949 288.002 17.5781 282.386 17.5781 275.457V247.578Z" fill="white"/>
        </clipPath>
        <clipPath id="clip1_229_20440">
            <rect width="62.7273" height="66.9091" fill="white" transform="matrix(-0.0909521 -0.995855 0.995949 -0.0899242 112.375 256.641)"/>
        </clipPath>
        <clipPath id="clip2_229_20440">
            <rect width="7.66667" height="15.3333" fill="white" transform="matrix(0.481688 0.876343 -0.876911 0.480652 149.312 184.852)"/>
        </clipPath>
        <clipPath id="clip3_229_20440">
            <rect width="207" height="122.667" fill="white" transform="translate(12 127)"/>
        </clipPath>
        <clipPath id="clip4_229_20440">
            <rect width="42.5151" height="136.606" fill="white" transform="matrix(0.70913 -0.705078 0.70913 0.705078 119.328 203.664)"/>
        </clipPath>
    </defs>
</svg>
