<svg width="234" height="195" viewBox="0 0 234 195" fill="none" xmlns="http://www.w3.org/2000/svg">
<g clip-path="url(#clip0_94_3114)">
<path d="M75.8531 119.303C75.082 120.295 49 214 49 214L205 213.777L203.843 186.034L190.38 114L75.8592 119.31L75.8531 119.303Z" fill="#66B1FF"/>
<path d="M86.5474 143.431C108.503 123.746 128.91 144.468 130.551 146.201C132.466 144.76 156.161 127.784 174.393 150.86C187.82 167.855 181.33 197.633 171.391 214H78.6841C72.3748 194.285 67.2898 160.693 86.5535 143.425" fill="white"/>
<path d="M181.709 116.916C181.709 116.916 95.6578 130.764 89.8316 126.004C84.8687 121.955 62.7068 102.413 59.4335 97.1526C49.8681 81.7903 67.7255 75.8803 62.9801 63.7512C62.9801 63.7512 55.862 62.1377 54.3589 58.1133C52.0731 51.9869 61.241 37.3232 66.7069 35.6107C70.0858 34.5536 73.1417 37.1439 73.1417 37.1439C84.1544 24.2729 94.5461 20.9285 99.776 18.9193C118.994 11.5566 133.851 13.9181 133.851 13.9181C134.826 10.2646 135.18 9.21363 136.559 8.66961C141.416 6.74701 155.702 8.92303 160.106 15.7356C162.814 19.927 157.386 26.7396 157.386 26.7396C161.628 36.3835 181.293 41.2735 184.299 56.9696C185.454 62.9971 185.877 77.9822 179.883 90.0371C170.995 107.922 181.715 116.916 181.715 116.916H181.709Z" fill="#66B1FF"/>
<path d="M79.3886 91.8043C84.709 90.3227 88.1814 86.1024 87.1444 82.3781C86.1075 78.6538 80.9538 76.8357 75.6334 78.3173C70.313 79.7989 66.8406 84.0192 67.8776 87.7435C68.9145 91.4678 74.0682 93.2859 79.3886 91.8043Z" fill="#FFB3DF"/>
<path d="M171.339 56.4031C175.357 53.4771 177.033 48.9334 175.082 46.2545C173.132 43.5756 168.293 43.776 164.275 46.702C160.257 49.628 158.581 54.1716 160.532 56.8505C162.482 59.5294 167.32 59.3291 171.339 56.4031Z" fill="#FFB3DF"/>
<path d="M53.1616 121.119C53.1616 121.119 3.46589 186.113 29.5903 205.903C40.2473 213.982 47.6111 214.614 58.8786 213.666C69.1533 212.804 78.7495 199.858 86.0515 185.946C93.2672 172.201 107.421 129.781 97.7012 112.018C88.8759 95.8919 72.237 94.4845 72.237 94.4845C72.237 94.4845 77.2569 85.6 71.1267 81.0431C66.2176 77.3913 61.9252 80.1565 61.9252 80.1565L65.6192 79.3257C60.4943 67.7194 40.8395 76.015 39.902 95.1913C39.0201 113.283 53.1553 121.119 53.1553 121.119H53.1616Z" fill="url(#paint0_linear_94_3114)"/>
<path d="M193.594 113.82C193.594 113.82 243.891 178.297 221.052 203.127C209.895 215.249 199.892 213.957 189.469 213.963C177.88 213.963 169.563 198.634 164.308 186.449C156.899 169.263 139.079 121.239 148.866 103.506C157.745 87.4126 174.28 86.3626 174.28 86.3626C174.28 86.3626 169.359 77.2784 175.478 72.8109C180.38 69.232 184.616 72.1212 184.616 72.1212L180.955 71.2017C186.129 59.5949 205.585 68.4056 206.375 87.7916C207.122 106.084 193.594 113.82 193.594 113.82Z" fill="url(#paint1_linear_94_3114)"/>
<path d="M152.765 57.5753C147.792 54.5571 120.968 64.3973 120.968 64.3973C120.968 64.3973 95.5854 73.0315 94.7473 82.1914C94.3961 85.989 92.7818 94.3387 95.789 99.0207C99.4802 104.773 128.72 108.317 137.871 104.247C146.726 100.406 164.412 77.7568 163.993 70.9286C163.617 64.7499 157.017 60.1606 152.771 57.5753H152.765Z" fill="white"/>
<path d="M84.2428 53.5059C84.9078 51.6988 87.6672 46.2712 97.0025 44.0619C98.9354 43.6021 102.186 45.7477 100.558 49.0361C99.1344 51.9096 89.0907 57.7969 87.0894 57.9885C85.0321 58.18 83.3476 55.9579 84.2488 53.5059H84.2428Z" fill="#0E70E3"/>
<path d="M136.126 32.2178C134.473 31.3624 128.942 29.2973 120.611 33.8308C118.884 34.7717 117.86 38.4316 121.184 39.7085C124.083 40.8266 135.306 38.4499 136.909 37.2707C138.556 36.0609 138.371 33.3665 136.132 32.2117L136.126 32.2178Z" fill="#0E70E3"/>
<path d="M121.554 65.1591C121.554 65.1591 105.726 71.5067 108.279 76.3273C110.831 81.1479 122.886 85.6782 128.598 83.3878C136.212 80.3339 140.09 69.4118 138.733 64.1117C137.376 58.8115 121.548 65.1591 121.548 65.1591H121.554Z" fill="#0E70E3"/>
<path d="M109.751 63.8859C106.444 60.7605 100.935 58.2957 96.9156 61.5006C94.912 63.0969 93.7954 65.6045 93.041 68.0082C92.7333 68.9929 94.2481 69.4271 94.5559 68.4485C95.5456 65.3232 97.4526 61.629 101.116 61.5678C103.403 61.5311 105.575 62.681 107.41 64.0143C107.597 64.1489 107.778 64.2896 107.959 64.4302C108.122 64.5587 107.899 64.3751 108.098 64.5403C108.158 64.5892 108.212 64.6381 108.273 64.6871C108.393 64.791 108.514 64.895 108.629 65.0051C109.371 65.7085 110.5 64.5892 109.757 63.8859H109.751Z" fill="#0E70E3"/>
<path d="M144.454 47.1653C139.919 45.3924 133.669 45.3151 130.423 49.2594C128.791 51.2464 128.2 53.7926 128.003 56.2437C127.92 57.2432 129.585 57.255 129.661 56.2615C129.934 52.9062 131.242 49.2237 134.927 48.0398C137.34 47.2664 139.926 47.5222 142.308 48.1409C142.879 48.2897 143.451 48.4503 143.997 48.6645C144.982 49.0512 145.433 47.552 144.454 47.1712V47.1653Z" fill="#0E70E3"/>
<path d="M102.267 88.2993C104.516 90.2141 107.169 91.6192 109.873 92.7755C113.368 94.2738 117.069 95.2809 120.85 95.7472C124.9 96.2445 129.093 96.0394 133.011 94.852C137.372 93.534 141.278 91.0161 144.306 87.6217C148.318 83.1269 150.785 77.4633 152.33 71.694C152.567 70.8112 152.779 69.9221 152.978 69.0269C153.202 68.0073 151.639 67.5535 151.414 68.5793C150.106 74.4854 147.994 80.379 144.232 85.1909C141.559 88.6164 138.001 91.3519 133.896 92.8439C130.183 94.1992 126.202 94.5785 122.277 94.2614C118.608 93.963 114.988 93.0553 111.562 91.7186C108.932 90.6928 106.279 89.3438 103.967 87.5968C103.774 87.4538 103.961 87.5968 103.756 87.4352C103.65 87.3481 103.537 87.2549 103.432 87.1679C102.64 86.4902 101.469 87.6217 102.267 88.3055V88.2993Z" fill="#0E70E3"/>
<path d="M155.764 68.98C154.017 67.0484 151.293 66.3954 149.075 67.6258C147.86 68.2995 146.913 69.4336 146.119 70.6434C145.862 71.0352 146.052 71.647 146.394 71.8739C146.797 72.142 147.231 71.9564 147.487 71.5646C148.171 70.5335 149.069 69.5161 150.132 69.0556C150.926 68.7119 151.702 68.6981 152.417 68.9044C152.594 68.9525 152.771 69.0144 152.942 69.09C153.027 69.1243 153.119 69.1655 153.205 69.2068C153.04 69.1243 153.26 69.2343 153.29 69.2549C153.559 69.4062 153.815 69.5711 154.06 69.7567C154.157 69.8323 154.255 69.9148 154.353 69.9904C154.255 69.8942 154.524 70.1279 154.353 69.9904C154.383 70.0179 154.414 70.0454 154.439 70.0729C154.5 70.1348 154.561 70.1898 154.622 70.2585C155.355 71.0696 156.497 69.8117 155.764 69.0006V68.98Z" fill="#0E70E3"/>
<path d="M106.2 85.0006C105.41 84.9889 104.582 85.1586 103.848 85.4159C102.23 85.9892 100.988 87.083 100.392 88.6155C99.9153 89.838 99.9404 91.16 100.116 92.4352C100.172 92.8446 100.731 93.0727 101.12 92.9791C101.596 92.8621 101.76 92.4585 101.703 92.0432C101.64 91.5694 101.615 90.9962 101.653 90.4873C101.659 90.3586 101.678 90.23 101.691 90.1013C101.691 90.0779 101.709 89.9492 101.691 90.0837C101.697 90.0369 101.709 89.9901 101.716 89.9433C101.76 89.7211 101.816 89.4988 101.885 89.2824C101.916 89.1829 101.954 89.0776 101.998 88.9782C102.023 88.9197 102.117 88.7266 102.042 88.8787C102.13 88.7032 102.224 88.5336 102.336 88.3698C102.387 88.2938 102.443 88.2178 102.5 88.1418C102.544 88.0833 102.663 87.9545 102.543 88.0832C102.663 87.9545 102.788 87.8259 102.92 87.703C103.033 87.5978 103.158 87.5042 103.284 87.4106C103.089 87.5568 103.321 87.3871 103.365 87.3579C103.434 87.3111 103.503 87.2702 103.578 87.2292C103.704 87.159 103.836 87.0947 103.961 87.0304C104.03 86.9953 104.105 86.966 104.174 86.9367C104.206 86.925 104.231 86.9133 104.262 86.9016C104.413 86.8373 104.074 86.9601 104.237 86.9133C104.714 86.7671 105.172 86.6384 105.667 86.5624C105.686 86.5624 105.705 86.5624 105.73 86.5565C105.887 86.5331 105.642 86.5799 105.629 86.5682C105.648 86.5799 105.761 86.5565 105.786 86.5507C105.855 86.5448 105.924 86.539 106 86.539C106.069 86.539 106.138 86.5331 106.2 86.539C107.254 86.5507 107.273 85.024 106.219 85.0123L106.2 85.0006Z" fill="#0E70E3"/>
</g>
<defs>
<linearGradient id="paint0_linear_94_3114" x1="94.6663" y1="111.186" x2="6.33239" y2="181.521" gradientUnits="userSpaceOnUse">
<stop stop-color="#0F8AEF"/>
<stop offset="0.3" stop-color="#2B96F4"/>
<stop offset="0.83" stop-color="#66B1FF"/>
</linearGradient>
<linearGradient id="paint1_linear_94_3114" x1="146.435" y1="105.22" x2="239.335" y2="180.03" gradientUnits="userSpaceOnUse">
<stop stop-color="#0F8AEF"/>
<stop offset="0.3" stop-color="#2B96F4"/>
<stop offset="0.83" stop-color="#66B1FF"/>
</linearGradient>
<clipPath id="clip0_94_3114">
<path d="M0 0H234V195H24C10.7452 195 0 184.255 0 171V0Z" fill="white"/>
</clipPath>
</defs>
</svg>
