<svg width="297" height="231" viewBox="0 0 297 231" fill="none" xmlns="http://www.w3.org/2000/svg">
<g clip-path="url(#clip0_115_4362)">
<path d="M225.764 116.194C213.801 105.842 197.177 103.063 183.178 109.293C179.002 111.148 173.284 116.86 174.5 121.695C176.463 129.478 184.767 134.054 184.767 134.054C183.226 129.568 176.074 121.277 169.338 126.482C157.125 135.909 170.474 151.333 176.831 152.353C156.511 199.09 112 142.899 112 142.899L133.626 208.776C176.042 241.69 205.502 232.559 233.001 160.464C233.001 160.464 237.801 150.477 236.883 136.902C236.291 128.21 232.009 121.6 225.769 116.199L225.764 116.194Z" fill="url(#paint0_linear_115_4362)"/>
<path d="M234.96 164.739L235.489 165.212C233.502 169.504 230.583 173.405 227.034 176.495L226.443 176.108C230.044 173.017 232.99 169.074 234.96 164.735L234.96 164.739Z" fill="white"/>
<g filter="url(#filter0_dd_115_4362)">
<path d="M136.97 86.9708C136.277 86.6631 135.733 86.2238 135.334 85.6631C133.496 83.1036 135.444 78.7137 139.686 75.8743C142.496 73.9938 145.608 73.1996 148.047 73.751L149.511 74.0799L143.008 49.0958C142.955 48.8743 143.042 48.6533 143.234 48.5406C143.637 48.2995 153.211 42.7585 161.398 46.3944C162.283 46.7874 163.132 47.288 163.922 47.8615C164.036 47.9492 164.11 48.0686 164.127 48.2C164.145 48.3314 164.11 48.4644 164.033 48.5785C163.886 48.7607 163.625 48.8299 163.401 48.7305C162.6 48.1522 161.827 47.7101 161.027 47.355C154.823 44.5997 147.588 47.5192 144.762 48.8979L144.107 49.213L151.118 76.2155C152.079 78.9298 150.055 82.6676 146.325 85.166C143.074 87.3447 139.4 88.0502 136.97 86.9708ZM148.597 74.9969C146.529 74.0784 143.193 74.7732 140.273 76.7283C138.493 77.9164 137.08 79.4277 136.303 80.9746C135.498 82.5832 135.448 84.0816 136.168 85.0937C136.46 85.4954 136.873 85.8272 137.395 86.0592C139.452 86.9729 142.799 86.2829 145.719 84.3278C149.484 81.8081 151.325 78.0507 149.814 75.9577C149.522 75.556 149.108 75.2241 148.586 74.9922L148.597 74.9969Z" fill="#00FFBA"/>
</g>
<g clip-path="url(#clip1_115_4362)" filter="url(#filter1_d_115_4362)">
</g>
<path d="M126.624 166.175L118.611 149.886C117.73 143.838 128.833 128.25 128.945 117.6C129.183 95.3164 112.154 88.2853 109.122 76.1948C109.122 76.1948 113.758 71.0079 112.696 67.038C111.082 60.9901 95.8424 54.5967 90.644 56.2708C87.4314 57.3071 86.4969 61.0166 86.4969 61.0166C70.8166 57.0414 60.8922 60.1557 55.7256 61.4737C36.7213 66.3258 26.489 76.3649 26.489 76.3649C23.7066 74.0478 22.8519 73.426 21.4819 73.7555C16.6446 74.9353 6.75198 84.512 7.10775 92.2659C7.32546 97.033 15.3169 99.3607 15.3169 99.3607C17.3665 109.235 7.28832 126.608 13.6443 140.521C15.9541 145.576 22.3528 152.267 26.9353 157.565C26.7972 159.818 25.3314 162.274 24.5774 164.58C-5.1689 255.107 1.68113 308.917 1.68113 308.917C1.68113 308.917 34.8416 322.995 74.6555 323C120.103 323.005 148.427 308.173 148.427 308.173C148.427 308.173 154.57 249.33 126.635 166.18L126.624 166.175Z" fill="#66B1FF"/>
<path d="M15.0123 270.959C6.46818 229.674 25 163 25 163C25 163 -34.1747 225.558 -31.9382 282.01C-31.6421 289.485 -28.1472 306.43 -16.9382 307.67C-16.9382 307.67 -10.5989 316.875 -4.1802 311.919C-4.1802 311.919 0.128968 319.526 6.60054 313.968C9.92621 311.11 9.80976 305.035 9.10655 300.382C9.67757 300.888 10.328 301.24 11.0523 301.383C16.8524 302.549 23.6623 291.849 15.4618 272.013C15.3085 271.64 15.1605 271.294 15.0072 270.964L15.0123 270.959Z" fill="url(#paint1_linear_115_4362)"/>
<path d="M118.132 204.583C98.6317 184.362 77.2308 202.195 75.5012 203.693C73.7716 202.189 52.376 184.362 32.8702 204.583C11.2236 227.027 30.9484 272.592 37.6746 283.324C44.4007 294.055 57.7089 311.472 75.6988 312C93.6833 311.472 106.602 294.055 113.328 283.324C120.054 272.592 139.773 227.027 118.132 204.583Z" fill="white"/>
</g>
<g clip-path="url(#clip2_115_4362)">
<path d="M225.764 116.194C213.801 105.842 197.177 103.063 183.178 109.293C179.002 111.148 173.284 116.86 174.5 121.695C176.463 129.478 184.767 134.054 184.767 134.054C183.226 129.568 176.074 121.277 169.338 126.482C157.125 135.909 170.474 151.333 176.831 152.353C156.511 199.09 112 142.899 112 142.899L133.626 208.776C176.042 241.69 205.502 232.559 233.001 160.464C233.001 160.464 237.801 150.477 236.883 136.902C236.291 128.21 232.009 121.6 225.769 116.199L225.764 116.194Z" fill="url(#paint2_linear_115_4362)"/>
<path d="M237.969 165.512C234.581 162.699 177.349 119.991 177.349 119.991L164.773 139.742C164.773 139.742 228.613 174.198 231.857 175.46C235.102 176.723 241.358 168.324 237.969 165.512Z" fill="#4C4C4C"/>
<path d="M232.524 160.629L232.031 160.268C231.943 160.189 231.829 160.137 231.705 160.128C231.456 160.109 231.225 160.259 231.143 160.495C229.695 164.628 227.427 168.348 224.378 171.479C224.256 171.604 224.2 171.779 224.229 171.951C224.257 172.123 224.365 172.272 224.52 172.352L225.11 172.656C225.326 172.767 225.59 172.723 225.759 172.547C228.872 169.305 231.197 165.494 232.716 161.259C232.798 161.03 232.72 160.774 232.524 160.629Z" fill="white" stroke="white" stroke-width="1.10082" stroke-linejoin="round"/>
<path d="M173.708 114.524C172.421 109.439 169.405 103.057 164.631 100.017C154.7 93.6941 141.524 96.6187 135.202 106.549C128.879 116.48 131.803 129.656 141.734 135.979C146.508 139.018 153.168 139.218 158.32 138.233L173.708 114.524Z" fill="#989898"/>
<path d="M163.786 98.8886C163.535 98.7731 163.238 98.8615 163.09 99.0952C163.026 99.197 162.999 99.3127 163.007 99.4254C162.969 99.8353 162.803 100.382 162.586 100.99C162.516 101.186 162.44 101.39 162.364 101.594C162.208 102.015 162.051 102.434 161.952 102.774C158.293 114.957 150.879 126.754 141.271 135.515C141.138 135.636 141.073 135.815 141.096 135.993C141.12 136.171 141.229 136.327 141.388 136.41C141.478 136.456 141.57 136.515 141.675 136.582C141.677 136.584 141.679 136.585 141.681 136.586C141.731 136.618 141.788 136.654 141.841 136.685C141.889 136.713 141.963 136.755 142.045 136.783C142.236 136.851 142.45 136.807 142.599 136.669C152.349 127.72 160.011 115.705 163.729 103.282C163.816 102.997 163.942 102.663 164.083 102.289C164.158 102.091 164.237 101.883 164.316 101.664C164.533 101.068 164.752 100.403 164.81 99.8457C164.829 99.6629 164.755 99.4827 164.614 99.3654C164.523 99.2899 164.367 99.196 164.239 99.1233C164.096 99.0423 163.929 98.9542 163.786 98.8886Z" fill="#4C4C4C" stroke="#4C4C4C" stroke-width="1.10082" stroke-linejoin="round"/>
<path fill-rule="evenodd" clip-rule="evenodd" d="M158.125 138.354C158.279 139.061 158.698 139.665 159.307 140.056L160.288 140.688L160.282 140.697L162.371 142.028C162.981 142.416 163.706 142.543 164.412 142.387C165.118 142.23 165.721 141.808 166.109 141.198L179.389 120.34C179.778 119.73 179.905 119.005 179.749 118.299C179.592 117.593 179.17 116.99 178.56 116.602L177.688 116.047L177.691 116.042L175.608 114.703C174.999 114.312 174.275 114.181 173.568 114.335C172.862 114.488 172.257 114.908 171.866 115.516L158.493 136.315C158.102 136.923 157.972 137.647 158.125 138.354Z" fill="#ECECEC"/>
<g clip-path="url(#clip3_115_4362)">
<path d="M223.294 115.054C210.852 105.143 194.054 103.116 180.271 110.083C176.16 112.158 170.463 119.215 171.888 124.05C174.187 131.835 187.024 128.199 187.024 128.199C184.64 130.581 183.616 132.706 185.045 137.88C198.712 151.542 198.996 139.217 205.418 139.948C194.159 156.243 214.439 156.368 214.439 156.368L223.713 150.8L230.343 150.687C213.039 139.826 227.165 156.959 232.121 159.204C232.121 159.204 236.826 149.182 235.33 135.487C234.367 126.718 229.79 120.23 223.3 115.059L223.294 115.054Z" fill="url(#paint3_linear_115_4362)"/>
<path d="M173.407 126.132C177.05 129.859 183.898 130.653 188.03 127.123C188.795 126.467 187.627 125.441 186.867 126.092C183.363 129.09 177.471 128.056 174.479 124.995C173.778 124.28 172.711 125.421 173.407 126.132Z" fill="#66B1FF"/>
<path d="M198.69 117.118C196.18 118.577 193.765 120.201 191.528 122.034C188.815 124.253 186.135 126.866 184.704 130.06C184.039 131.549 183.648 133.167 183.797 134.787C183.95 136.469 184.653 137.984 185.635 139.358C187.326 141.718 189.718 143.58 192.729 144.025C197.638 144.744 202.59 142.314 206.681 139.945C207.589 139.417 206.707 138.09 205.799 138.619C202.302 140.648 198.225 142.704 194.04 142.563C191.362 142.473 189.084 141.118 187.479 139.107C186.567 137.962 185.776 136.7 185.507 135.255C185.252 133.873 185.487 132.426 186.018 131.123C187.222 128.151 189.647 125.708 192.098 123.633C194.407 121.681 196.955 119.977 199.577 118.449C200.485 117.92 199.603 116.594 198.695 117.123L198.69 117.118Z" fill="#66B1FF"/>
<path d="M205.595 138.942C202.421 142.227 200.35 147.617 203.266 151.615C204.487 153.295 206.371 154.625 208.3 155.487C210.091 156.287 212.085 156.523 214.041 156.227C218.145 155.604 221.716 153.185 224.807 150.6C225.597 149.94 224.402 148.892 223.623 149.546C221.03 151.715 218.05 153.74 214.679 154.521C213.705 154.745 212.65 154.842 211.668 154.763C210.982 154.706 210.026 154.479 209.529 154.293C208.065 153.734 206.584 152.783 205.481 151.73C203.52 149.86 203.054 147.343 203.858 144.824C204.423 143.054 205.48 141.34 206.779 139.996C207.495 139.256 206.306 138.202 205.595 138.942Z" fill="#66B1FF"/>
</g>
<g filter="url(#filter2_dddddd_115_4362)">
<path d="M136.97 86.9708C136.277 86.6631 135.733 86.2238 135.334 85.6631C133.496 83.1036 135.444 78.7137 139.686 75.8743C142.496 73.9938 145.608 73.1996 148.047 73.751L149.511 74.0799L143.008 49.0958C142.955 48.8743 143.042 48.6533 143.234 48.5406C143.637 48.2995 153.211 42.7585 161.398 46.3944C162.283 46.7874 163.132 47.288 163.922 47.8615C164.036 47.9492 164.11 48.0686 164.127 48.2C164.145 48.3314 164.11 48.4644 164.033 48.5785C163.886 48.7607 163.625 48.8299 163.401 48.7305C162.6 48.1522 161.827 47.7101 161.027 47.355C154.823 44.5997 147.588 47.5192 144.762 48.8979L144.107 49.213L151.118 76.2155C152.079 78.9298 150.055 82.6676 146.325 85.166C143.074 87.3447 139.4 88.0502 136.97 86.9708ZM148.597 74.9969C146.529 74.0784 143.193 74.7732 140.273 76.7283C138.493 77.9164 137.08 79.4277 136.303 80.9746C135.498 82.5832 135.448 84.0816 136.168 85.0937C136.46 85.4954 136.873 85.8272 137.395 86.0592C139.452 86.9729 142.799 86.2829 145.719 84.3278C149.484 81.8081 151.325 78.0507 149.814 75.9577C149.522 75.556 149.108 75.2241 148.586 74.9922L148.597 74.9969Z" fill="#00FFBA"/>
</g>
<g filter="url(#filter3_dddddd_115_4362)">
<path d="M180.574 98.7887C180.397 98.467 180.315 98.128 180.332 97.7804C180.364 96.9371 180.96 96.1402 182.004 95.5453C183.005 94.9736 184.317 94.6444 185.694 94.6234C187.071 94.6024 188.356 94.8905 189.316 95.4361C189.736 95.6763 190.083 95.9622 190.34 96.2856L190.778 96.837L196.682 83.2337C196.732 83.1142 196.871 83.0553 196.993 83.0978C197.054 83.1212 197.09 83.1645 197.107 83.1954C197.141 83.2571 197.142 83.3254 197.117 83.3909L190.709 98.1363C190.2 99.6481 187.993 100.743 185.444 100.781C183.205 100.815 181.247 100.014 180.574 98.7887ZM190.134 96.8458C189.875 96.3743 189.402 96.0372 189.054 95.838C188.165 95.3334 186.966 95.0673 185.674 95.0875C184.382 95.1076 183.157 95.4062 182.226 95.9393C181.709 96.2342 180.844 96.8635 180.808 97.7777C180.797 98.036 180.861 98.2986 181 98.5498C181.6 99.6426 183.396 100.361 185.465 100.328C188.032 100.291 189.803 99.183 190.226 98.1144L190.237 98.0909L190.246 98.0516C190.299 97.9024 190.328 97.766 190.336 97.6356C190.346 97.3658 190.279 97.0988 190.141 96.8476L190.134 96.8458Z" fill="#00FFBA"/>
</g>
<g filter="url(#filter4_dddddd_115_4362)">
<path d="M84.5357 38.1946C83.8767 37.6839 83.5128 37.0497 83.4784 36.37C83.4458 35.5543 83.9082 34.7698 84.7847 34.143C85.7382 33.4727 87.0525 33.0733 88.4889 33.0177C90.1533 32.9584 91.6844 33.3714 92.6999 34.1583C92.7971 34.2336 92.8944 34.3089 92.9737 34.3962L93.5894 34.9849L98.1628 21.4473C98.2095 21.3203 98.3253 21.2382 98.4617 21.2408L112.158 21.7231C112.227 21.7244 112.288 21.746 112.336 21.7837C112.363 21.8046 112.385 21.8214 112.398 21.8488C112.457 21.9289 112.471 22.0339 112.438 22.1204L107.425 36.9926C107.038 38.5487 104.953 39.7172 102.457 39.8109C101.112 39.8601 99.8288 39.596 98.837 39.0681C98.6176 38.9496 98.4106 38.8151 98.2269 38.6728C97.5679 38.1621 97.204 37.5279 97.1696 36.8482C97.1296 35.9752 97.6541 35.1443 98.6412 34.5087C99.5747 33.9087 100.835 33.545 102.186 33.5001C103.85 33.4408 105.385 33.8484 106.401 34.6353C106.498 34.7106 106.595 34.7859 106.674 34.8732L107.29 35.4619L111.73 22.3191L98.6676 21.8557L93.7283 36.5102C93.3413 38.0663 91.2565 39.2348 88.7605 39.3286C87.4156 39.3777 86.1322 39.1137 85.1404 38.5858C84.921 38.4673 84.714 38.3327 84.5303 38.1904L84.5357 38.1946ZM92.3374 34.6249C91.4623 33.9468 90.0331 33.5698 88.5242 33.6294C86.0229 33.719 84.0369 34.9383 84.097 36.3424C84.1175 36.8394 84.4072 37.3131 84.9258 37.7149C85.077 37.8321 85.2516 37.9416 85.4399 38.0445C86.3177 38.5185 87.5208 38.7633 88.7443 38.7146C91.2457 38.625 93.2316 37.4056 93.1716 36.0016C93.1456 35.5003 92.8601 35.0213 92.3415 34.6195L92.3374 34.6249ZM106.038 35.1019C105.163 34.4238 103.734 34.0468 102.225 34.1064C101.006 34.1497 99.8289 34.4837 98.9891 35.0188C98.1947 35.5288 97.767 36.1684 97.7977 36.8194C97.8183 37.3164 98.108 37.7901 98.6265 38.1919C98.7778 38.3091 98.9523 38.4186 99.1406 38.5215C100.019 38.9955 101.222 39.2403 102.445 39.1916C104.946 39.102 106.932 37.8826 106.872 36.4786C106.846 35.9773 106.561 35.4983 106.042 35.0965L106.038 35.1019Z" fill="#00FFBA"/>
</g>
<path d="M126.624 166.175L118.611 149.886C117.73 143.838 128.833 128.25 128.945 117.6C129.183 95.3164 112.154 88.2853 109.122 76.1948C109.122 76.1948 113.758 71.0079 112.696 67.038C111.082 60.9901 95.8424 54.5967 90.644 56.2708C87.4314 57.3071 86.4969 61.0166 86.4969 61.0166C70.8166 57.0414 60.8922 60.1557 55.7256 61.4737C36.7213 66.3258 26.489 76.3649 26.489 76.3649C23.7066 74.0478 22.8519 73.426 21.4819 73.7555C16.6446 74.9353 6.75198 84.512 7.10775 92.2659C7.32546 97.033 15.3169 99.3607 15.3169 99.3607C17.3665 109.235 7.28832 126.608 13.6443 140.521C15.9541 145.576 22.3528 152.267 26.9353 157.565C26.7972 159.818 25.3314 162.274 24.5774 164.58C-5.1689 255.107 1.68113 308.917 1.68113 308.917C1.68113 308.917 34.8416 322.995 74.6555 323C120.103 323.005 148.427 308.173 148.427 308.173C148.427 308.173 154.57 249.33 126.635 166.18L126.624 166.175Z" fill="#66B1FF"/>
<path d="M105.396 100.103C100.787 96.5037 72.6281 102.864 72.6281 102.864C72.6281 102.864 46.0711 108.205 44.07 117.131C43.2398 120.831 40.5681 128.859 42.995 133.85C45.9753 139.979 75.1721 151.633 86.1409 146.895C98.0304 145.64 114.534 121.45 114.981 114.665C115.38 108.531 109.34 103.178 105.401 100.103H105.396Z" fill="white"/>
<path d="M38.4432 85.4021C39.332 83.7707 42.7587 78.9651 52.3748 78.0113C54.3665 77.8132 57.3541 80.2525 55.3196 83.1661C53.542 85.7148 42.7692 90.067 40.7347 89.9992C38.6519 89.9315 37.2385 87.6121 38.4432 85.4021Z" fill="#0073E4"/>
<path d="M90.4916 70.9363C88.9687 69.9275 83.7722 67.3104 74.9857 70.6267C73.1646 71.3159 71.6993 74.6672 74.813 76.2804C77.529 77.6839 88.8953 76.7599 90.6275 75.8309C92.4016 74.877 92.5587 72.2998 90.4916 70.9313V70.9363Z" fill="#0073E4"/>
<path d="M76.6488 99.6928C76.6488 99.6928 59.101 104.213 61.1695 109.605C63.2379 114.998 75.375 121.369 81.7067 119.741C90.1489 117.566 95.6755 106.643 94.9334 100.905C94.1913 95.1725 76.6436 99.6928 76.6436 99.6928H76.6488Z" fill="#0073E4"/>
<path d="M63.731 96.5943C59.7768 93.3902 53.702 91.5287 49.126 94.4761C46.814 95.9632 45.225 98.3114 44.0824 100.777C43.6519 101.708 45.0283 102.521 45.4588 101.585C47.0798 98.0814 49.7638 94.7703 53.8828 94.5938C56.4977 94.4814 59.0382 95.4657 61.2332 96.803C61.6105 97.033 61.9824 97.2737 62.3385 97.5304C62.4394 97.6 62.5353 97.6749 62.6309 97.7498C62.7744 97.8567 62.4502 97.6053 62.599 97.723C63.3909 98.3649 64.5283 97.2362 63.7258 96.589L63.731 96.5943Z" fill="#0073E4"/>
<path d="M97.6025 86.0369C93.3708 83.7362 87.1753 82.817 83.4048 86.3502C81.506 88.127 80.5458 90.6125 80.0196 93.0364C79.808 94.0019 81.3757 94.4178 81.5873 93.4473C82.3251 90.0425 84.0559 86.5248 87.9566 85.7082C90.4033 85.1998 92.9912 85.7955 95.3023 86.6891C95.3945 86.725 95.6007 86.8072 95.8557 86.9202C96.013 86.9921 96.1757 87.064 96.3331 87.1359C96.485 87.2078 96.6369 87.2797 96.7834 87.3618C97.6948 87.8548 98.5139 86.5248 97.6025 86.0318V86.0369Z" fill="#0073E4"/>
<path d="M15.0123 270.959C6.46818 229.674 25 163 25 163C25 163 -34.1747 225.558 -31.9382 282.01C-31.6421 289.485 -28.1472 306.43 -16.9382 307.67C-16.9382 307.67 -10.5989 316.875 -4.1802 311.919C-4.1802 311.919 0.128968 319.526 6.60054 313.968C9.92621 311.11 9.80976 305.035 9.10655 300.382C9.67757 300.888 10.328 301.24 11.0523 301.383C16.8524 302.549 23.6623 291.849 15.4618 272.013C15.3085 271.64 15.1605 271.294 15.0072 270.964L15.0123 270.959Z" fill="url(#paint4_linear_115_4362)"/>
<path d="M100.406 115.009C93.6301 122.196 83.659 131.639 60.8951 123.609C59.5856 123.146 59.7417 125.305 70.7947 132.543C77.3013 136.802 83.5991 138.913 87.836 137.026C92.486 134.958 94.6181 130.199 96.4933 126.712C101.291 117.79 102.487 112.793 100.4 115.005" fill="#143860"/>
<path d="M93.7394 128.033C93.7394 128.033 80.5234 129.326 77.835 135.368C77.5275 136.065 81.5849 137.636 85.6893 136.48C86.8503 136.153 89.67 134.564 91.5366 131.8" fill="#ED7865"/>
</g>
<defs>
<filter id="filter0_dd_115_4362" x="-47.522" y="-137.002" width="393.817" height="406.636" filterUnits="userSpaceOnUse" color-interpolation-filters="sRGB">
<feFlood flood-opacity="0" result="BackgroundImageFix"/>
<feColorMatrix in="SourceAlpha" type="matrix" values="0 0 0 0 0 0 0 0 0 0 0 0 0 0 0 0 0 0 127 0" result="hardAlpha"/>
<feOffset/>
<feGaussianBlur stdDeviation="52.047"/>
<feColorMatrix type="matrix" values="0 0 0 0 0 0 0 0 0 1 0 0 0 0 0.729412 0 0 0 1 0"/>
<feBlend mode="normal" in2="BackgroundImageFix" result="effect1_dropShadow_115_4362"/>
<feColorMatrix in="SourceAlpha" type="matrix" values="0 0 0 0 0 0 0 0 0 0 0 0 0 0 0 0 0 0 127 0" result="hardAlpha"/>
<feOffset/>
<feGaussianBlur stdDeviation="91.0823"/>
<feColorMatrix type="matrix" values="0 0 0 0 0 0 0 0 0 1 0 0 0 0 0.729412 0 0 0 1 0"/>
<feBlend mode="normal" in2="effect1_dropShadow_115_4362" result="effect2_dropShadow_115_4362"/>
<feBlend mode="normal" in="SourceGraphic" in2="effect2_dropShadow_115_4362" result="shape"/>
</filter>
<filter id="filter1_d_115_4362" x="92.6052" y="-2.10182" width="194.795" height="190.418" filterUnits="userSpaceOnUse" color-interpolation-filters="sRGB">
<feFlood flood-opacity="0" result="BackgroundImageFix"/>
<feColorMatrix in="SourceAlpha" type="matrix" values="0 0 0 0 0 0 0 0 0 0 0 0 0 0 0 0 0 0 127 0" result="hardAlpha"/>
<feOffset/>
<feGaussianBlur stdDeviation="42.5509"/>
<feColorMatrix type="matrix" values="0 0 0 0 0 0 0 0 0 1 0 0 0 0 0.729412 0 0 0 1 0"/>
<feBlend mode="normal" in2="BackgroundImageFix" result="effect1_dropShadow_115_4362"/>
<feBlend mode="normal" in="SourceGraphic" in2="effect1_dropShadow_115_4362" result="shape"/>
</filter>
<filter id="filter2_dddddd_115_4362" x="-47.522" y="-137.002" width="393.817" height="406.636" filterUnits="userSpaceOnUse" color-interpolation-filters="sRGB">
<feFlood flood-opacity="0" result="BackgroundImageFix"/>
<feColorMatrix in="SourceAlpha" type="matrix" values="0 0 0 0 0 0 0 0 0 0 0 0 0 0 0 0 0 0 127 0" result="hardAlpha"/>
<feOffset/>
<feGaussianBlur stdDeviation="2.16863"/>
<feColorMatrix type="matrix" values="0 0 0 0 0 0 0 0 0 1 0 0 0 0 0.729412 0 0 0 1 0"/>
<feBlend mode="normal" in2="BackgroundImageFix" result="effect1_dropShadow_115_4362"/>
<feColorMatrix in="SourceAlpha" type="matrix" values="0 0 0 0 0 0 0 0 0 0 0 0 0 0 0 0 0 0 127 0" result="hardAlpha"/>
<feOffset/>
<feGaussianBlur stdDeviation="4.33725"/>
<feColorMatrix type="matrix" values="0 0 0 0 0 0 0 0 0 1 0 0 0 0 0.729412 0 0 0 1 0"/>
<feBlend mode="normal" in2="effect1_dropShadow_115_4362" result="effect2_dropShadow_115_4362"/>
<feColorMatrix in="SourceAlpha" type="matrix" values="0 0 0 0 0 0 0 0 0 0 0 0 0 0 0 0 0 0 127 0" result="hardAlpha"/>
<feOffset/>
<feGaussianBlur stdDeviation="15.1804"/>
<feColorMatrix type="matrix" values="0 0 0 0 0 0 0 0 0 1 0 0 0 0 0.729412 0 0 0 1 0"/>
<feBlend mode="normal" in2="effect2_dropShadow_115_4362" result="effect3_dropShadow_115_4362"/>
<feColorMatrix in="SourceAlpha" type="matrix" values="0 0 0 0 0 0 0 0 0 0 0 0 0 0 0 0 0 0 127 0" result="hardAlpha"/>
<feOffset/>
<feGaussianBlur stdDeviation="30.3608"/>
<feColorMatrix type="matrix" values="0 0 0 0 0 0 0 0 0 1 0 0 0 0 0.729412 0 0 0 1 0"/>
<feBlend mode="normal" in2="effect3_dropShadow_115_4362" result="effect4_dropShadow_115_4362"/>
<feColorMatrix in="SourceAlpha" type="matrix" values="0 0 0 0 0 0 0 0 0 0 0 0 0 0 0 0 0 0 127 0" result="hardAlpha"/>
<feOffset/>
<feGaussianBlur stdDeviation="52.047"/>
<feColorMatrix type="matrix" values="0 0 0 0 0 0 0 0 0 1 0 0 0 0 0.729412 0 0 0 1 0"/>
<feBlend mode="normal" in2="effect4_dropShadow_115_4362" result="effect5_dropShadow_115_4362"/>
<feColorMatrix in="SourceAlpha" type="matrix" values="0 0 0 0 0 0 0 0 0 0 0 0 0 0 0 0 0 0 127 0" result="hardAlpha"/>
<feOffset/>
<feGaussianBlur stdDeviation="91.0823"/>
<feColorMatrix type="matrix" values="0 0 0 0 0 0 0 0 0 1 0 0 0 0 0.729412 0 0 0 1 0"/>
<feBlend mode="normal" in2="effect5_dropShadow_115_4362" result="effect6_dropShadow_115_4362"/>
<feBlend mode="normal" in="SourceGraphic" in2="effect6_dropShadow_115_4362" result="shape"/>
</filter>
<filter id="filter3_dddddd_115_4362" x="92.6052" y="-2.10182" width="194.795" height="190.418" filterUnits="userSpaceOnUse" color-interpolation-filters="sRGB">
<feFlood flood-opacity="0" result="BackgroundImageFix"/>
<feColorMatrix in="SourceAlpha" type="matrix" values="0 0 0 0 0 0 0 0 0 0 0 0 0 0 0 0 0 0 127 0" result="hardAlpha"/>
<feOffset/>
<feGaussianBlur stdDeviation="1.01312"/>
<feColorMatrix type="matrix" values="0 0 0 0 0 0 0 0 0 1 0 0 0 0 0.729412 0 0 0 1 0"/>
<feBlend mode="normal" in2="BackgroundImageFix" result="effect1_dropShadow_115_4362"/>
<feColorMatrix in="SourceAlpha" type="matrix" values="0 0 0 0 0 0 0 0 0 0 0 0 0 0 0 0 0 0 127 0" result="hardAlpha"/>
<feOffset/>
<feGaussianBlur stdDeviation="2.02623"/>
<feColorMatrix type="matrix" values="0 0 0 0 0 0 0 0 0 1 0 0 0 0 0.729412 0 0 0 1 0"/>
<feBlend mode="normal" in2="effect1_dropShadow_115_4362" result="effect2_dropShadow_115_4362"/>
<feColorMatrix in="SourceAlpha" type="matrix" values="0 0 0 0 0 0 0 0 0 0 0 0 0 0 0 0 0 0 127 0" result="hardAlpha"/>
<feOffset/>
<feGaussianBlur stdDeviation="7.09182"/>
<feColorMatrix type="matrix" values="0 0 0 0 0 0 0 0 0 1 0 0 0 0 0.729412 0 0 0 1 0"/>
<feBlend mode="normal" in2="effect2_dropShadow_115_4362" result="effect3_dropShadow_115_4362"/>
<feColorMatrix in="SourceAlpha" type="matrix" values="0 0 0 0 0 0 0 0 0 0 0 0 0 0 0 0 0 0 127 0" result="hardAlpha"/>
<feOffset/>
<feGaussianBlur stdDeviation="14.1836"/>
<feColorMatrix type="matrix" values="0 0 0 0 0 0 0 0 0 1 0 0 0 0 0.729412 0 0 0 1 0"/>
<feBlend mode="normal" in2="effect3_dropShadow_115_4362" result="effect4_dropShadow_115_4362"/>
<feColorMatrix in="SourceAlpha" type="matrix" values="0 0 0 0 0 0 0 0 0 0 0 0 0 0 0 0 0 0 127 0" result="hardAlpha"/>
<feOffset/>
<feGaussianBlur stdDeviation="24.3148"/>
<feColorMatrix type="matrix" values="0 0 0 0 0 0 0 0 0 1 0 0 0 0 0.729412 0 0 0 1 0"/>
<feBlend mode="normal" in2="effect4_dropShadow_115_4362" result="effect5_dropShadow_115_4362"/>
<feColorMatrix in="SourceAlpha" type="matrix" values="0 0 0 0 0 0 0 0 0 0 0 0 0 0 0 0 0 0 127 0" result="hardAlpha"/>
<feOffset/>
<feGaussianBlur stdDeviation="42.5509"/>
<feColorMatrix type="matrix" values="0 0 0 0 0 0 0 0 0 1 0 0 0 0 0.729412 0 0 0 1 0"/>
<feBlend mode="normal" in2="effect5_dropShadow_115_4362" result="effect6_dropShadow_115_4362"/>
<feBlend mode="normal" in="SourceGraphic" in2="effect6_dropShadow_115_4362" result="shape"/>
</filter>
<filter id="filter4_dddddd_115_4362" x="-26.2953" y="-95.889" width="251.995" height="253.717" filterUnits="userSpaceOnUse" color-interpolation-filters="sRGB">
<feFlood flood-opacity="0" result="BackgroundImageFix"/>
<feColorMatrix in="SourceAlpha" type="matrix" values="0 0 0 0 0 0 0 0 0 0 0 0 0 0 0 0 0 0 127 0" result="hardAlpha"/>
<feOffset/>
<feGaussianBlur stdDeviation="1.2963"/>
<feColorMatrix type="matrix" values="0 0 0 0 0 0 0 0 0 1 0 0 0 0 0.729412 0 0 0 1 0"/>
<feBlend mode="normal" in2="BackgroundImageFix" result="effect1_dropShadow_115_4362"/>
<feColorMatrix in="SourceAlpha" type="matrix" values="0 0 0 0 0 0 0 0 0 0 0 0 0 0 0 0 0 0 127 0" result="hardAlpha"/>
<feOffset/>
<feGaussianBlur stdDeviation="2.5926"/>
<feColorMatrix type="matrix" values="0 0 0 0 0 0 0 0 0 1 0 0 0 0 0.729412 0 0 0 1 0"/>
<feBlend mode="normal" in2="effect1_dropShadow_115_4362" result="effect2_dropShadow_115_4362"/>
<feColorMatrix in="SourceAlpha" type="matrix" values="0 0 0 0 0 0 0 0 0 0 0 0 0 0 0 0 0 0 127 0" result="hardAlpha"/>
<feOffset/>
<feGaussianBlur stdDeviation="9.07409"/>
<feColorMatrix type="matrix" values="0 0 0 0 0 0 0 0 0 1 0 0 0 0 0.729412 0 0 0 1 0"/>
<feBlend mode="normal" in2="effect2_dropShadow_115_4362" result="effect3_dropShadow_115_4362"/>
<feColorMatrix in="SourceAlpha" type="matrix" values="0 0 0 0 0 0 0 0 0 0 0 0 0 0 0 0 0 0 127 0" result="hardAlpha"/>
<feOffset/>
<feGaussianBlur stdDeviation="18.1482"/>
<feColorMatrix type="matrix" values="0 0 0 0 0 0 0 0 0 1 0 0 0 0 0.729412 0 0 0 1 0"/>
<feBlend mode="normal" in2="effect3_dropShadow_115_4362" result="effect4_dropShadow_115_4362"/>
<feColorMatrix in="SourceAlpha" type="matrix" values="0 0 0 0 0 0 0 0 0 0 0 0 0 0 0 0 0 0 127 0" result="hardAlpha"/>
<feOffset/>
<feGaussianBlur stdDeviation="31.1111"/>
<feColorMatrix type="matrix" values="0 0 0 0 0 0 0 0 0 1 0 0 0 0 0.729412 0 0 0 1 0"/>
<feBlend mode="normal" in2="effect4_dropShadow_115_4362" result="effect5_dropShadow_115_4362"/>
<feColorMatrix in="SourceAlpha" type="matrix" values="0 0 0 0 0 0 0 0 0 0 0 0 0 0 0 0 0 0 127 0" result="hardAlpha"/>
<feOffset/>
<feGaussianBlur stdDeviation="54.4445"/>
<feColorMatrix type="matrix" values="0 0 0 0 0 0 0 0 0 1 0 0 0 0 0.729412 0 0 0 1 0"/>
<feBlend mode="normal" in2="effect5_dropShadow_115_4362" result="effect6_dropShadow_115_4362"/>
<feBlend mode="normal" in="SourceGraphic" in2="effect6_dropShadow_115_4362" result="shape"/>
</filter>
<linearGradient id="paint0_linear_115_4362" x1="203.257" y1="102.403" x2="139.565" y2="213.747" gradientUnits="userSpaceOnUse">
<stop stop-color="#0F8AEF"/>
<stop offset="0.3" stop-color="#2B96F4"/>
<stop offset="0.83" stop-color="#66B1FF"/>
</linearGradient>
<linearGradient id="paint1_linear_115_4362" x1="-3.49816" y1="315.997" x2="-3.49816" y2="163" gradientUnits="userSpaceOnUse">
<stop stop-color="#0F8AEF"/>
<stop offset="0.3" stop-color="#2B96F4"/>
<stop offset="0.83" stop-color="#66B1FF"/>
</linearGradient>
<linearGradient id="paint2_linear_115_4362" x1="203.257" y1="102.403" x2="139.565" y2="213.747" gradientUnits="userSpaceOnUse">
<stop stop-color="#0F8AEF"/>
<stop offset="0.3" stop-color="#2B96F4"/>
<stop offset="0.83" stop-color="#66B1FF"/>
</linearGradient>
<linearGradient id="paint3_linear_115_4362" x1="199.676" y1="101.714" x2="139.96" y2="217.139" gradientUnits="userSpaceOnUse">
<stop stop-color="#0F8AEF"/>
<stop offset="0.3" stop-color="#2B96F4"/>
<stop offset="0.83" stop-color="#66B1FF"/>
</linearGradient>
<linearGradient id="paint4_linear_115_4362" x1="-3.49816" y1="315.997" x2="-3.49816" y2="163" gradientUnits="userSpaceOnUse">
<stop stop-color="#0F8AEF"/>
<stop offset="0.3" stop-color="#2B96F4"/>
<stop offset="0.83" stop-color="#66B1FF"/>
</linearGradient>
<clipPath id="clip0_115_4362">
<path d="M8 173H297V231H26C16.0589 231 8 222.941 8 213V173Z" fill="white"/>
</clipPath>
<clipPath id="clip1_115_4362">
<rect width="11" height="22" fill="white" transform="matrix(0.481688 0.876343 -0.876911 0.480652 197 83)"/>
</clipPath>
<clipPath id="clip2_115_4362">
<rect width="297" height="176" fill="white"/>
</clipPath>
<clipPath id="clip3_115_4362">
<rect width="61" height="196" fill="white" transform="matrix(0.70913 -0.705078 0.70913 0.705078 154 110)"/>
</clipPath>
</defs>
</svg>
