<svg width="30" height="56" viewBox="0 0 30 56" fill="none" xmlns="http://www.w3.org/2000/svg">
<path d="M8.13403 45.9176L13.9382 51.7876L17.8867 55.7539L21.8352 51.7876L27.6394 45.9176C29.9692 43.5774 29.9692 39.8493 27.6394 37.5091C25.3494 35.1688 21.5983 35.1688 19.2686 37.5091L17.8867 38.8972L16.5049 37.5091C14.1751 35.1688 10.424 35.1688 8.13403 37.5091C5.80428 39.8493 5.80428 43.5774 8.13403 45.9176Z" fill="url(#paint0_radial_123_2866)"/>
<path d="M6.38916 0.550781L6.83928 6.46638L12.7549 6.9165L6.83928 7.36663L6.38916 13.2822L5.93904 7.36663L0.0234375 6.9165L5.93904 6.46638L6.38916 0.550781Z" fill="url(#paint1_radial_123_2866)"/>
<path d="M6.38916 0.550781L6.83928 6.46638L12.7549 6.9165L6.83928 7.36663L6.38916 13.2822L5.93904 7.36663L0.0234375 6.9165L5.93904 6.46638L6.38916 0.550781Z" fill="url(#paint2_radial_123_2866)"/>
<path d="M6.38916 0.550781L6.83928 6.46638L12.7549 6.9165L6.83928 7.36663L6.38916 13.2822L5.93904 7.36663L0.0234375 6.9165L5.93904 6.46638L6.38916 0.550781Z" fill="white" fill-opacity="0.2"/>
<defs>
<radialGradient id="paint0_radial_123_2866" cx="0" cy="0" r="1" gradientUnits="userSpaceOnUse" gradientTransform="translate(24.6895 37.677) rotate(134.524) scale(20.894 29.2037)">
<stop stop-color="#F7EB02"/>
<stop offset="0.562168" stop-color="#00FF76"/>
<stop offset="1" stop-color="#00C4FF"/>
</radialGradient>
<radialGradient id="paint1_radial_123_2866" cx="0" cy="0" r="1" gradientUnits="userSpaceOnUse" gradientTransform="translate(2.62352 1.77496) rotate(49.4615) scale(12.4777 17.2315)">
<stop stop-color="#FF00D6"/>
<stop offset="0.562168" stop-color="#FF004D"/>
<stop offset="1" stop-color="#FF6291"/>
</radialGradient>
<radialGradient id="paint2_radial_123_2866" cx="0" cy="0" r="1" gradientUnits="userSpaceOnUse" gradientTransform="translate(6.39165 3.05222) rotate(136.73) scale(8.40014 10.5743)">
<stop stop-color="#ADFFEE"/>
<stop offset="1" stop-color="#2DF9FF"/>
</radialGradient>
</defs>
</svg>
