<svg width="46" height="54" viewBox="0 0 46 54" fill="none" xmlns="http://www.w3.org/2000/svg">
<g filter="url(#filter0_f_123_2865)">
<path d="M38.0066 17.2095L38.0053 17.2108L30.8016 24.4719L30.8003 24.4731L26.2755 29.0032L21.7506 24.4731L21.7493 24.4719L14.5456 17.2108L14.5444 17.2095C11.8592 14.5212 11.8592 10.2444 14.5444 7.55619L14.5444 7.5562L14.5476 7.55295C17.1806 4.87118 21.4982 4.86649 24.1848 7.55619L25.9001 9.27353L26.2755 9.6493L26.6508 9.27353L28.3662 7.55619C31.0528 4.86649 35.3704 4.87118 38.0034 7.55295L38.0034 7.55296L38.0066 7.55619C40.6917 10.2444 40.6917 14.5212 38.0066 17.2095Z" stroke="#00FFE1" stroke-width="1.06101"/>
</g>
<path d="M38.0066 17.2095L38.0053 17.2108L30.8016 24.4719L30.8003 24.4731L26.2755 29.0032L21.7506 24.4731L21.7493 24.4719L14.5456 17.2108L14.5444 17.2095C11.8592 14.5212 11.8592 10.2444 14.5444 7.55619L14.5444 7.5562L14.5476 7.55295C17.1806 4.87118 21.4982 4.86649 24.1848 7.55619L25.9001 9.27353L26.2755 9.6493L26.6508 9.27353L28.3662 7.55619C31.0528 4.86649 35.3704 4.87118 38.0034 7.55295L38.0034 7.55296L38.0066 7.55619C40.6917 10.2444 40.6917 14.5212 38.0066 17.2095Z" stroke="#00FFE1" stroke-width="1.06101"/>
<g filter="url(#filter1_f_123_2865)">
<path d="M38.1761 17.3788L38.1754 17.3795L30.9711 24.6412L30.9704 24.6419L26.2755 29.3422L21.5805 24.6419L21.5798 24.6412L14.3755 17.3795L14.3748 17.3788C11.5963 14.597 11.5963 10.1687 14.3748 7.38688L14.3749 7.38689L14.3766 7.3851C17.1043 4.60687 21.5749 4.6043 24.3543 7.38688L26.0696 9.10422L26.2755 9.31029L26.4813 9.10422L28.1967 7.38688C30.976 4.6043 35.4466 4.60687 38.1743 7.38511L38.1761 7.38688C40.9547 10.1687 40.9547 14.597 38.1761 17.3788Z" stroke="#96FFC0" stroke-width="0.581844"/>
</g>
<path d="M8.38867 37.7207L8.95671 45.1859L16.4219 45.7539L8.95671 46.3219L8.38867 53.7871L7.82064 46.3219L0.355469 45.7539L7.82064 45.1859L8.38867 37.7207Z" fill="url(#paint0_radial_123_2865)"/>
<path d="M8.38867 37.7207L8.95671 45.1859L16.4219 45.7539L8.95671 46.3219L8.38867 53.7871L7.82064 46.3219L0.355469 45.7539L7.82064 45.1859L8.38867 37.7207Z" fill="url(#paint1_radial_123_2865)"/>
<defs>
<filter id="filter0_f_123_2865" x="7.07144" y="0.0812063" width="38.4079" height="34.6013" filterUnits="userSpaceOnUse" color-interpolation-filters="sRGB">
<feFlood flood-opacity="0" result="BackgroundImageFix"/>
<feBlend mode="normal" in="SourceGraphic" in2="BackgroundImageFix" result="shape"/>
<feGaussianBlur stdDeviation="2.46428" result="effect1_foregroundBlur_123_2865"/>
</filter>
<filter id="filter1_f_123_2865" x="11.5208" y="4.5306" width="29.5091" height="25.7025" filterUnits="userSpaceOnUse" color-interpolation-filters="sRGB">
<feFlood flood-opacity="0" result="BackgroundImageFix"/>
<feBlend mode="normal" in="SourceGraphic" in2="BackgroundImageFix" result="shape"/>
<feGaussianBlur stdDeviation="0.239583" result="effect1_foregroundBlur_123_2865"/>
</filter>
<radialGradient id="paint0_radial_123_2865" cx="0" cy="0" r="1" gradientUnits="userSpaceOnUse" gradientTransform="translate(3.63664 39.2655) rotate(49.4615) scale(15.7462 21.7452)">
<stop stop-color="#FF00D6"/>
<stop offset="0.562168" stop-color="#FF004D"/>
<stop offset="1" stop-color="#FF6291"/>
</radialGradient>
<radialGradient id="paint1_radial_123_2865" cx="0" cy="0" r="1" gradientUnits="userSpaceOnUse" gradientTransform="translate(8.39182 40.8774) rotate(136.73) scale(10.6005 13.3442)">
<stop stop-color="#FFE7AB"/>
<stop offset="1" stop-color="#FABC22"/>
</radialGradient>
</defs>
</svg>
