<svg width="307" height="171" viewBox="0 0 307 171" fill="none" xmlns="http://www.w3.org/2000/svg">
<g clip-path="url(#clip0_229_20117)">
<path d="M25.7016 107.95C25.1852 108.614 7.71875 171.366 7.71875 171.366L112.188 171.217L111.413 152.638L102.397 104.398L25.7057 107.954L25.7016 107.95Z" fill="#66B1FF"/>
<path d="M32.8692 123.208C47.5721 110.026 61.2384 123.903 62.3374 125.064C63.6195 124.099 79.4879 112.73 91.6972 128.183C100.689 139.564 96.3428 159.506 89.6866 170.467H27.6034C23.3782 157.264 19.9729 134.768 32.8733 123.204" fill="white"/>
<path d="M96.5939 105.454C96.5939 105.454 38.9675 114.728 35.0658 111.54C31.7423 108.828 16.9011 95.742 14.709 92.2189C8.30327 81.9312 20.262 77.9734 17.0841 69.8508C17.0841 69.8508 12.3173 68.7703 11.3107 66.0752C9.77995 61.9725 15.9194 52.1526 19.5798 51.0059C21.8426 50.2979 23.889 52.0326 23.889 52.0326C31.2639 43.4132 38.223 41.1735 41.7254 39.828C54.595 34.8974 64.5446 36.4788 64.5446 36.4788C65.1977 34.0321 65.4347 33.3284 66.3581 32.964C69.6109 31.6765 79.1779 33.1338 82.1271 37.696C83.9406 40.5028 80.3052 45.0651 80.3052 45.0651C83.1462 51.5234 96.3152 54.7981 98.3284 65.3093C99.1021 69.3458 99.385 79.381 95.371 87.4538C89.4187 99.4307 96.5982 105.454 96.5982 105.454H96.5939Z" fill="#66B1FF"/>
<path d="M28.0754 88.6338C31.6383 87.6416 33.9637 84.8154 33.2693 82.3213C32.5749 79.8272 29.1236 78.6097 25.5606 79.6019C21.9977 80.5941 19.6723 83.4203 20.3667 85.9144C21.0612 88.4085 24.5124 89.626 28.0754 88.6338Z" fill="#FFB3DF"/>
<path d="M89.649 64.933C92.3399 62.9735 93.4623 59.9308 92.1561 58.1368C90.85 56.3428 87.6098 56.4769 84.919 58.4364C82.2282 60.3959 81.1057 63.4387 82.4119 65.2327C83.718 67.0267 86.9582 66.8925 89.649 64.933Z" fill="#FFB3DF"/>
<path d="M10.5088 108.266C10.5088 108.266 -22.7712 151.79 -5.27634 165.043C1.86037 170.453 6.79174 170.877 14.3373 170.242C21.218 169.664 27.6444 160.995 32.5343 151.678C37.3665 142.473 46.8448 114.066 40.3358 102.171C34.4257 91.3714 23.2831 90.4289 23.2831 90.4289C23.2831 90.4289 26.6448 84.4792 22.5395 81.4275C19.252 78.982 16.3775 80.8338 16.3775 80.8338L18.8513 80.2774C15.4193 72.505 2.25694 78.0603 1.62918 90.9022C1.03858 103.018 10.5045 108.266 10.5045 108.266H10.5088Z" fill="url(#paint0_linear_229_20117)"/>
<path d="M104.552 103.383C104.552 103.383 138.235 146.562 122.94 163.19C115.468 171.308 108.77 170.442 101.79 170.446C94.0288 170.446 88.4591 160.181 84.9403 152.021C79.9784 140.512 68.0451 108.351 74.599 96.4759C80.545 85.6989 91.6181 84.9957 91.6181 84.9957C91.6181 84.9957 88.3226 78.9123 92.4203 75.9205C95.7034 73.5237 98.5401 75.4586 98.5401 75.4586L96.088 74.8428C99.553 67.07 112.582 72.9703 113.111 85.9527C113.612 98.2027 104.552 103.383 104.552 103.383Z" fill="url(#paint1_linear_229_20117)"/>
<path d="M77.213 65.7212C73.8827 63.7 55.9191 70.2897 55.9191 70.2897C55.9191 70.2897 38.9211 76.0718 38.3598 82.206C38.1246 84.7491 37.0436 90.3407 39.0574 93.4762C41.5293 97.3281 61.1104 99.7014 67.2385 96.9761C73.1686 94.4039 85.0123 79.2363 84.7317 74.6636C84.48 70.5258 80.0603 67.4525 77.217 65.7212H77.213Z" fill="white"/>
<path d="M31.3266 62.9909C31.772 61.7807 33.6199 58.146 39.8715 56.6664C41.1659 56.3586 43.3428 57.7954 42.2524 59.9976C41.2992 61.9218 34.5732 65.8644 33.2329 65.9927C31.8553 66.121 30.7272 64.6329 31.3307 62.9909H31.3266Z" fill="#0E70E3"/>
<path d="M66.0704 48.7374C64.9637 48.1646 61.2595 46.7816 55.6804 49.8176C54.5241 50.4477 53.8385 52.8986 56.0643 53.7538C58.0053 54.5025 65.5212 52.9109 66.5949 52.1212C67.6975 51.3111 67.5737 49.5066 66.0747 48.7333L66.0704 48.7374Z" fill="#0E70E3"/>
<path d="M56.3114 70.7953C56.3114 70.7953 45.7117 75.0461 47.4209 78.2743C49.1301 81.5025 57.2034 84.5364 61.0284 83.0025C66.127 80.9574 68.724 73.6432 67.8154 70.0938C66.9069 66.5445 56.3074 70.7953 56.3074 70.7953H56.3114Z" fill="#0E70E3"/>
<path d="M48.4133 69.946C46.1987 67.8531 42.509 66.2024 39.8175 68.3486C38.4758 69.4177 37.7279 71.097 37.2228 72.7066C37.0167 73.3661 38.0311 73.6569 38.2373 73.0015C38.9 70.9085 40.1771 68.4346 42.6302 68.3937C44.1618 68.3691 45.6166 69.1391 46.8451 70.032C46.9704 70.1221 47.0917 70.2164 47.2129 70.3106C47.3221 70.3966 47.1725 70.2737 47.3059 70.3843C47.3463 70.417 47.3827 70.4498 47.4231 70.4826C47.5039 70.5522 47.5847 70.6218 47.6615 70.6956C48.1585 71.1666 48.9143 70.4171 48.4172 69.946H48.4133Z" fill="#0E70E3"/>
<path d="M71.652 58.7491C68.6148 57.5619 64.4292 57.5101 62.2555 60.1515C61.1623 61.4821 60.7667 63.1873 60.6348 64.8287C60.5795 65.498 61.6939 65.5059 61.745 64.8406C61.9279 62.5936 62.8042 60.1276 65.2713 59.3347C66.8878 58.8168 68.6191 58.9881 70.2142 59.4025C70.5971 59.5021 70.98 59.6096 71.3458 59.7531C72.0051 60.012 72.307 59.0081 71.652 58.7531V58.7491Z" fill="#0E70E3"/>
<path d="M43.3972 86.2971C44.9033 87.5794 46.6806 88.5203 48.4912 89.2947C50.8318 90.298 53.31 90.9725 55.8424 91.2847C58.5542 91.6178 61.362 91.4804 63.9862 90.6852C66.9066 89.8026 69.5224 88.1165 71.5501 85.8433C74.2368 82.8332 75.8891 79.0404 76.9238 75.1769C77.0823 74.5857 77.224 73.9903 77.3575 73.3908C77.5077 72.708 76.4606 72.4041 76.3104 73.0911C75.4343 77.0462 74.02 80.993 71.5001 84.2154C69.7103 86.5094 67.328 88.3413 64.5786 89.3405C62.0921 90.2481 59.4262 90.5021 56.7978 90.2897C54.3405 90.0899 51.9165 89.482 49.6219 88.5869C47.8613 87.8999 46.084 86.9965 44.5362 85.8266C44.4068 85.7309 44.5321 85.8266 44.3944 85.7184C44.3235 85.6601 44.2484 85.5977 44.1774 85.5394C43.6476 85.0856 42.8632 85.8433 43.3972 86.3012V86.2971Z" fill="#0E70E3"/>
<path d="M79.2262 73.3572C78.0563 72.0637 76.2318 71.6263 74.7469 72.4503C73.9329 72.9015 73.2989 73.661 72.7671 74.4711C72.5953 74.7335 72.7222 75.1433 72.9513 75.2952C73.2213 75.4747 73.5117 75.3504 73.6835 75.088C74.1417 74.3975 74.7428 73.7162 75.4546 73.4078C75.9864 73.1776 76.506 73.1685 76.9846 73.3066C77.1032 73.3388 77.2218 73.3802 77.3363 73.4309C77.3936 73.4539 77.455 73.4815 77.5123 73.5091C77.4018 73.4538 77.5491 73.5275 77.5696 73.5413C77.7496 73.6426 77.9213 73.7531 78.0849 73.8774C78.1504 73.928 78.2158 73.9832 78.2813 74.0339C78.2158 73.9694 78.3958 74.1259 78.2813 74.0339C78.3017 74.0523 78.3222 74.0707 78.3386 74.0891C78.3795 74.1305 78.4203 74.1674 78.4612 74.2134C78.9521 74.7566 79.7171 73.9142 79.2262 73.371V73.3572Z" fill="#0E70E3"/>
<path d="M46.0272 84.0863C45.4979 84.0785 44.9435 84.1921 44.452 84.3645C43.3683 84.7484 42.5365 85.4809 42.1375 86.5072C41.8183 87.3258 41.8351 88.2111 41.9527 89.0651C41.9905 89.3393 42.3644 89.492 42.6248 89.4294C42.944 89.351 43.0533 89.0807 43.0155 88.8026C42.9735 88.4853 42.9567 88.1014 42.9819 87.7606C42.9861 87.6745 42.9987 87.5883 43.0071 87.5021C43.0071 87.4865 43.0197 87.4003 43.0071 87.4904C43.0113 87.459 43.0197 87.4277 43.0239 87.3964C43.0533 87.2475 43.0911 87.0987 43.1373 86.9537C43.1583 86.8871 43.1834 86.8166 43.2128 86.75C43.2296 86.7108 43.2928 86.5816 43.2424 86.6834C43.3012 86.5659 43.3641 86.4523 43.4397 86.3426C43.4733 86.2917 43.5112 86.2408 43.549 86.1899C43.5784 86.1507 43.6581 86.0645 43.5783 86.1507C43.6581 86.0645 43.7422 85.9784 43.8304 85.8961C43.906 85.8256 43.99 85.7629 44.074 85.7002C43.9438 85.7982 44.0992 85.6845 44.1286 85.665C44.1748 85.6336 44.2209 85.6062 44.2713 85.5788C44.3553 85.5318 44.4437 85.4887 44.5277 85.4456C44.5739 85.4221 44.6242 85.4025 44.6705 85.3829C44.6915 85.3751 44.7083 85.3672 44.7293 85.3594C44.8301 85.3163 44.6033 85.3986 44.7125 85.3672C45.0317 85.2693 45.3383 85.1831 45.6701 85.1322C45.6827 85.1322 45.6953 85.1322 45.7121 85.1283C45.8172 85.1126 45.6533 85.144 45.6449 85.1361C45.6575 85.144 45.7331 85.1283 45.7499 85.1244C45.7961 85.1205 45.8424 85.1165 45.8928 85.1165C45.939 85.1165 45.9852 85.1126 46.0272 85.1165C46.7328 85.1244 46.7454 84.102 46.0397 84.0942L46.0272 84.0863Z" fill="#0E70E3"/>
</g>
<path d="M97.2602 19.3893L88.9678 23.1399L83.3375 25.6635L80.9398 19.9852L77.4314 11.5973C76.0167 8.24699 77.5359 4.39238 80.8579 2.90339C84.1395 1.39853 87.9528 2.89701 89.3675 6.24737L90.2066 8.23459L92.177 7.35142C95.4991 5.86243 99.3123 7.36091 100.687 10.6954C102.101 14.0458 100.582 17.9004 97.2602 19.3893Z" fill="#FF0199"/>
<path d="M105.474 38.3738L101.504 41.3556L98.8051 43.3677L96.8804 40.6085L94.055 36.5287C92.9193 34.9007 93.283 32.6583 94.8752 31.471C96.4441 30.28 98.6401 30.6348 99.7758 32.2629L100.449 33.2285L101.394 32.5243C102.986 31.337 105.182 31.6919 106.294 33.3162C107.43 34.9442 107.066 37.1866 105.474 38.3738Z" fill="#FF0199"/>
<path d="M37.5197 17.3823L36.2873 22.37L35.4404 25.7483L32.0859 24.7912L27.1424 23.3627C25.1632 22.7981 23.9847 20.7606 24.4844 18.7673C24.963 16.7861 26.9586 15.636 28.9379 16.2007L30.1118 16.5356L30.4082 15.3533C30.9079 13.36 32.9036 12.2099 34.8617 12.7868C36.8409 13.3515 38.0194 15.389 37.5197 17.3823Z" fill="#FF0199"/>
<path d="M296.885 85.3168L284.981 89.8997L276.901 92.9791L274.085 84.811L269.971 72.7479C268.31 67.9284 270.783 62.6425 275.551 60.8255C280.264 58.983 285.439 61.4001 287.101 66.2195L288.087 69.0781L290.915 68.0004C295.682 66.1835 300.858 68.6006 302.465 73.3944C304.127 78.2139 301.653 83.4998 296.885 85.3168Z" fill="#FF0199"/>
<defs>
<linearGradient id="paint0_linear_229_20117" x1="38.3035" y1="101.614" x2="-20.8516" y2="148.715" gradientUnits="userSpaceOnUse">
<stop stop-color="#0F8AEF"/>
<stop offset="0.3" stop-color="#2B96F4"/>
<stop offset="0.83" stop-color="#66B1FF"/>
</linearGradient>
<linearGradient id="paint1_linear_229_20117" x1="72.9708" y1="97.6243" x2="135.184" y2="147.722" gradientUnits="userSpaceOnUse">
<stop stop-color="#0F8AEF"/>
<stop offset="0.3" stop-color="#2B96F4"/>
<stop offset="0.83" stop-color="#66B1FF"/>
</linearGradient>
<clipPath id="clip0_229_20117">
<rect y="32.3672" width="138" height="138" rx="18" fill="white"/>
</clipPath>
</defs>
</svg>
