<svg width="331" height="183" viewBox="0 0 331 183" fill="none" xmlns="http://www.w3.org/2000/svg">
<g clip-path="url(#clip0_229_20305)">
<path d="M92.1559 112.134C90.4772 109.279 101.044 95.2563 98.6406 81.2294C97.4684 74.3766 83.532 58.9557 83.532 58.9557C86.1527 56.3306 86.1987 54.5402 86.1987 54.5402C85.8429 48.881 73.8489 43.5056 71.3413 44.0815C68.8337 44.6575 67.6699 47.3368 67.6699 47.3368C32.2029 38.9983 21.9715 57.6703 21.9715 57.6703C20.2425 54.4776 17.9484 54.1896 16.391 54.5443C12.4182 55.4458 6.60748 62.9622 5.41018 68.734C4.67338 72.2815 11.4553 77.177 11.4553 77.177C11.7735 85.0105 7.81315 92.915 8.36994 100.849C8.9058 108.461 21.8835 114.575 21.243 117.2C8.77183 168.45 8.80951 198.173 15.0849 215.802C15.0849 215.802 -3.49005 263.926 0.541428 273.634C15.9975 275.47 30.2521 279.551 45.9007 280.595C49.7187 271.171 56.7979 245.893 67.7871 239.983C74.6946 241.423 62.9602 270.779 58.2087 282.264C71.2576 282.84 101.835 276.392 101.412 276.217C121.08 275.653 118.831 208.691 118.831 208.691C121.084 176.125 113.042 147.658 92.1601 112.13L92.1559 112.134Z" fill="#66B1FF"/>
<path d="M169.809 85.5213C156.057 92.804 152.875 96.8397 152.875 96.8397C149.279 93.4926 140.907 88.2716 136.569 91.5102C127.184 98.5132 140.3 106.564 144.059 110.316C141.02 155.255 92.1562 112.816 92.1562 112.816L109.642 159.019C146.245 182.133 161.391 174.988 182.9 126.141C182.9 126.141 195.488 125.081 195.112 116.517C194.886 111.443 191.959 110.011 191.959 110.011C191.959 110.011 194.212 105.846 192.072 100.7C189.895 95.4666 182.854 96.0509 182.854 96.0509C182.854 96.0509 201.383 89.3942 196.74 79.9664C193.316 73.0135 173.715 83.4555 169.813 85.5213H169.809Z" fill="#66B1FF"/>
<g clip-path="url(#clip1_229_20305)">
<path d="M20.4231 120.234C20.4231 120.234 -7.80363 150.735 -23.8918 170.363C-36.3463 185.559 -45.4662 196.588 -32.6684 213.311C-29.1686 217.885 -22.0853 222.417 -22.0853 222.417L12.61 191.933V170.363C12.61 170.363 19.77 163.263 22.3614 144.616C23.1149 139.186 20.4231 120.234 20.4231 120.234Z" fill="#66B1FF"/>
</g>
<path d="M77.7228 79.5127C75.0142 74.538 54.9992 79.0203 55.0243 79.1413C54.9992 79.0244 34.62 82.8181 33.8287 88.8445C33.3473 92.513 32.2672 99.6246 34.8293 103.518C37.6634 107.825 54.9155 114.428 62.4174 112.687C69.6599 111.081 79.6109 99.1947 80.2974 94.0905C80.917 89.4747 79.4937 82.7638 77.7186 79.5086L77.7228 79.5127Z" fill="white"/>
<path d="M33.0663 65.4538C34.0668 64.4271 37.6043 61.585 44.7923 62.9205C46.2826 63.196 47.9153 65.6416 45.8012 67.3777C43.955 68.8927 35.1846 69.8359 33.7235 69.356C32.229 68.8635 31.7099 66.8394 33.0663 65.4496V65.4538Z" fill="#0073E4"/>
<path d="M66.9646 51.4745C65.6375 50.7191 61.2251 48.8452 54.8451 52.3676C53.5222 53.0979 52.844 56.1028 55.494 57.2589C57.809 58.2688 66.5292 56.6245 67.7517 55.6938C69.0034 54.7381 68.7648 52.5011 66.9646 51.4786V51.4745Z" fill="#0073E4"/>
<path d="M56.0906 80.3636C56.0906 80.3636 43.3431 83.0095 44.6576 86.895C45.9721 90.7804 55.6259 95.4505 59.088 94.7327C63.7977 93.514 69.5372 85.8975 69.1855 81.8075C68.8339 77.7217 56.0906 80.3636 56.0906 80.3636Z" fill="#0073E4"/>
<path d="M48.3681 75.8744C45.739 73.4497 41.3601 71.5549 38.1952 74.0757C36.6211 75.3277 35.7545 77.2683 35.1601 79.138C34.8963 79.9644 36.1983 80.3191 36.462 79.497C37.2239 77.0931 38.6975 74.2551 41.561 74.2051C43.3402 74.1758 45.0399 75.0606 46.4758 76.0789C46.84 76.3377 47.0284 76.467 47.4178 76.8259C48.0541 77.4144 49.0086 76.4629 48.3722 75.8744H48.3681Z" fill="#0073E4"/>
<path d="M64.2172 75.2348C67.3963 75.2348 69.9735 72.6656 69.9735 69.4963C69.9735 66.327 67.3963 63.7578 64.2172 63.7578C61.0381 63.7578 58.4609 66.327 58.4609 69.4963C58.4609 72.6656 61.0381 75.2348 64.2172 75.2348Z" fill="white"/>
<path d="M64.213 73.2544C66.2939 73.2544 67.9808 71.5727 67.9808 69.4983C67.9808 67.4239 66.2939 65.7422 64.213 65.7422C62.1322 65.7422 60.4453 67.4239 60.4453 69.4983C60.4453 71.5727 62.1322 73.2544 64.213 73.2544Z" fill="#3B3B3B"/>
<path d="M57.5781 77.8661L57.6074 75.4872C57.6074 75.4872 58.4656 73.1668 63.7739 72.3238C67.5375 71.727 70.5894 73.5382 70.5894 73.5382L70.8489 76.8269L57.5781 77.8619V77.8661Z" fill="#66B1FF"/>
<path d="M67.1662 97.0742C64.4157 95.1169 58.6511 98.7769 55.302 98.3095C51.0737 97.7211 44.4551 90.8725 40.4152 92.2539C38.096 93.0469 36.5722 98.6727 37.5518 100.91C39.5905 105.555 49.1983 108.292 54.2847 108.292C57.1524 108.292 62.5318 107.399 64.8636 105.071C66.4796 103.46 69.0249 98.393 67.1662 97.07V97.0742Z" fill="white"/>
<path d="M54.2825 108.921C49.4305 108.921 39.2116 106.258 36.976 101.162C36.235 99.4762 36.7374 96.5882 37.6124 94.6016C38.098 93.4998 38.9436 92.0975 40.2121 91.6635C42.837 90.762 46.1861 92.8195 49.4221 94.8061C51.5488 96.1124 53.7466 97.4604 55.3877 97.6899C56.6603 97.8652 58.4647 97.3436 60.2104 96.8386C62.9022 96.0581 65.682 95.2526 67.5282 96.5631C67.8966 96.8219 68.3487 97.3394 68.4282 98.3159C68.6166 100.582 66.6741 104.15 65.3052 105.515C62.8185 107.994 57.2255 108.921 54.2825 108.921ZM41.5894 92.6985C41.2461 92.6985 40.9196 92.7444 40.6182 92.8487C39.9735 93.0699 39.2953 93.8921 38.7594 95.1066C37.897 97.0639 37.6166 99.5054 38.1273 100.661C39.9735 104.872 49.0746 107.669 54.2825 107.669C57.2255 107.669 62.3161 106.725 64.4177 104.63C65.615 103.437 67.3272 100.181 67.1807 98.4203C67.1472 98.0154 67.0216 97.74 66.7997 97.5856C65.4475 96.6257 62.965 97.3477 60.562 98.0405C58.6028 98.6081 56.7524 99.1465 55.216 98.9295C53.3113 98.6665 51.105 97.3101 48.7649 95.8703C46.2154 94.3053 43.5905 92.6943 41.5936 92.6943L41.5894 92.6985Z" fill="#0073E4"/>
<path d="M41.2523 104.912C41.1518 104.912 41.0513 104.887 40.955 104.837C40.6494 104.674 40.5364 104.294 40.6997 103.989L46.054 94.04C46.2173 93.7353 46.5983 93.6226 46.9039 93.7854C47.2095 93.9481 47.3225 94.3279 47.1592 94.6326L41.8049 104.582C41.6918 104.791 41.4742 104.912 41.2523 104.912Z" fill="#0073E4"/>
<path d="M50.2906 108.173C50.2446 108.173 50.1985 108.169 50.1525 108.157C49.8134 108.081 49.604 107.743 49.6794 107.409L51.9149 97.5351C51.9903 97.197 52.3252 96.9842 52.6643 97.0635C53.0034 97.1386 53.2127 97.4766 53.1373 97.8105L50.9018 107.685C50.8348 107.977 50.5753 108.173 50.2906 108.173Z" fill="#0073E4"/>
<path d="M61.5963 107.247C61.2823 107.247 61.0102 107.009 60.9725 106.691L59.9804 97.9857C59.9427 97.6434 60.1897 97.3304 60.533 97.2928C60.8762 97.2553 61.1902 97.5015 61.2279 97.8437L62.2201 106.55C62.2577 106.892 62.0107 107.205 61.6675 107.242C61.6423 107.242 61.6214 107.242 61.5963 107.242V107.247Z" fill="#0073E4"/>
<path d="M17.6797 75.2324L84.7495 57.5703L83.8955 61.7814L77.7583 63.7554C77.7583 63.7554 80.8143 75.1322 68.5441 77.8616C57.5758 80.3031 54.9342 69.5523 54.9342 69.5523L50.3083 70.6666C50.3083 70.6666 53.5611 81.5802 42.2453 84.5809C29.8285 87.8696 27.2958 77.1688 27.2958 77.1688L19.7226 79.5185L17.6839 75.2324H17.6797Z" fill="#333238"/>
<path d="M24.5938 81.5496L26.4274 81.2533C27.9303 81.0113 29.1318 79.947 29.4667 78.5572L30.3165 75.0391L31.137 78.6491C31.4468 80.0054 32.573 81.0697 34.0173 81.3701L36.123 81.8084L33.4856 82.4302C32.3134 82.7057 31.4092 83.5821 31.158 84.6881L30.3207 88.3607L29.6006 85.0011C29.3034 83.6197 28.2024 82.5053 26.7539 82.1214L24.5979 81.5496H24.5938Z" fill="white"/>
<path d="M71.6484 60.2388L72.6155 60.0885C73.4067 59.9633 74.0388 59.4124 74.2147 58.6946L74.6626 56.875L75.0938 58.7405C75.2571 59.4417 75.8474 59.9925 76.6093 60.147L77.7187 60.3723L76.3288 60.6937C75.7092 60.8356 75.2362 61.2905 75.1022 61.8622L74.6626 63.7612L74.2817 62.025C74.1268 61.3114 73.5449 60.7354 72.7829 60.5351L71.6484 60.2388Z" fill="white"/>
<path opacity="0.5" d="M63.4868 78.059C63.3529 77.938 68.7073 61.7701 68.7073 61.7701L71.6419 60.9688L65.1698 78.2218C65.1698 78.2218 63.8343 78.3762 63.4868 78.059Z" fill="white"/>
<path opacity="0.5" d="M67.9812 78.1534L67.3281 78.1284L73.5449 60.5206L74.311 60.3203L67.9812 78.1534Z" fill="white"/>
<path d="M169.809 85.3026C156.057 92.5852 152.875 96.6209 152.875 96.6209C149.279 93.2738 140.907 88.0529 136.569 91.2914C127.184 98.2945 140.3 106.345 144.059 110.097C141.02 155.037 92.1562 112.597 92.1562 112.597L114.27 155.232C146.941 180.21 158.025 179.186 182.9 125.923C182.9 125.923 195.488 124.863 195.112 116.299C194.886 111.224 191.959 109.792 191.959 109.792C191.959 109.792 194.212 105.627 192.072 100.481C189.895 95.2479 182.854 95.8322 182.854 95.8322C182.854 95.8322 201.383 89.1755 196.74 79.7477C193.316 72.7947 173.715 83.2367 169.813 85.3026H169.809Z" fill="url(#paint0_linear_229_20305)"/>
<path d="M163.573 107.434C163.573 107.434 171.654 103.473 175.414 105.609C182.937 110.834 180.294 124.127 164.938 123.561C159.534 123.361 154.894 121.4 153.244 113.951C152.26 108.512 155.956 104.512 163.573 107.434Z" fill="#66B1FF"/>
<path d="M169.809 85.3026C156.056 92.5852 152.875 96.6209 152.875 96.6209C149.279 93.2738 140.906 88.0529 136.569 91.2914C127.183 98.2945 140.299 106.345 144.058 110.097C141.019 155.037 150.195 100.481 150.195 100.481L167.889 104.01C166.785 109.336 164.994 111.066 170.785 115.556C165.637 126.461 175.611 128.064 182.899 125.923C182.899 125.923 195.488 124.863 195.111 116.299C194.885 111.224 191.959 109.792 191.959 109.792C191.959 109.792 194.211 105.627 192.072 100.481C189.895 95.2479 182.853 95.8322 182.853 95.8322C182.853 95.8322 201.382 89.1755 196.74 79.7477C193.315 72.7947 173.715 83.2367 169.813 85.3026H169.809Z" fill="url(#paint1_linear_229_20305)"/>
<path d="M26.7146 149.224C43.8638 131.31 62.6859 147.105 64.2016 148.433C65.722 147.105 84.5394 131.31 101.689 149.224C120.721 169.104 103.381 209.474 97.4657 218.978C91.5507 228.481 79.8446 243.912 64.03 244.382C48.2106 243.912 36.8525 228.486 30.9375 218.978C25.0225 209.474 7.68266 169.109 26.7146 149.224Z" fill="white"/>
<path d="M175.886 127.774C175.886 127.774 175.848 127.774 175.831 127.774C175.614 127.757 170.464 127.273 169.058 123.116C167.831 119.494 168.869 117.286 169.426 116.101C169.523 115.9 169.636 115.658 169.677 115.516C166.663 112.799 165.407 110.074 165.939 107.42C167.061 101.811 175.794 98.7224 176.162 98.5971C176.489 98.4845 176.849 98.6555 176.962 98.9811C177.075 99.3066 176.903 99.6655 176.577 99.7782C176.493 99.8074 168.149 102.762 167.17 107.666C166.726 109.882 167.886 112.24 170.611 114.669C171.231 115.22 170.875 115.971 170.565 116.631C170.05 117.728 169.188 119.564 170.251 122.711C171.398 126.1 175.894 126.517 175.94 126.522C176.288 126.551 176.543 126.856 176.514 127.198C176.484 127.523 176.212 127.769 175.89 127.769L175.886 127.774Z" fill="#0073E4"/>
<path d="M173.944 116.367C171.575 116.367 170.072 115.766 169.95 115.716C169.628 115.582 169.477 115.215 169.611 114.898C169.745 114.581 170.11 114.426 170.432 114.56C170.507 114.589 175.845 116.672 182.355 112.406C182.644 112.219 183.033 112.298 183.225 112.586C183.418 112.874 183.334 113.262 183.045 113.454C179.504 115.774 176.301 116.371 173.948 116.371L173.944 116.367Z" fill="#0073E4"/>
</g>
<g clip-path="url(#clip2_229_20305)">
<path d="M92.1559 112.134C90.4772 109.279 101.044 95.2563 98.6406 81.2294C97.4684 74.3766 83.532 58.9557 83.532 58.9557C86.1527 56.3306 86.1987 54.5402 86.1987 54.5402C85.8429 48.881 73.8489 43.5056 71.3413 44.0815C68.8337 44.6575 67.6699 47.3368 67.6699 47.3368C32.2029 38.9983 21.9715 57.6703 21.9715 57.6703C20.2425 54.4776 17.9484 54.1896 16.391 54.5443C12.4182 55.4458 6.60748 62.9622 5.41018 68.734C4.67338 72.2815 11.4553 77.177 11.4553 77.177C11.7735 85.0105 7.81315 92.915 8.36994 100.849C8.9058 108.461 21.8835 114.575 21.243 117.2C8.77183 168.45 8.80951 198.173 15.0849 215.802C15.0849 215.802 -3.49005 263.926 0.541428 273.634C15.9975 275.47 30.2521 279.551 45.9007 280.595C49.7187 271.171 56.7979 245.893 67.7871 239.983C74.6946 241.423 62.9602 270.779 58.2087 282.264C71.2576 282.84 101.835 276.392 101.412 276.217C121.08 275.653 118.831 208.691 118.831 208.691C121.084 176.125 113.042 147.658 92.1601 112.13L92.1559 112.134Z" fill="#66B1FF"/>
<path d="M169.809 85.5213C156.057 92.804 152.875 96.8397 152.875 96.8397C149.279 93.4926 140.907 88.2716 136.569 91.5102C127.184 98.5132 140.3 106.564 144.059 110.316C141.02 155.255 92.1562 112.816 92.1562 112.816L109.642 159.019C146.245 182.133 161.391 174.988 182.9 126.141C182.9 126.141 195.488 125.081 195.112 116.517C194.886 111.443 191.959 110.011 191.959 110.011C191.959 110.011 194.212 105.846 192.072 100.7C189.895 95.4666 182.854 96.0509 182.854 96.0509C182.854 96.0509 201.383 89.3942 196.74 79.9664C193.316 73.0135 173.715 83.4555 169.813 85.5213H169.809Z" fill="#66B1FF"/>
<path d="M77.7228 79.5127C75.0142 74.538 54.9992 79.0203 55.0243 79.1413C54.9992 79.0244 34.62 82.8181 33.8287 88.8445C33.3473 92.513 32.2672 99.6246 34.8293 103.518C37.6634 107.825 54.9155 114.428 62.4174 112.687C69.6599 111.081 79.6109 99.1947 80.2974 94.0905C80.917 89.4747 79.4937 82.7638 77.7186 79.5086L77.7228 79.5127Z" fill="white"/>
<path d="M33.0663 65.4538C34.0668 64.4271 37.6043 61.585 44.7923 62.9205C46.2826 63.196 47.9153 65.6416 45.8012 67.3777C43.955 68.8927 35.1846 69.8359 33.7235 69.356C32.229 68.8635 31.7099 66.8394 33.0663 65.4496V65.4538Z" fill="#0073E4"/>
<path d="M66.9646 51.4745C65.6375 50.7191 61.2251 48.8452 54.8451 52.3676C53.5222 53.0979 52.844 56.1028 55.494 57.2589C57.809 58.2688 66.5292 56.6245 67.7517 55.6938C69.0034 54.7381 68.7648 52.5011 66.9646 51.4786V51.4745Z" fill="#0073E4"/>
<path d="M56.0906 80.3636C56.0906 80.3636 43.3431 83.0095 44.6576 86.895C45.9721 90.7804 55.6259 95.4505 59.088 94.7327C63.7977 93.514 69.5372 85.8975 69.1855 81.8075C68.8339 77.7217 56.0906 80.3636 56.0906 80.3636Z" fill="#0073E4"/>
<path d="M48.3681 75.8744C45.739 73.4497 41.3601 71.5549 38.1952 74.0757C36.6211 75.3277 35.7545 77.2683 35.1601 79.138C34.8963 79.9644 36.1983 80.3191 36.462 79.497C37.2239 77.0931 38.6975 74.2551 41.561 74.2051C43.3402 74.1758 45.0399 75.0606 46.4758 76.0789C46.84 76.3377 47.0284 76.467 47.4178 76.8259C48.0541 77.4144 49.0086 76.4629 48.3722 75.8744H48.3681Z" fill="#0073E4"/>
<path d="M64.2172 75.2348C67.3963 75.2348 69.9735 72.6656 69.9735 69.4963C69.9735 66.327 67.3963 63.7578 64.2172 63.7578C61.0381 63.7578 58.4609 66.327 58.4609 69.4963C58.4609 72.6656 61.0381 75.2348 64.2172 75.2348Z" fill="white"/>
<path d="M64.213 73.2544C66.2939 73.2544 67.9808 71.5727 67.9808 69.4983C67.9808 67.4239 66.2939 65.7422 64.213 65.7422C62.1322 65.7422 60.4453 67.4239 60.4453 69.4983C60.4453 71.5727 62.1322 73.2544 64.213 73.2544Z" fill="#3B3B3B"/>
<path d="M57.5781 77.8661L57.6074 75.4872C57.6074 75.4872 58.4656 73.1668 63.7739 72.3238C67.5375 71.727 70.5894 73.5382 70.5894 73.5382L70.8489 76.8269L57.5781 77.8619V77.8661Z" fill="#66B1FF"/>
<path d="M67.1662 97.0742C64.4157 95.1169 58.6511 98.7769 55.302 98.3095C51.0737 97.7211 44.4551 90.8725 40.4152 92.2539C38.096 93.0469 36.5722 98.6727 37.5518 100.91C39.5905 105.555 49.1983 108.292 54.2847 108.292C57.1524 108.292 62.5318 107.399 64.8636 105.071C66.4796 103.46 69.0249 98.393 67.1662 97.07V97.0742Z" fill="white"/>
<path d="M54.2825 108.921C49.4305 108.921 39.2116 106.258 36.976 101.162C36.235 99.4762 36.7374 96.5882 37.6124 94.6016C38.098 93.4998 38.9436 92.0975 40.2121 91.6635C42.837 90.762 46.1861 92.8195 49.4221 94.8061C51.5488 96.1124 53.7466 97.4604 55.3877 97.6899C56.6603 97.8652 58.4647 97.3436 60.2104 96.8386C62.9022 96.0581 65.682 95.2526 67.5282 96.5631C67.8966 96.8219 68.3487 97.3394 68.4282 98.3159C68.6166 100.582 66.6741 104.15 65.3052 105.515C62.8185 107.994 57.2255 108.921 54.2825 108.921ZM41.5894 92.6985C41.2461 92.6985 40.9196 92.7444 40.6182 92.8487C39.9735 93.0699 39.2953 93.8921 38.7594 95.1066C37.897 97.0639 37.6166 99.5054 38.1273 100.661C39.9735 104.872 49.0746 107.669 54.2825 107.669C57.2255 107.669 62.3161 106.725 64.4177 104.63C65.615 103.437 67.3272 100.181 67.1807 98.4203C67.1472 98.0154 67.0216 97.74 66.7997 97.5856C65.4475 96.6257 62.965 97.3477 60.562 98.0405C58.6028 98.6081 56.7524 99.1465 55.216 98.9295C53.3113 98.6665 51.105 97.3101 48.7649 95.8703C46.2154 94.3053 43.5905 92.6943 41.5936 92.6943L41.5894 92.6985Z" fill="#0073E4"/>
<path d="M41.2523 104.912C41.1518 104.912 41.0513 104.887 40.955 104.837C40.6494 104.674 40.5364 104.294 40.6997 103.989L46.054 94.04C46.2173 93.7353 46.5983 93.6226 46.9039 93.7854C47.2095 93.9481 47.3225 94.3279 47.1592 94.6326L41.8049 104.582C41.6918 104.791 41.4742 104.912 41.2523 104.912Z" fill="#0073E4"/>
<path d="M50.2906 108.173C50.2446 108.173 50.1985 108.169 50.1525 108.157C49.8134 108.081 49.604 107.743 49.6794 107.409L51.9149 97.5351C51.9903 97.197 52.3252 96.9842 52.6643 97.0635C53.0034 97.1386 53.2127 97.4766 53.1373 97.8105L50.9018 107.685C50.8348 107.977 50.5753 108.173 50.2906 108.173Z" fill="#0073E4"/>
<path d="M61.5963 107.247C61.2823 107.247 61.0102 107.009 60.9725 106.691L59.9804 97.9857C59.9427 97.6434 60.1897 97.3304 60.533 97.2928C60.8762 97.2553 61.1902 97.5015 61.2279 97.8437L62.2201 106.55C62.2577 106.892 62.0107 107.205 61.6675 107.242C61.6423 107.242 61.6214 107.242 61.5963 107.242V107.247Z" fill="#0073E4"/>
<path d="M17.6797 75.2324L84.7495 57.5703L83.8955 61.7814L77.7583 63.7554C77.7583 63.7554 80.8143 75.1322 68.5441 77.8616C57.5758 80.3031 54.9342 69.5523 54.9342 69.5523L50.3083 70.6666C50.3083 70.6666 53.5611 81.5802 42.2453 84.5809C29.8285 87.8696 27.2958 77.1688 27.2958 77.1688L19.7226 79.5185L17.6839 75.2324H17.6797Z" fill="#333238"/>
<path d="M24.5938 81.5496L26.4274 81.2533C27.9303 81.0113 29.1318 79.947 29.4667 78.5572L30.3165 75.0391L31.137 78.6491C31.4468 80.0054 32.573 81.0697 34.0173 81.3701L36.123 81.8084L33.4856 82.4302C32.3134 82.7057 31.4092 83.5821 31.158 84.6881L30.3207 88.3607L29.6006 85.0011C29.3034 83.6197 28.2024 82.5053 26.7539 82.1214L24.5979 81.5496H24.5938Z" fill="white"/>
<path d="M71.6484 60.2388L72.6155 60.0885C73.4067 59.9633 74.0388 59.4124 74.2147 58.6946L74.6626 56.875L75.0938 58.7405C75.2571 59.4417 75.8474 59.9925 76.6093 60.147L77.7187 60.3723L76.3288 60.6937C75.7092 60.8356 75.2362 61.2905 75.1022 61.8622L74.6626 63.7612L74.2817 62.025C74.1268 61.3114 73.5449 60.7354 72.7829 60.5351L71.6484 60.2388Z" fill="white"/>
<path opacity="0.5" d="M63.4868 78.059C63.3529 77.938 68.7073 61.7701 68.7073 61.7701L71.6419 60.9688L65.1698 78.2218C65.1698 78.2218 63.8343 78.3762 63.4868 78.059Z" fill="white"/>
<path opacity="0.5" d="M67.9812 78.1534L67.3281 78.1284L73.5449 60.5206L74.311 60.3203L67.9812 78.1534Z" fill="white"/>
<path d="M169.809 85.3026C156.057 92.5852 152.875 96.6209 152.875 96.6209C149.279 93.2738 140.907 88.0529 136.569 91.2914C127.184 98.2945 140.3 106.345 144.059 110.097C141.02 155.037 92.1562 112.597 92.1562 112.597L114.27 155.232C146.941 180.21 158.025 179.186 182.9 125.923C182.9 125.923 195.488 124.863 195.112 116.299C194.886 111.224 191.959 109.792 191.959 109.792C191.959 109.792 194.212 105.627 192.072 100.481C189.895 95.2479 182.854 95.8322 182.854 95.8322C182.854 95.8322 201.383 89.1755 196.74 79.7477C193.316 72.7947 173.715 83.2367 169.813 85.3026H169.809Z" fill="url(#paint2_linear_229_20305)"/>
<path d="M163.573 107.434C163.573 107.434 171.654 103.473 175.414 105.609C182.937 110.834 180.294 124.127 164.938 123.561C159.534 123.361 154.894 121.4 153.244 113.951C152.26 108.512 155.956 104.512 163.573 107.434Z" fill="#66B1FF"/>
<path d="M169.809 85.3026C156.056 92.5852 152.875 96.6209 152.875 96.6209C149.279 93.2738 140.906 88.0529 136.569 91.2914C127.183 98.2945 140.299 106.345 144.058 110.097C141.019 155.037 150.195 100.481 150.195 100.481L167.889 104.01C166.785 109.336 164.994 111.066 170.785 115.556C165.637 126.461 175.611 128.064 182.899 125.923C182.899 125.923 195.488 124.863 195.111 116.299C194.885 111.224 191.959 109.792 191.959 109.792C191.959 109.792 194.211 105.627 192.072 100.481C189.895 95.2479 182.853 95.8322 182.853 95.8322C182.853 95.8322 201.382 89.1755 196.74 79.7477C193.315 72.7947 173.715 83.2367 169.813 85.3026H169.809Z" fill="url(#paint3_linear_229_20305)"/>
<path d="M175.886 127.774C175.886 127.774 175.848 127.774 175.831 127.774C175.614 127.757 170.464 127.273 169.058 123.116C167.831 119.494 168.869 117.286 169.426 116.101C169.523 115.9 169.636 115.658 169.677 115.516C166.663 112.799 165.407 110.074 165.939 107.42C167.061 101.811 175.794 98.7224 176.162 98.5971C176.489 98.4845 176.849 98.6555 176.962 98.9811C177.075 99.3066 176.903 99.6655 176.577 99.7782C176.493 99.8074 168.149 102.762 167.17 107.666C166.726 109.882 167.886 112.24 170.611 114.669C171.231 115.22 170.875 115.971 170.565 116.631C170.05 117.728 169.188 119.564 170.251 122.711C171.398 126.1 175.894 126.517 175.94 126.522C176.288 126.551 176.543 126.856 176.514 127.198C176.484 127.523 176.212 127.769 175.89 127.769L175.886 127.774Z" fill="#0073E4"/>
<path d="M173.944 116.367C171.575 116.367 170.072 115.766 169.95 115.716C169.628 115.582 169.477 115.215 169.611 114.898C169.745 114.581 170.11 114.426 170.432 114.56C170.507 114.589 175.845 116.672 182.355 112.406C182.644 112.219 183.033 112.298 183.225 112.586C183.418 112.874 183.334 113.262 183.045 113.454C179.504 115.774 176.301 116.371 173.948 116.371L173.944 116.367Z" fill="#0073E4"/>
</g>
<path d="M46.4858 0L47.2273 9.74438L56.9717 10.4858L47.2273 11.2273L46.4858 20.9717L45.7444 11.2273L36 10.4858L45.7444 9.74438L46.4858 0Z" fill="url(#paint4_radial_229_20305)"/>
<path d="M46.4858 0L47.2273 9.74438L56.9717 10.4858L47.2273 11.2273L46.4858 20.9717L45.7444 11.2273L36 10.4858L45.7444 9.74438L46.4858 0Z" fill="url(#paint5_radial_229_20305)"/>
<path d="M46.4858 0L47.2273 9.74438L56.9717 10.4858L47.2273 11.2273L46.4858 20.9717L45.7444 11.2273L36 10.4858L45.7444 9.74438L46.4858 0Z" fill="url(#paint6_radial_229_20305)"/>
<g clip-path="url(#clip3_229_20305)">
<path d="M315.761 70.2031L314.729 83.762L301.17 84.7937L314.729 85.8254L315.761 99.3842L316.793 85.8254L330.352 84.7937L316.793 83.762L315.761 70.2031Z" fill="url(#paint7_radial_229_20305)"/>
<path d="M315.761 70.2031L314.729 83.762L301.17 84.7937L314.729 85.8254L315.761 99.3842L316.793 85.8254L330.352 84.7937L316.793 83.762L315.761 70.2031Z" fill="url(#paint8_radial_229_20305)"/>
<path fill-rule="evenodd" clip-rule="evenodd" d="M259.413 129.708L269.703 119.237C274.672 114.214 274.672 106.212 269.703 101.189C264.818 96.1661 256.817 96.1661 251.847 101.189L248.899 104.169L245.952 101.189C240.982 96.1661 232.981 96.1661 228.096 101.189C227.634 101.656 227.215 102.149 226.839 102.662L120.794 208.836L150.649 238.726L259.474 129.769L259.413 129.708Z" fill="url(#paint9_radial_229_20305)"/>
<path d="M228.096 119.237L240.477 131.837L248.899 140.35L257.322 131.837L269.703 119.237C274.672 114.214 274.672 106.212 269.703 101.189C264.818 96.1661 256.817 96.1661 251.847 101.189L248.899 104.169L245.952 101.189C240.982 96.1661 232.981 96.1661 228.096 101.189C223.127 106.212 223.127 114.214 228.096 119.237Z" fill="url(#paint10_radial_229_20305)"/>
</g>
<defs>
<linearGradient id="paint0_linear_229_20305" x1="187.514" y1="89.2573" x2="120.2" y2="169.963" gradientUnits="userSpaceOnUse">
<stop stop-color="#0F8AEF"/>
<stop offset="0.3" stop-color="#2B96F4"/>
<stop offset="0.83" stop-color="#66B1FF"/>
</linearGradient>
<linearGradient id="paint1_linear_229_20305" x1="187.514" y1="89.2573" x2="120.2" y2="169.963" gradientUnits="userSpaceOnUse">
<stop stop-color="#0F8AEF"/>
<stop offset="0.3" stop-color="#2B96F4"/>
<stop offset="0.83" stop-color="#66B1FF"/>
</linearGradient>
<linearGradient id="paint2_linear_229_20305" x1="187.514" y1="89.2573" x2="120.2" y2="169.963" gradientUnits="userSpaceOnUse">
<stop stop-color="#0F8AEF"/>
<stop offset="0.3" stop-color="#2B96F4"/>
<stop offset="0.83" stop-color="#66B1FF"/>
</linearGradient>
<linearGradient id="paint3_linear_229_20305" x1="187.514" y1="89.2573" x2="120.2" y2="169.963" gradientUnits="userSpaceOnUse">
<stop stop-color="#0F8AEF"/>
<stop offset="0.3" stop-color="#2B96F4"/>
<stop offset="0.83" stop-color="#66B1FF"/>
</linearGradient>
<radialGradient id="paint4_radial_229_20305" cx="0" cy="0" r="1" gradientUnits="userSpaceOnUse" gradientTransform="translate(40.2829 2.01651) rotate(49.4615) scale(20.5537 28.3843)">
<stop stop-color="#FF00D6"/>
<stop offset="0.562168" stop-color="#FF004D"/>
<stop offset="1" stop-color="#FF6291"/>
</radialGradient>
<radialGradient id="paint5_radial_229_20305" cx="0" cy="0" r="1" gradientUnits="userSpaceOnUse" gradientTransform="translate(46.4899 4.12046) rotate(136.73) scale(13.837 17.4184)">
<stop stop-color="#FFE7AB"/>
<stop offset="1" stop-color="#FABC22"/>
</radialGradient>
<radialGradient id="paint6_radial_229_20305" cx="0" cy="0" r="1" gradientUnits="userSpaceOnUse" gradientTransform="translate(46.4899 4.12046) rotate(136.73) scale(13.837 17.4184)">
<stop stop-color="#ADFFEE"/>
<stop offset="1" stop-color="#2DF9FF"/>
</radialGradient>
<radialGradient id="paint7_radial_229_20305" cx="0" cy="0" r="1" gradientUnits="userSpaceOnUse" gradientTransform="translate(324.392 73.009) rotate(130.538) scale(28.5995 39.4954)">
<stop stop-color="#FF00D6"/>
<stop offset="0.562168" stop-color="#FF004D"/>
<stop offset="1" stop-color="#FF6291"/>
</radialGradient>
<radialGradient id="paint8_radial_229_20305" cx="0" cy="0" r="1" gradientUnits="userSpaceOnUse" gradientTransform="translate(315.755 75.9366) rotate(43.2703) scale(19.2535 24.2369)">
<stop stop-color="#FFE7AB"/>
<stop offset="1" stop-color="#FABC22"/>
</radialGradient>
<radialGradient id="paint9_radial_229_20305" cx="0" cy="0" r="1" gradientUnits="userSpaceOnUse" gradientTransform="translate(267.055 93.7998) rotate(135.023) scale(153.292 214.224)">
<stop stop-color="#00F1FF" stop-opacity="0.92"/>
<stop offset="0.562168" stop-color="#00FFB1" stop-opacity="0.1"/>
<stop offset="1" stop-color="#00C4FF" stop-opacity="0"/>
</radialGradient>
<radialGradient id="paint10_radial_229_20305" cx="0" cy="0" r="1" gradientUnits="userSpaceOnUse" gradientTransform="translate(263.41 101.55) rotate(134.346) scale(44.7101 62.4839)">
<stop stop-color="#F7EB02"/>
<stop offset="0.562168" stop-color="#00FF76"/>
<stop offset="1" stop-color="#00C4FF"/>
</radialGradient>
<clipPath id="clip0_229_20305">
<rect width="198" height="137" rx="14.58" transform="matrix(-1 0 0 1 200 39.3594)" fill="white"/>
</clipPath>
<clipPath id="clip1_229_20305">
<rect width="21" height="102" fill="white" transform="translate(2 120.359)"/>
</clipPath>
<clipPath id="clip2_229_20305">
<rect width="199.963" height="80.7399" rx="13.5824" transform="matrix(-1 0 0 1 199.961 39.1562)" fill="white"/>
</clipPath>
<clipPath id="clip3_229_20305">
<rect width="210" height="113" fill="white" transform="translate(120.641 69.7344)"/>
</clipPath>
</defs>
</svg>
