<svg width="22" height="15" viewBox="0 0 22 15" fill="none" xmlns="http://www.w3.org/2000/svg">
<path d="M1.09827 12.0422L1.09829 12.0422C1.03526 11.3079 1.42542 10.6337 2.07973 10.1181L2.08213 10.1162L2.08214 10.1162C2.79493 9.56391 3.77236 9.22387 4.82781 9.13439L4.82893 9.13429C6.04867 9.03458 7.22462 9.28203 8.04925 9.86336L8.05776 9.86935C8.11853 9.91215 8.20466 9.97279 8.28248 10.0479L10.8763 1.01284L10.8791 1.00311L10.8792 1.00315C10.9543 0.765962 11.168 0.59456 11.4286 0.587591L11.4346 0.587429L11.4346 0.587478L21.0012 0.485785C21.124 0.483255 21.246 0.517828 21.3496 0.590841C21.35 0.591145 21.3508 0.591628 21.3518 0.592292C21.3657 0.601617 21.4328 0.646469 21.4864 0.725813C21.5942 0.872233 21.6281 1.06335 21.5746 1.23711L18.5591 11.7674C18.4176 12.4449 17.9226 13.0107 17.2759 13.4171C16.6194 13.8296 15.7714 14.1024 14.851 14.1794L14.8506 14.1795C13.861 14.2613 12.889 14.1119 12.11 13.7415L12.1079 13.7406C11.9334 13.6563 11.7669 13.5585 11.6167 13.4527C11.0715 13.0684 10.722 12.5464 10.6636 11.9417L10.6634 11.9399C10.5913 11.1532 11.0369 10.4413 11.771 9.91881L11.7713 9.91862C12.468 9.42363 13.4034 9.11156 14.3982 9.03254C15.6166 8.93302 16.7955 9.17595 17.6208 9.75776L17.6293 9.76375C17.6901 9.80654 17.7762 9.86719 17.8541 9.94229L20.2284 1.67095L11.8854 1.75746L8.99021 11.8691C8.84875 12.5466 8.35379 13.1125 7.70701 13.5188C7.05059 13.9313 6.20249 14.2041 5.28216 14.2812L5.28177 14.2812C4.29213 14.363 3.32015 14.2137 2.5411 13.8432L2.53908 13.8423C2.36601 13.7587 2.20089 13.662 2.05176 13.5572L1.09827 12.0422ZM1.09827 12.0422L1.09866 12.0461C1.15693 12.6494 1.50492 13.1704 2.04786 13.5544L1.09827 12.0422ZM7.37917 10.8139L7.48491 10.8884C7.72388 11.0855 7.82911 11.2914 7.84776 11.4771C7.87294 11.7703 7.68669 12.1305 7.19563 12.464C6.71495 12.7904 6.00785 13.0383 5.18932 13.1054L5.18783 13.1055C4.38856 13.1742 3.61196 13.0471 3.0573 12.7795C2.93514 12.7196 2.8287 12.6587 2.74059 12.5966C2.42343 12.373 2.2937 12.1403 2.27609 11.9384L2.27604 11.9378C2.25001 11.6443 2.43603 11.2833 2.92803 10.9492C3.40871 10.6228 4.11581 10.3749 4.93433 10.3079L4.9357 10.3078C5.9288 10.2227 6.84093 10.4345 7.37917 10.8139ZM16.9508 10.7083L17.0565 10.7828C17.2955 10.9799 17.4007 11.1858 17.4194 11.3715C17.4445 11.6647 17.2583 12.025 16.7672 12.3584C16.2865 12.6848 15.5794 12.9327 14.7609 12.9998L14.7594 12.9999C13.9603 13.0686 13.1839 12.9416 12.6292 12.674C12.5069 12.6142 12.4004 12.5532 12.3122 12.491C11.995 12.2674 11.8653 12.0347 11.8477 11.8328L11.8475 11.8306C11.8229 11.5669 11.9797 11.2196 12.4639 10.8758C12.9672 10.5213 13.7096 10.2673 14.5058 10.2023L14.5073 10.2022C15.5004 10.1172 16.4125 10.3289 16.9508 10.7083Z" fill="#FF0199" stroke="#FF0199" stroke-width="0.75"/>
</svg>
