<svg width="14" height="12" viewBox="0 0 14 12" fill="none" xmlns="http://www.w3.org/2000/svg">
<path d="M0.712879 8.92222L0.712892 8.92222C0.674187 8.47129 0.913787 8.05727 1.31561 7.74065L1.31708 7.73949L1.31708 7.73949C1.75482 7.4003 2.35506 7.19148 3.00323 7.13653L3.00392 7.13647C3.75298 7.07523 4.47514 7.2272 4.98155 7.58419L4.98678 7.58788C5.0241 7.61416 5.07699 7.6514 5.12479 7.69752L6.71766 2.14899L6.71937 2.14302L6.71945 2.14304C6.76556 1.99738 6.89681 1.89212 7.05685 1.88784L7.06056 1.88774L7.06056 1.88777L12.9355 1.82532C13.0109 1.82377 13.0859 1.845 13.1495 1.88984C13.1497 1.89002 13.1502 1.89032 13.1508 1.89073C13.1593 1.89645 13.2005 1.924 13.2335 1.97273C13.2996 2.06264 13.3205 2.18 13.2876 2.28671L11.4358 8.75349C11.3489 9.16954 11.0449 9.51704 10.6477 9.76661C10.2446 10.0199 9.72378 10.1875 9.1586 10.2348L9.15836 10.2348C8.55061 10.285 7.95371 10.1933 7.47528 9.96581L7.47404 9.96523C7.36682 9.91345 7.26458 9.85345 7.17238 9.78845C6.83758 9.55243 6.62294 9.23187 6.58706 8.86051L6.58696 8.85941C6.54265 8.37632 6.81632 7.93912 7.26714 7.61825L7.2673 7.61813C7.69515 7.31415 8.26961 7.12251 8.88054 7.07398C9.62872 7.01287 10.3527 7.16205 10.8596 7.51935L10.8648 7.52302C10.9021 7.5493 10.955 7.58655 11.0028 7.63267L12.4609 2.55314L7.3374 2.60627L5.55941 8.81596C5.47253 9.23201 5.16857 9.57951 4.77138 9.82907C4.36826 10.0824 3.84744 10.2499 3.28226 10.2972L3.28201 10.2972C2.67426 10.3475 2.07736 10.2558 1.59894 10.0283L1.5977 10.0277C1.49141 9.97637 1.39001 9.91696 1.29843 9.85261L0.712879 8.92222ZM0.712879 8.92222L0.713116 8.92467C0.748904 9.29514 0.962606 9.61506 1.29603 9.85092L0.712879 8.92222ZM4.57005 8.16792L4.63498 8.2137C4.78175 8.33474 4.84637 8.46116 4.85782 8.57521C4.87327 8.75529 4.75889 8.97651 4.45733 9.18129C4.16214 9.38174 3.72791 9.53397 3.22524 9.57514L3.22432 9.57522C2.73359 9.6174 2.25678 9.5394 1.91617 9.37513C1.84105 9.33835 1.77561 9.30091 1.72144 9.26272C1.52668 9.12542 1.447 8.98248 1.43619 8.8585L1.43616 8.85816C1.42017 8.6779 1.53441 8.45622 1.83655 8.25105C2.13174 8.0506 2.56598 7.89837 3.06865 7.85719L3.06949 7.85712C3.67936 7.8049 4.23951 7.93491 4.57005 8.16792ZM10.4481 8.10307L10.513 8.14884C10.6598 8.26989 10.7244 8.39631 10.7358 8.51037C10.7513 8.69044 10.6369 8.91166 10.3354 9.11644C10.0402 9.31689 9.60593 9.46912 9.10326 9.5103L9.10234 9.51037C8.61158 9.55256 8.13473 9.47454 7.79412 9.31024C7.71903 9.27348 7.65362 9.23605 7.59947 9.19788C7.4047 9.06057 7.32503 8.91763 7.31422 8.79365L7.31409 8.7923C7.29901 8.63032 7.39531 8.41705 7.69271 8.20586C8.00183 7.98819 8.45767 7.83228 8.94661 7.79235L8.94751 7.79227C9.55738 7.74005 10.1175 7.87006 10.4481 8.10307Z" fill="#FF0199" stroke="#FF0199" stroke-width="0.460583"/>
</svg>
