<svg width="27" height="22" viewBox="0 0 27 22" fill="none" xmlns="http://www.w3.org/2000/svg">
<path d="M1.2001 9.96652C1.25959 9.93677 1.31911 9.9085 1.37711 9.88172C2.38546 9.41459 3.40719 8.97722 4.42743 8.53984C4.48246 8.53984 4.57464 8.47587 4.6267 8.45504C4.70552 8.42083 4.78436 8.3881 4.86318 8.35388L5.31679 8.159C5.62019 8.02957 5.92208 7.90014 6.22547 7.77071C6.83078 7.51186 7.43608 7.25301 8.04138 6.99266C9.25199 6.47495 10.4641 5.95576 11.6747 5.43805C12.8853 4.92034 14.0974 4.40114 15.308 3.88343C16.5186 3.36572 17.7307 2.84652 18.9413 2.32881C20.1519 1.8111 21.3641 1.2919 22.5747 0.774193C22.8439 0.658154 23.1353 0.485585 23.4239 0.435004C23.6663 0.391861 23.9027 0.308552 24.1466 0.262434C24.6092 0.174662 25.1193 0.138957 25.5625 0.330867C25.7157 0.397812 25.857 0.491535 25.9745 0.609061C26.5366 1.16545 26.4578 2.07888 26.3388 2.8614C25.5104 8.3152 24.6821 13.7705 23.8522 19.2243C23.7391 19.9726 23.5845 20.7938 22.994 21.2669C22.4943 21.6671 21.7834 21.7117 21.1662 21.5421C20.549 21.371 20.0047 21.0125 19.4708 20.6599C17.2563 19.1931 15.0403 17.7262 12.8258 16.2594C12.2994 15.9113 11.7134 15.456 11.7193 14.8238C11.7223 14.4429 11.9498 14.1037 12.1819 13.8017C14.1063 11.2905 16.883 9.56485 18.9488 7.1697C19.2403 6.83199 19.4693 6.22205 19.0692 6.02716C18.8313 5.91113 18.5576 6.06882 18.3405 6.21907C15.6099 8.11586 12.8809 10.0141 10.1503 11.9109C9.25945 12.5298 8.32547 13.1665 7.25169 13.3182C6.29093 13.4551 5.32424 13.1873 4.39472 12.9136C3.6154 12.6845 2.83755 12.4494 2.06271 12.207C1.65074 12.079 1.22539 11.9407 0.907122 11.6506C0.588853 11.3605 0.405948 10.8725 0.597801 10.4857C0.718267 10.2432 0.951768 10.09 1.19716 9.96503L1.2001 9.96652Z" fill="white"/>
</svg>
