<svg width="277" height="236" viewBox="0 0 277 236" fill="none" xmlns="http://www.w3.org/2000/svg">
<g clip-path="url(#clip0_78_1202)">
<g clip-path="url(#clip1_78_1202)">
<path d="M74.8992 141.239C77.2589 135.686 77.2026 129.398 74.7471 123.89C71.6158 116.899 67.5889 108.635 67.5157 102.137C67.2679 78.9681 85.0985 71.6546 88.2749 59.0826C88.2749 59.0826 83.4201 53.6938 84.5353 49.5616C86.2248 43.2728 102.186 36.6217 107.626 38.3651C111.005 39.4406 111.968 43.3011 111.968 43.3011C128.385 39.1689 138.776 42.4067 144.188 43.7765C164.08 48.8257 174.792 59.2807 174.792 59.2807C177.704 56.8693 178.599 56.2241 180.035 56.5694C185.104 57.7977 195.461 67.7546 195.089 75.8151C194.864 80.7738 186.495 83.1738 186.495 83.1738C184.349 93.4363 194.904 111.505 188.247 125.973C186.602 129.55 182.97 133.898 179.309 138.075C176.392 141.37 175.89 146.17 178.07 149.996C187.706 166.938 212.036 214.481 202.98 248.597L36.912 246.469C36.912 246.469 16.9526 205.6 74.8935 141.268" fill="#66B1FF"/>
<path d="M79.2541 189.172C102.003 169.443 122.493 190.937 124.141 192.736C126.122 191.299 150.598 174.358 168.829 198.223C182.253 215.797 175.414 242.399 166.876 261.495L71.005 262.349C64.8902 242.116 59.2963 206.481 79.2541 189.172Z" fill="white"/>
<path d="M91.5891 83.6629C96.3903 79.9115 125.725 86.5395 125.725 86.5395C125.725 86.5395 150.231 91.6703 155.487 101.427C157.363 104.921 160.389 114.465 156.61 118.867C152.078 124.143 133.278 139.884 119.627 138.493C107.273 137.186 84.862 110.035 84.4015 102.958C83.986 96.5601 87.5011 86.8704 91.606 83.6573" fill="white"/>
<path d="M110.403 48.3845C112.064 47.3056 117.709 44.5786 126.834 48.9299C128.732 49.8369 130.124 53.8088 126.749 55.4983C123.809 56.9744 111.822 55.2434 110.031 54.0637C108.24 52.884 108.149 49.8547 110.408 48.3845" fill="#0073E4"/>
<path d="M163.16 62.9322C162.149 61.3182 158.329 56.6008 148.27 56.07C146.191 55.9563 143.207 58.5614 145.484 61.4319C147.468 63.9341 158.911 67.8554 161.024 67.6983C163.138 67.5412 164.528 65.1203 163.166 62.9322" fill="#0073E4"/>
<path d="M120.724 83.2552C120.724 83.2552 139.289 88.0361 137.078 93.7387C134.867 99.4412 122.055 106.181 115.355 104.453C106.428 102.148 100.58 90.6281 101.364 84.5397C102.148 78.4512 120.707 83.2552 120.707 83.2552" fill="#0073E4"/>
<path d="M143.613 106.197C135.192 112.387 123.015 120.317 100.861 107.631C99.5863 106.9 99.337 109.176 109.457 118.81C115.415 124.48 121.566 127.875 126.334 126.717C131.567 125.449 134.693 120.903 137.31 117.631C144.004 109.259 146.201 104.287 143.607 106.191" fill="#143860"/>
<path d="M138.523 78.5362C137.512 83.0952 140.352 87.6137 144.861 88.6351C144.878 88.6351 144.896 88.6409 144.918 88.6467C149.456 89.6854 153.977 86.8347 155.04 82.2584C156.052 77.6995 153.211 73.181 148.702 72.1595C148.685 72.1595 148.668 72.1537 148.645 72.148C144.107 71.1092 139.586 73.96 138.523 78.5362Z" fill="white"/>
<path d="M103.612 69.0253C102.605 73.5849 105.448 78.1041 109.967 79.1199C109.978 79.1199 109.99 79.1199 110.001 79.1257C114.543 80.1646 119.067 77.3134 120.131 72.7365C121.143 68.1769 118.3 63.6578 113.788 62.6362C113.77 62.6362 113.753 62.6304 113.73 62.6246C109.189 61.5915 104.67 64.4484 103.612 69.0253Z" fill="white"/>
<path d="M108.185 185.854L106.422 186.155C105.399 186.333 104.422 185.659 104.237 184.645L102.361 173.027C102.181 172.018 104.894 171.573 104.894 171.573C106.231 171.216 107.062 171.272 107.242 172.28L109.73 183.732C109.904 184.74 109.224 185.698 108.202 185.876H108.191" fill="#F4901E"/>
<path d="M53.484 163.064L53.5859 163.39C53.9882 164.691 53.1949 166.05 51.8238 166.43C51.8181 166.43 51.8126 166.43 51.8012 166.436L45.6991 168.1C44.311 168.48 42.8605 167.736 42.4413 166.43L42.3392 166.104C41.9312 164.803 41.7726 163.899 43.189 163.519L50.5717 160.864C51.9655 160.484 53.0534 161.736 53.4613 163.042" fill="#F4901E"/>
<path d="M63.6324 261.67C74.7989 263.147 103.895 261.754 103.895 261.754C109.879 261.1 115.587 258.371 115.005 250.438C113.537 230.304 109.478 198.515 102.546 165.819C100.779 157.48 98.848 152.761 87.6307 155.005C75.5553 157.423 55.8757 161.088 45.0366 165.452C38.3017 168.164 36.879 170.922 38.3468 179.503C41.9373 200.444 47.6278 234.493 54.2103 254.774C55.87 259.883 58.3314 260.976 63.6267 261.664" fill="#FFBC00"/>
<path d="M90.6483 186.053L94.4065 185.535C96.9025 184.95 98.5011 182.503 98.0412 179.977L95.2982 165.4C94.8495 163.037 92.5835 161.484 90.2277 161.928C90.0986 161.951 89.9639 161.985 89.8349 162.024L85.5608 163.149C83.0928 163.813 81.8588 165.81 82.3636 168.291L85.3084 182.677C85.7964 185.051 88.1074 186.581 90.4744 186.092C90.5305 186.081 90.5923 186.069 90.6483 186.053Z" fill="#F4901E"/>
<path d="M83.9688 166.15C82.7124 168.035 83.3091 170.522 85.2941 171.712C85.4031 171.777 85.5179 171.837 85.6327 171.891C87.9275 173.026 90.7616 172.32 92.1672 170.262C93.4293 168.382 92.8384 165.895 90.8533 164.7C90.7214 164.619 90.5837 164.548 90.446 164.483C88.1454 163.375 85.3285 164.108 83.9458 166.172" fill="#333333"/>
<path d="M86.574 180.372C87.1903 182.937 89.7193 184.526 92.2657 183.949C94.783 183.343 96.3935 180.843 95.9226 178.266C95.3179 175.671 92.7482 174.065 90.1843 174.677H90.1728C87.6729 175.306 86.0915 177.801 86.5682 180.366" fill="#333333"/>
<path d="M63.2116 206.711C63.1557 212.26 67.6108 216.805 73.1601 216.861C78.7095 216.916 83.2541 212.461 83.3099 206.912C83.3657 201.362 78.9105 196.818 73.3612 196.762C73.3277 196.762 73.2942 196.762 73.2607 196.762C67.7393 196.74 63.2451 201.189 63.2116 206.711Z" fill="#F4901E"/>
<path d="M73.1397 239.228C66.4558 228.952 71.794 224.402 71.794 224.402C71.794 224.402 62.1481 215.212 66.4164 207.169C70.0371 200.347 76.3326 203.247 76.3326 203.247C71.3942 198.16 66.9964 192.626 73.8718 186.505C81.9353 179.327 96.5645 190.349 107.094 198.539L105.614 189.032C104.133 177.394 114.06 175.636 117.878 177.309C123.03 179.57 125.761 184.193 126.403 193.972C126.617 196.911 127.535 199.754 129.078 202.258C130.863 205.202 132.372 208.305 133.582 211.527C146.59 223.396 182.358 220.497 190.179 212.737C192.133 210.798 192.871 208.113 190.703 202.665C184.858 187.969 177.239 147.042 177.239 147.042C227.822 197.781 245.47 218.892 232.704 246.333C218.982 275.842 167.92 286.242 113.739 268.376C113.739 268.364 87.0144 260.559 73.1397 239.228Z" fill="url(#paint0_linear_78_1202)"/>
<path d="M72.7318 203.109C73.6522 203.152 74.5559 203.347 75.4093 203.683C74.6897 202.963 83.3467 210.357 89.2427 213.281C90.1854 213.746 89.3543 215.116 88.4116 214.65C82.5268 211.732 77.2166 207.824 72.7374 203.109" fill="#66B1FF"/>
<path d="M70.6216 225.612C70.8882 225.111 71.2342 224.66 71.6425 224.266C76.9571 230.103 83.2755 234.954 90.2972 238.607C91.2501 239.102 90.405 240.526 89.4465 240.031C82.368 236.35 75.9985 231.476 70.6159 225.617" fill="#66B1FF"/>
<path d="M51.697 191.031C55.1841 197.437 51.0165 203.223 46.4214 207.206C50.8646 205.019 55.9208 204.042 58.2718 208.963C61.4776 215.68 59.1211 220.912 51.7533 226.612C55.021 224.979 58.958 224.296 60.949 228.765C65.8703 239.815 54.1155 248.403 54.1155 248.403C52.7712 254.053 47.5799 256.024 43.0917 256.002C28.2322 255.94 24.031 239.912 24.0703 224.573C24.1153 207.562 27.3549 200.765 29.6215 196.952C31.9612 192.997 39.4134 187.245 45.3696 187.245C48.0355 187.149 50.5102 188.63 51.697 191.031Z" fill="url(#paint1_linear_78_1202)"/>
<path d="M40.2122 210.088C43.2668 207.25 46.7444 204.9 50.5168 203.109C49.4485 204.456 48.2467 205.698 46.928 206.812C47.2396 206.662 43.2835 209.468 41.2581 211.358C40.4847 212.079 39.4388 210.804 40.2066 210.105" fill="#66B1FF"/>
<path d="M44.791 229.115C47.3304 228.519 49.7819 227.616 52.0849 226.439C53.2446 225.863 54.5033 225.485 55.806 225.324C52.739 227.86 49.0673 229.665 45.1044 230.588C44.0875 230.826 43.7797 229.333 44.791 229.099" fill="#66B1FF"/>
<path d="M134.087 118.577C134.087 118.577 120.089 117.408 116.139 123.184C115.687 123.852 119.609 126.258 124.1 125.836C125.37 125.716 128.607 124.598 131.077 122.078" fill="#ED7865"/>
<mask id="mask0_78_1202" style="mask-type:luminance" maskUnits="userSpaceOnUse" x="138" y="71" width="18" height="18">
<path d="M138.523 78.5362C137.512 83.0952 140.352 87.6137 144.861 88.6351C144.878 88.6351 144.896 88.6409 144.918 88.6467C149.456 89.6854 153.977 86.8347 155.04 82.2584C156.052 77.6995 153.211 73.181 148.702 72.1595C148.685 72.1595 148.668 72.1537 148.645 72.148C144.107 71.1092 139.586 73.96 138.523 78.5362Z" fill="white"/>
</mask>
<g mask="url(#mask0_78_1202)">
<path d="M152.071 82.5131C152.071 86.0165 149.227 88.8602 145.724 88.8602C142.221 88.8602 139.377 86.0165 139.377 82.5131C139.377 79.0096 142.221 76.1659 145.724 76.1659C149.227 76.1659 152.071 79.0096 152.071 82.5131Z" fill="#333333"/>
</g>
<mask id="mask1_78_1202" style="mask-type:luminance" maskUnits="userSpaceOnUse" x="103" y="62" width="18" height="18">
<path d="M103.612 69.0253C102.605 73.5849 105.448 78.1041 109.967 79.1199C109.978 79.1199 109.99 79.1199 110.001 79.1257C114.543 80.1646 119.067 77.3134 120.131 72.7365C121.143 68.1769 118.3 63.6578 113.788 62.6362C113.77 62.6362 113.753 62.6304 113.73 62.6246C109.189 61.5915 104.67 64.4484 103.612 69.0253Z" fill="white"/>
</mask>
<g mask="url(#mask1_78_1202)">
<path d="M117.162 72.9922C117.162 76.4972 114.556 79.3394 111.343 79.3394C108.13 79.3394 105.525 76.4972 105.525 72.9922C105.525 69.4873 108.13 66.6451 111.343 66.6451C114.556 66.6451 117.162 69.4873 117.162 72.9922Z" fill="#333333"/>
</g>
<path d="M154.187 90.358C154.187 90.358 146.776 84.1722 135.145 83.5709V87.4126L151.925 95.2074L154.187 90.358Z" fill="#66B1FF"/>
<path d="M120.335 79.8663C120.335 79.8663 111.572 74.5697 99.1782 76.6501L101.701 80.5761L119.694 81.4552L120.335 79.8663Z" fill="#66B1FF"/>
</g>
</g>
<path d="M55.6923 120.731L48.5873 135.792L43.7361 145.986L33.6591 140.904L18.82 133.358C12.8742 130.36 10.4183 123.18 13.2806 117.166C16.0679 111.177 23.1588 108.748 29.1046 111.747L32.6312 113.525L34.329 109.958C37.1913 103.943 44.2823 101.515 50.1529 104.539C56.0987 107.537 58.5547 114.716 55.6923 120.731Z" fill="#FF0199"/>
<path d="M63.0439 83.5458L55.7136 87.9622L50.7341 90.9394L47.8727 85.8946L43.6769 78.4388C41.9886 75.4622 42.984 71.6922 45.922 69.9356C48.8206 68.1685 52.5451 69.1507 54.2335 72.1273L55.2349 73.8928L56.9776 72.8509C59.9157 71.0943 63.6401 72.0764 65.289 75.0426C66.9774 78.0191 65.982 81.7892 63.0439 83.5458Z" fill="#FF0199"/>
<path d="M16.7179 76.2296L14.1057 81.5759L12.3225 85.1943L8.74699 83.3293L3.48213 80.5605C1.37246 79.4601 0.530119 76.8831 1.58225 74.7481C2.60742 72.622 5.1528 71.7891 7.26247 72.8895L8.51378 73.5422L9.13784 72.2759C10.19 70.1409 12.7354 69.308 14.8181 70.4172C16.9277 71.5176 17.7701 74.0946 16.7179 76.2296Z" fill="#FF0199"/>
<defs>
<linearGradient id="paint0_linear_78_1202" x1="85.1393" y1="260.18" x2="216.721" y2="184.502" gradientUnits="userSpaceOnUse">
<stop stop-color="#0F8AEF"/>
<stop offset="0.37" stop-color="#3D8AE7"/>
<stop offset="0.7" stop-color="#66B1FF"/>
</linearGradient>
<linearGradient id="paint1_linear_78_1202" x1="62.1526" y1="221.624" x2="24.0703" y2="221.624" gradientUnits="userSpaceOnUse">
<stop stop-color="#0F8AEF"/>
<stop offset="0.58" stop-color="#408DE9"/>
<stop offset="0.73" stop-color="#4390EA"/>
<stop offset="0.85" stop-color="#4D99F0"/>
<stop offset="0.96" stop-color="#5EAAFA"/>
<stop offset="1" stop-color="#66B1FF"/>
</linearGradient>
<clipPath id="clip0_78_1202">
<rect width="261.291" height="235.903" fill="white" transform="translate(15.6064)"/>
</clipPath>
<clipPath id="clip1_78_1202">
<path d="M-41.5175 27.5045H237.758V236.961H-16.1288C-30.1506 236.961 -41.5175 225.594 -41.5175 211.572V27.5045Z" fill="white"/>
</clipPath>
</defs>
</svg>
