<svg width="36" height="34" viewBox="0 0 36 34" fill="none" xmlns="http://www.w3.org/2000/svg">
<path d="M33.0211 17.1937L24.0819 26.6365L18.0006 33.017L11.9194 26.6365L2.98016 17.1937C-0.607969 13.4291 -0.607969 7.43188 2.98016 3.66723C6.50709 -0.0974116 12.2843 -0.0974116 15.8724 3.66723L18.0006 5.90018L20.1289 3.66723C23.717 -0.0974116 29.4942 -0.0974116 33.0211 3.66723C36.6092 7.43188 36.6092 13.4291 33.0211 17.1937Z" fill="url(#paint0_radial_136_17251)"/>
<mask id="mask0_136_17251" style="mask-type:alpha" maskUnits="userSpaceOnUse" x="0" y="0" width="36" height="34">
<path d="M33.0211 17.1937L24.0819 26.6365L18.0006 33.017L11.9194 26.6365L2.98016 17.1937C-0.607969 13.4291 -0.607969 7.43188 2.98016 3.66723C6.50709 -0.0974116 12.2843 -0.0974116 15.8724 3.66723L18.0006 5.90018L20.1289 3.66723C23.717 -0.0974116 29.4942 -0.0974116 33.0211 3.66723C36.6092 7.43188 36.6092 13.4291 33.0211 17.1937Z" fill="url(#paint1_radial_136_17251)"/>
</mask>
<g mask="url(#mask0_136_17251)">
<ellipse cx="26.9492" cy="0.152697" rx="15.25" ry="11.3519" fill="url(#paint2_radial_136_17251)"/>
<ellipse cx="18.0185" cy="36.2191" rx="15.245" ry="18.391" fill="url(#paint3_radial_136_17251)"/>
<ellipse cx="8.08987" cy="0.152697" rx="15.25" ry="11.3519" fill="url(#paint4_radial_136_17251)"/>
</g>
<defs>
<radialGradient id="paint0_radial_136_17251" cx="0" cy="0" r="1" gradientUnits="userSpaceOnUse" gradientTransform="translate(18.0076 7.16506) rotate(139.469) scale(22.3902 27.8938)">
<stop stop-color="#FF0099"/>
<stop offset="1" stop-color="#E200A3"/>
</radialGradient>
<radialGradient id="paint1_radial_136_17251" cx="0" cy="0" r="1" gradientUnits="userSpaceOnUse" gradientTransform="translate(18.0076 7.16506) rotate(139.469) scale(22.3902 27.8938)">
<stop stop-color="#0094FF"/>
<stop offset="1" stop-color="#0057FF"/>
</radialGradient>
<radialGradient id="paint2_radial_136_17251" cx="0" cy="0" r="1" gradientUnits="userSpaceOnUse" gradientTransform="translate(26.957 -1.06901) rotate(134.112) scale(10.1192 10.1044)">
<stop stop-color="white" stop-opacity="0.75"/>
<stop offset="1" stop-color="#FF00C7" stop-opacity="0"/>
</radialGradient>
<radialGradient id="paint3_radial_136_17251" cx="0" cy="0" r="1" gradientUnits="userSpaceOnUse" gradientTransform="translate(18.0262 34.2399) rotate(120.889) scale(13.7158 12.0734)">
<stop stop-color="white" stop-opacity="0.75"/>
<stop offset="1" stop-color="#FF00C7" stop-opacity="0"/>
</radialGradient>
<radialGradient id="paint4_radial_136_17251" cx="0" cy="0" r="1" gradientUnits="userSpaceOnUse" gradientTransform="translate(8.09761 -1.06901) rotate(134.112) scale(10.1192 10.1044)">
<stop stop-color="white" stop-opacity="0.75"/>
<stop offset="1" stop-color="#FF00C7" stop-opacity="0"/>
</radialGradient>
</defs>
</svg>
