<svg width="351" height="248" viewBox="0 0 351 248" fill="none" xmlns="http://www.w3.org/2000/svg">
<g clip-path="url(#clip0_157_2993)">
<g clip-path="url(#clip1_157_2993)">
<path d="M220.902 141.239C223.262 135.686 223.206 129.397 220.75 123.889C217.619 116.898 213.592 108.634 213.519 102.136C213.271 78.9673 231.101 71.6538 234.278 59.0818C234.278 59.0818 229.423 53.693 230.538 49.5608C232.228 43.272 248.189 36.6209 253.629 38.3643C257.008 39.4398 257.971 43.3003 257.971 43.3003C274.388 39.1681 284.779 42.4059 290.191 43.7757C310.083 48.8249 320.795 59.2799 320.795 59.2799C323.707 56.8685 324.602 56.2233 326.038 56.5686C331.107 57.7969 341.464 67.7538 341.092 75.8143C340.867 80.773 332.498 83.173 332.498 83.173C330.352 93.4356 340.907 111.504 334.25 125.972C332.605 129.55 328.973 133.897 325.312 138.074C322.394 141.369 321.893 146.169 324.073 149.995C333.709 166.937 358.039 214.48 348.983 248.596L182.915 246.468C182.915 246.468 162.955 205.599 220.896 141.267" fill="#66B1FF"/>
<path d="M225.256 189.171C248.005 169.442 268.495 190.936 270.142 192.735C272.124 191.298 296.6 174.357 314.831 198.221C328.255 215.796 321.416 242.398 312.878 261.494L217.007 262.348C210.892 242.115 205.298 206.48 225.256 189.171Z" fill="white"/>
<path d="M237.588 83.6617C242.389 79.9102 271.724 86.5383 271.724 86.5383C271.724 86.5383 296.23 91.6691 301.486 101.426C303.362 104.92 306.388 114.464 302.609 118.865C298.078 124.142 279.277 139.882 265.626 138.492C253.272 137.185 230.861 110.034 230.401 102.957C229.985 96.5588 233.5 86.8691 237.605 83.656" fill="white"/>
<path d="M256.403 48.3835C258.065 47.3046 263.709 44.5776 272.834 48.9289C274.732 49.8359 276.124 53.8078 272.75 55.4973C269.809 56.9734 257.823 55.2424 256.031 54.0627C254.24 52.883 254.15 49.8537 256.409 48.3835" fill="#0073E4"/>
<path d="M309.159 62.9322C308.147 61.3182 304.327 56.6008 294.268 56.07C292.189 55.9563 289.205 58.5614 291.482 61.4319C293.466 63.9341 304.909 67.8554 307.022 67.6983C309.136 67.5412 310.526 65.1203 309.164 62.9322" fill="#0073E4"/>
<path d="M266.723 83.255C266.723 83.255 285.288 88.036 283.077 93.7385C280.867 99.4411 268.054 106.18 261.355 104.452C252.427 102.148 246.579 90.628 247.363 84.5395C248.147 78.4511 266.706 83.255 266.706 83.255" fill="#0073E4"/>
<path d="M289.615 106.196C281.194 112.387 269.018 120.316 246.863 107.63C245.588 106.899 245.339 109.175 255.46 118.81C261.417 124.48 267.568 127.874 272.336 126.717C277.569 125.449 280.695 120.903 283.312 117.63C290.006 109.258 292.203 104.286 289.609 106.191" fill="#143860"/>
<path d="M284.525 78.5354C283.513 83.0943 286.354 87.6128 290.863 88.6343C290.88 88.6343 290.897 88.6401 290.92 88.6458C295.458 89.6846 299.979 86.8338 301.042 82.2576C302.053 77.6986 299.213 73.1801 294.703 72.1587C294.686 72.1587 294.669 72.1529 294.646 72.1471C290.109 71.1084 285.588 73.9591 284.525 78.5354Z" fill="white"/>
<path d="M249.613 69.024C248.606 73.5836 251.449 78.1027 255.967 79.1185C255.979 79.1185 255.99 79.1185 256.002 79.1243C260.543 80.1632 265.067 77.3121 266.131 72.7352C267.144 68.1756 264.301 63.6564 259.788 62.6348C259.771 62.6348 259.754 62.629 259.731 62.6233C255.189 61.5902 250.671 64.4471 249.613 69.024Z" fill="white"/>
<path d="M254.185 185.854L252.421 186.155C251.399 186.333 250.421 185.659 250.236 184.645L248.36 173.026C248.18 172.018 250.893 171.573 250.893 171.573C252.23 171.216 253.061 171.272 253.241 172.28L255.729 183.732C255.904 184.74 255.224 185.698 254.202 185.876H254.19" fill="#F4901E"/>
<path d="M199.485 163.062L199.586 163.388C199.989 164.689 199.195 166.049 197.824 166.429C197.819 166.429 197.813 166.429 197.802 166.434L191.7 168.099C190.312 168.479 188.861 167.735 188.442 166.429L188.34 166.102C187.932 164.802 187.773 163.897 189.19 163.517L196.572 160.862C197.966 160.482 199.054 161.735 199.462 163.041" fill="#F4901E"/>
<path d="M209.63 261.668C220.797 263.145 249.893 261.752 249.893 261.752C255.877 261.098 261.585 258.369 261.003 250.436C259.535 230.302 255.476 198.513 248.544 165.817C246.777 157.478 244.846 152.759 233.629 155.003C221.553 157.421 201.874 161.086 191.035 165.45C184.3 168.162 182.877 170.92 184.345 179.501C187.935 200.442 193.626 234.491 200.208 254.772C201.868 259.88 204.329 260.974 209.625 261.662" fill="#FFBC00"/>
<path d="M236.646 186.052L240.404 185.534C242.9 184.949 244.499 182.502 244.039 179.976L241.296 165.399C240.847 163.036 238.581 161.483 236.226 161.927C236.097 161.95 235.962 161.984 235.833 162.023L231.559 163.148C229.091 163.812 227.857 165.809 228.362 168.291L231.306 182.676C231.794 185.05 234.105 186.581 236.472 186.091C236.528 186.08 236.59 186.069 236.646 186.052Z" fill="#F4901E"/>
<path d="M229.971 166.149C228.714 168.034 229.311 170.521 231.296 171.71C231.405 171.776 231.52 171.835 231.635 171.89C233.929 173.025 236.764 172.319 238.169 170.26C239.431 168.381 238.84 165.894 236.855 164.699C236.723 164.617 236.586 164.547 236.448 164.482C234.147 163.374 231.33 164.107 229.948 166.171" fill="#333333"/>
<path d="M232.575 180.372C233.191 182.937 235.72 184.526 238.267 183.949C240.784 183.343 242.394 180.843 241.923 178.266C241.319 175.671 238.749 174.065 236.185 174.677H236.174C233.674 175.306 232.092 177.801 232.569 180.366" fill="#333333"/>
<path d="M209.211 206.711C209.156 212.26 213.611 216.805 219.16 216.861C224.709 216.916 229.254 212.461 229.31 206.912C229.366 201.362 224.91 196.818 219.361 196.762C219.328 196.762 219.294 196.762 219.261 196.762C213.739 196.739 209.245 201.189 209.211 206.711Z" fill="#F4901E"/>
<path d="M219.141 239.227C212.457 228.951 217.796 224.401 217.796 224.401C217.796 224.401 208.15 215.211 212.418 207.168C216.039 200.346 222.334 203.245 222.334 203.245C217.396 198.159 212.998 192.625 219.873 186.504C227.937 179.326 242.566 190.347 253.096 198.537L251.615 189.03C250.134 177.393 260.061 175.635 263.879 177.308C269.032 179.569 271.763 184.192 272.405 193.97C272.619 196.909 273.536 199.752 275.079 202.256C276.864 205.201 278.373 208.304 279.584 211.526C292.592 223.395 328.359 220.496 336.181 212.735C338.135 210.797 338.872 208.112 336.704 202.663C330.86 187.968 323.241 147.041 323.241 147.041C373.824 197.78 391.471 218.89 378.706 246.331C364.983 275.841 313.922 286.241 259.741 268.374C259.741 268.363 233.016 260.558 219.141 239.227Z" fill="url(#paint0_linear_157_2993)"/>
<path d="M218.734 203.107C219.655 203.151 220.558 203.346 221.412 203.681C220.692 202.961 229.349 210.356 235.245 213.279C236.188 213.745 235.357 215.114 234.414 214.649C228.529 211.731 223.219 207.822 218.74 203.107" fill="#66B1FF"/>
<path d="M216.623 225.611C216.889 225.11 217.235 224.66 217.644 224.266C222.958 230.102 229.277 234.954 236.299 238.606C237.251 239.102 236.406 240.526 235.448 240.03C228.369 236.35 222 231.475 216.617 225.616" fill="#66B1FF"/>
<path d="M197.697 191.03C201.184 197.437 197.017 203.222 192.422 207.205C196.865 205.018 201.921 204.041 204.272 208.962C207.478 215.679 205.121 220.911 197.754 226.611C201.021 224.979 204.958 224.295 206.949 228.764C211.87 239.815 200.116 248.402 200.116 248.402C198.771 254.052 193.58 256.024 189.092 256.001C174.232 255.939 170.031 239.911 170.071 224.572C170.116 207.561 173.355 200.764 175.622 196.951C177.961 192.996 185.414 187.245 191.37 187.245C194.036 187.149 196.51 188.629 197.697 191.03Z" fill="url(#paint1_linear_157_2993)"/>
<path d="M186.211 210.087C189.266 207.249 192.744 204.898 196.516 203.107C195.448 204.455 194.246 205.696 192.927 206.811C193.239 206.661 189.283 209.466 187.257 211.356C186.484 212.077 185.438 210.802 186.206 210.104" fill="#66B1FF"/>
<path d="M190.789 229.113C193.329 228.517 195.78 227.614 198.083 226.437C199.243 225.862 200.502 225.483 201.804 225.322C198.737 227.858 195.066 229.663 191.103 230.586C190.086 230.824 189.778 229.331 190.789 229.098" fill="#66B1FF"/>
<path d="M280.085 118.576C280.085 118.576 266.087 117.407 262.137 123.183C261.684 123.85 265.607 126.256 270.098 125.834C271.368 125.714 274.605 124.597 277.075 122.077" fill="#ED7865"/>
<mask id="mask0_157_2993" style="mask-type:luminance" maskUnits="userSpaceOnUse" x="284" y="71" width="18" height="18">
<path d="M284.525 78.5354C283.513 83.0943 286.354 87.6128 290.863 88.6343C290.88 88.6343 290.897 88.6401 290.92 88.6458C295.458 89.6846 299.979 86.8338 301.042 82.2576C302.053 77.6986 299.213 73.1801 294.703 72.1587C294.686 72.1587 294.669 72.1529 294.646 72.1471C290.109 71.1084 285.588 73.9591 284.525 78.5354Z" fill="white"/>
</mask>
<g mask="url(#mask0_157_2993)">
<path d="M298.073 82.5112C298.073 86.0147 295.23 88.8584 291.726 88.8584C288.223 88.8584 285.379 86.0147 285.379 82.5112C285.379 79.0077 288.223 76.1641 291.726 76.1641C295.23 76.1641 298.073 79.0077 298.073 82.5112Z" fill="#333333"/>
</g>
<mask id="mask1_157_2993" style="mask-type:luminance" maskUnits="userSpaceOnUse" x="249" y="62" width="18" height="18">
<path d="M249.613 69.024C248.606 73.5836 251.449 78.1027 255.967 79.1185C255.979 79.1185 255.99 79.1185 256.002 79.1243C260.543 80.1632 265.067 77.3121 266.131 72.7352C267.144 68.1756 264.301 63.6564 259.788 62.6348C259.771 62.6348 259.754 62.629 259.731 62.6233C255.189 61.5902 250.671 64.4471 249.613 69.024Z" fill="white"/>
</mask>
<g mask="url(#mask1_157_2993)">
<path d="M263.16 72.9917C263.16 76.4967 260.554 79.3389 257.342 79.3389C254.129 79.3389 251.523 76.4967 251.523 72.9917C251.523 69.4867 254.129 66.6445 257.342 66.6445C260.554 66.6445 263.16 69.4867 263.16 72.9917Z" fill="#333333"/>
</g>
<path d="M300.19 90.3573C300.19 90.3573 292.779 84.1716 281.148 83.5703V87.412L297.929 95.2068L300.19 90.3573Z" fill="#66B1FF"/>
<path d="M266.337 79.8644C266.337 79.8644 257.573 74.5679 245.18 76.6483L247.703 80.5743L265.695 81.4534L266.337 79.8644Z" fill="#66B1FF"/>
</g>
</g>
<path d="M167.754 138.765L164.728 152.513L162.646 161.826L153.385 159.532L139.737 156.101C134.274 154.747 130.9 149.292 132.129 143.797C133.301 138.337 138.689 135.003 144.152 136.357L147.393 137.16L148.122 133.901C149.351 128.406 154.739 125.072 160.146 126.461C165.609 127.815 168.983 133.27 167.754 138.765Z" fill="#FF0199"/>
<path d="M197.985 112.675L192.121 116.209L188.137 118.591L185.847 114.555L182.49 108.589C181.139 106.208 181.936 103.192 184.287 101.786C186.606 100.372 189.586 101.158 190.936 103.54L191.738 104.952L193.132 104.119C195.483 102.713 198.462 103.499 199.782 105.872C201.133 108.254 200.336 111.27 197.985 112.675Z" fill="#FF0199"/>
<path d="M154.313 90.9568L152.093 95.1684L150.579 98.0184L147.765 96.4395L143.622 94.0965C141.962 93.1649 141.352 91.0834 142.245 89.4018C143.117 87.7266 145.173 87.1228 146.833 88.0544L147.818 88.607L148.348 87.6095C149.242 85.9279 151.297 85.3241 152.936 86.2621C154.596 87.1937 155.207 89.2751 154.313 90.9568Z" fill="#FF0199"/>
<path d="M16.8898 227.32L48.9863 239.695L70.7729 248.01L78.3664 225.954L89.4577 193.381C93.9381 180.368 87.2679 166.094 74.4131 161.188C61.7062 156.213 47.7507 162.739 43.2702 175.753L40.6127 183.472L32.9881 180.562C20.1334 175.656 6.17784 182.183 1.84523 195.127C-2.63519 208.141 4.03508 222.414 16.8898 227.32Z" fill="#FF0199"/>
<defs>
<linearGradient id="paint0_linear_157_2993" x1="231.141" y1="260.179" x2="362.723" y2="184.5" gradientUnits="userSpaceOnUse">
<stop stop-color="#0F8AEF"/>
<stop offset="0.37" stop-color="#3D8AE7"/>
<stop offset="0.7" stop-color="#66B1FF"/>
</linearGradient>
<linearGradient id="paint1_linear_157_2993" x1="208.153" y1="221.623" x2="170.071" y2="221.623" gradientUnits="userSpaceOnUse">
<stop stop-color="#0F8AEF"/>
<stop offset="0.58" stop-color="#408DE9"/>
<stop offset="0.73" stop-color="#4390EA"/>
<stop offset="0.85" stop-color="#4D99F0"/>
<stop offset="0.96" stop-color="#5EAAFA"/>
<stop offset="1" stop-color="#66B1FF"/>
</linearGradient>
<clipPath id="clip0_157_2993">
<rect x="162" width="189" height="228" rx="18" fill="white"/>
</clipPath>
<clipPath id="clip1_157_2993">
<path d="M104.484 27.5039H383.759V236.96H129.873C115.851 236.96 104.484 225.593 104.484 211.572V27.5039Z" fill="white"/>
</clipPath>
</defs>
</svg>
