<svg width="37" height="37" viewBox="0 0 37 37" fill="none" xmlns="http://www.w3.org/2000/svg">
<path d="M21.56 33.64C21.56 34.3867 21.2933 35.0533 20.76 35.64C20.2267 36.2267 19.48 36.52 18.52 36.52C17.6133 36.52 16.8933 36.2267 16.36 35.64C15.8267 35.0533 15.56 34.3867 15.56 33.64V21H3.08C2.33333 21 1.72 20.76 1.24 20.28C0.76 19.7467 0.52 19.0533 0.52 18.2C0.52 17.3467 0.76 16.68 1.24 16.2C1.72 15.6667 2.33333 15.4 3.08 15.4H15.56V2.92C15.56 2.17333 15.8267 1.53333 16.36 0.999996C16.8933 0.413331 17.6133 0.119998 18.52 0.119998C19.48 0.119998 20.2267 0.413331 20.76 0.999996C21.2933 1.53333 21.56 2.17333 21.56 2.92V15.4H34.28C35.0267 15.4 35.64 15.6667 36.12 16.2C36.6 16.68 36.84 17.3467 36.84 18.2C36.84 19.0533 36.6 19.7467 36.12 20.28C35.64 20.76 35.0267 21 34.28 21H21.56V33.64Z" fill="#FF0199"/>
</svg>
