<svg width="159" height="147" viewBox="0 0 159 147" fill="none" xmlns="http://www.w3.org/2000/svg">
<g clip-path="url(#clip0_229_26767)">
<path d="M14.3125 134.477C56.7223 134.155 82.0754 133.148 93.6966 130.88C113.07 131.377 132.665 131.377 157.964 131.377C160.693 132.862 146.524 103.658 145.362 100.181C143.949 95.9519 142.548 91.8161 144.444 87.7789C147.337 81.6193 154.966 73.026 153.252 62.549C151.235 50.1987 143.97 28.9697 143.97 28.9697C152.178 22.3327 151.349 18.4356 151.349 18.4356C146.732 4.77759 135.278 1.17109 131.849 1.95985C128.42 2.74861 125.027 7.91706 125.027 7.91706C110.211 -0.100265 99.3874 0.486111 93.8269 0.486111C73.3829 0.486111 60.464 7.94819 60.464 7.94819C57.2799 1.87163 54.8566 1.87164 54.8566 1.87164C48.8792 1.87164 37.2111 8.903 35.5747 16.7854C34.5689 21.6321 43.2562 28.1913 43.2562 28.1913C40.588 38.9641 31.6141 55.6474 32.5261 64.6091C33.5266 74.4634 39.9314 83.5705 43.4073 88.713C45.3668 91.6137 42.808 95.2462 41.7136 98.5621C40.4421 102.407 15.4746 130.761 14.3229 134.477H14.3125Z" fill="#66B1FF"/>
<path d="M125.1 55.8723C122.728 48.4817 94.8129 49.4395 94.8181 49.6085C94.8129 49.4446 67.6706 50.1667 65.0965 58.09C63.5292 62.9147 64.4115 72.4206 66.8558 78.3208C69.5649 84.8407 85.845 97.9062 96.3231 97.4657C106.422 97.143 122.666 82.8791 124.872 76.1748C126.865 70.1107 126.647 60.7072 125.095 55.8723H125.1Z" fill="white"/>
<path d="M83.2828 45.1593C85.761 41.1723 84.5278 35.9475 80.5284 33.4893C76.529 31.0311 71.2779 32.2705 68.7997 36.2575C66.3215 40.2445 67.5546 45.4693 71.554 47.9274C75.5534 50.3856 80.8045 49.1462 83.2828 45.1593Z" fill="white"/>
<path d="M120.3 43.1046C122.105 38.7711 120.049 33.8087 115.709 32.0208C111.368 30.2329 106.386 32.2966 104.581 36.6301C102.776 40.9636 104.831 45.9259 109.172 47.7138C113.513 49.5017 118.495 47.438 120.3 43.1046Z" fill="white"/>
<path d="M66.4517 23.0445C67.8591 21.7153 72.8139 18.0562 82.6294 20.0677C84.6647 20.4872 86.8203 23.7875 83.8589 26.0264C81.2742 27.9823 69.2038 28.9425 67.2208 28.2552C65.1855 27.5476 64.5472 24.8438 66.4517 23.0395V23.0445Z" fill="#0073E4"/>
<path d="M122.289 21.8441C120.941 20.361 116.155 16.218 106.188 17.8516C104.124 18.1901 101.782 21.5862 104.64 24.1171C107.136 26.3256 119.214 27.9699 121.246 27.3412C123.331 26.6964 124.116 23.8538 122.289 21.8441Z" fill="#0073E4"/>
<path d="M95.3126 52.4766C95.3126 52.4766 77.6594 52.4766 78.3312 58.0281C78.9978 63.5796 88.9407 72.4766 95.3126 72.4766C103.803 72.4766 111.627 63.5796 112.294 58.0281C112.961 52.4766 95.3126 52.4766 95.3126 52.4766Z" fill="#0073E4"/>
<path d="M77.5738 77.3763C79.7696 79.4823 82.4716 81.2133 85.1892 82.5643C90.5985 85.2559 96.8397 86.4116 102.724 84.6035C107.178 83.2372 110.97 80.3863 114.075 76.9859C114.835 76.1538 113.595 74.921 112.835 75.7531C110.18 78.6656 107.013 81.2082 103.272 82.5797C100.368 83.643 97.2737 83.9768 94.2048 83.6019C89.4361 83.0214 84.9309 80.8281 81.0974 78.0132C80.3689 77.479 79.5577 76.8523 78.8189 76.1435C78.0078 75.3627 76.7627 76.5955 77.579 77.3763H77.5738Z" fill="#0073E4"/>
<path d="M102.312 44.4766L123.313 46.6601L122.982 51.4766L104.066 47.3633L102.312 44.4766Z" fill="#66B1FF"/>
<path d="M65.3125 47.2715L85.6736 43.4766L86.3125 46.2756L77.3125 50.4766H67.4982L65.3125 47.2715Z" fill="#66B1FF"/>
</g>
<path d="M6.56785 112.476C-4.81893 120.438 1.57171 143.733 8.17206 143.907C16.9533 144.138 17.2574 137.345 14.8406 129.483C14.8406 129.483 17.4985 147.648 30.3532 146.417C42.8409 145.222 34.5158 127.468 34.5158 127.468C34.5158 127.468 38.2956 141.433 44.8016 141.828C52.7598 142.317 55.6275 133.472 51.2971 120.075C46.1699 104.204 26.7516 98.3579 6.56785 112.471V112.476Z" fill="url(#paint0_linear_229_26767)"/>
<path d="M118.79 108.738C131.239 114.811 123.139 136.196 116.946 138.478C111.673 140.42 106.862 136.814 108.112 128.855C108.112 128.855 107.129 141.363 96.0938 141.476C86.9964 141.569 87.7055 131.013 87.7055 131.013C87.7055 131.013 85.3209 140.904 78.813 140.42C72.2053 139.925 69.059 131.951 73.1297 120.164C78.4663 104.694 96.7241 97.9708 118.79 108.738Z" fill="url(#paint1_linear_229_26767)"/>
<path d="M77.3605 43.9111C74.7996 44.3713 67.4924 40.1605 70.8799 36.3097C73.3 33.5546 75.6855 37.4023 75.6855 37.4023C75.6855 37.4023 76.0863 33.4638 78.9948 34.0618C83.5563 34.9979 81.5119 43.166 77.3605 43.9143V43.9111Z" fill="#FF0199"/>
<path d="M111.906 43.6587C109.405 43.1422 104.289 36.6302 108.785 34.3604C112 32.7387 112.764 37.1155 112.764 37.1155C112.764 37.1155 114.57 33.6748 117.003 35.2809C120.816 37.8042 115.964 44.4978 111.909 43.6587H111.906Z" fill="#FF0199"/>
<defs>
<linearGradient id="paint0_linear_229_26767" x1="29.8703" y1="146.474" x2="25.7059" y2="104.685" gradientUnits="userSpaceOnUse">
<stop stop-color="#0F8AEF"/>
<stop offset="0.47" stop-color="#118BEF"/>
<stop offset="0.69" stop-color="#3199F5"/>
<stop offset="1" stop-color="#66B1FF"/>
</linearGradient>
<linearGradient id="paint1_linear_229_26767" x1="108.011" y1="141.061" x2="106.24" y2="103.195" gradientUnits="userSpaceOnUse">
<stop stop-color="#0F8AEF"/>
<stop offset="0.47" stop-color="#118BEF"/>
<stop offset="0.69" stop-color="#3199F5"/>
<stop offset="1" stop-color="#66B1FF"/>
</linearGradient>
<clipPath id="clip0_229_26767">
<rect width="144" height="131" fill="white" transform="translate(14.3125 0.476562)"/>
</clipPath>
</defs>
</svg>
